<svg xmlns="http://www.w3.org/2000/svg" width="204" height="148" viewBox="0 0 204 148">
  <g fill="none" fill-rule="evenodd" transform="translate(2 -2)">
    <path fill="#1C2B3B" fill-rule="nonzero" d="M183.87,103.37 L105.8,148.73 C103.01539,150.337695 99.5846097,150.337695 96.8,148.73 L5.17,96.43 C4.28385213,95.9090536 3.73969385,94.9579315 3.73969385,93.93 C3.73969385,92.9020685 4.28385213,91.9509464 5.17,91.43 L88.78,42.79 L183.84,97.07 C184.967067,97.7154616 185.664822,98.9125595 185.671049,100.211352 C185.677192,101.510145 184.990869,102.713834 183.87,103.37 Z"/>
    <path fill="#FFF" fill-rule="nonzero" d="M69,44.76 L50.8,55.35 L22.19,72 C22.19,72 14.4,58.86 7.52,57.63 L90.68,7.35 C90.68,7.35 106.68,7.44 110.1,20.89 L69,44.76 Z"/>
    <path fill="#FFF" fill-rule="nonzero" d="M7.52,57.63 L55.63,29.68 L91.57,8.79 L91.57,8.79 C93.79,6.88 97.21,6.79 101.03,9.01 C105.2,11.42 108.86,15.95 111.03,20.89"/>
    <path fill="#FFF" fill-rule="nonzero" d="M94.76,31.25 C96.4098626,33.5412917 98.5392756,35.4454784 101,36.83 L188.65,86.83 C188.975065,87.0201153 189.17486,87.3684216 189.17486,87.745 C189.17486,88.1215784 188.975065,88.4698847 188.65,88.66 L102.77,138.57 C102.442035,138.759351 102.037965,138.759351 101.71,138.57 L13,87.72 L13,87.72 C6.3,83.87 0.9,74.52 0.919944624,66.85 C0.94,59.18 6.37,56.08 13.05,59.94 C17.26,62.37 20.96,66.94 23.11,71.94 L111,20.89"/>
    <polygon fill="#E3E8E8" fill-rule="nonzero" points="170.67 87.73 101.27 128.19 32.78 89.09 102.19 48.62"/>
    <path fill="#DCE0E0" fill-rule="nonzero" d="M22.84,68.84 L87.6,36.36 C89.7216545,39.241685 92.3188225,41.7407828 95.28,43.75 L171.28,87.11 L101.28,128.2 L19.91,81.87 L19.91,81.87 C17.19,80.3 9.49,76.32 8.36,69.09 C7.52,63.72 12.5,58.73 15.23,60.31 C18.2759043,62.6544309 20.8568706,65.5474194 22.84,68.84 Z"/>
    <path stroke="#FFF" d="M151.15 100.77L73.21 56.19C70.2457434 54.1810666 67.6452385 51.6820118 65.52 48.8M126.09 115.7L48.09 71.11C45.1288225 69.1007828 42.5316545 66.601685 40.41 63.72"/>
    <path stroke="#1C2B3B" stroke-linecap="square" stroke-width="3.75" d="M6.6,57.63 L54.7,29.68 L90.64,8.79 L90.64,8.79 C92.86,6.88 96.28,6.79 100.11,9.01 C104.27,11.42 107.94,15.95 110.11,20.89"/>
    <path stroke="#1C2B3B" stroke-linecap="square" stroke-width="4" d="M93.83,31.25 C95.4808126,33.5441291 97.6141492,35.4487721 100.08,36.83 L187.72,86.83 C188.045065,87.0201153 188.24486,87.3684216 188.24486,87.745 C188.24486,88.1215784 188.045065,88.4698847 187.72,88.66 L101.85,138.57 C101.522035,138.759351 101.117965,138.759351 100.79,138.57 L12.05,87.72 L12.05,87.72 C5.37,83.87 0,74.52 0,66.85 C0,59.18 5.45,56.08 12.13,59.94 C16.34,62.37 20.03,66.94 22.19,71.94 L110.1,20.89"/>
    <path stroke="#FFF" d="M40.44 94.32L113.83 51.28M69.42 112.49L143.85 68.84"/>
    <polygon fill="#FFF" fill-rule="nonzero" points="122.94 63.96 121.28 81.88 135.44 81.05 195.24 21.25 199.86 18.67 193.85 7.14 181.95 4.95"/>
    <polygon fill="#DCE0E0" fill-rule="nonzero" points="130.86 71.88 121.28 81.88 135.44 81.05 182.44 34.04 180.68 29.35 189.59 20.44 185.85 16.88"/>
    <path stroke="#1C2B3B" stroke-linecap="square" stroke-width="3.75" d="M175.57,27.17 L130.86,71.88"/>
    <ellipse cx="190.076" cy="13.084" stroke="#1C2B3B" stroke-linecap="square" stroke-width="3.75" rx="6.11" ry="11.49" transform="rotate(-45 190.076 13.084)"/>
    <path stroke="#1C2B3B" stroke-linecap="square" stroke-width="3.75" d="M172 14.93C169.62 17.32 171.32 22.93 175.81 27.38 180.3 31.83 185.87 33.57 188.26 31.19M125.61 61.3C123.22 63.68 124.93 69.3 129.42 73.74 133.91 78.18 139.48 79.94 141.86 77.55"/>
    <path stroke="#1C2B3B" stroke-linecap="square" stroke-width="3.75" d="M179.76,7.14 L123.3,63.61 C123.06934,63.8387213 122.921544,64.1378332 122.88,64.46 L120.47,82.62 C120.4603,82.7048215 120.489828,82.7894343 120.550197,82.849803 C120.610566,82.9101718 120.695178,82.9397001 120.78,82.93 L138.71,80.29 C139.025512,80.2456768 139.317416,80.0979665 139.54,79.87 L196,23.4"/>
  </g>
</svg>
