<svg xmlns="http://www.w3.org/2000/svg" width="287" height="123" viewBox="0 0 287 123">
  <g fill="none">
    <g fill="#16202D" opacity=".1" transform="translate(0 7.475)">
      <path d="M30.2605201,1.68530387 L7.90437352,1.68530387 L7.90437352,1.92994475 L7.66690307,1.92994475 L7.66690307,2.16779006 L7.42264775,2.16779006 L7.42264775,2.40563536 L7.1851773,2.40563536 L7.1851773,2.64348066 L6.94770686,2.64348066 L6.94770686,2.88812155 L6.70345154,2.88812155 L6.70345154,3.12596685 L6.46598109,3.12596685 L6.46598109,3.39779006 L6.22851064,3.39779006 L6.22851064,3.64243094 L5.98425532,3.64243094 L5.98425532,3.88027624 L5.74678487,3.88027624 L5.74678487,4.07734807 L5.50931442,4.07734807 L5.50931442,4.31519337 L5.27184397,4.31519337 L5.27184397,4.55983425 L5.02758865,4.55983425 L5.02758865,4.79767956 L4.7901182,4.79767956 L4.7901182,5.03552486 L4.55264775,5.03552486 L4.55264775,5.28016575 L4.30839243,5.28016575 L4.30839243,5.51801105 L4.07092199,5.51801105 L4.07092199,5.75585635 L3.83345154,5.75585635 L3.83345154,6.00049724 L3.58919622,6.00049724 L3.58919622,6.23834254 L3.35172577,6.23834254 L3.35172577,6.47618785 L3.11425532,6.47618785 L3.11425532,6.71403315 L2.87678487,6.71403315 L2.87678487,6.95867403 L2.63252955,6.95867403 L2.63252955,7.19651934 L2.3950591,7.19651934 L2.3950591,7.47513812 L2.15758865,7.47513812 L2.15758865,7.71977901 L1.91333333,7.71977901 L1.91333333,7.95762431 L1.67586288,7.95762431 L1.67586288,8.15469613 L1.43839243,8.15469613 L1.43839243,8.39933702 L1.19413712,8.39933702 L1.19413712,8.63718232 L0.956666667,8.63718232 L0.956666667,8.87502762 L0.719196217,8.87502762 L0.719196217,9.11287293 L0.481725768,9.11287293 L0.481725768,9.35751381 L0.237470449,9.35751381 L0.237470449,9.59535912 L0,9.59535912 L0,114.403591 L22.3900709,114.403591 C30.8100946,114.403591 36.841844,111.882431 40.96026,107.608011 L41.1977305,107.370166 L41.4419858,107.13232 L41.6794563,106.88768 C41.7608747,106.806133 41.8422931,106.731381 41.9169267,106.649834 L42.1543972,106.411989 L42.3986525,106.167348 L42.6361229,105.929503 L42.8735934,105.691657 L43.1178487,105.447017 L43.3553191,105.209171 C43.4367376,105.127624 43.518156,105.052873 43.5927896,104.971326 L43.8370449,104.733481 L44.0745154,104.48884 C44.1559338,104.407293 44.2373522,104.332541 44.3119858,104.250994 L44.5494563,104.013149 L44.7937116,103.768508 C44.87513,103.693757 44.9565485,103.61221 45.031182,103.530663 L45.2686525,103.292818 L45.5129078,103.048177 L45.7503783,102.810331 C45.8317967,102.728785 45.9132151,102.654033 45.9878487,102.572486 L46.232104,102.334641 L46.4695745,102.09 C46.5509929,102.008453 46.6324113,101.933702 46.7070449,101.852155 L46.9445154,101.614309 L47.1887707,101.369669 L47.4262411,101.131823 C47.5076596,101.050276 47.589078,100.975525 47.6637116,100.893978 L47.9079669,100.649337 L48.1454374,100.411492 C48.2268558,100.329945 48.3082742,100.255193 48.3829078,100.173646 L48.6271631,99.9358011 C54.0143499,94.5401105 56.2194326,86.2359116 56.2194326,76.6201657 L56.2194326,31.5382873 C56.1855083,14.7464088 49.1970922,1.68530387 30.2605201,1.68530387 Z M29.1749409,95.1381215 L19.2351064,95.1381215 L19.2351064,20.8012707 L21.2705674,20.8012707 C32.9134043,20.8012707 36.9504019,29.3501105 36.9504019,40.2298343 L36.9504019,83.769116 C37.0329407,87.3135531 36.453047,90.8421986 35.2406147,94.1731492 C33.2885222,94.8391549 31.2369988,95.1655264 29.1749409,95.1381215 Z"/>
      <polygon points="79.933 1.93 79.695 1.93 79.695 2.168 79.451 2.168 79.451 2.406 79.213 2.406 79.213 2.643 78.976 2.643 78.976 2.888 78.738 2.888 78.738 3.126 78.494 3.126 78.494 3.364 78.257 3.364 78.257 3.608 78.019 3.608 78.019 3.846 77.775 3.846 77.775 4.084 77.537 4.084 77.537 4.322 77.3 4.322 77.3 4.567 77.056 4.567 77.056 4.804 76.818 4.804 76.818 5.042 76.581 5.042 76.581 5.287 76.343 5.287 76.343 5.525 76.099 5.525 76.099 5.763 75.862 5.763 75.862 6.007 75.624 6.007 75.624 6.245 75.38 6.245 75.38 6.483 75.142 6.483 75.142 6.721 74.905 6.721 74.905 6.965 74.661 6.965 74.661 7.203 74.423 7.203 74.423 7.441 74.186 7.441 74.186 7.686 73.942 7.686 73.942 7.924 73.704 7.924 73.704 8.161 73.467 8.161 73.467 8.406 73.229 8.406 73.229 8.644 72.985 8.644 72.985 8.882 72.747 8.882 72.747 9.126 72.51 9.126 72.51 9.364 72.266 9.364 72.266 9.602 72.028 9.602 72.028 114.404 113.945 114.404 113.945 114.166 114.183 114.166 114.183 113.921 114.42 113.921 114.42 113.683 114.664 113.683 114.664 113.445 114.902 113.445 114.902 113.201 115.139 113.201 115.139 112.963 115.383 112.963 115.383 112.725 115.621 112.725 115.621 112.48 115.858 112.48 115.858 112.243 116.096 112.243 116.096 112.005 116.34 112.005 116.34 111.767 116.578 111.767 116.578 111.522 116.815 111.522 116.815 111.284 117.059 111.284 117.059 111.047 117.297 111.047 117.297 110.802 117.534 110.802 117.534 110.564 117.779 110.564 117.779 110.326 118.016 110.326 118.016 110.082 118.253 110.082 118.253 109.844 118.491 109.844 118.491 109.606 118.735 109.606 118.735 109.368 118.973 109.368 118.973 109.123 119.21 109.123 119.21 108.886 119.454 108.886 119.454 108.648 119.692 108.648 119.692 108.403 119.929 108.403 119.929 108.165 120.174 108.165 120.174 107.927 120.411 107.927 120.411 107.683 120.649 107.683 120.649 107.445 120.886 107.445 120.886 107.207 121.13 107.207 121.13 106.969 121.368 106.969 121.368 106.725 121.605 106.725 121.605 106.487 121.849 106.487 121.849 95.138 91.107 95.138 91.107 67.915 103.7 67.915 103.7 67.67 103.937 67.67 103.937 67.433 104.175 67.433 104.175 67.195 104.419 67.195 104.419 66.95 104.657 66.95 104.657 66.712 104.894 66.712 104.894 66.474 105.132 66.474 105.132 66.23 105.376 66.23 105.376 65.992 105.613 65.992 105.613 65.754 105.851 65.754 105.851 65.516 106.095 65.516 106.095 65.272 106.332 65.272 106.332 65.034 106.57 65.034 106.57 64.796 106.814 64.796 106.814 64.551 107.052 64.551 107.052 64.313 107.289 64.313 107.289 64.076 107.527 64.076 107.527 63.831 107.771 63.831 107.771 63.593 108.008 63.593 108.008 63.355 108.246 63.355 108.246 63.117 108.49 63.117 108.49 62.873 108.728 62.873 108.728 62.635 108.965 62.635 108.965 62.397 109.209 62.397 109.209 62.152 109.447 62.152 109.447 61.915 109.684 61.915 109.684 61.677 109.922 61.677 109.922 61.432 110.166 61.432 110.166 61.194 110.403 61.194 110.403 60.956 110.641 60.956 110.641 60.712 110.885 60.712 110.885 60.474 111.123 60.474 111.123 60.236 111.36 60.236 111.36 59.998 111.604 59.998 111.604 48.643 91.107 48.643 91.107 20.801 113.945 20.801 113.945 20.557 114.183 20.557 114.183 20.319 114.42 20.319 114.42 20.081 114.664 20.081 114.664 19.836 114.902 19.836 114.902 19.598 115.139 19.598 115.139 19.361 115.383 19.361 115.383 19.116 115.621 19.116 115.621 18.878 115.858 18.878 115.858 18.64 116.096 18.64 116.096 18.402 116.34 18.402 116.34 18.158 116.578 18.158 116.578 17.92 116.815 17.92 116.815 17.682 117.059 17.682 117.059 17.437 117.297 17.437 117.297 17.2 117.534 17.2 117.534 16.962 117.779 16.962 117.779 16.717 118.016 16.717 118.016 16.479 118.253 16.479 118.253 16.241 118.491 16.241 118.491 16.004 118.735 16.004 118.735 15.759 118.973 15.759 118.973 15.521 119.21 15.521 119.21 15.283 119.454 15.283 119.454 15.039 119.692 15.039 119.692 14.801 119.929 14.801 119.929 14.563 120.174 14.563 120.174 14.325 120.411 14.325 120.411 14.08 120.649 14.08 120.649 13.843 120.886 13.843 120.886 13.605 121.13 13.605 121.13 13.36 121.368 13.36 121.368 13.122 121.605 13.122 121.605 12.884 121.849 12.884 121.849 1.685 79.933 1.685"/>
      <polygon points="194.278 1.93 194.102 1.93 194.04 2.168 193.864 2.168 193.796 2.406 193.62 2.406 193.559 2.643 193.382 2.643 193.321 2.888 193.145 2.888 193.084 3.126 192.901 3.126 192.84 3.364 192.663 3.364 192.602 3.608 192.426 3.608 192.365 3.846 192.181 3.846 192.12 4.084 191.944 4.084 191.883 4.322 191.707 4.322 191.645 4.567 191.469 4.567 191.408 4.804 191.225 4.804 191.164 5.042 190.987 5.042 190.926 5.287 190.75 5.287 190.689 5.525 190.512 5.525 190.445 5.763 190.268 5.763 190.207 6.007 190.031 6.007 189.97 6.245 189.793 6.245 189.725 6.483 189.549 6.483 189.488 6.721 189.311 6.721 189.25 6.965 189.074 6.965 189.006 7.203 188.83 7.203 188.769 7.441 188.592 7.441 188.531 7.686 188.355 7.686 188.294 7.924 188.111 7.924 188.049 8.161 187.873 8.161 187.812 8.406 187.636 8.406 187.575 8.644 187.398 8.644 187.33 8.882 187.154 8.882 187.093 9.126 186.916 9.126 186.855 9.364 186.679 9.364 186.618 9.602 186.435 9.602 171.861 66.148 155.374 1.685 145.284 1.685 145.284 1.93 145.047 1.93 145.047 2.168 144.803 2.168 144.803 2.406 144.565 2.406 144.565 2.643 144.328 2.643 144.328 2.888 144.09 2.888 144.09 3.126 143.846 3.126 143.846 3.364 143.609 3.364 143.609 3.608 143.371 3.608 143.371 3.846 143.127 3.846 143.127 4.084 142.889 4.084 142.889 4.322 142.652 4.322 142.652 4.567 142.408 4.567 142.408 4.804 142.17 4.804 142.17 5.042 141.933 5.042 141.933 5.287 141.695 5.287 141.695 5.525 141.451 5.525 141.451 5.763 141.213 5.763 141.213 6.007 140.976 6.007 140.976 6.245 140.732 6.245 140.732 6.483 140.494 6.483 140.494 6.721 140.257 6.721 140.257 6.965 140.013 6.965 140.013 7.203 139.775 7.203 139.775 7.441 139.538 7.441 139.538 7.686 139.3 7.686 139.3 7.924 139.056 7.924 139.056 8.161 138.818 8.161 138.818 8.406 138.581 8.406 138.581 8.644 138.337 8.644 138.337 8.882 138.099 8.882 138.099 9.126 137.862 9.126 137.862 9.364 137.618 9.364 137.618 9.602 137.38 9.602 137.38 114.404 148.867 114.404 148.867 114.166 149.111 114.166 149.111 113.921 149.349 113.921 149.349 113.683 149.586 113.683 149.586 113.445 149.83 113.445 149.83 113.201 150.068 113.201 150.068 112.963 150.305 112.963 150.305 112.725 150.543 112.725 150.543 112.48 150.787 112.48 150.787 112.243 151.024 112.243 151.024 112.005 151.262 112.005 151.262 111.767 151.506 111.767 151.506 111.522 151.744 111.522 151.744 111.284 151.981 111.284 151.981 111.047 152.225 111.047 152.225 110.802 152.463 110.802 152.463 110.564 152.7 110.564 152.7 110.326 152.938 110.326 152.938 110.082 153.182 110.082 153.182 109.844 153.419 109.844 153.419 109.606 153.657 109.606 153.657 109.368 153.901 109.368 153.901 109.123 154.139 109.123 154.139 108.886 154.376 108.886 154.376 108.648 154.614 108.648 154.614 108.403 154.858 108.403 154.858 108.165 155.095 108.165 155.095 107.927 155.333 107.927 155.333 107.683 155.577 107.683 155.577 107.445 155.815 107.445 155.815 107.207 156.052 107.207 156.052 106.969 156.296 106.969 156.296 106.725 156.534 106.725 156.534 106.487 156.771 106.487 156.771 91.924 162.532 114.404 171.691 114.404 171.752 114.166 171.929 114.166 171.99 113.921 172.166 113.921 172.227 113.683 172.41 113.683 172.471 113.445 172.648 113.445 172.709 113.201 172.885 113.201 172.946 112.963 173.13 112.963 173.184 112.725 173.367 112.725 173.428 112.48 173.604 112.48 173.666 112.243 173.849 112.243 173.903 112.005 174.086 112.005 174.147 111.767 174.324 111.767 174.385 111.522 174.568 111.522 174.622 111.284 174.805 111.284 174.866 111.047 175.043 111.047 175.104 110.802 175.28 110.802 175.341 110.564 175.525 110.564 175.586 110.326 175.762 110.326 175.823 110.082 176 110.082 176.061 109.844 176.244 109.844 176.298 109.606 176.481 109.606 176.542 109.368 176.719 109.368 176.78 109.123 176.956 109.123 177.017 108.886 177.2 108.886 177.262 108.648 177.438 108.648 177.499 108.403 177.675 108.403 177.736 108.165 177.92 108.165 177.974 107.927 178.157 107.927 178.218 107.683 178.395 107.683 178.456 107.445 178.639 107.445 178.693 107.207 178.876 107.207 178.937 106.969 179.114 106.969 179.175 106.725 179.358 106.725 179.412 106.487 179.596 106.487 185.2 84.041 185.2 114.404 196.531 114.404 196.531 114.166 196.768 114.166 196.768 113.921 197.005 113.921 197.005 113.683 197.25 113.683 197.25 113.445 197.487 113.445 197.487 113.201 197.725 113.201 197.725 112.963 197.969 112.963 197.969 112.725 198.206 112.725 198.206 112.48 198.444 112.48 198.444 112.243 198.681 112.243 198.681 112.005 198.926 112.005 198.926 111.767 199.163 111.767 199.163 111.522 199.401 111.522 199.401 111.284 199.645 111.284 199.645 111.047 199.882 111.047 199.882 110.802 200.12 110.802 200.12 110.564 200.364 110.564 200.364 110.326 200.601 110.326 200.601 110.082 200.839 110.082 200.839 109.844 201.083 109.844 201.083 109.606 201.321 109.606 201.321 109.368 201.558 109.368 201.558 109.123 201.796 109.123 201.796 108.886 202.04 108.886 202.04 108.648 202.277 108.648 202.277 108.403 202.515 108.403 202.515 108.165 202.759 108.165 202.759 107.927 202.997 107.927 202.997 107.683 203.234 107.683 203.234 107.445 203.471 107.445 203.471 107.207 203.716 107.207 203.716 106.969 203.953 106.969 203.953 106.725 204.191 106.725 204.191 106.487 204.435 106.487 204.435 1.685 194.339 1.685"/>
      <path d="M253.32669.59801105C245.517305.59801105 239.587329 3.24149171 235.394279 7.54309392L235.150024 7.78773481 234.912553 8.02558011 234.675083 8.26342541 234.430827 8.5080663C234.349409 8.58281768 234.274775 8.66436464 234.193357 8.7459116L233.955887 8.98375691 233.718416 9.22160221 233.474161 9.46624309 233.23669 9.7040884 232.99922 9.9419337 232.754965 10.1865746 232.517494 10.4244199C232.436076 10.5059669 232.354657 10.5807182 232.280024 10.6622652L232.035768 10.9069061 231.798298 11.1447514C231.716879 11.2262983 231.635461 11.3010497 231.560827 11.3825967L231.316572 11.6272376 231.079102 11.8650829C230.997683 11.9466298 230.916265 12.0213812 230.841631 12.1029282L230.604161 12.3407735 230.359905 12.5854144C230.278487 12.6601657 230.203853 12.7417127 230.122435 12.8232597L229.884965 13.061105 229.640709 13.3057459 229.403239 13.5435912 229.165768 13.7814365 228.921513 14.0260773 228.684043 14.2639227 228.446572 14.501768 228.209102 14.7396133 227.964846 14.9842541 227.727376 15.2220994C222.251986 20.6585635 219.653381 28.9083978 219.653381 37.8989503L219.653381 85.9437017C219.653381 102.429779 227.415272 115.334586 245.435887 115.334586 253.530236 115.334586 259.460213 112.86779 263.571844 108.681713L263.816099 108.437072 264.05357 108.199227 264.29104 107.961381 264.528511 107.71674 264.772766 107.478895 265.010236 107.24105 265.247707 106.996409 265.491962 106.758564 265.729433 106.520718 265.966903 106.282873 266.211158 106.038232 266.448629 105.800387 266.686099 105.562541 266.92357 105.317901 267.167825 105.080055 267.405296 104.84221 267.642766 104.597569 267.887021 104.359724 268.124492 104.121878 268.361962 103.884033 268.606217 103.639392 268.843688 103.401547 269.081158 103.163702 269.318629 102.919061 269.562884 102.681215 269.800355 102.44337 270.037825 102.205525 270.28208 101.960884 270.519551 101.723039 270.757021 101.485193 271.001277 101.240552 271.238747 101.002707C276.605579 95.7089503 278.953144 87.5474586 278.953144 78.0336464L278.953144 29.9820994C278.939574 14.128011 271.177683.59801105 253.32669.59801105zM253.32669 96.069116C242.613381 96.069116 238.888487 86.7387845 238.888487 76.7832597L238.888487 31.3887845C238.824728 27.7599868 239.462938 24.1531393 240.767896 20.7672928 242.267682 20.2630964 243.840329 20.0105246 245.422317 20.0195336 256.278109 20.0195336 259.548416 29.5335912 259.548416 39.4551381L259.548416 85.1690055C259.625966 88.630879 259.102536 92.0799353 258.001466 95.3623757 256.487225 95.830613 254.911455 96.069116 253.32669 96.069116L253.32669 96.069116zM30.423357 6.04127072L12.4163121 6.04127072 12.4163121 102.287072 30.423357 102.287072C46.4152955 102.287072 51.9992435 91.4141436 51.9992435 76.7900552L51.9992435 31.6945856C51.9992435 17.3898895 46.2592435 6.04127072 30.423357 6.04127072zM49.3599291 76.0357459C49.3599291 89.4094475 44.0813002 99.6707735 29.3377778 99.6707735L15.0895508 99.6707735 15.0895508 8.83425414 29.3377778 8.83425414C44.1016548 8.83425414 49.3599291 19.1023757 49.3599291 32.4692818L49.3599291 76.0357459z"/>
      <polygon points="84.444 6.041 84.444 102.287 117.663 102.287 117.663 99.644 87.084 99.644 87.084 55.799 107.574 55.799 107.574 53.155 87.084 53.155 87.084 8.841 117.663 8.841 117.663 6.041"/>
      <polygon points="176.495 102.287 197.453 19.102 197.453 102.287 200.405 102.287 200.405 6.041 197.765 6.041 174.941 95.138 152.28 6.041 149.796 6.041 149.796 102.287 152.592 102.287 152.592 19.259 173.856 102.287"/>
      <path d="M253.489527,4.79767956 C238.73922,4.79767956 232.042553,16.6151934 232.042553,30.1383978 L232.042553,78.1899448 C232.042553,92.1820442 238.406761,103.374365 253.469173,103.374365 C268.836903,103.374365 274.740003,92.5014365 274.740003,78.1899448 L274.740003,30.1383978 C274.787234,16.6151934 268.395887,4.79767956 253.489527,4.79767956 Z M271.964728,77.408453 C271.964728,89.8511602 267.459574,100.418287 253.489527,100.418287 C239.51948,100.418287 234.858274,89.2259669 234.858274,76.939558 L234.858274,31.5450829 C234.858274,19.7207735 239.831584,7.90325967 253.489527,7.90325967 C267.615626,7.90325967 271.964728,19.4149724 271.964728,31.6877901 L271.964728,77.408453 Z"/>
    </g>
    <path fill="#16202D" d="M38.3209456,1.08729282 L15.9647991,1.08729282 L15.9647991,1.35911602 L15.7273286,1.35911602 L15.7273286,1.60375691 L15.4830733,1.60375691 L15.4830733,1.84160221 L15.2456028,1.84160221 L15.2456028,2.03867403 L15.0081324,2.03867403 L15.0081324,2.28331492 L14.7706619,2.28331492 L14.7706619,2.52116022 L14.5264066,2.52116022 L14.5264066,2.75900552 L14.2889362,2.75900552 L14.2889362,2.99685083 L14.0514657,2.99685083 L14.0514657,3.24149171 L13.8072104,3.24149171 L13.8072104,3.47933702 L13.56974,3.47933702 L13.56974,3.71718232 L13.3322695,3.71718232 L13.3322695,3.9618232 L13.0880142,3.9618232 L13.0880142,4.19966851 L12.8505437,4.19966851 L12.8505437,4.43751381 L12.6130733,4.43751381 L12.6130733,4.68895028 L12.3756028,4.68895028 L12.3756028,4.92679558 L12.1313475,4.92679558 L12.1313475,5.16464088 L11.8938771,5.16464088 L11.8938771,5.43646409 L11.6564066,5.43646409 L11.6564066,5.68110497 L11.4121513,5.68110497 L11.4121513,5.91895028 L11.1746809,5.91895028 L11.1746809,6.1160221 L10.9372104,6.1160221 L10.9372104,6.36066298 L10.6929551,6.36066298 L10.6929551,6.59850829 L10.4554846,6.59850829 L10.4554846,6.83635359 L10.2180142,6.83635359 L10.2180142,7.08099448 L9.98054374,7.08099448 L9.98054374,7.31883978 L9.73628842,7.31883978 L9.73628842,7.55668508 L9.49881797,7.55668508 L9.49881797,7.79453039 L9.26134752,7.79453039 L9.26134752,8.03917127 L9.0170922,8.03917127 L9.0170922,8.27701657 L8.77962175,8.27701657 L8.77962175,8.51486188 L8.5421513,8.51486188 L8.5421513,8.75950276 L8.29789598,8.75950276 L8.29789598,8.99734807 L8.06042553,8.99734807 L8.06042553,113.80558 L30.4165721,113.80558 C38.8433806,113.80558 44.8683452,111.28442 48.9867612,107.01 L49.2242317,106.772155 L49.468487,106.527514 L49.7059574,106.289669 L49.9434279,106.051823 L50.1876832,105.813978 L50.4251537,105.569337 L50.6626241,105.331492 L50.9000946,105.093646 L51.1443499,104.849006 C51.2257683,104.774254 51.3071868,104.692707 51.3818203,104.61116 L51.6192908,104.373315 L51.8635461,104.128674 L52.1010165,103.890829 L52.338487,103.652983 L52.5827423,103.415138 L52.8202128,103.170497 C52.9016312,103.08895 52.9830496,103.014199 53.0576832,102.932652 L53.2951537,102.694807 L53.539409,102.450166 C53.6208274,102.375414 53.7022459,102.293867 53.7768794,102.21232 L54.0143499,101.974475 L54.2586052,101.729834 L54.4960757,101.491989 L54.7335461,101.254144 L54.9710165,101.016298 L55.2152719,100.771657 C55.2966903,100.69011 55.3781087,100.615359 55.4527423,100.533812 L55.6902128,100.295967 L55.9344681,100.051326 C56.0158865,99.9765746 56.097305,99.8950276 56.1719385,99.8134807 L56.409409,99.5756354 L56.6536643,99.3309945 C62.0408511,93.9420994 64.2459338,85.631105 64.2459338,76.0221547 L64.2459338,30.9402762 C64.2459338,14.1483978 57.2575177,1.08729282 38.3209456,1.08729282 Z M37.2353664,94.5401105 L27.2955319,94.5401105 L27.2955319,20.1964641 L29.3309929,20.1964641 C40.9738298,20.1964641 45.0108274,28.7520994 45.0108274,39.6318232 L45.0108274,83.171105 C45.0973436,86.7136043 44.517316,90.2407594 43.3010402,93.5683425 C41.3502355,94.2402127 39.2980821,94.5689836 37.2353664,94.5401105 Z"/>
    <polygon fill="#16202D" points="87.993 1.325 87.756 1.325 87.756 1.57 87.518 1.57 87.518 1.808 87.274 1.808 87.274 2.045 87.036 2.045 87.036 2.29 86.799 2.29 86.799 2.528 86.555 2.528 86.555 2.766 86.317 2.766 86.317 3.004 86.08 3.004 86.08 3.248 85.842 3.248 85.842 3.486 85.598 3.486 85.598 3.724 85.36 3.724 85.36 3.969 85.123 3.969 85.123 4.206 84.879 4.206 84.879 4.444 84.641 4.444 84.641 4.682 84.404 4.682 84.404 4.927 84.16 4.927 84.16 5.165 83.922 5.165 83.922 5.402 83.685 5.402 83.685 5.647 83.44 5.647 83.44 5.885 83.203 5.885 83.203 6.123 82.965 6.123 82.965 6.367 82.728 6.367 82.728 6.605 82.484 6.605 82.484 6.843 82.246 6.843 82.246 7.088 82.009 7.088 82.009 7.326 81.764 7.326 81.764 7.563 81.527 7.563 81.527 7.801 81.29 7.801 81.29 8.046 81.045 8.046 81.045 8.284 80.808 8.284 80.808 8.522 80.57 8.522 80.57 8.766 80.333 8.766 80.333 9.004 80.089 9.004 80.089 113.806 122.006 113.806 122.006 113.561 122.243 113.561 122.243 113.323 122.487 113.323 122.487 113.085 122.725 113.085 122.725 112.841 122.962 112.841 122.962 112.603 123.2 112.603 123.2 112.365 123.444 112.365 123.444 112.127 123.681 112.127 123.681 111.882 123.919 111.882 123.919 111.645 124.163 111.645 124.163 111.407 124.401 111.407 124.401 111.162 124.638 111.162 124.638 110.924 124.882 110.924 124.882 110.686 125.12 110.686 125.12 110.442 125.357 110.442 125.357 110.204 125.595 110.204 125.595 109.966 125.839 109.966 125.839 109.728 126.076 109.728 126.076 109.484 126.314 109.484 126.314 109.246 126.558 109.246 126.558 109.008 126.796 109.008 126.796 108.763 127.033 108.763 127.033 108.525 127.277 108.525 127.277 108.288 127.515 108.288 127.515 108.043 127.752 108.043 127.752 107.805 127.99 107.805 127.99 107.567 128.234 107.567 128.234 107.329 128.472 107.329 128.472 107.085 128.709 107.085 128.709 106.847 128.953 106.847 128.953 106.609 129.191 106.609 129.191 106.364 129.428 106.364 129.428 106.127 129.672 106.127 129.672 105.889 129.91 105.889 129.91 94.54 99.168 94.54 99.168 67.31 111.76 67.31 111.76 67.072 111.998 67.072 111.998 66.835 112.235 66.835 112.235 66.59 112.48 66.59 112.48 66.352 112.717 66.352 112.717 66.114 112.955 66.114 112.955 65.876 113.199 65.876 113.199 65.632 113.436 65.632 113.436 65.394 113.674 65.394 113.674 65.156 113.911 65.156 113.911 64.911 114.155 64.911 114.155 64.674 114.393 64.674 114.393 64.436 114.63 64.436 114.63 64.191 114.875 64.191 114.875 63.953 115.112 63.953 115.112 63.715 115.35 63.715 115.35 63.478 115.594 63.478 115.594 63.233 115.831 63.233 115.831 62.995 116.069 62.995 116.069 62.757 116.306 62.757 116.306 62.513 116.55 62.513 116.55 62.275 116.788 62.275 116.788 62.037 117.025 62.037 117.025 61.792 117.27 61.792 117.27 61.554 117.507 61.554 117.507 61.317 117.745 61.317 117.745 61.079 117.989 61.079 117.989 60.834 118.226 60.834 118.226 60.596 118.464 60.596 118.464 60.358 118.701 60.358 118.701 60.114 118.946 60.114 118.946 59.876 119.183 59.876 119.183 59.638 119.42 59.638 119.42 59.393 119.665 59.393 119.665 48.045 99.168 48.045 99.168 20.196 122.006 20.196 122.006 19.959 122.243 19.959 122.243 19.721 122.487 19.721 122.487 19.476 122.725 19.476 122.725 19.238 122.962 19.238 122.962 19 123.2 19 123.2 18.763 123.444 18.763 123.444 18.518 123.681 18.518 123.681 18.28 123.919 18.28 123.919 18.042 124.163 18.042 124.163 17.798 124.401 17.798 124.401 17.56 124.638 17.56 124.638 17.322 124.882 17.322 124.882 17.084 125.12 17.084 125.12 16.839 125.357 16.839 125.357 16.602 125.595 16.602 125.595 16.364 125.839 16.364 125.839 16.119 126.076 16.119 126.076 15.881 126.314 15.881 126.314 15.643 126.558 15.643 126.558 15.399 126.796 15.399 126.796 15.161 127.033 15.161 127.033 14.923 127.277 14.923 127.277 14.685 127.515 14.685 127.515 14.441 127.752 14.441 127.752 14.203 127.99 14.203 127.99 13.965 128.234 13.965 128.234 13.72 128.472 13.72 128.472 13.482 128.709 13.482 128.709 13.245 128.953 13.245 128.953 13.007 129.191 13.007 129.191 12.762 129.428 12.762 129.428 12.524 129.672 12.524 129.672 12.286 129.91 12.286 129.91 1.087 87.993 1.087"/>
    <polygon fill="#16202D" points="202.338 1.325 202.162 1.325 202.101 1.57 201.925 1.57 201.863 1.808 201.68 1.808 201.619 2.045 201.443 2.045 201.382 2.29 201.205 2.29 201.144 2.528 200.968 2.528 200.907 2.766 200.724 2.766 200.663 3.004 200.486 3.004 200.425 3.248 200.249 3.248 200.188 3.486 200.004 3.486 199.943 3.724 199.767 3.724 199.706 3.969 199.529 3.969 199.468 4.206 199.292 4.206 199.224 4.444 199.048 4.444 198.987 4.682 198.81 4.682 198.749 4.927 198.573 4.927 198.505 5.165 198.329 5.165 198.267 5.402 198.091 5.402 198.03 5.647 197.854 5.647 197.793 5.885 197.609 5.885 197.548 6.123 197.372 6.123 197.311 6.367 197.134 6.367 197.073 6.605 196.89 6.605 196.829 6.843 196.653 6.843 196.592 7.088 196.415 7.088 196.354 7.326 196.178 7.326 196.117 7.563 195.933 7.563 195.872 7.801 195.696 7.801 195.635 8.046 195.459 8.046 195.397 8.284 195.214 8.284 195.153 8.522 194.977 8.522 194.916 8.766 194.739 8.766 194.678 9.004 194.502 9.004 179.921 65.55 163.434 1.087 153.345 1.087 153.345 1.325 153.107 1.325 153.107 1.57 152.87 1.57 152.87 1.808 152.626 1.808 152.626 2.045 152.388 2.045 152.388 2.29 152.151 2.29 152.151 2.528 151.906 2.528 151.906 2.766 151.669 2.766 151.669 3.004 151.432 3.004 151.432 3.248 151.187 3.248 151.187 3.486 150.95 3.486 150.95 3.724 150.712 3.724 150.712 3.969 150.475 3.969 150.475 4.206 150.231 4.206 150.231 4.444 149.993 4.444 149.993 4.682 149.756 4.682 149.756 4.927 149.511 4.927 149.511 5.165 149.274 5.165 149.274 5.402 149.036 5.402 149.036 5.647 148.792 5.647 148.792 5.885 148.555 5.885 148.555 6.123 148.317 6.123 148.317 6.367 148.08 6.367 148.08 6.605 147.836 6.605 147.836 6.843 147.598 6.843 147.598 7.088 147.361 7.088 147.361 7.326 147.116 7.326 147.116 7.563 146.879 7.563 146.879 7.801 146.641 7.801 146.641 8.046 146.397 8.046 146.397 8.284 146.16 8.284 146.16 8.522 145.922 8.522 145.922 8.766 145.685 8.766 145.685 9.004 145.44 9.004 145.44 113.806 156.927 113.806 156.927 113.561 157.172 113.561 157.172 113.323 157.409 113.323 157.409 113.085 157.646 113.085 157.646 112.841 157.891 112.841 157.891 112.603 158.128 112.603 158.128 112.365 158.366 112.365 158.366 112.127 158.61 112.127 158.61 111.882 158.847 111.882 158.847 111.645 159.085 111.645 159.085 111.407 159.322 111.407 159.322 111.162 159.567 111.162 159.567 110.924 159.804 110.924 159.804 110.686 160.042 110.686 160.042 110.442 160.286 110.442 160.286 110.204 160.523 110.204 160.523 109.966 160.761 109.966 160.761 109.728 161.005 109.728 161.005 109.484 161.242 109.484 161.242 109.246 161.48 109.246 161.48 109.008 161.717 109.008 161.717 108.763 161.962 108.763 161.962 108.525 162.199 108.525 162.199 108.288 162.437 108.288 162.437 108.043 162.681 108.043 162.681 107.805 162.918 107.805 162.918 107.567 163.156 107.567 163.156 107.329 163.4 107.329 163.4 107.085 163.637 107.085 163.637 106.847 163.875 106.847 163.875 106.609 164.112 106.609 164.112 106.364 164.357 106.364 164.357 106.127 164.594 106.127 164.594 105.889 164.832 105.889 164.832 91.326 170.592 113.806 179.752 113.806 179.813 113.561 179.989 113.561 180.05 113.323 180.233 113.323 180.294 113.085 180.471 113.085 180.532 112.841 180.708 112.841 180.769 112.603 180.946 112.603 181.007 112.365 181.19 112.365 181.251 112.127 181.427 112.127 181.488 111.882 181.665 111.882 181.726 111.645 181.909 111.645 181.97 111.407 182.147 111.407 182.208 111.162 182.384 111.162 182.445 110.924 182.628 110.924 182.683 110.686 182.866 110.686 182.927 110.442 183.103 110.442 183.164 110.204 183.348 110.204 183.402 109.966 183.585 109.966 183.646 109.728 183.822 109.728 183.884 109.484 184.06 109.484 184.121 109.246 184.304 109.246 184.365 109.008 184.542 109.008 184.603 108.763 184.779 108.763 184.84 108.525 185.023 108.525 185.078 108.288 185.261 108.288 185.322 108.043 185.498 108.043 185.559 107.805 185.736 107.805 185.797 107.567 185.98 107.567 186.041 107.329 186.218 107.329 186.279 107.085 186.455 107.085 186.516 106.847 186.699 106.847 186.754 106.609 186.937 106.609 186.998 106.364 187.174 106.364 187.235 106.127 187.418 106.127 187.473 105.889 187.656 105.889 193.26 83.436 193.26 113.806 204.591 113.806 204.591 113.561 204.828 113.561 204.828 113.323 205.073 113.323 205.073 113.085 205.31 113.085 205.31 112.841 205.548 112.841 205.548 112.603 205.792 112.603 205.792 112.365 206.029 112.365 206.029 112.127 206.267 112.127 206.267 111.882 206.504 111.882 206.504 111.645 206.749 111.645 206.749 111.407 206.986 111.407 206.986 111.162 207.223 111.162 207.223 110.924 207.468 110.924 207.468 110.686 207.705 110.686 207.705 110.442 207.943 110.442 207.943 110.204 208.18 110.204 208.18 109.966 208.424 109.966 208.424 109.728 208.662 109.728 208.662 109.484 208.899 109.484 208.899 109.246 209.144 109.246 209.144 109.008 209.381 109.008 209.381 108.763 209.619 108.763 209.619 108.525 209.863 108.525 209.863 108.288 210.1 108.288 210.1 108.043 210.338 108.043 210.338 107.805 210.575 107.805 210.575 107.567 210.819 107.567 210.819 107.329 211.057 107.329 211.057 107.085 211.294 107.085 211.294 106.847 211.539 106.847 211.539 106.609 211.776 106.609 211.776 106.364 212.014 106.364 212.014 106.127 212.251 106.127 212.251 105.889 212.495 105.889 212.495 1.087 202.399 1.087"/>
    <path fill="#16202D" d="M261.387116,0 C253.57773,0 247.647754,2.64348066 243.454704,6.94508287 L243.210449,7.18972376 L242.972979,7.42756906 L242.735508,7.66541436 L242.491253,7.91005525 L242.253783,8.14790055 L242.016312,8.38574586 C241.934894,8.46729282 241.853475,8.5420442 241.778842,8.62359116 L241.534586,8.86823204 L241.297116,9.10607735 C241.215697,9.18762431 241.134279,9.26237569 241.059645,9.34392265 L240.81539,9.58856354 L240.57792,9.82640884 C240.496501,9.9079558 240.415083,9.98270718 240.340449,10.0642541 L240.096194,10.3020994 L239.858723,10.5467403 C239.777305,10.6282873 239.695887,10.7030387 239.621253,10.7845856 L239.383783,11.0224309 L239.139527,11.2670718 C239.058109,11.3418232 238.983475,11.4233702 238.902057,11.5049171 L238.664586,11.7427624 L238.420331,11.9874033 L238.182861,12.2252486 L237.94539,12.4630939 L237.701135,12.7009392 L237.463664,12.9455801 L237.226194,13.1834254 C237.144775,13.2649724 237.063357,13.3397238 236.988723,13.4212707 L236.744468,13.6659116 L236.506998,13.9037569 C236.425579,13.9853039 236.344161,14.0600552 236.269527,14.1416022 L236.025272,14.3862431 L235.787801,14.6240884 C230.312411,20.0605525 227.713806,28.3103867 227.713806,37.3009392 L227.713806,85.3456906 C227.713806,101.831768 235.475697,114.736575 253.496312,114.736575 C261.590662,114.736575 267.520638,112.269779 271.63227,108.076906 L271.876525,107.839061 L272.113995,107.601215 L272.351466,107.36337 L272.595721,107.118729 L272.833191,106.880884 L273.070662,106.643039 L273.308132,106.398398 L273.552388,106.160552 L273.789858,105.922707 L274.027329,105.678066 L274.271584,105.440221 L274.509054,105.202376 L274.746525,104.96453 L274.99078,104.71989 L275.228251,104.482044 L275.465721,104.244199 L275.709976,103.999558 L275.947447,103.761713 L276.184917,103.523867 L276.422388,103.279227 L276.666643,103.041381 L276.904113,102.803536 L277.141584,102.565691 L277.385839,102.32105 L277.62331,102.083204 L277.86078,101.845359 L278.098251,101.600718 L278.342506,101.362873 L278.579976,101.125028 L278.817447,100.880387 L279.061702,100.642541 L279.299173,100.404696 C284.652435,95.1381215 287,86.9834254 287,77.4288398 L287,29.3840884 C287,13.53 279.238109,0 261.387116,0 Z M261.387116,95.471105 C250.673806,95.471105 246.948913,86.1407735 246.948913,76.1852486 L246.948913,30.7839779 C246.885003,27.1573774 247.523233,23.5527252 248.828322,20.1692818 C250.328256,19.6656905 251.900802,19.4131349 253.482742,19.4215539 C264.338534,19.4215539 267.608842,28.9355801 267.608842,38.8571271 L267.608842,84.5709945 C267.686392,88.032868 267.162962,91.4819243 266.061891,94.7643646 C264.547651,95.2326019 262.971881,95.471105 261.387116,95.471105 L261.387116,95.471105 Z"/>
    <path fill="#FFF" d="M38.4837825,5.43646409 L20.4767376,5.43646409 L20.4767376,101.689061 L38.4837825,101.689061 C54.475721,101.689061 60.0664539,90.8161326 60.0664539,76.1920442 L60.0664539,31.0965746 C60.0664539,16.7918785 54.319669,5.43646409 38.4837825,5.43646409 Z M57.4271395,75.4309392 C57.4271395,88.8046409 52.1485106,99.0659669 37.3982033,99.0659669 L23.1499764,99.0659669 L23.1499764,8.24303867 L37.3982033,8.24303867 C52.1485106,8.24303867 57.4271395,18.5043646 57.4271395,31.8712707 L57.4271395,75.4309392 Z"/>
    <polygon fill="#FFF" points="92.505 5.443 92.505 101.689 125.724 101.689 125.724 99.046 95.144 99.046 95.144 55.2 115.635 55.2 115.635 52.557 95.144 52.557 95.144 8.243 125.724 8.243 125.724 5.443"/>
    <polygon fill="#FFF" points="184.555 101.689 205.514 18.504 205.514 101.689 208.465 101.689 208.465 5.443 205.826 5.443 183.008 94.533 160.34 5.443 157.857 5.443 157.857 101.689 160.652 101.689 160.652 18.661 181.923 101.689"/>
    <path fill="#FFF" d="M261.549953,4.19966851 C246.799645,4.19966851 240.123333,16.0171823 240.123333,29.5403867 L240.123333,77.5851381 C240.123333,91.5840331 246.487541,102.776354 261.549953,102.776354 C276.917683,102.776354 282.82052,91.9034254 282.82052,77.5851381 L282.82052,29.5403867 C282.82052,16.0171823 276.456312,4.19966851 261.549953,4.19966851 Z M280.025154,76.7900552 C280.025154,89.2259669 275.52,99.7998895 261.549953,99.7998895 C247.579905,99.7998895 242.898345,88.6279558 242.898345,76.341547 L242.898345,30.9402762 C242.898345,19.1227624 247.871655,7.30524862 261.529598,7.30524862 C275.655697,7.30524862 280.004799,18.8101657 280.004799,31.089779 L280.025154,76.7900552 Z"/>
  </g>
</svg>
