<svg viewBox="0 0 13 14" xmlns="http://www.w3.org/2000/svg"><path d="m5 9.5q0 .312-.098.641t-.336.594-.566.266-.566-.266-.336-.594-.098-.641.098-.641.336-.594.566-.266.566.266.336.594.098.641zm5 0q0 .312-.098.641t-.336.594-.566.266-.566-.266-.336-.594-.098-.641.098-.641.336-.594.566-.266.566.266.336.594.098.641zm1.25 0q0-.937-.539-1.594t-1.461-.656q-.32 0-1.523.164-.555.086-1.227.086t-1.227-.086q-1.187-.164-1.523-.164-.922 0-1.461.656t-.539 1.594q0 .688.25 1.199t.633.805.953.469 1.094.23 1.164.055h1.313q.641 0 1.164-.055t1.094-.23.953-.469.633-.805.25-1.199zm1.75-1.375q0 1.617-.477 2.586-.297.602-.824 1.039t-1.102.672-1.328.371-1.34.172-1.305.035q-.609 0-1.109-.023t-1.152-.098-1.191-.234-1.07-.402-.945-.633-.672-.898q-.484-.961-.484-2.586 0-1.852 1.062-3.094-.211-.641-.211-1.328 0-.906.398-1.703.844 0 1.484.309t1.477.965q1.148-.273 2.414-.273 1.156 0 2.187.25.82-.641 1.461-.945t1.477-.305q.398.797.398 1.703 0 .68-.211 1.313 1.062 1.25 1.062 3.109z"/></svg>
