<svg height="196" viewBox="0 0 241 196" width="241" xmlns="http://www.w3.org/2000/svg">
    <g fill="none" transform="translate(0 -1)">
        <g fill="#16202d">
            <ellipse cx="117.35" cy="96.77" rx="82.95" ry="82.09"/>
            <path d="m195.85 88.27 15.67 5.89 17.7.13 9.93 3.2-6.53 14.79-16.91 7.78-12.83.78-11.09-3.19-13.2-14.4s-15.53-36.69 17.26-14.98z"/>
            <path d="m66 21.89c5.56-11.66 18.37-20.02 32.16-20.83 8.37-.49 15 1.89 21.41 6.28 0 0 38.45-14.37 51.82 21.45 5.15.1 35.64 7.91 30.39 69.24l-34.15-37.03c-11.591341 15.9779302-33.783256 19.8493342-50.1 8.74-15.250597 8.1651354-34.137113 4.5172206-45.25-8.74l-38.65 24.65s-6.49-57.15 32-63.46"/>
            <path d="m63.24 79.76s-10.16 32.09-37.34 32.47c-27.18.38-26.65-19.1-18.52-24.23 16.46-10.46 29.47 8.58 38.32-19.3"/>
            <path d="m25.11 114.42c-18.4 0-23-8.89-24.21-12.76-1.73-5.83.55-12.5 5.31-15.52 7-4.45 13.34-4 18.93-3.63 8.19.56 13.6.93 18.48-14.47.364508-1.1487523 1.5912477-1.7845079 2.74-1.42 1.1487522.364508 1.7845079 1.5912477 1.42 2.74-5.92 18.64-14.57 18.07-22.94 17.49-5.16-.35-10.49-.71-16.3 3-2.73 1.7-4.78 6.15-3.46 10.57 1.87 6.28 9.42 9.8 20.79 9.63 25.26-.35 35.19-30.64 35.29-30.95.4058039-1.089783 1.5955561-1.6691862 2.7037351-1.3167052 1.1081791.3524811 1.7445938 1.5127374 1.4462649 2.6367052-2.0768844 5.9848561-5.0398571 11.6242797-8.79 16.73-8.19 11.13-18.77 17.1-30.59 17.26z"/>
        </g>
        <path d="m170.77 144.52-12.29 20.27-9.34 6.86-11.2 3.49-14.47-.49-13.34 7.99-19.12 11.16h-14.46l-7.58-9.18-1.7-22.15-16.31-3.34-7.59-.05-9.71-10.94-1.15-14.29 3.15-7.21 9.11-9.78-1.4-14.5v-30.67l9.93-18.44 21.35-11.87 92.84-7.86 10.34 74.09z"
              fill="#fff"/>
        <g fill="#16202d">
            <path d="m181.59 127.59-14.72 28.41-1.53-13.9v-6.19l-10.05-15.51-.41-8 6.19-12.17.59-17.47-10.91-21.48-14.58-6.69-18.2-2.19-21.2 7.76-18.3 20.47-.31-13.59-8.33-15.96-6.6.26-9.99 5.37 11.15-21.1 30.03 1.84 19.19-7.33 26.98 1.23 16.64 2.17h10.26l18.72 32.13 14.09 25.69-8.39 17.04z"/>
            <path d="m169.3 146.93c7.48-5.56 13.92-11.46 19-19.23 5.152561-7.865617 8.816678-16.610687 10.81-25.8l-19.79-9-8.89 40.29zm-102.47 25.15 7.74.51.19 1.65 2.45 5 7.12 3.4 15.86-3.55 17.49-10 10.23-20.94s4.6-8.28-2.88-3.38l-12 9.4-14.47 6.84s-17.15 3.84-20.66 2.82c-7.01-2-11.33 2.26-11.07 8.25z"/>
            <path d="m45.47 63c.67-1.12 1.36-2.23 2.09-3.32s1.53-2.16 2.44-3.18c.8608626-1.0652623 1.7965673-2.0678031 2.8-3 .52-.47 1.07-.91 1.65-1.34.3-.21.61-.42.94-.62l.52-.3c.22-.1.33-.17.72-.32l-.21.09c2.8593316-1.4481404 6.0497714-2.1172705 9.25-1.94 1.7005421.1604339 3.3472398.6820586 4.83 1.53 1.4250904.8302359 2.6914177 1.9069527 3.74 3.18 1.9107899 2.3858322 3.377418 5.0955377 4.33 8 .9518407 2.7503157 1.6808593 5.5727547 2.18 8.44.51 2.83.86 5.67 1.14 8.48l.21 2.09v.45s0 0 0-.15c-.0878162-.3375983-.280368-.6386793-.55-.86-.4380499-.3449642-.9977156-.4966156-1.55-.42-.2903574.0262385-.5708551.1185975-.82.27-.1185069.0709813-.2262627.1585329-.32.26-.11.13.07-.1.15-.22l.29-.4 2.38-3.44c3.2311504-4.7453857 6.915074-9.166094 11-13.2 4.1452334-4.116747 8.960591-7.4983186 14.24-10 5.371894-2.4910153 11.228793-3.7614331 17.15-3.72 5.869128.0960284 11.673803 1.2407077 17.14 3.38 5.62686 2.0384954 10.662793 5.4358611 14.66 9.89 3.911769 4.6199992 6.454109 10.2415505 7.34 16.23.857684 5.7975686.786796 11.6947234-.21 17.47-.960303 5.668064-2.398773 11.244646-4.3 16.67-.92 2.7-1.92 5.36-3 8-.54 1.32-1.09 2.63-1.66 3.92l-.44 1-.21.49-.06.12v.06c.188225-.427015.247322-.899792.17-1.36-.101521-.584131-.423754-1.106864-.9-1.46-.318027-.229022-.683881-.382886-1.07-.45h.16c.817394.133989 1.62315.331248 2.41.59 3.102935.998162 5.870882 2.831926 8 5.3 2.049884 2.453863 3.476987 5.366386 4.16 8.49.33067 1.49446.544648 3.012367.64 4.54 0 .75.08 1.52.06 2.24v1.09c0 .48 0 .87-.09 1.28-.400262 3.071534-1.359403 6.043853-2.83 8.77-2.879086 5.296894-7.126791 9.724176-12.3 12.82-4.992366 2.990182-10.567527 4.875848-16.35 5.53-.372026.034876-.716527-.198979-.821432-.557608s.059258-.741278.391432-.912392c4.982484-2.215599 9.780935-4.823816 14.35-7.8 4.404985-2.81466 8.040776-6.680696 10.58-11.25 1.176267-2.218528 1.945105-4.630037 2.27-7.12 0-.29.05-.6.06-.82v-1c0-.69 0-1.31-.05-2-.089083-1.265937-.276313-2.523047-.56-3.76-.514035-2.369719-1.594904-4.579495-3.15-6.44-1.566136-1.779636-3.589087-3.097147-5.85-3.81-.545281-.177044-1.10368-.310792-1.67-.4h-.09c-.430928-.073937-.840486-.241173-1.2-.49-.942518-.713207-1.262706-1.985642-.77-3.06v-.06-.12l.21-.48.42-.94 1.61-3.82c1.053333-2.553333 2.03-5.123333 2.93-7.71 1.821633-5.151927 3.209791-10.446998 4.15-15.83.957956-5.2816803 1.076076-10.6814815.35-16-.708576-5.1495241-2.84215-9.9985562-6.16-14-3.487617-3.9441238-7.894524-6.9667879-12.83-8.8-4.963759-2.0010722-10.249296-3.0852849-15.6-3.2-5.315839-.0578825-10.578521 1.0622731-15.41 3.28-4.842656 2.2805399-9.2623041 5.3678687-13.07 9.13-3.920649 3.8217272-7.4329022 8.0411229-10.48 12.59l-2.38 3.48-.32.45c-.1453704.2175897-.3057607.4247604-.48.62-.1488769.1666611-.3205773.3114281-.51.43-.2894255.1749194-.6137274.2841579-.95.32-1.0542152.0913759-2.0194107-.5944209-2.28-1.62-.0375182-.1309315-.0642739-.2647101-.08-.4v-.59l-.22-2.09c-.29-2.76-.64-5.48-1.14-8.15-.4660739-2.6440779-1.1347103-5.2484165-2-7.79-.8101352-2.4238018-2.0424357-4.6852764-3.64-6.68-1.3988664-1.7958044-3.466665-2.9469872-5.73-3.19-2.4360892-.0943237-4.8530339.4650263-7 1.62l-.2.09-.14.07-.29.17-.62.43c-.42.32-.84.67-1.25 1.05-.8368245.7864133-1.61241 1.6355457-2.32 2.54-.74.9-1.42 1.88-2.08 2.86s-1.27 2-1.87 3.08c-.632366 1.1045695-2.0404305 1.487366-3.145.855s-1.487366-2.0404305-.855-3.145z"/>
            <path d="m93.21 123.5c-4.2873268-2.327061-8.7511008-4.31319-13.35-5.94-4.5188739-1.483345-9.2439007-2.242724-14-2.25-2.3508483.059164-4.6925016.316746-7 .77-2.2907082.498461-4.5302867 1.208163-6.69 2.12-4.3936011 1.9279-8.4911716 4.469943-12.17 7.55l-.73.46c.14-.06 0 0 0 0l-.13.09c-.1104579.074091-.2141903.157746-.31.25-.2201851.208024-.4210109.435627-.6.68-.3951089.568582-.7050473 1.191827-.92 1.85-.2354806.729039-.3995846 1.479228-.49 2.24l-.09 1.21v1.6l-.1.39c-.2255005.970716-.3792491 1.956713-.46 2.95-.0849539 1.031054-.1049934 2.06643-.06 3.1.0652325 2.041992.4290914 4.06343 1.08 6 .6443014 1.890264 1.6082993 3.655902 2.85 5.22 1.2773101 1.553472 2.7847451 2.902407 4.47 4l-.21-.12.49.21.65.22c.4559278.146965.9200518.267169 1.39.36.9600096.188472 1.9326792.305459 2.91.35 1.0013024.023727 2.0031241-.013006 3-.11 1-.11 2-.28 3-.49h.12c.6276425-.135824 1.283538-.014451 1.8210154.336976.5374774.351428.9117001.903594 1.0389846 1.533024.2535711 1.218433-.4544125 2.431503-1.64 2.81-1.1940193.397219-2.4179314.698181-3.66.9-2.5374949.426538-5.1325585.372262-7.65-.16-.6452704-.135966-1.2828403-.306208-1.91-.51-.32-.1-.64-.21-1-.34s-.6-.24-1.07-.48l-.09-.05-.11-.07c-2.116034-1.432195-4.0010735-3.178976-5.59-5.18-1.5887296-2.041107-2.8195379-4.337038-3.64-6.79-.7872685-2.413947-1.2118949-4.931375-1.26-7.47-.0203651-1.252565.0397587-2.505144.18-3.75.1394898-1.283661.3802398-2.554285.72-3.8l-.1.75v-1.57l.12-1.59c.1273628-1.097817.3652357-2.179971.71-3.23.3652428-1.125359.9015211-2.187798 1.59-3.15.3875931-.510278.8265622-.979405 1.31-1.4.2447142-.231311.5053539-.445169.78-.64l.45-.29c.205125-.125238.4190129-.235524.64-.33l-.73.46c3.7935634-3.828492 8.2312301-6.959569 13.11-9.25 5.016431-2.254184 10.4504082-3.429559 15.95-3.45 5.4323576.0603 10.8002191 1.184833 15.8 3.31 4.91 2.13 9.59 4.72 13.18 8.82.3572656.267949.5444434.706143.4910254 1.149519s-.3393164.824574-.75 1c-.4106836.175427-.8837598.11843-1.2410254-.149519zm46.44 39.03c-5.183435 7.367696-11.427602 13.928621-18.53 19.47-3.533084 2.863561-7.288249 5.441684-11.23 7.71-4.01184 2.34302-8.288681 4.199451-12.74 5.53-4.6094558 1.393484-9.444887 1.88246-14.24 1.44-2.4635927-.227885-4.8853204-.786227-7.2-1.66-2.470326-.913223-4.7219973-2.333718-6.61-4.17-1.8689586-1.899793-3.2723223-4.206786-4.1-6.74-.7506278-2.378825-1.144903-4.855682-1.17-7.35-.0202368-2.346558.1772763-4.689934.59-7 .2-1.14.42-2.26.66-3.36l.36-1.61c.12-.49.24-1.08.28-1.34v-.2c.2214409-1.180847 1.3110835-1.994813 2.5062375-1.872166 1.1951541.122647 2.0967685 1.140956 2.0737625 2.342166 0 .83-.13 1.33-.2 1.93l-.24 1.63c-.16 1.07-.3 2.12-.41 3.17-.2102371 2.042874-.2670629 4.098632-.17 6.15.0952967 1.921427.4726681 3.818392 1.12 5.63.6365233 1.647452 1.6068389 3.145483 2.85 4.4 2.5 2.38 6.25 3.58 10.23 3.89 4.016649.342884 8.0618622-.081321 11.92-1.25 7.93-2.26 15.39-6.64 22.42-11.57s13.58-10.75 20.14-16.53c.412497-.358147 1.026401-.355633 1.435949.005883.409549.361515.488235.97036.184051 1.424117zm-15.35-25.16c1.365168-1.078656 3.101039-1.574619 4.83-1.38 1.69091.159054 3.305981.778107 4.67 1.79 1.29383.963809 2.3648 2.195083 3.14 3.61.352241.68988.643354 1.409298.87 2.15.185317.74718.295861 1.510939.33 2.28.008083.224504-.074097.442891-.228181.60637s-.36723.258427-.591819.263677c-.158118.001591-.313693-.039896-.45-.120047h-.08c-.597008-.373745-1.165257-.791574-1.7-1.25-.56-.38-1-.8-1.52-1.17-1-.72-1.87-1.42-2.78-2s-1.78-1-2.73-1.54-2-1-3.27-1.52l-.29-.13c-.467356-.217322-.67255-.770455-.46-1.24.057708-.135621.146823-.255584.26-.35z"/>
            <path d="m51.59 114.09s-7.07-34.45 6.53-37.79c11.05-2.71 3.42 13.79 6.67 35.72zm25.94 50.98c-.09 2.33-.2 4.67-.16 6.88.002976 1.042388.0932919 2.082694.27 3.11.1576975.903221.4616901 1.774667.9 2.58.3287454.661131.834067 1.218369 1.46 1.61.7032624.41371 1.4880442.669617 2.3.75.9623518.129167 1.9376482.129167 2.9 0 1.1-.16 2.23-.25 3.32-.48 8.7942127-1.460458 16.946687-5.529727 23.4-11.68 6.382514-6.325578 11.161788-14.084184 13.94-22.63.36-1.07.7-2.14 1-3.22l.45-1.63.11-.41c-.029781.097793-.049878.198276-.06.3-.019816.176111-.019816.353889 0 .53.040679.3864.182055.755357.41 1.07.398442.584791 1.043894.953621 1.75 1 .756341.069202 1.50003-.228274 2-.8-1.57393 1.848733-3.242846 3.614446-5 5.29-3.528037 3.370883-7.380025 6.385482-11.5 9-16.45 10.51-38.02 14.04-56.55 5.66-2.3355537-1.162003-4.4829337-2.668877-6.37-4.47-1.9139981-1.852721-3.4849028-4.029643-4.64-6.43-2.232139-4.759998-2.9309879-10.095709-2-15.27.06-.32.12-.64.2-1l.12-.51.1-.36.12-.33c.2869628-.723198.6560486-1.41104 1.1-2.05.8360158-1.15154 1.8484602-2.163984 3-3 2.1186716-1.554988 4.5253046-2.673325 7.08-3.29 4.775393-1.120108 9.7279797-1.262971 14.56-.42.4250401.066634.7158651.46484.65.89-.0457321.349555-.328739.620076-.68.65-4.5301013.343581-8.9987369 1.257467-13.3 2.72-1.9630802.734479-3.7911022 1.788717-5.41 3.12-.7036856.616273-1.3194343 1.326235-1.83 2.11-.2163332.332068-.3941455.687693-.53 1.06v.09.07l-.07.34-.12.76c-.6562117 4.150843-.0681397 8.403056 1.69 12.22 1.8877021 3.714939 4.9694138 6.68747 8.75 8.44 3.9718311 1.873301 8.2383172 3.043962 12.61 3.46 4.4500387.545057 8.9499613.545057 13.4 0 8.9305227-1.165004 17.4793-4.345149 25-9.3 3.798966-2.447126 7.36705-5.235319 10.66-8.33 1.643083-1.537889 3.205187-3.160074 4.68-4.86.671232-.776348 1.663777-1.198624 2.688603-1.143863 1.024827.054762 1.966719.580406 2.551397 1.423863.305383.439855.497715.948162.56 1.48.024935.25272.024935.50728 0 .76-.022748.171905-.056146.342233-.1.51l-.11.44-.49 1.76c-.35 1.18-.72 2.34-1.12 3.49-3.105717 9.379462-8.405995 17.88185-15.46 24.8-3.602992 3.442535-7.727145 6.294343-12.22 8.45-4.4782755 2.127972-9.2409865 3.596531-14.14 4.36-1.21.23-2.44.31-3.65.47-1.371446.169554-2.758554.169554-4.13 0-1.5273558-.204567-2.9933966-.733023-4.3-1.55-1.368471-.876046-2.4742513-2.106226-3.2-3.56-.6585492-1.273959-1.1108365-2.644322-1.34-4.06-.1824488-1.294952-.2593685-2.602588-.23-3.91 0-2.48.21-4.82.37-7.18.1135647-1.236989 1.1850445-2.162689 2.4254134-2.095424 1.240369.067265 2.2054582 1.103408 2.1845866 2.345424z"/>
        </g>
        <path d="m106.64 166.3s-15.41 1.23-18.91 7c0 0-2.81 1.05 0-3.5 2.36-3.85-6-.92-8.69 3.6-.8852702 1.484089-.7660427 3.359935.3 4.72 1.23 1.53 3.78 3.14 9 1.94 8.43-1.94 26.54-13.76 18.3-13.76z"
              fill="#ff908a"/>
        <path d="m44.77 119.170015c-1.0251963.003728-1.927964-.674369-2.21-1.660015-2.1341451-7.309956-3.1754111-14.89536-3.09-22.51 0-44.91 20.07-64.06 67.13-64.06 44.29 0 96 16.77 96 64.06-.110849 1.1874315-1.107406 2.0952909-2.3 2.0952909s-2.189151-.9078594-2.3-2.0952909c0-43.88-49.23-59.45-91.39-59.45-22.61-.05-37.75 4.23-47.61 13.45s-14.92 24.29-14.92 46c-.0766652 7.178515.907284 14.328996 2.92 21.22.348578 1.222461-.3515112 2.497782-1.57 2.86-.2149518.059543-.4369538.090015-.66.090015z"
              fill="#16202d"/>
        <path d="m40.18 79.6c.9866357-2.2356845 2.2498309-4.3387701 3.76-6.26 1.4963351-1.9514111 3.2372624-3.702421 5.18-5.21 1.9974867-1.5652063 4.250717-2.7730189 6.66-3.57 2.46998-.7282724 5.0760712-.8686794 7.61-.41.7823262.143251 1.3362274.8456857 1.2930939 1.6398486-.0431334.7941628-.6698547 1.4324742-1.4630939 1.4901514h-.14c-1.9759581.1363707-3.9123331.6204644-5.72 1.43-1.7684779.9279489-3.4116771 2.0771803-4.89 3.42-1.5084671 1.4156313-2.8965847 2.9542677-4.15 4.6-1.27 1.63-2.56 3.44-3.61 5.1l-.08.13c-.7138732 1.1032818-2.1535553 1.4763629-3.3134115.8586418-1.1598561-.6177211-1.6537055-2.0205707-1.1365885-3.2286418zm-4.12 46.06c1.3679783-1.062858 2.9461478-1.82297 4.63-2.23 1.9608429-.510172 4.0436044-.230077 5.8.78 1.7028567 1.127972 2.9474522 2.826437 3.51 4.79.2348313.858347.4184878 1.729881.55 2.61.06.85.13 1.69.16 2.54.0277842 1.244881-.9361342 2.287762-2.1793496 2.357878-1.2432153.070117-2.3182832-.857767-2.4306504-2.097878v-.26c0-.68-.07-1.36-.09-2s-.18-1.28-.29-1.9c-.2042162-1.007452-.7058137-1.930531-1.44-2.65-.8847668-.583064-1.9485528-.831281-3-.7-1.3599673.097306-2.7031102.359219-4 .78h-.12c-.2970365.093777-.6192056.065239-.8951316-.079294-.2759261-.144533-.4828284-.393127-.5748684-.690706-.1361566-.453171.0091149-.943953.37-1.25z"
              fill="#16202d"/>
        <path d="m65.8 90.25-8.25 4.53 9.22 3.15z" fill="#fff"/>
        <ellipse cx="69.16" cy="128.89" fill="#16202d" rx="6.94" ry="4.26"/>
        <path d="m35.15 133.16c3.84 0 6.94-1.91 6.94-4.27s-2.18-4.26-6-4.26zm-11.37-122.48c1.02739 1.2771274 1.9503674 2.6348405 2.76 4.06.81 1.41 1.55 2.87 2.24 4.35.7116366 1.4860767 1.3100055 3.0237843 1.79 4.6.5075822 1.6673591.7802068 3.3973473.81 5.14-.0053624.7615584-.6185001 1.3791392-1.38 1.39-.2574591-.0052995-.50908-.0776836-.73-.21-1.4603595-.9547494-2.7827091-2.1054963-3.93-3.42-1.0798777-1.2569602-2.0627056-2.594141-2.94-4-.89-1.37-1.73-2.77-2.5-4.21-.7803025-1.4434198-1.448924-2.9444749-2-4.49-.4982225-1.5547583.1719689-3.2448706 1.6002955-4.03568175 1.4283265-.79081111 3.2164458-.46177366 4.2697045.78568175zm-19.18 15.56c1.60125044.3596246 3.16995024.8513066 4.69 1.47 1.51.6 3 1.29 4.45 2 1.481606.731206 2.9056818 1.573617 4.26 2.52 1.4304962.9942926 2.7160911 2.18229 3.82 3.53.2426402.2933888.3543175.673462.308956 1.0514747-.0453616.3780127-.2437909.7208731-.548956.9485253-.2032618.1574213-.4449625.2575545-.7.29-1.7365777.1564188-3.4864372.0722909-5.2-.25-1.6166185-.306267-3.2078073-.7341497-4.76-1.28-1.55-.52-3.08-1.1-4.57-1.75-1.50991831-.6669545-2.96449007-1.4527576-4.35-2.35-1.37167253-.9034094-1.90445341-2.6562677-1.26752823-4.1701899.63692518-1.5139221 2.26256559-2.3587068 3.86752823-2.0098101zm-2.76 25.94c1.4697982-.7255837 2.994524-1.3341365 4.56-1.82 1.56-.49 3.14-.9 4.73-1.26 1.6031823-.3668031 3.2307412-.6174538 4.87-.75 1.7360129-.1370234 3.4826409-.0326968 5.19.31.7500166.1739055 1.2218677.9172937 1.06 1.67-.0582047.2535574-.1863982.4856917-.37.67-1.2426308 1.2224118-2.6494826 2.2657708-4.18 3.1-1.4488713.7762266-2.9529387 1.444701-4.5 2-1.53.58-3.07 1.09-4.64 1.53-1.57655964.4648105-3.18865199.7992695-4.82 1-1.62388284.1493762-3.12734345-.8685532-3.59169326-2.4317832-.46434982-1.56323.2395966-3.2368588 1.68169326-3.9982168zm136.98 111.55s-4.51 7.89 3.11 5.35l-4 4-5.06-1.39s.83-7.4 5.95-7.96zm-93.11-52.5s.93 3.69 3.52 2.43l-1.76 2.08h-1.95zm4.95-47.85s-2.53 5 .28 3.45l-2.79 6.92-3-4.82z"
              fill="#16202d"/>
        <path d="m185.72 114.59c5.62 4.49 15.71 9 23.61 10.59l6.84 10.19c1.58 2-20.51-3.37-31.71-20-.46-.69.6-1.31 1.26-.78z" fill="#fff"/>
        <path d="m145.81 95.54c-.325093-4.660732-1.146406-9.2734923-2.45-13.76-1.15417-4.1783347-3.341341-7.9990056-6.36-11.11-3.199939-2.8826295-7.192871-4.7362421-11.46-5.32-4.673183-.6713907-9.409277-.78887-14.11-.35-.57241.0245851-1.079767-.3655601-1.203011-.9250857-.123243-.5595256.173244-1.1267291.703011-1.3449143 4.819091-1.9357139 9.989857-2.8417902 15.18-2.66 1.342023.0457671 2.678912.1894826 4 .43.68.11 1.34.33 2 .49l1 .28 1 .36c2.676563.9677754 5.136602 2.452633 7.24 4.37 2.087575 1.9035652 3.812208 4.1703224 5.09 6.69 1.2164 2.4307715 2.100966 5.0138414 2.63 7.68.504783 2.5782382.729421 5.2034838.67 7.83-.042425 2.6058814-.394905 5.1974481-1.05 7.72-.179952.6935464-.836591 1.1540139-1.549953 1.0869032s-1.272601-.641964-1.320047-1.3569032zm10.64 24.64c1.494476.98284 2.905869 2.086536 4.22 3.3 1.344551 1.277508 2.535894 2.707121 3.55 4.26 1.913094 3.117324 3.105477 6.622723 3.49 10.26.219734 1.701405.336613 3.414517.35 5.13.040221 1.750657-.046674 3.501924-.26 5.24-.502179 3.51846-1.662393 6.910897-3.42 10-3.538795 6.038043-8.848773 10.84181-15.21 13.76-3.126262 1.48462-6.456071 2.495695-9.88 3-1.715415.242917-3.448011.34326-5.18.3l-4.93-.14c-1.206992-.106624-2.122019-1.13503-2.087564-2.346233.034454-1.211202 1.006463-2.18593 2.217564-2.223767h.15c1.55.12 3.15.19 4.72.21 1.488177.050708 2.977854-.03633 4.45-.26 2.948954-.500745 5.80694-1.437679 8.48-2.78 5.378914-2.603177 9.831826-6.790869 12.76-12 1.382142-2.545887 2.264659-5.332605 2.6-8.21.249877-2.968465.145813-5.956115-.31-8.9-.350019-2.790888-1.324122-5.467107-2.85-7.83-.773222-1.128223-1.679777-2.159009-2.7-3.07-1.078667-.942499-2.232501-1.795333-3.45-2.55h-.07c-.918173-.589488-1.452111-1.624037-1.400685-2.713942.051425-1.089905.680402-2.069583 1.65-2.57s2.132512-.445546 3.050685.143942z"
              fill="#16202d"/>
        <path d="m200.3 93.87 28.11.57 9.32 4.56-2.73 10.36s-.27-10.62-10.29-10.45-21.98-.44-24.41-5.04zm-99.97-83.82c5.59 0 10.38 1.61 15.7 5.24l2.69 1.82 3-1.12c4.867651-1.6000965 9.956154-2.4268095 15.08-2.45 1.14 0 2.31 0 3.5.15 0 0 17.26 1.05 26.73 19.62-3.57-22.22-26.73-24-26.73-24-1.19-.11-2.36-.15-3.5-.15-5.123846.02319055-10.212349.8499035-15.08 2.45l-3 1.12-2.72-1.82c-5.32-3.63-10.11-5.24-15.7-5.24-.59 0-1.19 0-1.8 0-11.43.72-22.21 7.65-26.79 17.33 7.1701824-8.317046 17.6393843-13.05415869 28.62-12.95z"
              fill="#8e8e8e"/>
        <path d="m207.82 123c-24.74 0-34.44-25.13-34.54-25.4-.368665-1.079885.18798-2.2572042 1.256519-2.657568 1.068538-.4003638 2.261767.1213062 2.693481 1.177568.39 1 9.66 24.91 33.92 22.49 16.08-1.58 23.3-8.69 24.59-14.3.7-3.05-.29-5.66-2.72-7.15-3.07-1.9-8.44-1.75-14.11-1.59-11.4.32-25.6.71-32.42-14.61-.392502-1.0458137.098092-2.2163238 1.118967-2.6697517 1.020876-.4534279 2.218254-.0326401 2.731033.9597517 5.68 12.74 17.25 12.41 28.45 12.1 6.32-.18 12.3-.34 16.44 2.21 3.964216 2.4439164 5.845023 7.207 4.62 11.7-2.57 11.16-16.85 16.43-28.29 17.55-1.24266.126422-2.490925.19-3.74.19z"
              fill="#16202d"/>
        <path d="m137.35 108.69s-23.53-.29-33.4.38c.05 0 17.44-14.74 33.4-.38z" fill="#cecece"/>
        <path d="m136.33 109.54c-2.477033-1.510116-5.108715-2.750527-7.85-3.7-2.410385-.776388-4.940278-1.115062-7.47-1-2.679317.170881-5.333596.619963-7.92 1.34-2.73.71-5.61 1.68-8.6 2.56h-.18c-.630691.177226-1.305329-.053139-1.69591-.579092s-.416076-1.238382-.06409-1.790908c1.957214-2.93382 4.609175-5.338448 7.72-7 3.204406-1.804634 6.803389-2.7936675 10.48-2.88 3.845762-.1162779 7.637297.9291822 10.88 3 3.038981 1.989973 5.392103 4.866786 6.74 8.24.220006.553709.065457 1.186001-.385167 1.57579-.450623.389789-1.098581.451666-1.614833.15421z"
              fill="#16202d"/>
        <path d="m114.25 92.92c-.82 1.32-1.75 2.59-2.66 3.83s-1.82 2.44-2.67 3.67-1.71 2.42-2.44 3.64c-.748151 1.221092-1.393699 2.502153-1.93 3.83v.11c-.213968.548245-.830522.82078-1.38.61-.315616-.127622-.555211-.39302-.65-.72-.404378-1.808236-.28999-3.693904.33-5.44.534723-1.661109 1.316847-3.2321005 2.32-4.66.94743-1.400962 2.043825-2.6951772 3.27-3.86 1.188254-1.1940375 2.534024-2.2201873 4-3.05.676637-.3719975 1.526709-.1259242 1.9.55.249604.4404272.249604.9795728 0 1.42z"
              fill="#16202d"/>
    </g>
</svg>
