<svg xmlns="http://www.w3.org/2000/svg" width="542" height="123" viewBox="0 0 542 123">
  <g fill="none">
    <g fill="#16202D" opacity=".1" transform="translate(0 7)">
      <path d="M233.940909,1.53988304 L213.000253,1.53988304 L213.000253,1.85871345 L212.784091,1.85871345 L212.784091,2.1097076 L212.534154,2.1097076 L212.534154,2.35391813 L212.290972,2.35391813 L212.290972,2.59812865 L212.04779,2.59812865 L212.04779,2.84233918 L211.797854,2.84233918 L211.797854,3.09333333 L211.554672,3.09333333 L211.554672,3.33754386 L211.31149,3.33754386 L211.31149,3.58175439 L211.068308,3.58175439 L211.068308,3.83274854 L210.757576,3.83274854 L210.757576,4.07017544 L210.514394,4.07017544 L210.514394,4.31438596 L210.271212,4.31438596 L210.271212,4.56538012 L210.082071,4.56538012 L210.082071,4.80959064 L209.838889,4.80959064 L209.838889,5.05380117 L209.595707,5.05380117 L209.595707,5.2980117 L209.34577,5.2980117 L209.34577,5.54900585 L209.102588,5.54900585 L209.102588,5.79321637 L208.859407,5.79321637 L208.859407,6.0374269 L208.616225,6.0374269 L208.616225,6.28842105 L208.366288,6.28842105 L208.366288,6.53263158 L208.123106,6.53263158 L208.123106,6.78362573 L207.879924,6.78362573 L207.879924,7.03461988 L207.629987,7.03461988 L207.629987,7.27883041 L207.380051,7.27883041 L207.380051,7.52304094 L207.136869,7.52304094 L207.136869,7.76725146 L206.886932,7.76725146 L206.886932,8.01824561 L206.64375,8.01824561 L206.64375,8.26245614 L206.400568,8.26245614 L206.400568,8.50666667 L206.157386,8.50666667 L206.157386,8.75766082 L205.907449,8.75766082 L205.907449,9.00187135 L205.664268,9.00187135 L205.664268,9.24608187 L205.421086,9.24608187 L205.421086,9.49707602 L205.171149,9.49707602 L205.171149,114.534737 L216.499369,114.534737 L216.499369,114.290526 L216.749306,114.290526 L216.749306,114.046316 L216.992487,114.046316 L216.992487,113.795322 L217.235669,113.795322 L217.235669,113.551111 L217.485606,113.551111 L217.485606,113.28655 L217.728788,113.28655 L217.728788,113.035556 L217.97197,113.035556 L217.97197,112.791345 L218.188131,112.791345 L218.188131,112.547135 L218.431313,112.547135 L218.431313,112.302924 L218.674495,112.302924 L218.674495,112.05193 L218.917677,112.05193 L218.917677,111.807719 L219.167614,111.807719 L219.167614,111.563509 L219.410795,111.563509 L219.410795,111.312515 L219.653977,111.312515 L219.653977,111.068304 L219.903914,111.068304 L219.903914,110.824094 L220.147096,110.824094 L220.147096,110.573099 L220.390278,110.573099 L220.390278,110.328889 L220.63346,110.328889 L220.63346,110.084678 L220.890152,110.084678 L220.890152,109.894737 L221.133333,109.894737 L221.133333,109.643743 L221.376515,109.643743 L221.376515,109.399532 L221.626452,109.399532 L221.626452,109.155322 L221.869634,109.155322 L221.869634,108.904327 L222.112816,108.904327 L222.112816,108.660117 L222.362753,108.660117 L222.362753,108.415906 L222.605934,108.415906 L222.605934,108.164912 L222.849116,108.164912 L222.849116,107.859649 L223.092298,107.859649 L223.092298,107.615439 L223.342235,107.615439 L223.342235,107.371228 L223.592172,107.371228 L223.592172,107.181287 L223.835354,107.181287 L223.835354,106.937076 L224.08529,106.937076 L224.08529,106.692865 L224.328472,106.692865 L224.328472,67.8973099 C232.77904,67.4224561 239.865088,65.8622222 244.74899,61.4189474 C244.836806,61.3443275 244.911111,61.2493567 244.998927,61.1747368 C245.086742,61.100117 245.154293,61.0051462 245.242109,60.9305263 C245.329924,60.8559064 245.40423,60.7609357 245.48529,60.6795322 C245.566351,60.5981287 245.647412,60.5099415 245.735227,60.4353216 C245.823043,60.3607018 245.890593,60.265731 245.978409,60.1911111 C246.066225,60.1164912 246.14053,60.0215205 246.221591,59.940117 C246.302652,59.8587135 246.383712,59.7705263 246.471528,59.6959064 C246.559343,59.6212865 246.626894,59.5263158 246.71471,59.4516959 C246.802525,59.377076 246.876831,59.2821053 246.957891,59.2007018 C247.038952,59.1192982 247.120013,59.0311111 247.201073,58.9564912 C247.282134,58.8818713 247.363194,58.7869006 247.45101,58.7122807 C247.538826,58.6376608 247.606376,58.5426901 247.694192,58.4612865 C247.782008,58.379883 247.856313,58.2984795 247.937374,58.217076 C248.018434,58.1356725 248.099495,58.0474854 248.187311,57.9728655 C248.275126,57.8982456 248.342677,57.8032749 248.430492,57.728655 C248.518308,57.6540351 248.592614,57.5590643 248.673674,57.4776608 C248.754735,57.3962573 248.835795,57.3080702 248.923611,57.2334503 C249.011427,57.1588304 249.078977,57.0638596 249.166793,56.9892398 C249.254609,56.9146199 249.322159,56.8196491 249.409975,56.7382456 C249.49779,56.6568421 249.572096,56.568655 249.653157,56.4940351 C249.734217,56.4194152 249.815278,56.3244444 249.903093,56.2498246 C249.990909,56.1752047 250.05846,56.0802339 250.146275,56.005614 C250.234091,55.9309942 250.308396,55.8360234 250.389457,55.7546199 C250.470518,55.6732164 250.551578,55.5850292 250.639394,55.5104094 C250.72721,55.4357895 250.79476,55.3408187 250.882576,55.2661988 C250.970391,55.1915789 251.044697,55.0966082 251.125758,55.0152047 C251.206818,54.9338012 251.287879,54.845614 251.375694,54.7709942 C251.46351,54.6963743 251.531061,54.6014035 251.618876,54.5267836 C251.706692,54.4521637 251.774242,54.357193 251.862058,54.2757895 C251.949874,54.194386 252.024179,54.1129825 252.10524,54.0315789 C252.186301,53.9501754 252.267361,53.8619883 252.355177,53.7873684 C254.572421,51.8106715 256.313942,49.3543415 257.448485,46.6035088 L257.597096,46.2575439 C257.96032,45.3699122 258.27822,44.464252 258.549558,43.5440936 L258.731944,42.9267836 C258.981881,42.0109942 259.191288,41.034152 259.407449,40.0166082 C259.454735,39.7520468 259.508775,39.5010526 259.556061,39.2297076 C259.724937,38.171462 259.860038,37.0453801 259.961364,35.8718129 C259.961364,35.6140351 260.022159,35.3833918 260.035669,35.125614 C260.14375,33.694269 260.204545,32.2018713 260.204545,30.6009357 L260.204545,30.5263158 C260.17077,13.3840936 252.719949,1.53988304 233.940909,1.53988304 Z M239.648927,47.4039766 C237.112059,48.2573493 234.447306,48.6635727 231.772538,48.6046784 L224.341982,48.6046784 L224.341982,20.8732164 L224.564899,20.8732164 C236.359217,20.8732164 241.013447,27.1073684 241.013447,38.5106433 C241.075353,41.5321044 240.613637,44.5413665 239.648927,47.4039766 L239.648927,47.4039766 Z"/>
      <polygon points="113.525 1.615 113.525 1.859 113.282 1.859 113.282 2.11 113.039 2.11 113.039 2.354 112.789 2.354 112.789 2.598 112.546 2.598 112.546 2.849 112.303 2.849 112.303 3.093 112.053 3.093 112.053 3.338 111.81 3.338 111.81 3.582 111.566 3.582 111.566 3.833 111.316 3.833 111.316 4.077 111.073 4.077 111.073 4.321 110.83 4.321 110.83 4.572 110.587 4.572 110.587 4.816 110.337 4.816 110.337 5.061 110.094 5.061 110.094 5.305 109.851 5.305 109.851 5.556 109.601 5.556 109.601 5.8 109.358 5.8 109.358 6.044 109.114 6.044 109.114 6.295 108.871 6.295 108.871 6.539 108.621 6.539 108.621 6.784 108.378 6.784 108.378 7.028 108.135 7.028 108.135 7.279 107.885 7.279 107.885 7.523 107.642 7.523 107.642 7.767 107.399 7.767 107.399 8.018 107.155 8.018 107.155 8.262 106.905 8.262 106.905 8.507 106.662 8.507 106.662 8.758 106.419 8.758 106.419 9.002 106.169 9.002 106.169 9.246 105.926 9.246 105.926 9.497 105.683 9.497 105.683 48.761 89.16 48.761 89.16 1.615 89.16 1.54 77.832 1.54 77.832 1.615 77.832 1.859 77.589 1.859 77.589 2.11 77.345 2.11 77.345 2.354 77.095 2.354 77.095 2.598 76.852 2.598 76.852 2.849 76.609 2.849 76.609 3.093 76.359 3.093 76.359 3.338 76.116 3.338 76.116 3.582 75.873 3.582 75.873 3.833 75.63 3.833 75.63 4.077 75.38 4.077 75.38 4.321 75.136 4.321 75.136 4.572 74.893 4.572 74.893 4.816 74.643 4.816 74.643 5.061 74.4 5.061 74.4 5.305 74.157 5.305 74.157 5.556 73.914 5.556 73.914 5.8 73.664 5.8 73.664 6.044 73.421 6.044 73.421 6.295 73.177 6.295 73.177 6.539 72.928 6.539 72.928 6.784 72.684 6.784 72.684 7.028 72.441 7.028 72.441 7.279 72.191 7.279 72.191 7.523 71.948 7.523 71.948 7.767 71.705 7.767 71.705 8.018 71.455 8.018 71.455 8.262 71.212 8.262 71.212 8.507 70.969 8.507 70.969 8.758 70.725 8.758 70.725 9.002 70.475 9.002 70.475 9.246 70.232 9.246 70.232 9.497 69.989 9.497 69.989 114.535 81.317 114.535 81.317 114.291 81.56 114.291 81.56 114.046 81.804 114.046 81.804 113.795 82.054 113.795 82.054 113.551 82.297 113.551 82.297 113.307 82.54 113.307 82.54 113.056 82.79 113.056 82.79 112.812 83.033 112.812 83.033 112.567 83.276 112.567 83.276 112.316 83.519 112.316 83.519 112.072 83.769 112.072 83.769 111.828 84.013 111.828 84.013 111.584 84.256 111.584 84.256 111.333 84.506 111.333 84.506 111.089 84.749 111.089 84.749 110.844 84.992 110.844 84.992 110.593 85.242 110.593 85.242 110.349 85.485 110.349 85.485 110.105 85.728 110.105 85.728 109.861 85.972 109.861 85.972 109.61 86.221 109.61 86.221 109.366 86.465 109.366 86.465 109.121 86.708 109.121 86.708 108.87 86.958 108.87 86.958 108.626 87.201 108.626 87.201 108.382 87.444 108.382 87.444 108.138 87.687 108.138 87.687 107.887 87.937 107.887 87.937 107.643 88.18 107.643 88.18 107.398 88.424 107.398 88.424 107.147 88.674 107.147 88.674 106.903 88.917 106.903 88.917 106.659 89.16 106.659 89.16 106.578 89.16 68.094 105.683 68.094 105.683 114.535 117.011 114.535 117.011 114.291 117.254 114.291 117.254 114.046 117.497 114.046 117.497 113.795 117.747 113.795 117.747 113.551 117.99 113.551 117.99 113.307 118.234 113.307 118.234 113.056 118.484 113.056 118.484 112.812 118.727 112.812 118.727 112.567 118.97 112.567 118.97 112.316 119.22 112.316 119.22 112.072 119.463 112.072 119.463 111.828 119.706 111.828 119.706 111.584 119.949 111.584 119.949 111.333 120.199 111.333 120.199 111.089 120.443 111.089 120.443 110.844 120.686 110.844 120.686 110.593 120.936 110.593 120.936 110.349 121.179 110.349 121.179 110.105 121.422 110.105 121.422 109.861 121.672 109.861 121.672 109.61 121.915 109.61 121.915 109.366 122.158 109.366 122.158 109.121 122.408 109.121 122.408 108.87 122.651 108.87 122.651 108.626 122.895 108.626 122.895 108.382 123.138 108.382 123.138 108.138 123.388 108.138 123.388 107.887 123.631 107.887 123.631 107.643 123.874 107.643 123.874 107.398 124.124 107.398 124.124 107.147 124.367 107.147 124.367 106.903 124.61 106.903 124.61 106.659 124.854 106.659 124.854 106.578 124.854 1.615 124.854 1.54 113.525 1.54"/>
      <path d="M36.8690657,50.0088889 L36.8690657,50.1988304 C28.4995581,42.7368421 20.1368056,35.5733333 20.1097854,27.0191813 C20.0864606,24.7494827 20.456761,22.4930313 21.2041035,20.3508772 C22.4819754,19.968338 23.8088661,19.7763477 25.142298,19.7810526 C36.1597854,19.7810526 36.9366162,31.6252632 36.9366162,43.7815205 L48.2648359,43.7815205 L48.2648359,43.5373099 L48.5080177,43.5373099 L48.5080177,43.2863158 L48.7511995,43.2863158 L48.7511995,43.0421053 L49.0011364,43.0421053 L49.0011364,42.7978947 L49.2443182,42.7978947 L49.2443182,42.5469006 L49.4875,42.5469006 L49.4875,42.3026901 L49.7374369,42.3026901 C49.7374369,42.2212865 49.7374369,42.139883 49.7374369,42.0584795 L49.9873737,42.0584795 L49.9873737,41.8074854 L50.2305556,41.8074854 L50.2305556,41.5632749 L50.4804924,41.5632749 C50.4804924,41.4818713 50.4804924,41.4004678 50.4804924,41.3190643 L50.7304293,41.3190643 L50.7304293,41.0748538 L50.9736111,41.0748538 L50.9736111,40.8238596 L51.2167929,40.8238596 L51.2167929,40.5796491 L51.4667298,40.5796491 C51.4667298,40.4982456 51.4667298,40.4168421 51.4667298,40.3354386 L51.7166667,40.3354386 L51.7166667,40.0844444 L51.9598485,40.0844444 L51.9598485,39.8402339 L52.2097854,39.8402339 C52.2097854,39.7588304 52.2097854,39.6774269 52.2097854,39.5960234 L52.4597222,39.5960234 L52.4597222,39.3450292 L52.6893939,39.3450292 L52.6893939,39.1008187 L52.9393308,39.1008187 C52.9393308,39.0194152 52.9393308,38.9380117 52.9393308,38.8566082 L53.1892677,38.8566082 L53.1892677,38.6123977 L53.4324495,38.6123977 L53.4324495,38.3614035 L53.6756313,38.3614035 L53.6756313,38.117193 L53.9255682,38.117193 C53.9255682,38.0357895 53.9255682,37.954386 53.9255682,37.8729825 L54.1755051,37.8729825 L54.1755051,37.6219883 L54.4186869,37.6219883 L54.4186869,37.3777778 L54.6686237,37.3777778 C54.6686237,37.2963743 54.6686237,37.2149708 54.6686237,37.1335673 L54.9185606,37.1335673 L54.9185606,36.8825731 L55.1617424,36.8825731 L55.1617424,36.6315789 L55.3914141,36.6315789 C55.3914141,36.5501754 55.3914141,36.4687719 55.3914141,36.3873684 L55.641351,36.3873684 L55.641351,36.1431579 L55.8845328,36.1431579 L55.8845328,35.8921637 L56.1277146,35.8921637 L56.1277146,35.8175439 L56.1277146,35.8175439 C56.1277146,16.1789474 53.9593434,0.440935673 33.0051768,0.440935673 C25.2571338,0.440935673 19.0830177,3.43251462 14.9083965,8.29637427 C14.8555334,8.34266468 14.8058808,8.39252733 14.7597854,8.44561404 C14.6787247,8.52701754 14.5909091,8.60163743 14.5098485,8.68982456 C14.4287879,8.7780117 14.3477273,8.85263158 14.2666667,8.93403509 L14.0234848,9.17824561 C13.9424242,9.26643275 13.8546086,9.34105263 13.780303,9.42923977 L13.5303662,9.67345029 L13.2871843,9.91766082 C13.2061237,10.005848 13.1183081,10.0804678 13.0440025,10.168655 C12.969697,10.2568421 12.8751263,10.3246784 12.7940657,10.4128655 C12.7130051,10.5010526 12.6319444,10.5756725 12.5508838,10.657076 C12.4698232,10.7384795 12.3820076,10.819883 12.307702,10.9080702 C12.2333965,10.9962573 12.1388258,11.0640936 12.0645202,11.1522807 C11.9902146,11.2404678 11.8956439,11.3083041 11.8145833,11.3964912 C11.7335227,11.4846784 11.6457071,11.5592982 11.5714015,11.6474854 C11.497096,11.7356725 11.4025253,11.8035088 11.3282197,11.8916959 C11.2539141,11.979883 11.1593434,12.0477193 11.0782828,12.1359064 C10.9972222,12.2240936 10.9094066,12.2987135 10.835101,12.380117 C10.7607955,12.4615205 10.6662247,12.542924 10.5919192,12.6311111 C10.5176136,12.7192982 10.4230429,12.7871345 10.3419823,12.8753216 C10.2609217,12.9635088 10.1798611,13.0381287 10.0988005,13.1195322 C10.0177399,13.2009357 9.92992424,13.2823392 9.85561869,13.3705263 C9.78131313,13.4587135 9.68674242,13.5265497 9.60568182,13.6147368 C9.52462121,13.702924 9.44356061,13.7775439 9.3625,13.8589474 C9.28143939,13.9403509 9.19362374,14.0217544 9.11931818,14.1099415 C9.04501263,14.1981287 8.95044192,14.2659649 8.87613636,14.354152 C8.80183081,14.4423392 8.7072601,14.5101754 8.62619949,14.5983626 C8.54513889,14.6865497 8.46407828,14.7611696 8.38301768,14.8425731 C8.30195707,14.9239766 8.21414141,15.0053801 8.13983586,15.0935673 C8.0655303,15.1817544 7.9709596,15.2495906 7.88989899,15.3377778 C7.80883838,15.4259649 7.72777778,15.5005848 7.64671717,15.5819883 C3.30997475,20.2219883 0.93219697,26.7410526 0.93219697,34.1148538 C0.93219697,48.4554386 12.8818813,60.6116959 23.277904,68.0940351 L23.1225379,67.9380117 C29.6411616,73.3649123 37.8688131,81.1864327 37.8688131,89.4488889 C37.8928458,91.4684588 37.6173732,93.4803714 37.051452,95.4184795 C36.5133319,95.6011622 35.9652848,95.752909 35.4099747,95.8729825 L35.3626894,95.8729825 C34.3203664,96.048842 33.2650034,96.1350806 32.2080808,96.1307602 C20.7244949,96.1307602 19.1775884,85.2226901 19.1775884,70.7260819 L7.84936869,70.7260819 L7.84936869,70.8074854 L7.84936869,70.8074854 L7.84936869,71.0516959 L7.59943182,71.0516959 C7.59943182,71.1330994 7.59943182,71.2145029 7.59943182,71.2959064 L7.34949495,71.2959064 L7.34949495,71.540117 L7.10631313,71.540117 L7.10631313,71.7911111 L6.85637626,71.7911111 C6.85637626,71.8725146 6.85637626,71.9539181 6.85637626,72.0353216 L6.61994949,72.0353216 C6.61994949,72.1167251 6.61994949,72.1981287 6.61994949,72.2795322 L6.37676768,72.2795322 L6.37676768,72.5305263 L6.12683081,72.5305263 C6.12683081,72.6119298 6.12683081,72.6865497 6.12683081,72.7747368 L5.88364899,72.7747368 C5.88364899,72.8561404 5.88364899,72.9375439 5.88364899,73.0189474 L5.64046717,73.0189474 L5.64046717,73.2631579 L5.4040404,73.2631579 L5.4040404,73.5073684 L5.14734848,73.5073684 C5.14734848,73.5887719 5.14734848,73.6701754 5.14734848,73.7515789 L4.90416667,73.7515789 L4.90416667,73.9957895 L4.66098485,73.9957895 L4.66098485,74.2467836 L4.41104798,74.2467836 C4.41104798,74.3281871 4.41104798,74.4095906 4.41104798,74.4909942 L4.16786616,74.4909942 C4.16786616,74.5723977 4.16786616,74.6538012 4.16786616,74.7352047 L3.92468434,74.7352047 L3.92468434,74.9861988 L3.67474747,74.9861988 C3.67474747,75.0676023 3.67474747,75.1422222 3.67474747,75.2304094 L3.43156566,75.2304094 C3.43156566,75.3118129 3.43156566,75.3932164 3.43156566,75.4746199 L3.18838384,75.4746199 L3.18838384,75.7188304 L2.94520202,75.7188304 L2.94520202,75.9766082 L2.7020202,75.9766082 C2.7020202,76.0580117 2.7020202,76.1394152 2.7020202,76.2208187 L2.45208333,76.2208187 L2.45208333,76.4650292 L2.20890152,76.4650292 L2.20890152,76.7160234 L1.95896465,76.7160234 C1.95896465,76.7974269 1.95896465,76.8788304 1.95896465,76.9602339 L1.71578283,76.9602339 C1.71578283,77.0416374 1.71578283,77.1230409 1.71578283,77.2044444 L1.47260101,77.2044444 L1.47260101,77.4554386 L1.22266414,77.4554386 C1.22266414,77.5368421 1.22266414,77.611462 1.22266414,77.6996491 L0.979482323,77.6996491 C0.979482323,77.7810526 0.979482323,77.8624561 0.979482323,77.9438596 L0.736300505,77.9438596 L0.736300505,78.1880702 L0.493118687,78.1880702 L0.493118687,78.4390643 L0.243181818,78.4390643 C0.243181818,78.5204678 0.243181818,78.6018713 0.243181818,78.6832749 L0,78.6832749 C0,102.683743 4.96496212,115.464094 24.3654672,115.464094 C32.76875,115.464094 38.9901515,113.028772 43.1039773,108.524444 L43.3471591,108.280234 C43.4282197,108.192047 43.5160354,108.117427 43.5903409,108.02924 C43.6646465,107.941053 43.7592172,107.873216 43.8402778,107.785029 L44.0834596,107.540819 C44.1645202,107.452632 44.2523359,107.378012 44.3266414,107.289825 C44.400947,107.201637 44.4955177,107.133801 44.5765783,107.045614 L44.8197601,106.801404 C44.9008207,106.713216 44.9886364,106.638596 45.0629419,106.550409 C45.1372475,106.462222 45.2318182,106.394386 45.3061237,106.306199 C45.3804293,106.218012 45.475,106.150175 45.5560606,106.061988 L45.7992424,105.817778 C45.880303,105.729591 45.9681187,105.654971 46.0424242,105.566784 C46.1167298,105.478596 46.2113005,105.41076 46.2923611,105.322573 L46.5355429,105.078363 C46.6166035,104.990175 46.7044192,104.915556 46.7787247,104.827368 C46.8530303,104.739181 46.947601,104.671345 47.0286616,104.583158 L47.2718434,104.338947 C47.352904,104.25076 47.4339646,104.17614 47.5150253,104.094737 C47.5960859,104.013333 47.6839015,103.93193 47.7582071,103.843743 C47.8325126,103.755556 47.9270833,103.687719 48.0081439,103.599532 L48.2513258,103.355322 C48.3323864,103.267135 48.420202,103.192515 48.4945076,103.104327 C48.5688131,103.01614 48.6633838,102.948304 48.7444444,102.860117 L48.9876263,102.615906 C49.0686869,102.527719 49.1565025,102.453099 49.2308081,102.364912 C49.3051136,102.276725 49.3996843,102.208889 49.4739899,102.120702 C49.5482955,102.032515 49.6428662,101.964678 49.7239268,101.876491 L49.9671086,101.632281 C50.0481692,101.544094 50.1359848,101.469474 50.2102904,101.381287 C50.284596,101.293099 50.3791667,101.225263 50.4602273,101.137076 C50.5412879,101.048889 50.6223485,100.974269 50.7034091,100.892865 C54.9455808,96.4088889 57.0396465,89.7948538 57.0396465,81.4035088 L57.0396465,81.3221053 C57.0396465,68.3992982 46.9543561,59.0175439 36.8690657,50.0088889 Z"/>
      <polygon points="147.199 1.615 147.199 1.859 146.949 1.859 146.949 2.11 146.706 2.11 146.706 2.354 146.463 2.354 146.463 2.598 146.22 2.598 146.22 2.849 145.97 2.849 145.97 3.093 145.727 3.093 145.727 3.338 145.484 3.338 145.484 3.582 145.234 3.582 145.234 3.833 144.99 3.833 144.99 4.077 144.747 4.077 144.747 4.321 144.497 4.321 144.497 4.572 144.254 4.572 144.254 4.816 144.011 4.816 144.011 5.061 143.768 5.061 143.768 5.305 143.518 5.305 143.518 5.556 143.275 5.556 143.275 5.8 143.031 5.8 143.031 6.044 142.788 6.044 142.788 6.295 142.538 6.295 142.538 6.539 142.295 6.539 142.295 6.784 142.052 6.784 142.052 7.028 141.802 7.028 141.802 7.279 141.559 7.279 141.559 7.523 141.316 7.523 141.316 7.767 141.066 7.767 141.066 8.018 140.823 8.018 140.823 8.262 140.579 8.262 140.579 8.507 140.336 8.507 140.336 8.758 140.086 8.758 140.086 9.002 139.843 9.002 139.843 9.246 139.6 9.246 139.6 9.497 139.35 9.497 139.35 114.535 181.252 114.535 181.252 114.291 181.501 114.291 181.501 114.046 181.745 114.046 181.745 113.795 181.988 113.795 181.988 113.551 182.231 113.551 182.231 113.307 182.481 113.307 182.481 113.056 182.724 113.056 182.724 112.812 182.967 112.812 182.967 112.567 183.217 112.567 183.217 112.316 183.46 112.316 183.46 112.072 183.704 112.072 183.704 111.828 183.954 111.828 183.954 111.584 184.197 111.584 184.197 111.333 184.44 111.333 184.44 111.089 184.683 111.089 184.683 110.844 184.933 110.844 184.933 110.593 185.176 110.593 185.176 110.349 185.419 110.349 185.419 110.105 185.669 110.105 185.669 109.861 185.912 109.861 185.912 109.61 186.156 109.61 186.156 109.366 186.406 109.366 186.406 109.121 186.649 109.121 186.649 108.87 186.892 108.87 186.892 108.626 187.142 108.626 187.142 108.382 187.385 108.382 187.385 108.138 187.628 108.138 187.628 107.887 187.871 107.887 187.871 107.643 188.121 107.643 188.121 107.398 188.365 107.398 188.365 107.147 188.608 107.147 188.608 106.903 188.858 106.903 188.858 106.659 189.101 106.659 189.101 106.578 189.101 95.283 189.101 95.201 158.372 95.201 158.372 67.938 171.011 67.938 171.011 67.694 171.254 67.694 171.254 67.443 171.504 67.443 171.504 67.199 171.747 67.199 171.747 66.954 171.99 66.954 171.99 66.703 172.234 66.703 172.234 66.459 172.483 66.459 172.483 66.215 172.727 66.215 172.727 65.971 172.97 65.971 172.97 65.72 173.22 65.72 173.22 65.476 173.463 65.476 173.463 65.231 173.706 65.231 173.706 64.98 173.956 64.98 173.956 64.736 174.199 64.736 174.199 64.492 174.442 64.492 174.442 64.241 174.692 64.241 174.692 63.997 174.936 63.997 174.936 63.753 175.179 63.753 175.179 63.508 175.422 63.508 175.422 63.257 175.672 63.257 175.672 63.013 175.915 63.013 175.915 62.769 176.158 62.769 176.158 62.518 176.408 62.518 176.408 62.274 176.651 62.274 176.651 62.029 176.895 62.029 176.895 61.785 177.138 61.785 177.138 61.534 177.388 61.534 177.388 61.29 177.631 61.29 177.631 61.046 177.874 61.046 177.874 60.795 178.124 60.795 178.124 60.551 178.367 60.551 178.367 60.306 178.61 60.306 178.61 60.055 178.853 60.055 178.853 59.981 178.853 48.679 178.853 48.605 158.372 48.605 158.372 20.717 181.252 20.717 181.252 20.466 181.501 20.466 181.501 20.222 181.745 20.222 181.745 19.978 181.988 19.978 181.988 19.734 182.231 19.734 182.231 19.483 182.481 19.483 182.481 19.238 182.724 19.238 182.724 18.994 182.967 18.994 182.967 18.743 183.217 18.743 183.217 18.499 183.46 18.499 183.46 18.255 183.704 18.255 183.704 18.011 183.954 18.011 183.954 17.76 184.197 17.76 184.197 17.515 184.44 17.515 184.44 17.271 184.683 17.271 184.683 17.02 184.933 17.02 184.933 16.776 185.176 16.776 185.176 16.532 185.419 16.532 185.419 16.281 185.669 16.281 185.669 16.036 185.912 16.036 185.912 15.792 186.156 15.792 186.156 15.541 186.406 15.541 186.406 15.297 186.649 15.297 186.649 15.053 186.892 15.053 186.892 14.809 187.142 14.809 187.142 14.558 187.385 14.558 187.385 14.313 187.628 14.313 187.628 14.069 187.871 14.069 187.871 13.818 188.121 13.818 188.121 13.574 188.365 13.574 188.365 13.33 188.608 13.33 188.608 13.086 188.858 13.086 188.858 12.835 189.101 12.835 189.101 12.76 189.101 1.615 189.101 1.54 147.199 1.54"/>
      <path d="M437.727273 1.53988304L415.34779 1.53988304 415.34779 1.85871345 415.097854 1.85871345 415.097854 2.1097076 414.854672 2.1097076 414.854672 2.35391813 414.61149 2.35391813 414.61149 2.59812865 414.361553 2.59812865 414.361553 2.84233918 414.118371 2.84233918 414.118371 3.09333333 413.875189 3.09333333 413.875189 3.33754386 413.625253 3.33754386 413.625253 3.58175439 413.409091 3.58175439 413.409091 3.83274854 413.165909 3.83274854 413.165909 4.07017544 412.922727 4.07017544 412.922727 4.31438596 412.67279 4.31438596 412.67279 4.56538012 412.429609 4.56538012 412.429609 4.80959064 412.186427 4.80959064 412.186427 5.05380117 411.93649 5.05380117 411.93649 5.2980117 411.693308 5.2980117 411.693308 5.54900585 411.450126 5.54900585 411.450126 5.79321637 411.200189 5.79321637 411.200189 6.0374269 410.957008 6.0374269 410.957008 6.28842105 410.707071 6.28842105 410.707071 6.53263158 410.463889 6.53263158 410.463889 6.78362573 410.213952 6.78362573 410.213952 7.03461988 409.97077 7.03461988 409.97077 7.27883041 409.727588 7.27883041 409.727588 7.52304094 409.477652 7.52304094 409.477652 7.76725146 409.23447 7.76725146 409.23447 8.01824561 408.991288 8.01824561 408.991288 8.26245614 408.748106 8.26245614 408.748106 8.50666667 408.498169 8.50666667 408.498169 8.75766082 408.254987 8.75766082 408.254987 9.00187135 408.005051 9.00187135 408.005051 9.24608187 407.755114 9.24608187 407.755114 9.49707602 407.511932 9.49707602 407.511932 114.534737 418.813131 114.534737 418.813131 114.290526 419.063068 114.290526 419.063068 114.046316 419.30625 114.046316 419.30625 113.795322 419.549432 113.795322 419.549432 113.551111 419.792614 113.551111 419.792614 113.28655 420.042551 113.28655 420.042551 113.035556 420.285732 113.035556 420.285732 112.791345 420.528914 112.791345 420.528914 112.547135 420.778851 112.547135 420.778851 112.302924 421.022033 112.302924 421.022033 112.05193 421.265215 112.05193 421.265215 111.807719 421.515152 111.807719 421.515152 111.563509 421.758333 111.563509 421.758333 111.312515 422.001515 111.312515 422.001515 111.068304 422.244697 111.068304 422.244697 110.824094 422.494634 110.824094 422.494634 110.573099 422.737816 110.573099 422.737816 110.328889 422.980997 110.328889 422.980997 110.084678 423.230934 110.084678 423.230934 109.894737 423.474116 109.894737 423.474116 109.643743 423.717298 109.643743 423.717298 109.399532 423.967235 109.399532 423.967235 109.155322 424.217172 109.155322 424.217172 108.904327 424.460354 108.904327 424.460354 108.660117 424.703535 108.660117 424.703535 108.415906 424.953472 108.415906 424.953472 108.164912 425.196654 108.164912 425.196654 107.859649 425.439836 107.859649 425.439836 107.615439 425.689773 107.615439 425.689773 107.371228 425.932955 107.371228 425.932955 107.181287 426.176136 107.181287 426.176136 106.937076 426.419318 106.937076 426.419318 106.692865 426.669255 106.692865 426.669255 68.0940351 429.533396 68.0940351C439.307955 68.0940351 442.563889 72.1642105 442.563889 81.8105263L442.563889 114.534737 453.892109 114.534737 453.892109 114.290526 454.142045 114.290526 454.142045 114.046316 454.385227 114.046316 454.385227 113.795322 454.614899 113.795322 454.614899 113.551111 454.864836 113.551111 454.864836 113.28655 455.108018 113.28655 455.108018 113.035556 455.351199 113.035556 455.351199 112.791345 455.601136 112.791345 455.601136 112.547135 455.844318 112.547135 455.844318 112.302924 456.0875 112.302924 456.0875 112.05193 456.330682 112.05193 456.330682 111.807719 456.580619 111.807719 456.580619 111.563509 456.823801 111.563509 456.823801 111.312515 457.066982 111.312515 457.066982 111.068304 457.316919 111.068304 457.316919 110.824094 457.560101 110.824094 457.560101 110.573099 457.803283 110.573099 457.803283 110.328889 458.05322 110.328889 458.05322 110.084678 458.296402 110.084678 458.296402 109.894737 458.539583 109.894737 458.539583 109.643743 458.782765 109.643743 458.782765 109.399532 459.032702 109.399532 459.032702 109.155322 459.275884 109.155322 459.275884 108.904327 459.519066 108.904327 459.519066 108.660117 459.769003 108.660117 459.769003 108.415906 460.018939 108.415906 460.018939 108.164912 460.262121 108.164912 460.262121 107.859649 460.512058 107.859649 460.512058 107.615439 460.75524 107.615439 460.75524 107.371228 460.998422 107.371228 460.998422 107.181287 461.241604 107.181287 461.241604 106.937076 461.49154 106.937076 461.49154 106.692865 461.734722 106.692865 461.734722 73.4530994C461.734722 66.4591813 460.032449 58.6919298 455.249874 54.1604678 460.957891 48.394386 462.356216 39.0669006 462.356216 31.1368421L462.356216 31.0622222C462.369697 13.5672515 457.715467 1.53988304 437.727273 1.53988304zM435.700758 48.6046784L426.67601 48.6046784 426.67601 20.8732164 429.229419 20.8732164C440.868371 20.8732164 443.036742 28.1927485 443.036742 38.9515789 443.116078 41.9499104 442.795751 44.9454302 442.08428 47.8584795 439.998509 48.3887716 437.852053 48.6396804 435.700758 48.6046784L435.700758 48.6046784zM508.608018 1.53988304L486.262311 1.53988304 486.262311 1.85871345 486.019129 1.85871345 486.019129 2.1097076 485.769192 2.1097076 485.769192 2.35391813 485.52601 2.35391813 485.52601 2.59812865 485.282828 2.59812865 485.282828 2.84233918 485.012626 2.84233918 485.012626 3.09333333 484.762689 3.09333333 484.762689 3.33754386 484.519508 3.33754386 484.519508 3.58175439 484.337121 3.58175439 484.337121 3.83274854 484.087184 3.83274854 484.087184 4.07017544 483.844003 4.07017544 483.844003 4.31438596 483.600821 4.31438596 483.600821 4.56538012 483.350884 4.56538012 483.350884 4.80959064 483.107702 4.80959064 483.107702 5.05380117 482.86452 5.05380117 482.86452 5.2980117 482.621338 5.2980117 482.621338 5.54900585 482.310606 5.54900585 482.310606 5.79321637 482.067424 5.79321637 482.067424 6.0374269 481.824242 6.0374269 481.824242 6.28842105 481.635101 6.28842105 481.635101 6.53263158 481.391919 6.53263158 481.391919 6.78362573 481.148737 6.78362573 481.148737 7.03461988 480.898801 7.03461988 480.898801 7.27883041 480.655619 7.27883041 480.655619 7.52304094 480.412437 7.52304094 480.412437 7.76725146 480.169255 7.76725146 480.169255 8.01824561 479.919318 8.01824561 479.919318 8.26245614 479.676136 8.26245614 479.676136 8.50666667 479.432955 8.50666667 479.432955 8.75766082 479.183018 8.75766082 479.183018 9.00187135 478.933081 9.00187135 478.933081 9.24608187 478.689899 9.24608187 478.689899 9.49707602 478.439962 9.49707602 478.439962 114.534737 500.792424 114.534737C509.215972 114.534737 515.241477 112.011228 519.355303 107.751111L519.60524 107.506901 519.848422 107.26269 520.091604 107.011696 520.34154 106.767485 520.584722 106.523275 520.827904 106.272281 521.071086 106.02807 521.321023 105.78386 521.564205 105.532865 521.807386 105.288655 522.057323 105.044444 522.300505 104.800234 522.543687 104.54924 522.786869 104.305029 523.036806 104.060819 523.279987 103.809825 523.523169 103.565614 523.773106 103.321404 524.016288 103.077193 524.25947 102.826199 524.509407 102.581988 524.752588 102.337778 524.99577 102.086784 525.245707 101.842573 525.488889 101.598363 525.732071 101.354152 525.975253 101.103158 526.225189 100.858947 526.468371 100.614737 526.711553 100.363743 526.96149 100.119532C528.726637 98.3050449 530.170433 96.2013088 531.230682 93.8989474L531.433333 93.4919298C531.71029 92.8746199 531.966982 92.2369591 532.203409 91.585731 532.29798 91.3347368 532.392551 91.0837427 532.480366 90.8259649 532.689773 90.2222222 532.872159 89.6049123 533.04779 88.9740351 533.142361 88.6416374 533.223422 88.2956725 533.304482 87.9700585 533.453093 87.3730994 533.588194 86.7625731 533.709785 86.1384795 533.784091 85.7382456 533.851641 85.3312281 533.919192 84.9242105 534.013763 84.3272515 534.108333 83.7438596 534.175884 83.1333333 534.236679 82.631345 534.27721 82.1225731 534.324495 81.6070175 534.37178 81.091462 534.425821 80.5352047 534.459596 79.985731 534.506881 79.097076 534.527146 78.1948538 534.540657 77.2722807 534.540657 77.0891228 534.540657 76.9195322 534.540657 76.7363743L534.540657 31.4624561C534.527146 14.6254971 527.569444 1.53988304 508.608018 1.53988304zM507.520455 95.2014035L497.59053 95.2014035 497.59053 20.717193 499.677841 20.717193C511.316793 20.717193 515.349558 29.2849123 515.349558 40.1929825L515.349558 83.8320468C515.43284 87.3669579 514.860165 90.8865533 513.660795 94.2109942 511.686029 94.8935554 509.608741 95.2286126 507.520455 95.2014035L507.520455 95.2014035z"/>
      <polygon points="351.101 1.615 351.101 1.859 350.857 1.859 350.857 2.11 350.607 2.11 350.607 2.354 350.364 2.354 350.364 2.598 350.121 2.598 350.121 2.849 349.878 2.849 349.878 3.093 349.628 3.093 349.628 3.338 349.385 3.338 349.385 3.582 349.142 3.582 349.142 3.833 348.898 3.833 348.898 4.077 348.648 4.077 348.648 4.321 348.405 4.321 348.405 4.572 348.162 4.572 348.162 4.816 347.912 4.816 347.912 5.061 347.669 5.061 347.669 5.305 347.426 5.305 347.426 5.556 347.176 5.556 347.176 5.8 346.933 5.8 346.933 6.044 346.689 6.044 346.689 6.295 346.446 6.295 346.446 6.539 346.196 6.539 346.196 6.784 345.953 6.784 345.953 7.028 345.71 7.028 345.71 7.279 345.46 7.279 345.46 7.523 345.217 7.523 345.217 7.767 344.974 7.767 344.974 8.018 344.724 8.018 344.724 8.262 344.481 8.262 344.481 8.507 344.237 8.507 344.237 8.758 343.994 8.758 343.994 9.002 343.744 9.002 343.744 9.246 343.501 9.246 343.501 9.497 343.258 9.497 343.258 114.535 385.159 114.535 385.159 114.291 385.403 114.291 385.403 114.046 385.646 114.046 385.646 113.795 385.896 113.795 385.896 113.551 386.139 113.551 386.139 113.307 386.382 113.307 386.382 113.056 386.625 113.056 386.625 112.812 386.875 112.812 386.875 112.567 387.118 112.567 387.118 112.316 387.362 112.316 387.362 112.072 387.612 112.072 387.612 111.828 387.855 111.828 387.855 111.584 388.098 111.584 388.098 111.333 388.341 111.333 388.341 111.089 388.591 111.089 388.591 110.844 388.834 110.844 388.834 110.593 389.077 110.593 389.077 110.349 389.327 110.349 389.327 110.105 389.571 110.105 389.571 109.861 389.814 109.861 389.814 109.61 390.064 109.61 390.064 109.366 390.307 109.366 390.307 109.121 390.55 109.121 390.55 108.87 390.793 108.87 390.793 108.626 391.043 108.626 391.043 108.382 391.286 108.382 391.286 108.138 391.529 108.138 391.529 107.887 391.779 107.887 391.779 107.643 392.023 107.643 392.023 107.398 392.266 107.398 392.266 107.147 392.516 107.147 392.516 106.903 392.759 106.903 392.759 106.659 393.002 106.659 393.002 106.578 393.002 95.283 393.002 95.201 362.273 95.201 362.273 67.938 374.912 67.938 374.912 67.694 375.162 67.694 375.162 67.443 375.405 67.443 375.405 67.199 375.648 67.199 375.648 66.954 375.898 66.954 375.898 66.703 376.141 66.703 376.141 66.459 376.385 66.459 376.385 66.215 376.628 66.215 376.628 65.971 376.878 65.971 376.878 65.72 377.121 65.72 377.121 65.476 377.364 65.476 377.364 65.231 377.614 65.231 377.614 64.98 377.857 64.98 377.857 64.736 378.1 64.736 378.1 64.492 378.35 64.492 378.35 64.241 378.594 64.241 378.594 63.997 378.837 63.997 378.837 63.753 379.08 63.753 379.08 63.508 379.33 63.508 379.33 63.257 379.573 63.257 379.573 63.013 379.816 63.013 379.816 62.769 380.066 62.769 380.066 62.518 380.309 62.518 380.309 62.274 380.553 62.274 380.553 62.029 380.802 62.029 380.802 61.785 381.046 61.785 381.046 61.534 381.289 61.534 381.289 61.29 381.532 61.29 381.532 61.046 381.782 61.046 381.782 60.795 382.025 60.795 382.025 60.551 382.268 60.551 382.268 60.306 382.511 60.306 382.511 60.055 382.761 60.055 382.761 59.981 382.761 48.679 382.761 48.605 362.273 48.605 362.273 20.717 385.159 20.717 393.002 12.835 393.002 12.76 393.002 1.615 393.002 1.54 351.101 1.54"/>
      <polygon points="317.433 1.615 317.433 1.859 317.183 1.859 317.183 2.11 316.94 2.11 316.94 2.354 316.697 2.354 316.697 2.598 316.447 2.598 316.447 2.849 316.204 2.849 316.204 3.093 315.961 3.093 315.961 3.338 315.711 3.338 315.711 3.582 315.468 3.582 315.468 3.833 315.224 3.833 315.224 4.077 314.981 4.077 314.981 4.321 314.731 4.321 314.731 4.572 314.488 4.572 314.488 4.816 314.245 4.816 314.245 5.061 313.995 5.061 313.995 5.305 313.752 5.305 313.752 5.556 313.509 5.556 313.509 5.8 313.265 5.8 313.265 6.044 313.016 6.044 313.016 6.295 312.772 6.295 312.772 6.539 312.529 6.539 312.529 6.784 312.279 6.784 312.279 7.028 312.036 7.028 312.036 7.279 311.793 7.279 311.793 7.523 311.543 7.523 311.543 7.767 311.3 7.767 311.3 8.018 311.057 8.018 311.057 8.262 310.813 8.262 310.813 8.507 310.563 8.507 310.563 8.758 310.32 8.758 310.32 9.002 310.077 9.002 310.077 9.246 309.827 9.246 309.827 9.497 309.584 9.497 309.584 48.761 293.068 48.761 293.068 1.615 293.068 1.54 281.733 1.54 281.733 1.615 281.733 1.859 281.49 1.859 281.49 2.11 281.247 2.11 281.247 2.354 281.003 2.354 281.003 2.598 280.753 2.598 280.753 2.849 280.51 2.849 280.51 3.093 280.267 3.093 280.267 3.338 280.024 3.338 280.024 3.582 279.774 3.582 279.774 3.833 279.531 3.833 279.531 4.077 279.288 4.077 279.288 4.321 279.038 4.321 279.038 4.572 278.794 4.572 278.794 4.816 278.551 4.816 278.551 5.061 278.301 5.061 278.301 5.305 278.058 5.305 278.058 5.556 277.815 5.556 277.815 5.8 277.565 5.8 277.565 6.044 277.322 6.044 277.322 6.295 277.079 6.295 277.079 6.539 276.835 6.539 276.835 6.784 276.586 6.784 276.586 7.028 276.342 7.028 276.342 7.279 276.099 7.279 276.099 7.523 275.849 7.523 275.849 7.767 275.606 7.767 275.606 8.018 275.363 8.018 275.363 8.262 275.113 8.262 275.113 8.507 274.87 8.507 274.87 8.758 274.627 8.758 274.627 9.002 274.383 9.002 274.383 9.246 274.133 9.246 274.133 9.497 273.89 9.497 273.89 114.535 285.218 114.535 285.218 114.291 285.462 114.291 285.462 114.046 285.712 114.046 285.712 113.795 285.955 113.795 285.955 113.551 286.198 113.551 286.198 113.307 286.448 113.307 286.448 113.056 286.691 113.056 286.691 112.812 286.934 112.812 286.934 112.567 287.177 112.567 287.177 112.316 287.427 112.316 287.427 112.072 287.671 112.072 287.671 111.828 287.914 111.828 287.914 111.584 288.164 111.584 288.164 111.333 288.407 111.333 288.407 111.089 288.65 111.089 288.65 110.844 288.9 110.844 288.9 110.593 289.143 110.593 289.143 110.349 289.386 110.349 289.386 110.105 289.63 110.105 289.63 109.861 289.879 109.861 289.879 109.61 290.123 109.61 290.123 109.366 290.366 109.366 290.366 109.121 290.616 109.121 290.616 108.87 290.859 108.87 290.859 108.626 291.102 108.626 291.102 108.382 291.352 108.382 291.352 108.138 291.595 108.138 291.595 107.887 291.838 107.887 291.838 107.643 292.082 107.643 292.082 107.398 292.332 107.398 292.332 107.147 292.575 107.147 292.575 106.903 292.818 106.903 292.818 106.659 293.068 106.659 293.068 106.578 293.068 68.094 309.584 68.094 309.584 114.535 320.912 114.535 320.912 114.291 321.162 114.291 321.162 114.046 321.405 114.046 321.405 113.795 321.648 113.795 321.648 113.551 321.892 113.551 321.892 113.307 322.142 113.307 322.142 113.056 322.385 113.056 322.385 112.812 322.628 112.812 322.628 112.567 322.878 112.567 322.878 112.316 323.121 112.316 323.121 112.072 323.364 112.072 323.364 111.828 323.607 111.828 323.607 111.584 323.857 111.584 323.857 111.333 324.101 111.333 324.101 111.089 324.344 111.089 324.344 110.844 324.594 110.844 324.594 110.593 324.837 110.593 324.837 110.349 325.08 110.349 325.08 110.105 325.33 110.105 325.33 109.861 325.573 109.861 325.573 109.61 325.816 109.61 325.816 109.366 326.06 109.366 326.06 109.121 326.309 109.121 326.309 108.87 326.553 108.87 326.553 108.626 326.796 108.626 326.796 108.382 327.046 108.382 327.046 108.138 327.289 108.138 327.289 107.887 327.532 107.887 327.532 107.643 327.782 107.643 327.782 107.398 328.025 107.398 328.025 107.147 328.268 107.147 328.268 106.903 328.512 106.903 328.512 106.659 328.762 106.659 328.762 106.578 328.762 1.615 328.762 1.54 317.433 1.54"/>
    </g>
    <path fill="#16202D" d="M44.8636705,49.580432 L44.8636705,49.736516 C36.4864841,42.2716275 28.1092976,35.0781895 28.1092976,26.5071403 C28.092241,24.2364814 28.4644543,21.9798428 29.209605,19.8362445 C30.486588,19.4535566 31.8125556,19.2614918 33.14506,19.2661985 C44.1548836,19.2661985 44.931174,31.1421574 44.931174,43.2759943 L56.2515138,43.2759943 C56.2515138,43.1945592 56.2515138,43.113124 56.2515138,43.0316889 L56.5012768,43.0316889 L56.5012768,42.7805972 L56.7442894,42.7805972 L56.7442894,42.5362918 L56.9940524,42.5362918 C56.9940524,42.4548566 56.9940524,42.3734215 56.9940524,42.2919863 L57.2438155,42.2919863 L57.2438155,42.0408946 L57.4868281,42.0408946 L57.4868281,41.7965892 L57.7365911,41.7965892 C57.7365911,41.715154 57.7365911,41.6337189 57.7365911,41.5522837 L57.9863541,41.5522837 L57.9863541,41.3215508 L58.2023654,41.3215508 L58.2023654,41.0704591 L58.4453781,41.0704591 L58.4453781,40.8261537 L58.6951411,40.8261537 C58.6951411,40.7447185 58.6951411,40.6632834 58.6951411,40.5818482 L58.9449041,40.5818482 L58.9449041,40.3307565 L59.1879167,40.3307565 L59.1879167,40.0864511 L59.4376798,40.0864511 C59.4376798,40.0050159 59.4376798,39.9235808 59.4376798,39.8421456 L59.6874428,39.8421456 L59.6874428,39.5910539 L59.9304554,39.5910539 L59.9304554,39.3467485 L60.1802184,39.3467485 C60.1802184,39.2653133 60.1802184,39.1838782 60.1802184,39.1024431 L60.4299814,39.1024431 L60.4299814,38.8581376 L60.6729941,38.8581376 L60.6729941,38.6070459 L60.9025061,38.6070459 L60.9025061,38.3627405 L61.1522691,38.3627405 C61.1522691,38.2813053 61.1522691,38.1998702 61.1522691,38.118435 L61.4020321,38.118435 L61.4020321,37.8673433 L61.6450448,37.8673433 L61.6450448,37.6230379 L61.8948078,37.6230379 C61.8948078,37.5416027 61.8948078,37.4601676 61.8948078,37.3787324 L62.1445708,37.3787324 L62.1445708,37.1140682 L62.3875834,37.1140682 L62.3875834,36.8697628 L62.6373464,36.8697628 C62.6373464,36.7883276 62.6373464,36.7068925 62.6373464,36.6254573 L62.8871095,36.6254573 L62.8871095,36.3811519 L63.1301221,36.3811519 L63.1301221,36.1300602 L63.3731348,36.1300602 L63.3731348,35.892541 L63.6026467,35.892541 C63.6026467,35.8111059 63.6026467,35.7296707 63.6026467,35.6482356 L63.8524097,35.6482356 L63.8524097,35.3971439 L64.0954224,35.3971439 C64.0886721,15.7509147 61.9218092,0 40.9822183,0 C33.4555762,0 27.4072611,2.81629883 23.2355437,7.46488847 C23.1612899,7.55310988 23.0667849,7.62775876 22.9925311,7.70919391 C22.9182772,7.79062906 22.8237723,7.8720642 22.7495184,7.96028561 C22.6752645,8.04850702 22.5807596,8.11636964 22.4997554,8.20459105 C22.4187512,8.29281246 22.337747,8.36746135 22.2567427,8.44889649 C22.1757385,8.53033164 22.0879839,8.61176679 22.0137301,8.6999882 C21.9394762,8.78820961 21.8449713,8.85607223 21.7639671,8.94429364 C21.6829628,9.03251505 21.6019586,9.10716393 21.5209544,9.18859908 C21.4399502,9.27003423 21.3521956,9.35146937 21.2779417,9.43969078 C21.2036879,9.52791219 21.109183,9.59577481 21.0349291,9.68399622 C20.9606752,9.77221763 20.8661703,9.84008025 20.7851661,9.92830166 C20.7041618,10.0165231 20.6164073,10.091172 20.5421534,10.1726071 C20.4678995,10.2540423 20.3733946,10.3354774 20.2991407,10.4236988 C20.2248869,10.5119202 20.130382,10.5797828 20.0493777,10.6680042 C19.9683735,10.7562257 19.8873693,10.8308745 19.8063651,10.9123097 C19.7253609,10.9937448 19.6376063,11.07518 19.5633524,11.1634014 C19.4890985,11.2516228 19.3945936,11.3194854 19.3135894,11.4077068 C19.2325852,11.4959282 19.151581,11.5705771 19.0705767,11.6520123 C18.9895725,11.7334474 18.901818,11.8148826 18.8275641,11.903104 C18.7533102,11.9913254 18.6588053,12.059188 18.5845514,12.1474094 C18.5102976,12.2356308 18.4157926,12.3034934 18.3347884,12.3917149 C18.2537842,12.4799363 18.17278,12.5545852 18.0917758,12.6360203 C18.0107715,12.7174554 17.923017,12.7988906 17.8487631,12.887112 C17.7745092,12.9753334 17.6800043,13.043196 17.5990001,13.1314174 C17.5179959,13.2196389 17.4369916,13.2942877 17.3559874,13.3757229 C17.2749832,13.457158 17.1872286,13.5385932 17.1129748,13.6268146 C17.0387209,13.715036 16.944216,13.7828986 16.8632117,13.87112 L16.6201991,14.1154255 C16.5391949,14.2036469 16.4514403,14.2782958 16.3771864,14.3665172 C16.3029326,14.4547386 16.2084276,14.5226012 16.1341738,14.6108226 C16.0599199,14.699044 15.965415,14.7669066 15.8844108,14.8551281 C15.8034065,14.9433495 15.715652,15.0179983 15.6413981,15.0994335 C11.3279234,19.7073056 8.92479818,26.2289036 8.92479818,33.6123569 C8.92479818,47.951729 20.8661703,60.112711 31.2549615,67.5979582 L31.0997034,67.4418742 C37.6137928,72.870884 45.8357211,80.6954444 45.8357211,88.9611118 C45.8612711,91.009741 45.5790777,93.0505118 44.9986775,95.0144577 C43.4364315,95.4930378 41.8120925,95.735469 40.1789264,95.7338015 C28.7033286,95.7338015 27.1507477,84.8147055 27.1507477,70.3192494 L15.8574093,70.3192494 C15.8574093,70.4006845 15.8574093,70.4821197 15.8574093,70.5635548 L15.6076463,70.5635548 C15.6076463,70.64499 15.6076463,70.7264251 15.6076463,70.8078603 L15.3578833,70.8078603 L15.3578833,71.058952 L15.1148707,71.058952 L15.1148707,71.3032574 L14.8651077,71.3032574 C14.8651077,71.3846926 14.8651077,71.4661277 14.8651077,71.5475628 L14.6153446,71.5475628 L14.6153446,71.7918683 L14.392583,71.7918683 L14.392583,72.04296 L14.14282,72.04296 C14.14282,72.1243951 14.14282,72.2058303 14.14282,72.2872654 L13.893057,72.2872654 C13.893057,72.3754868 13.893057,72.4501357 13.893057,72.5315709 L13.6500444,72.5315709 L13.6500444,72.7826626 L13.4002813,72.7826626 C13.4002813,72.8640977 13.4002813,72.9455329 13.4002813,73.026968 L13.1505183,73.026968 C13.1505183,73.1084032 13.1505183,73.1898383 13.1505183,73.2712735 L12.9007553,73.2712735 L12.9007553,73.5223652 L12.6577427,73.5223652 L12.6577427,73.7666706 L12.4079796,73.7666706 C12.4079796,73.8481057 12.4079796,73.9295409 12.4079796,74.010976 L12.1582166,74.010976 L12.1582166,74.2552815 L11.915204,74.2552815 L11.915204,74.5063732 L11.6924424,74.5063732 C11.6924424,74.5878083 11.6924424,74.6692435 11.6924424,74.7506786 L11.4426794,74.7506786 C11.4426794,74.8321138 11.4426794,74.9135489 11.4426794,74.9949841 L11.1929163,74.9949841 L11.1929163,75.252862 L10.9499037,75.252862 C10.9499037,75.3342972 10.9499037,75.4089461 10.9499037,75.4971675 L10.7001407,75.4971675 C10.7001407,75.5786026 10.7001407,75.6600378 10.7001407,75.7414729 L10.4503777,75.7414729 L10.4503777,75.9857784 L10.207365,75.9857784 L10.207365,76.2368701 L9.95760199,76.2368701 C9.95760199,76.3183052 9.95760199,76.3997404 9.95760199,76.4811755 L9.73484038,76.4811755 L9.73484038,76.7254809 L9.49182772,76.7254809 L9.49182772,76.9765726 L9.24206471,76.9765726 C9.24206471,77.0580078 9.24206471,77.1394429 9.24206471,77.2208781 L8.9923017,77.2208781 C8.9923017,77.3023132 8.9923017,77.3837484 8.9923017,77.4651835 L8.74253868,77.4651835 L8.74253868,77.7162752 L8.49277567,77.7162752 C8.49277567,77.7977104 8.49277567,77.8723593 8.49277567,77.9605807 L8.24976301,77.9605807 C8.24976301,78.0420158 8.24976301,78.123451 8.24976301,78.2048861 L8,78.2048861 C8,102.214682 12.9615085,115 32.3485185,115 C40.745956,115 46.9630299,112.570518 51.073994,108.057654 L51.3170067,107.813348 L51.5600193,107.569043 C51.6410236,107.480821 51.7287781,107.406173 51.8097824,107.317951 L52.052795,107.073646 L52.2958077,106.82934 C52.3768119,106.741119 52.4645665,106.66647 52.5388203,106.578249 C52.6130742,106.490027 52.7075791,106.422165 52.7885834,106.333943 L53.031596,106.089638 C53.1126002,106.001416 53.2003548,105.926767 53.2746087,105.838546 C53.3488625,105.750325 53.4433675,105.682462 53.5176213,105.594241 L53.7673843,105.349935 C53.8483886,105.261714 53.9361431,105.187065 54.010397,105.098843 C54.0846509,105.010622 54.1791558,104.942759 54.2534097,104.854538 L54.5031727,104.610233 L54.7461853,104.365927 C54.8271896,104.277706 54.9149441,104.203057 54.989198,104.114835 C55.0634519,104.026614 55.1579568,103.958751 55.238961,103.87053 C55.3199652,103.782309 55.4009695,103.70766 55.4819737,103.626224 C55.5629779,103.544789 55.6507325,103.463354 55.7249863,103.375133 C55.7992402,103.286911 55.8937451,103.219049 55.9747493,103.130827 C56.0557536,103.042606 56.1367578,102.967957 56.217762,102.886522 C56.2987662,102.805087 56.3865208,102.723652 56.4607747,102.63543 C56.5350285,102.547209 56.6295335,102.479346 56.7037873,102.391125 L56.9535503,102.146819 L57.196563,101.902514 C57.2775672,101.814292 57.3653218,101.739644 57.4395757,101.651422 C57.5138295,101.563201 57.6083344,101.495338 57.6893387,101.407117 L57.9323513,101.162811 C58.0133555,101.07459 58.1011101,100.999941 58.175364,100.91172 C58.2496179,100.823498 58.3441228,100.755636 58.425127,100.667414 C58.5061312,100.579193 58.5871354,100.504544 58.6681397,100.423109 C62.9073605,95.9373894 65,89.3207837 65,80.9261773 C65.0202206,67.9779889 54.9419455,58.6265195 44.8636705,49.580432 Z"/>
    <polygon fill="#16202D" points="120.644 1.244 120.4 1.244 120.4 1.496 120.156 1.496 120.156 1.74 119.906 1.74 119.906 1.984 119.662 1.984 119.662 2.235 119.418 2.235 119.418 2.48 119.168 2.48 119.168 2.724 118.924 2.724 118.924 2.975 118.68 2.975 118.68 3.22 118.429 3.22 118.429 3.464 118.186 3.464 118.186 3.709 117.942 3.709 117.942 3.96 117.698 3.96 117.698 4.204 117.448 4.204 117.448 4.449 117.204 4.449 117.204 4.7 116.96 4.7 116.96 4.944 116.709 4.944 116.709 5.188 116.466 5.188 116.466 5.44 116.222 5.44 116.222 5.684 115.971 5.684 115.971 5.928 115.728 5.928 115.728 6.173 115.484 6.173 115.484 6.424 115.24 6.424 115.24 6.668 114.989 6.668 114.989 6.913 114.746 6.913 114.746 7.164 114.502 7.164 114.502 7.408 114.251 7.408 114.251 7.653 114.008 7.653 114.008 7.897 113.764 7.897 113.764 8.148 113.513 8.148 113.513 8.393 113.269 8.393 113.269 8.637 113.026 8.637 113.026 8.888 112.782 8.888 112.782 48.254 96.218 48.254 96.218 1 84.862 1 84.862 1.244 84.618 1.244 84.618 1.496 84.374 1.496 84.374 1.74 84.124 1.74 84.124 1.984 83.88 1.984 83.88 2.235 83.636 2.235 83.636 2.48 83.386 2.48 83.386 2.724 83.142 2.724 83.142 2.975 82.898 2.975 82.898 3.22 82.648 3.22 82.648 3.464 82.404 3.464 82.404 3.709 82.16 3.709 82.16 3.96 81.916 3.96 81.916 4.204 81.666 4.204 81.666 4.449 81.422 4.449 81.422 4.7 81.178 4.7 81.178 4.944 80.928 4.944 80.928 5.188 80.684 5.188 80.684 5.44 80.44 5.44 80.44 5.684 80.189 5.684 80.189 5.928 79.946 5.928 79.946 6.173 79.702 6.173 79.702 6.424 79.458 6.424 79.458 6.668 79.208 6.668 79.208 6.913 78.964 6.913 78.964 7.164 78.72 7.164 78.72 7.408 78.469 7.408 78.469 7.653 78.226 7.653 78.226 7.897 77.982 7.897 77.982 8.148 77.738 8.148 77.738 8.393 77.488 8.393 77.488 8.637 77.244 8.637 77.244 8.888 77 8.888 77 114 88.356 114 88.356 113.756 88.6 113.756 88.6 113.511 88.844 113.511 88.844 113.26 89.094 113.26 89.094 113.016 89.338 113.016 89.338 112.771 89.582 112.771 89.582 112.527 89.826 112.527 89.826 112.276 90.076 112.276 90.076 112.031 90.32 112.031 90.32 111.787 90.564 111.787 90.564 111.536 90.814 111.536 90.814 111.291 91.058 111.291 91.058 111.047 91.302 111.047 91.302 110.803 91.546 110.803 91.546 110.551 91.796 110.551 91.796 110.307 92.04 110.307 92.04 110.063 92.284 110.063 92.284 109.812 92.534 109.812 92.534 109.567 92.778 109.567 92.778 109.323 93.022 109.323 93.022 109.072 93.272 109.072 93.272 108.827 93.516 108.827 93.516 108.583 93.76 108.583 93.76 108.338 94.004 108.338 94.004 108.087 94.254 108.087 94.254 107.843 94.498 107.843 94.498 107.599 94.742 107.599 94.742 107.347 94.992 107.347 94.992 107.103 95.236 107.103 95.236 106.859 95.48 106.859 95.48 106.607 95.731 106.607 95.731 106.363 95.974 106.363 95.974 106.119 96.218 106.119 96.218 67.526 112.782 67.526 112.782 114 124.138 114 124.138 113.756 124.382 113.756 124.382 113.511 124.626 113.511 124.626 113.26 124.876 113.26 124.876 113.016 125.12 113.016 125.12 112.771 125.364 112.771 125.364 112.527 125.614 112.527 125.614 112.276 125.858 112.276 125.858 112.031 126.102 112.031 126.102 111.787 126.352 111.787 126.352 111.536 126.596 111.536 126.596 111.291 126.84 111.291 126.84 111.047 127.084 111.047 127.084 110.803 127.334 110.803 127.334 110.551 127.578 110.551 127.578 110.307 127.822 110.307 127.822 110.063 128.072 110.063 128.072 109.812 128.316 109.812 128.316 109.567 128.56 109.567 128.56 109.323 128.811 109.323 128.811 109.072 129.054 109.072 129.054 108.827 129.298 108.827 129.298 108.583 129.542 108.583 129.542 108.338 129.792 108.338 129.792 108.087 130.036 108.087 130.036 107.843 130.28 107.843 130.28 107.599 130.524 107.599 130.524 107.347 130.774 107.347 130.774 107.103 131.018 107.103 131.018 106.859 131.262 106.859 131.262 106.607 131.512 106.607 131.512 106.363 131.756 106.363 131.756 106.119 132 106.119 132 1 120.644 1"/>
    <polygon fill="#16202D" points="154.731 1.244 154.485 1.244 154.485 1.496 154.245 1.496 154.245 1.74 154.006 1.74 154.006 1.984 153.766 1.984 153.766 2.235 153.52 2.235 153.52 2.48 153.281 2.48 153.281 2.724 153.041 2.724 153.041 2.975 152.795 2.975 152.795 3.22 152.555 3.22 152.555 3.464 152.316 3.464 152.316 3.709 152.07 3.709 152.07 3.96 151.83 3.96 151.83 4.204 151.591 4.204 151.591 4.449 151.351 4.449 151.351 4.7 151.105 4.7 151.105 4.944 150.865 4.944 150.865 5.188 150.626 5.188 150.626 5.44 150.38 5.44 150.38 5.684 150.14 5.684 150.14 5.928 149.901 5.928 149.901 6.173 149.655 6.173 149.655 6.424 149.415 6.424 149.415 6.668 149.176 6.668 149.176 6.913 148.936 6.913 148.936 7.164 148.69 7.164 148.69 7.408 148.45 7.408 148.45 7.653 148.211 7.653 148.211 7.897 147.965 7.897 147.965 8.148 147.725 8.148 147.725 8.393 147.486 8.393 147.486 8.637 147.24 8.637 147.24 8.888 147 8.888 147 114 188.269 114 188.269 113.756 188.515 113.756 188.515 113.511 188.755 113.511 188.755 113.26 188.994 113.26 188.994 113.016 189.234 113.016 189.234 112.771 189.48 112.771 189.48 112.527 189.719 112.527 189.719 112.276 189.959 112.276 189.959 112.031 190.205 112.031 190.205 111.787 190.445 111.787 190.445 111.536 190.684 111.536 190.684 111.291 190.93 111.291 190.93 111.047 191.17 111.047 191.17 110.803 191.409 110.803 191.409 110.551 191.649 110.551 191.649 110.307 191.895 110.307 191.895 110.063 192.135 110.063 192.135 109.812 192.374 109.812 192.374 109.567 192.62 109.567 192.62 109.323 192.86 109.323 192.86 109.072 193.099 109.072 193.099 108.827 193.345 108.827 193.345 108.583 193.585 108.583 193.585 108.338 193.824 108.338 193.824 108.087 194.064 108.087 194.064 107.843 194.31 107.843 194.31 107.599 194.55 107.599 194.55 107.347 194.789 107.347 194.789 107.103 195.035 107.103 195.035 106.859 195.275 106.859 195.275 106.607 195.514 106.607 195.514 106.363 195.754 106.363 195.754 106.119 196 106.119 196 94.734 165.735 94.734 165.735 67.37 178.183 67.37 178.183 67.126 178.423 67.126 178.423 66.882 178.669 66.882 178.669 66.63 178.908 66.63 178.908 66.386 179.148 66.386 179.148 66.142 179.387 66.142 179.387 65.89 179.633 65.89 179.633 65.646 179.873 65.646 179.873 65.402 180.112 65.402 180.112 65.151 180.359 65.151 180.359 64.906 180.598 64.906 180.598 64.662 180.838 64.662 180.838 64.417 181.084 64.417 181.084 64.166 181.323 64.166 181.323 63.922 181.563 63.922 181.563 63.677 181.802 63.677 181.802 63.426 182.048 63.426 182.048 63.182 182.288 63.182 182.288 62.938 182.527 62.938 182.527 62.686 182.774 62.686 182.774 62.442 183.013 62.442 183.013 62.198 183.253 62.198 183.253 61.946 183.492 61.946 183.492 61.702 183.738 61.702 183.738 61.458 183.978 61.458 183.978 61.213 184.217 61.213 184.217 60.962 184.464 60.962 184.464 60.718 184.703 60.718 184.703 60.473 184.943 60.473 184.943 60.222 185.189 60.222 185.189 59.978 185.428 59.978 185.428 59.733 185.668 59.733 185.668 59.489 185.907 59.489 185.907 48.105 165.735 48.105 165.735 20.116 188.269 20.116 188.269 19.872 188.515 19.872 188.515 19.621 188.755 19.621 188.755 19.376 188.994 19.376 188.994 19.132 189.234 19.132 189.234 18.881 189.48 18.881 189.48 18.636 189.719 18.636 189.719 18.392 189.959 18.392 189.959 18.148 190.205 18.148 190.205 17.896 190.445 17.896 190.445 17.652 190.684 17.652 190.684 17.408 190.93 17.408 190.93 17.156 191.17 17.156 191.17 16.912 191.409 16.912 191.409 16.668 191.649 16.668 191.649 16.416 191.895 16.416 191.895 16.172 192.135 16.172 192.135 15.928 192.374 15.928 192.374 15.677 192.62 15.677 192.62 15.432 192.86 15.432 192.86 15.188 193.099 15.188 193.099 14.943 193.345 14.943 193.345 14.692 193.585 14.692 193.585 14.448 193.824 14.448 193.824 14.203 194.064 14.203 194.064 13.952 194.31 13.952 194.31 13.708 194.55 13.708 194.55 13.464 194.789 13.464 194.789 13.212 195.035 13.212 195.035 12.968 195.275 12.968 195.275 12.724 195.514 12.724 195.514 12.479 195.754 12.479 195.754 12.228 196 12.228 196 1 154.731 1"/>
    <path fill="#16202D" d="M241.793435,1 L220.855211,1 L220.855211,1.24438303 L220.612058,1.24438303 L220.612058,1.49555449 L220.36215,1.49555449 L220.36215,1.73993752 L220.118996,1.73993752 L220.118996,1.98432056 L219.875843,1.98432056 L219.875843,2.23549201 L219.625935,2.23549201 L219.625935,2.47987505 L219.382781,2.47987505 L219.382781,2.72425808 L219.139628,2.72425808 L219.139628,2.97542953 L218.88972,2.97542953 L218.88972,3.22660099 L218.646566,3.22660099 L218.646566,3.47098402 L218.403413,3.47098402 L218.403413,3.71536706 L218.153505,3.71536706 L218.153505,3.96653851 L217.903597,3.96653851 L217.903597,4.21092154 L217.660443,4.21092154 L217.660443,4.44851616 L217.41729,4.44851616 L217.41729,4.69968761 L217.167382,4.69968761 L217.167382,4.94407065 L216.924228,4.94407065 L216.924228,5.18845368 L216.681075,5.18845368 L216.681075,5.43283672 L216.431167,5.43283672 L216.431167,5.68400817 L216.188013,5.68400817 L216.188013,5.94196804 L215.94486,5.94196804 L215.94486,6.18635108 L215.701706,6.18635108 L215.701706,6.43752253 L215.451798,6.43752253 L215.451798,6.68190556 L215.208645,6.68190556 L215.208645,6.9262886 L214.965491,6.9262886 L214.965491,7.17746005 L214.715584,7.17746005 L214.715584,7.42184309 L214.47243,7.42184309 L214.47243,7.66622612 L214.229276,7.66622612 L214.229276,7.91060916 L213.979369,7.91060916 L213.979369,8.16178061 L213.736215,8.16178061 L213.736215,8.40616364 L213.493061,8.40616364 L213.493061,8.6573351 L213.249908,8.6573351 L213.249908,8.90850655 L213,8.90850655 L213,114 L224.326904,114 L224.326904,113.755617 L224.576812,113.755617 L224.576812,113.511234 L224.819965,113.511234 L224.819965,113.260062 L225.063119,113.260062 L225.063119,113.015679 L225.313027,113.015679 L225.313027,112.771296 L225.55618,112.771296 L225.55618,112.520125 L225.799334,112.520125 L225.799334,112.268954 L226.042487,112.268954 L226.042487,112.02457 L226.258624,112.02457 L226.258624,111.780187 L226.501777,111.780187 L226.501777,111.529016 L226.744931,111.529016 L226.744931,111.284633 L226.994839,111.284633 L226.994839,111.04025 L227.237992,111.04025 L227.237992,110.789078 L227.481146,110.789078 L227.481146,110.544695 L227.724299,110.544695 L227.724299,110.300312 L227.974207,110.300312 L227.974207,110.055929 L228.217361,110.055929 L228.217361,109.804758 L228.460514,109.804758 L228.460514,109.560375 L228.710422,109.560375 L228.710422,109.315992 L228.96033,109.315992 L228.96033,109.06482 L229.203484,109.06482 L229.203484,108.820437 L229.453391,108.820437 L229.453391,108.576054 L229.696545,108.576054 L229.696545,108.324883 L229.939699,108.324883 L229.939699,108.0805 L230.182852,108.0805 L230.182852,107.836117 L230.43276,107.836117 L230.43276,107.591734 L230.675914,107.591734 L230.675914,107.340562 L230.919067,107.340562 L230.919067,107.089391 L231.168975,107.089391 L231.168975,106.845008 L231.412129,106.845008 L231.412129,106.593836 L231.662036,106.593836 L231.662036,106.349453 L231.911944,106.349453 L231.911944,106.10507 L232.155098,106.10507 L232.155098,67.3296287 C240.604684,66.8544395 247.689909,65.2931034 252.573243,60.8466899 C252.661049,60.7720173 252.735346,60.6769795 252.823151,60.6023069 C252.910956,60.5276343 252.978499,60.4325964 253.066305,60.3579238 C253.15411,60.2832512 253.228407,60.1882134 253.309458,60.1067524 C253.390509,60.0252914 253.471561,59.9370419 253.559366,59.8623693 C253.647171,59.7876967 253.714714,59.6926589 253.80252,59.6179863 C253.890325,59.5433137 253.964622,59.4482759 254.045673,59.3668149 C254.126724,59.2853538 254.207776,59.1971044 254.288827,59.1224318 C254.369878,59.0477592 254.450929,58.9527214 254.538735,58.8780488 C254.62654,58.8033762 254.694083,58.7083383 254.781888,58.6268773 C254.869694,58.5454163 254.94399,58.4639553 255.025042,58.3824943 C255.106093,58.3010333 255.187144,58.2127839 255.27495,58.1381113 C255.362755,58.0634387 255.430298,57.9684008 255.518103,57.8937282 C255.605909,57.8190556 255.680205,57.7240178 255.761257,57.6425568 C255.842308,57.5610958 255.923359,57.4728463 256.011164,57.3981737 C256.09897,57.3235011 256.166513,57.2284633 256.254318,57.1537907 C256.342124,57.0791181 256.41642,56.9840803 256.497472,56.9026192 C256.578523,56.8211582 256.659574,56.7329088 256.740625,56.6582362 C256.821676,56.5835636 256.902728,56.4885258 256.990533,56.4138532 C257.078338,56.3391806 257.145881,56.2441427 257.233687,56.1694701 C257.321492,56.0947975 257.395789,55.9997597 257.47684,55.9182987 C257.557891,55.8368377 257.638943,55.7485882 257.726748,55.6739157 C257.814553,55.5992431 257.882096,55.5042052 257.969902,55.4295326 C258.057707,55.35486 258.132004,55.2598222 258.213055,55.1783612 C258.294106,55.0969002 258.375158,55.0086507 258.462963,54.9339781 C258.550768,54.8593055 258.618311,54.7642677 258.706117,54.6895951 C258.793922,54.6149225 258.861465,54.5198847 258.94927,54.4452121 C259.037076,54.3705395 259.111372,54.2755016 259.192424,54.1940406 C259.273475,54.1125796 259.354526,54.0243302 259.442332,53.9496576 C259.530137,53.874985 259.59768,53.7799471 259.685485,53.7052745 C259.773291,53.6306019 259.847587,53.5355641 259.928639,53.4541031 C260.00969,53.3726421 260.090741,53.2843926 260.178546,53.2097201 C265.142932,48.8922864 268,41.7508711 268,30.0069086 C268.006741,12.8525772 260.556785,1 241.793435,1 Z M232.161852,48.10483 L232.161852,20.2723177 L232.384743,20.2723177 C244.177691,20.2723177 248.83138,26.5108735 248.83138,37.9222035 C248.912614,40.983702 248.455309,44.0355665 247.480527,46.9372222 C244.951932,47.785008 242.297043,48.1891587 239.63207,48.1319837 L232.161852,48.10483 Z"/>
    <polygon fill="#16202D" points="324.638 1.244 324.395 1.244 324.395 1.496 324.151 1.496 324.151 1.74 323.907 1.74 323.907 1.984 323.657 1.984 323.657 2.235 323.413 2.235 323.413 2.48 323.169 2.48 323.169 2.724 322.919 2.724 322.919 2.975 322.675 2.975 322.675 3.22 322.431 3.22 322.431 3.464 322.181 3.464 322.181 3.709 321.937 3.709 321.937 3.96 321.693 3.96 321.693 4.204 321.449 4.204 321.449 4.449 321.199 4.449 321.199 4.7 320.955 4.7 320.955 4.944 320.711 4.944 320.711 5.188 320.461 5.188 320.461 5.44 320.217 5.44 320.217 5.684 319.973 5.684 319.973 5.928 319.723 5.928 319.723 6.173 319.479 6.173 319.479 6.424 319.235 6.424 319.235 6.668 318.992 6.668 318.992 6.913 318.741 6.913 318.741 7.164 318.497 7.164 318.497 7.408 318.253 7.408 318.253 7.653 318.003 7.653 318.003 7.897 317.759 7.897 317.759 8.148 317.515 8.148 317.515 8.393 317.272 8.393 317.272 8.637 317.021 8.637 317.021 8.888 316.777 8.888 316.777 48.254 300.216 48.254 300.216 1 288.861 1 288.861 1.244 288.617 1.244 288.617 1.496 288.374 1.496 288.374 1.74 288.13 1.74 288.13 1.984 287.879 1.984 287.879 2.235 287.635 2.235 287.635 2.48 287.392 2.48 287.392 2.724 287.141 2.724 287.141 2.975 286.897 2.975 286.897 3.22 286.654 3.22 286.654 3.464 286.41 3.464 286.41 3.709 286.159 3.709 286.159 3.96 285.916 3.96 285.916 4.204 285.672 4.204 285.672 4.449 285.421 4.449 285.421 4.7 285.178 4.7 285.178 4.944 284.934 4.944 284.934 5.188 284.683 5.188 284.683 5.44 284.44 5.44 284.44 5.684 284.196 5.684 284.196 5.928 283.952 5.928 283.952 6.173 283.702 6.173 283.702 6.424 283.458 6.424 283.458 6.668 283.214 6.668 283.214 6.913 282.964 6.913 282.964 7.164 282.72 7.164 282.72 7.408 282.476 7.408 282.476 7.653 282.226 7.653 282.226 7.897 281.982 7.897 281.982 8.148 281.738 8.148 281.738 8.393 281.494 8.393 281.494 8.637 281.244 8.637 281.244 8.888 281 8.888 281 114 292.355 114 292.355 113.756 292.599 113.756 292.599 113.511 292.849 113.511 292.849 113.26 293.093 113.26 293.093 113.016 293.337 113.016 293.337 112.771 293.58 112.771 293.58 112.527 293.831 112.527 293.831 112.276 294.075 112.276 294.075 112.031 294.318 112.031 294.318 111.787 294.569 111.787 294.569 111.536 294.813 111.536 294.813 111.291 295.056 111.291 295.056 111.047 295.307 111.047 295.307 110.803 295.551 110.803 295.551 110.551 295.794 110.551 295.794 110.307 296.038 110.307 296.038 110.063 296.289 110.063 296.289 109.812 296.532 109.812 296.532 109.567 296.776 109.567 296.776 109.323 297.027 109.323 297.027 109.072 297.27 109.072 297.27 108.827 297.514 108.827 297.514 108.583 297.765 108.583 297.765 108.338 298.008 108.338 298.008 108.087 298.252 108.087 298.252 107.843 298.496 107.843 298.496 107.599 298.747 107.599 298.747 107.347 298.99 107.347 298.99 107.103 299.234 107.103 299.234 106.859 299.485 106.859 299.485 106.607 299.728 106.607 299.728 106.363 299.972 106.363 299.972 106.119 300.216 106.119 300.216 67.526 316.777 67.526 316.777 114 328.132 114 328.132 113.756 328.376 113.756 328.376 113.511 328.626 113.511 328.626 113.26 328.87 113.26 328.87 113.016 329.114 113.016 329.114 112.771 329.365 112.771 329.365 112.527 329.608 112.527 329.608 112.276 329.852 112.276 329.852 112.031 330.096 112.031 330.096 111.787 330.346 111.787 330.346 111.536 330.59 111.536 330.59 111.291 330.834 111.291 330.834 111.047 331.084 111.047 331.084 110.803 331.328 110.803 331.328 110.551 331.572 110.551 331.572 110.307 331.822 110.307 331.822 110.063 332.066 110.063 332.066 109.812 332.31 109.812 332.31 109.567 332.554 109.567 332.554 109.323 332.804 109.323 332.804 109.072 333.048 109.072 333.048 108.827 333.292 108.827 333.292 108.583 333.542 108.583 333.542 108.338 333.786 108.338 333.786 108.087 334.03 108.087 334.03 107.843 334.28 107.843 334.28 107.599 334.524 107.599 334.524 107.347 334.768 107.347 334.768 107.103 335.011 107.103 335.011 106.859 335.262 106.859 335.262 106.607 335.506 106.607 335.506 106.363 335.749 106.363 335.749 106.119 336 106.119 336 1 324.638 1"/>
    <polygon fill="#16202D" points="358.731 1.244 358.491 1.244 358.491 1.496 358.245 1.496 358.245 1.74 358.006 1.74 358.006 1.984 357.766 1.984 357.766 2.235 357.527 2.235 357.527 2.48 357.281 2.48 357.281 2.724 357.041 2.724 357.041 2.975 356.801 2.975 356.801 3.22 356.555 3.22 356.555 3.464 356.316 3.464 356.316 3.709 356.076 3.709 356.076 3.96 355.837 3.96 355.837 4.204 355.591 4.204 355.591 4.449 355.351 4.449 355.351 4.7 355.112 4.7 355.112 4.944 354.865 4.944 354.865 5.188 354.626 5.188 354.626 5.44 354.386 5.44 354.386 5.684 354.14 5.684 354.14 5.928 353.901 5.928 353.901 6.173 353.661 6.173 353.661 6.424 353.415 6.424 353.415 6.668 353.176 6.668 353.176 6.913 352.936 6.913 352.936 7.164 352.697 7.164 352.697 7.408 352.45 7.408 352.45 7.653 352.211 7.653 352.211 7.897 351.971 7.897 351.971 8.148 351.725 8.148 351.725 8.393 351.486 8.393 351.486 8.637 351.246 8.637 351.246 8.888 351 8.888 351 114 392.276 114 392.276 113.756 392.515 113.756 392.515 113.511 392.755 113.511 392.755 113.26 392.994 113.26 392.994 113.016 393.24 113.016 393.24 112.771 393.48 112.771 393.48 112.527 393.719 112.527 393.719 112.276 393.966 112.276 393.966 112.031 394.205 112.031 394.205 111.787 394.445 111.787 394.445 111.536 394.691 111.536 394.691 111.291 394.93 111.291 394.93 111.047 395.17 111.047 395.17 110.803 395.409 110.803 395.409 110.551 395.656 110.551 395.656 110.307 395.895 110.307 395.895 110.063 396.135 110.063 396.135 109.812 396.381 109.812 396.381 109.567 396.62 109.567 396.62 109.323 396.86 109.323 396.86 109.072 397.106 109.072 397.106 108.827 397.345 108.827 397.345 108.583 397.585 108.583 397.585 108.338 397.824 108.338 397.824 108.087 398.071 108.087 398.071 107.843 398.31 107.843 398.31 107.599 398.55 107.599 398.55 107.347 398.796 107.347 398.796 107.103 399.035 107.103 399.035 106.859 399.275 106.859 399.275 106.607 399.521 106.607 399.521 106.363 399.76 106.363 399.76 106.119 400 106.119 400 94.734 369.735 94.734 369.735 67.37 382.183 67.37 382.183 67.126 382.423 67.126 382.423 66.882 382.669 66.882 382.669 66.63 382.908 66.63 382.908 66.386 383.148 66.386 383.148 66.142 383.394 66.142 383.394 65.89 383.633 65.89 383.633 65.646 383.873 65.646 383.873 65.402 384.119 65.402 384.119 65.151 384.359 65.151 384.359 64.906 384.598 64.906 384.598 64.662 384.838 64.662 384.838 64.417 385.084 64.417 385.084 64.166 385.323 64.166 385.323 63.922 385.563 63.922 385.563 63.677 385.809 63.677 385.809 63.426 386.048 63.426 386.048 63.182 386.288 63.182 386.288 62.938 386.534 62.938 386.534 62.686 386.774 62.686 386.774 62.442 387.013 62.442 387.013 62.198 387.253 62.198 387.253 61.946 387.499 61.946 387.499 61.702 387.738 61.702 387.738 61.458 387.978 61.458 387.978 61.213 388.224 61.213 388.224 60.962 388.464 60.962 388.464 60.718 388.703 60.718 388.703 60.473 388.949 60.473 388.949 60.222 389.189 60.222 389.189 59.978 389.428 59.978 389.428 59.733 389.668 59.733 389.668 59.489 389.914 59.489 389.914 48.105 369.735 48.105 369.735 20.116 392.276 20.116 392.276 19.872 392.515 19.872 392.515 19.621 392.755 19.621 392.755 19.376 392.994 19.376 392.994 19.132 393.24 19.132 393.24 18.881 393.48 18.881 393.48 18.636 393.719 18.636 393.719 18.392 393.966 18.392 393.966 18.148 394.205 18.148 394.205 17.896 394.445 17.896 394.445 17.652 394.691 17.652 394.691 17.408 394.93 17.408 394.93 17.156 395.17 17.156 395.17 16.912 395.409 16.912 395.409 16.668 395.656 16.668 395.656 16.416 395.895 16.416 395.895 16.172 396.135 16.172 396.135 15.928 396.381 15.928 396.381 15.677 396.62 15.677 396.62 15.432 396.86 15.432 396.86 15.188 397.106 15.188 397.106 14.943 397.345 14.943 397.345 14.692 397.585 14.692 397.585 14.448 397.824 14.448 397.824 14.203 398.071 14.203 398.071 13.952 398.31 13.952 398.31 13.708 398.55 13.708 398.55 13.464 398.796 13.464 398.796 13.212 399.035 13.212 399.035 12.968 399.275 12.968 399.275 12.724 399.521 12.724 399.521 12.479 399.76 12.479 399.76 12.228 400 12.228 400 1 358.731 1"/>
    <path fill="#16202D" d="M445.280695 1L422.864852 1 422.864852 1.24438303 422.62098 1.24438303 422.62098 1.49555449 422.377109 1.49555449 422.377109 1.73993752 422.133237 1.73993752 422.133237 1.98432056 421.882592 1.98432056 421.882592 2.23549201 421.638721 2.23549201 421.638721 2.47987505 421.394849 2.47987505 421.394849 2.72425808 421.157752 2.72425808 421.157752 2.97542953 420.913881 2.97542953 420.913881 3.22660099 420.670009 3.22660099 420.670009 3.47098402 420.419364 3.47098402 420.419364 3.71536706 420.175492 3.71536706 420.175492 3.96653851 419.931621 3.96653851 419.931621 4.21092154 419.68775 4.21092154 419.68775 4.44851616 419.437104 4.44851616 419.437104 4.69968761 419.193233 4.69968761 419.193233 4.94407065 418.949361 4.94407065 418.949361 5.18845368 418.698716 5.18845368 418.698716 5.43283672 418.44807 5.43283672 418.44807 5.68400817 418.204199 5.68400817 418.204199 5.94196804 417.953553 5.94196804 417.953553 6.18635108 417.709682 6.18635108 417.709682 6.43752253 417.46581 6.43752253 417.46581 6.68190556 417.221939 6.68190556 417.221939 6.9262886 416.971294 6.9262886 416.971294 7.17746005 416.727422 7.17746005 416.727422 7.42184309 416.483551 7.42184309 416.483551 7.66622612 416.232905 7.66622612 416.232905 7.91060916 415.989034 7.91060916 415.989034 8.16178061 415.738388 8.16178061 415.738388 8.40616364 415.494517 8.40616364 415.494517 8.6573351 415.243871 8.6573351 415.243871 8.90850655 415 8.90850655 415 114 426.360341 114 426.360341 113.755617 426.577116 113.755617 426.577116 113.511234 426.827761 113.511234 426.827761 113.260062 427.071633 113.260062 427.071633 113.015679 427.315504 113.015679 427.315504 112.771296 427.56615 112.771296 427.56615 112.520125 427.810021 112.520125 427.810021 112.268954 428.053892 112.268954 428.053892 112.02457 428.304538 112.02457 428.304538 111.780187 428.609377 111.780187 428.609377 111.529016 428.853248 111.529016 428.853248 111.284633 429.09712 111.284633 429.09712 111.04025 429.286798 111.04025 429.286798 110.789078 429.530669 110.789078 429.530669 110.544695 429.77454 110.544695 429.77454 110.300312 430.025186 110.300312 430.025186 110.055929 430.269057 110.055929 430.269057 109.804758 430.512929 109.804758 430.512929 109.560375 430.7568 109.560375 430.7568 109.315992 431.007445 109.315992 431.007445 109.06482 431.251317 109.06482 431.251317 108.820437 431.495188 108.820437 431.495188 108.576054 431.745834 108.576054 431.745834 108.324883 431.996479 108.324883 431.996479 108.0805 432.240351 108.0805 432.240351 107.836117 432.490996 107.836117 432.490996 107.591734 432.734868 107.591734 432.734868 107.340562 432.978739 107.340562 432.978739 107.089391 433.22261 107.089391 433.22261 106.845008 433.473256 106.845008 433.473256 106.593836 433.717127 106.593836 433.717127 106.349453 433.960999 106.349453 433.960999 106.10507 434.211644 106.10507 434.211644 67.5264929 437.077133 67.5264929C446.886181 67.5264929 450.151348 71.5995434 450.151348 81.2526733L450.151348 114 461.532011 114 461.532011 113.755617 461.80298 113.755617 461.80298 113.511234 462.046851 113.511234 462.046851 113.260062 462.290722 113.260062 462.290722 113.015679 462.541368 113.015679 462.541368 112.771296 462.785239 112.771296 462.785239 112.520125 463.029111 112.520125 463.029111 112.268954 463.272982 112.268954 463.272982 112.02457 463.523628 112.02457 463.523628 111.780187 463.767499 111.780187 463.767499 111.529016 464.01137 111.529016 464.01137 111.284633 464.262016 111.284633 464.262016 111.04025 464.512662 111.04025 464.512662 110.789078 464.756533 110.789078 464.756533 110.544695 465.007178 110.544695 465.007178 110.300312 465.25105 110.300312 465.25105 110.055929 465.494921 110.055929 465.494921 109.804758 465.738793 109.804758 465.738793 109.560375 465.989438 109.560375 465.989438 109.315992 466.233309 109.315992 466.233309 109.06482 466.477181 109.06482 466.477181 108.820437 466.727826 108.820437 466.727826 108.576054 466.971698 108.576054 466.971698 108.324883 467.222343 108.324883 467.222343 108.0805 467.472989 108.0805 467.472989 107.836117 467.71686 107.836117 467.71686 107.591734 467.899764 107.591734 467.899764 107.340562 468.143635 107.340562 468.143635 107.089391 468.394281 107.089391 468.394281 106.845008 468.638152 106.845008 468.638152 106.593836 468.882023 106.593836 468.882023 106.349453 469.132669 106.349453 469.132669 106.10507 469.37654 106.10507 469.37654 72.8961312C469.37654 65.8769074 467.662667 58.0838039 462.839433 53.5559294 468.597507 47.7925628 469.999884 38.4313349 469.999884 30.4753094 470.026864 13.0087108 465.352663 1 445.280695 1zM434.231967 20.2723177L436.785842 20.2723177C448.457797 20.2723177 450.63909 27.5970203 450.63909 38.3634507 450.723632 41.3899319 450.395439 44.4138107 449.663605 47.3513156 447.569899 47.8835233 445.414914 48.1346287 443.255207 48.0980416L434.231967 48.0980416 434.231967 20.2723177zM516.120119 1L493.819905 1 493.819905 1.24438303 493.577219 1.24438303 493.577219 1.49555449 493.327791 1.49555449 493.327791 1.73993752 493.085104 1.73993752 493.085104 1.98432056 492.842417 1.98432056 492.842417 2.23549201 492.592989 2.23549201 492.592989 2.47987505 492.350303 2.47987505 492.350303 2.72425808 492.12784 2.72425808 492.12784 2.97542953 491.878412 2.97542953 491.878412 3.22660099 491.635725 3.22660099 491.635725 3.47098402 491.393038 3.47098402 491.393038 3.71536706 491.150352 3.71536706 491.150352 3.96653851 490.900924 3.96653851 490.900924 4.21092154 490.658237 4.21092154 490.658237 4.44851616 490.41555 4.44851616 490.41555 4.69968761 490.166122 4.69968761 490.166122 4.94407065 489.923435 4.94407065 489.923435 5.18845368 489.680749 5.18845368 489.680749 5.43283672 489.431321 5.43283672 489.431321 5.68400817 489.181893 5.68400817 489.181893 5.94196804 488.939206 5.94196804 488.939206 6.18635108 488.696519 6.18635108 488.696519 6.43752253 488.447091 6.43752253 488.447091 6.68190556 488.204404 6.68190556 488.204404 6.9262886 487.961718 6.9262886 487.961718 7.17746005 487.71229 7.17746005 487.71229 7.42184309 487.469603 7.42184309 487.469603 7.66622612 487.226916 7.66622612 487.226916 7.91060916 486.984229 7.91060916 486.984229 8.16178061 486.734801 8.16178061 486.734801 8.40616364 486.492115 8.40616364 486.492115 8.6573351 486.249428 8.6573351 486.249428 8.90850655 486 8.90850655 486 114 508.306955 114C516.706612 114 522.726591 111.474709 526.832041 107.211582L527.081469 106.967199 527.324156 106.722816 527.566842 106.471645 527.809529 106.227262 528.058957 105.982879 528.301644 105.731707 528.544331 105.487324 528.793759 105.242941 529.036445 104.998558 529.279132 104.747387 529.521819 104.503004 529.771247 104.258621 530.013934 104.007449 530.25662 103.763066 530.506048 103.518683 530.748735 103.267512 530.991422 103.023129 531.234109 102.778746 531.483537 102.534363 531.726223 102.283191 531.96891 102.038808 532.218338 101.794425 532.461025 101.543254 532.703711 101.298871 532.953139 101.054488 533.195826 100.810105 533.438513 100.558933 533.687941 100.31455 533.930628 100.070167 534.173314 99.8189956 534.416001 99.5746125C539.809039 94.1438784 541.999981 85.8348552 541.999981 76.1885138L541.999981 30.9437102C542.013444 14.0880692 535.015977 1 516.120119 1zM505.125062 94.7344707L505.125062 20.1161841 507.208123 20.1161841C518.823379 20.1161841 522.847934 28.696744 522.847934 39.6057311L522.847934 83.2824102C522.930244 86.8503916 522.342433 90.4019144 521.11542 93.7501502 519.164446 94.4277775 517.111852 94.7607846 515.048252 94.7344707L505.125062 94.7344707z"/>
    <path fill="#16202D" d="M44.9876109,49.0677311 C55.0594059,58.0135589 65.1312009,67.2750428 65.1312009,80.0826205 C65.1312009,96.4362922 57.0764633,106 40.3328631,106 C20.9650644,106 16,93.3468922 16,69.5853767 L27.2860771,69.5853767 C27.2860771,83.9376544 28.8376597,94.7371222 40.305879,94.7371222 C49.2983122,94.7371222 53.7979018,89.1829183 53.7979018,80.2370905 C53.7979018,72.0568967 45.5812599,64.3401128 39.078105,58.9403789 L39.2265172,59.0948489 C28.8646437,51.7138694 16.9309496,39.6249129 16.9309496,25.4606855 C16.9309496,11.1084078 26.078541,0 41.1086544,0 C62.0212897,0 64.2002514,15.5813217 64.2002514,35.0243933 L52.9209203,35.0243933 C52.9209203,22.9891656 52.145129,11.2628778 41.1423844,11.2628778 C32.6221721,11.2628778 28.2777407,18.0528417 28.2777407,26.2263195 C28.2777407,34.7154533 36.6495409,41.8143572 45.021341,49.2222011 L44.9876109,49.0677311 Z M20.1892731,73.8769562 C20.1892731,90.855224 24.6821167,101.654692 40.3328631,101.654692 C54.2836146,101.654692 60.9486739,93.7834379 60.9486739,80.0557562 C60.9486739,57.5501489 23.9130714,47.2140911 23.9130714,26.2263195 C23.9130714,15.7357917 29.8023393,6.94443388 41.1154004,6.94443388 C56.1522598,6.94443388 57.0832094,20.2087056 57.2383676,30.8604194 L59.8693121,30.8604194 C59.8693121,14.8156878 56.6177346,4.1639739 41.1154004,4.1639739 C28.7162315,4.1639739 21.2821269,13.5664956 21.2821269,25.4606855 C21.2821269,37.9593233 32.2848715,48.7587911 41.8911917,55.6830767 L41.7360334,55.6830767 C49.0217257,61.727555 58.1625712,71.5733384 58.1625712,80.2169423 C58.1625712,91.9432301 52.2733032,99.0219857 40.3396091,99.0219857 C24.9991792,99.0219857 23.13728,84.3607679 23.13728,73.863524 L20.1892731,73.8769562 Z M121.541348,105.046316 L121.541348,59.101565 L97.2084851,59.101565 L97.2084851,105.079896 L85.895424,105.079896 L85.895424,1.08129 L97.2084851,1.08129 L97.2084851,47.8319711 L121.541348,47.8319711 L121.541348,1.08129 L132.854409,1.08129 L132.854409,105.07318 L121.541348,105.046316 Z M92.8707998,52.1235507 L92.8707998,5.24526389 L90.2331093,5.24526389 L90.2331093,100.741304 L92.8707998,100.741304 L92.8707998,54.776405 L125.730621,54.776405 L125.730621,100.741304 L128.671882,100.741304 L128.671882,5.24526389 L125.730621,5.24526389 L125.730621,52.150415 L92.8707998,52.1235507 Z M186.782024,47.6842172 L186.782024,58.9403789 L166.328118,58.9403789 L166.328118,93.8103022 L197.015724,93.8103022 L197.015724,105.07318 L155.190453,105.07318 L155.190453,1.08129 L197.015724,1.08129 L197.015724,12.1896978 L166.328118,12.1896978 L166.328118,47.6842172 L186.782024,47.6842172 Z M159.5079,5.24526389 L159.5079,100.741304 L192.678038,100.741304 L192.678038,98.12203 L162.145591,98.12203 L162.145591,54.621935 L182.599497,54.621935 L182.599497,51.995945 L162.145591,51.995945 L162.145591,8.05930431 L192.678038,8.05930431 L192.678038,5.24526389 L159.5079,5.24526389 Z M220.896604,1.08129 L241.809239,1.08129 C260.563151,1.08129 268.004001,12.8075778 268.004001,29.7791294 C268.004001,56.321105 253.1223,59.0948489 232.202919,59.0948489 L232.202919,105.07318 L220.896604,105.07318 L220.896604,1.08129 Z M227.87198,54.8099854 C248.481044,54.8099854 263.82822,55.5823354 263.82822,29.8127099 C263.807982,15.4469999 257.45324,5.24526389 241.809239,5.24526389 L225.214051,5.24526389 L225.214051,100.741304 L227.851742,100.741304 L227.87198,54.8099854 Z M240.271149,8.21377431 C254.990945,8.21377431 260.880213,15.7693721 260.880213,29.8127099 C260.880213,44.3127416 254.680629,52.0295254 239.650516,52.0295254 L227.851742,52.0295254 L227.851742,8.18019388 L240.271149,8.21377431 Z M239.630278,47.6842172 C251.71913,47.6842172 256.650464,41.5054172 256.650464,29.7791294 C256.650464,18.5162517 252.002462,12.3173034 240.223927,12.3173034 L232.189427,12.3173034 L232.189427,47.6842172 L239.630278,47.6842172 Z M325.169702,105.079896 L325.169702,59.101565 L300.836839,59.101565 L300.836839,105.079896 L289.523778,105.079896 L289.523778,1.08129 L300.836839,1.08129 L300.836839,47.8319711 L325.169702,47.8319711 L325.169702,1.08129 L336.489509,1.08129 L336.489509,105.07318 L325.169702,105.079896 Z M296.499154,52.1571311 L296.499154,5.24526389 L293.868209,5.24526389 L293.868209,100.741304 L296.499154,100.741304 L296.499154,54.776405 L329.358975,54.776405 L329.358975,100.741304 L332.300236,100.741304 L332.300236,5.24526389 L329.358975,5.24526389 L329.358975,52.150415 L296.499154,52.1571311 Z M390.417124,47.6842172 L390.417124,58.9403789 L369.983456,58.9403789 L369.983456,93.8103022 L400.671061,93.8103022 L400.671061,105.07318 L358.845791,105.07318 L358.845791,1.08129 L400.671061,1.08129 L400.671061,12.1896978 L369.983456,12.1896978 L369.983456,47.6842172 L390.417124,47.6842172 Z M363.136254,5.24526389 L363.136254,100.741304 L396.2929,100.741304 L396.2929,98.12203 L365.773944,98.12203 L365.773944,54.621935 L386.227851,54.621935 L386.227851,51.995945 L365.773944,51.995945 L365.773944,8.05930431 L396.2929,8.05930431 L396.2929,5.24526389 L363.136254,5.24526389 Z M445.275689,1.08129 C465.26412,1.08129 469.918868,12.9620478 469.918868,30.2425394 C469.918868,38.1137933 468.522444,47.3685611 462.788334,53.077235 C467.591494,57.5501489 469.298235,65.2669328 469.298235,72.2113667 L469.298235,105.07318 L457.985174,105.07318 L457.985174,72.6747767 C457.985174,63.1312171 454.726851,59.101565 444.965372,59.101565 L434.272944,59.101565 L434.272944,105.079896 L422.953137,105.079896 L422.953137,1.08129 L445.275689,1.08129 Z M465.102216,72.2113667 C465.102216,64.0311728 463.078413,55.548755 453.789155,53.4063233 C464.0296,50.3034911 465.574437,39.4973072 465.574437,30.2223912 C465.574437,15.5611734 461.702226,5.22511563 445.275689,5.22511563 L427.14241,5.22511563 L427.14241,100.741304 L430.083671,100.741304 L430.083671,54.776405 L444.965372,54.776405 C457.985174,54.776405 462.167701,60.1492745 462.167701,72.6747767 L462.167701,100.741304 L465.102216,100.741304 L465.102216,72.2113667 Z M430.083671,8.18019388 L444.655056,8.18019388 C459.840327,8.18019388 462.788334,17.1260217 462.788334,30.2425394 C462.788334,44.8970411 458.916124,51.995945 443.224901,51.995945 L430.083671,51.995945 L430.083671,8.18019388 Z M443.258631,47.6842172 C455.502642,47.6842172 458.450649,41.9755433 458.450649,30.2223912 C458.450649,19.5773934 456.278433,12.3240195 444.655056,12.3240195 L434.272944,12.3240195 L434.272944,47.6842172 L443.258631,47.6842172 Z M516.115554,1.08800608 C535.004386,1.08800608 542,14.0433378 542,30.7126655 L542,75.4552366 C542,92.245454 535.179782,105.079896 516.115554,105.079896 L493.779511,105.079896 L493.779511,1.08129 L516.115554,1.08800608 Z M516.115554,100.761452 C532.076617,100.761452 537.662315,89.9619844 537.662315,75.4552366 L537.662315,30.7059494 C537.662315,16.5081417 531.921459,5.24526389 516.115554,5.24526389 L498.117196,5.24526389 L498.117196,100.741304 L516.115554,100.761452 Z M515.0227,8.05930431 C529.749243,8.05930431 535.017878,18.2408921 535.017878,31.5118799 L535.017878,74.6828867 C535.017878,87.9471583 529.749243,98.1354622 515.0227,98.1354622 L500.754886,98.1354622 L500.754886,8.05930431 L515.0227,8.05930431 Z M515.0227,93.8438827 C526.646078,93.8438827 530.680193,85.5159349 530.680193,74.7164671 L530.680193,31.4782994 C530.680193,20.6788317 526.632586,12.1896978 515.0227,12.1896978 L505.106064,12.1896978 L505.106064,93.8103022 L515.0227,93.8438827 Z"/>
    <path fill="#FFF" d="M19,75.0771562 C19,92.1441168 23.5043478,103 39.1716446,103 C53.1371488,103 59.8092562,95.0876274 59.8092562,81.2814825 C59.8092562,58.6380546 22.7412424,48.2480022 22.7412424,27.1505924 C22.7412424,16.6052632 28.6367382,7.76798016 39.9617626,7.76798016 C55.0010169,7.76798016 55.9261978,21.1015431 56.0815201,31.8359052 L58.7219999,31.8359052 C58.7219999,15.7006062 55.4602308,5 39.9482563,5 C27.5359755,5 20.0872564,14.4516396 20.0872564,26.4012125 C20.0872564,38.9651419 31.1016361,49.8277762 40.724868,56.7814825 L40.5695457,56.7814825 C47.8629424,62.8575365 57.0134541,72.7615045 57.0134541,81.4502618 C57.0134541,93.2310554 51.1179584,100.353541 39.1716446,100.353541 C23.8149925,100.353541 21.9511244,85.6224855 21.9511244,75.0704051 L19,75.0771562 Z M91.7651392,53.210113 L91.7651392,6.05993387 L89.1246594,6.05993387 L89.1246594,102.048085 L91.7651392,102.048085 L91.7651392,55.8498209 L124.652956,55.8498209 L124.652956,102.048085 L127.604081,102.048085 L127.604081,6.05993387 L124.652956,6.05993387 L124.652956,53.210113 L91.7651392,53.210113 Z M158.47946,6.05993387 L158.47946,102.048085 L191.677922,102.048085 L191.677922,99.408377 L161.106434,99.408377 L161.106434,55.694544 L181.588723,55.694544 L181.588723,53.054836 L161.106434,53.054836 L161.106434,8.88192339 L191.671169,8.88192339 L191.671169,6.05993387 L158.47946,6.05993387 Z M240.867831,6.05993387 L224.248341,6.05993387 L224.248341,102.048085 L226.882068,102.048085 L226.882068,55.8498209 C247.519679,55.8498209 262.876331,56.6262056 262.876331,30.721962 C262.876331,16.3082116 256.514869,6.05993387 240.867831,6.05993387 Z M238.693319,53.054836 L226.882068,53.054836 L226.882068,9.01019565 L239.294348,9.01019565 C254.036464,9.01019565 259.93196,16.6052632 259.93196,30.721962 C259.93196,45.2977404 253.698807,53.054836 238.673059,53.054836 L238.693319,53.054836 Z M295.629085,53.210113 L295.629085,6.05993387 L292.988606,6.05993387 L292.988606,102.048085 L295.629085,102.048085 L295.629085,55.8498209 L328.523656,55.8498209 L328.523656,102.048085 L331.468027,102.048085 L331.468027,6.05993387 L328.523656,6.05993387 L328.523656,53.210113 L295.629085,53.210113 Z M362.316394,6.05993387 L362.316394,102.048085 L395.514856,102.048085 L395.514856,99.408377 L364.956874,99.408377 L364.956874,55.694544 L385.43241,55.694544 L385.43241,53.054836 L364.956874,53.054836 L364.956874,8.88192339 L395.514856,8.88192339 L395.514856,6.05993387 L362.316394,6.05993387 Z M453.071912,54.4523285 C463.30968,51.3535409 464.862903,40.4909066 464.862903,31.1877928 C464.862903,16.4499862 460.986598,6.05993387 444.535936,6.05993387 L426.390235,6.05993387 L426.390235,102.048085 L429.334607,102.048085 L429.334607,55.8498209 L444.232045,55.8498209 C457.258862,55.8498209 461.452565,61.2507578 461.452565,73.8416919 L461.452565,102.048085 L464.396936,102.048085 L464.396936,73.3556076 C464.396936,65.1529347 462.370993,56.6262056 453.071912,54.4523285 Z M442.523499,53.054836 L429.334607,53.054836 L429.334607,9.01019565 L443.9214,9.01019565 C459.12273,9.01019565 462.073854,18.0027556 462.073854,31.1877928 C462.073854,45.9188482 458.190796,53.054836 442.523499,53.054836 Z M515.457467,6.05993387 L497.440076,6.05993387 L497.440076,102.048085 L515.437207,102.048085 C531.415149,102.048085 537,91.1922017 537,76.6096721 L537,31.6536236 C537,17.3816478 531.253073,6.05993387 515.437207,6.05993387 L515.457467,6.05993387 Z M534.366273,75.8535409 C534.366273,89.1938551 529.092067,99.4286305 514.349951,99.4286305 L500.073802,99.4286305 L500.073802,8.88192339 L514.370211,8.88192339 C529.112326,8.88192339 534.386533,19.12345 534.386533,32.457013 L534.366273,75.8535409 Z"/>
    <path fill="#16202D" d="M400,12.5218405 L392.513702,20 L388,15.0381575 C388,15.0381575 398.291241,7.98474723 400,12.5218405 Z"/>
  </g>
</svg>
