<svg xmlns="http://www.w3.org/2000/svg" viewBox="0 0 107 61">
  <g fill="#BDCAD1">
    <polygon points="40 0 51 0 51 48 40 48"/>
    <polygon points="56 0 67 0 67 48 56 48"/>
    <polygon points="70 13 81.532 13 88.5 34.091 95.468 13 107 13 88.981 61 77.448 61 82.96 47.427"/>
    <path d="M36,31.1142369 C36,28.6119887 35.5618733,26.2565972 34.6857367,24.0480495 C33.8095223,21.8395534 32.5883489,19.924777 31.0222102,18.3037204 C29.456013,16.6827154 27.5831843,15.3935091 25.4037175,14.4360823 C23.2241988,13.4787328 20.8311384,13 18.2245299,13 C6.88476083,13 0,20.9799536 0,31.1142369 C0,41.0359019 7.84182147,48.7942524 16.2421435,49 L25.5357836,38.7853564 L25.3844533,38.5314945 L25.3844533,48.2819589 L36,48.2819589 L36,31.1142369 Z M25.3462557,38.5698571 L18.0328543,38.5882972 C13.0215386,38.5882972 7.48090095,31.4239153 13.1317905,25.8105938 C18.1455913,20.8301257 25.6582922,24.9149969 25.6582922,31.8459034 L25.3462557,38.5698571 Z"/>
  </g>
</svg>
