<svg width="100%" height="100%" viewBox="0 0 156 41" fill="CurrentColor" xmlns="http://www.w3.org/2000/svg">
  <g clip-path="url(#clip0_270_330)"  fill="#BDCAD1">
    <path d="M11.6737 15.6821V6.95583L7.76842 4.65057V24.04L14.2421 21.0085L14.2526 25.2506L3.92632 30.3874V2.32425L0.0421053 0.0400391L0 32.3874L3.74737 34.9032L18.1579 27.7453L18.1368 19.4927L11.6737 15.6821ZM36.9053 17.019C36.5132 16.5374 35.996 16.1732 35.4105 15.9664C34.7067 15.741 33.9704 15.6343 33.2316 15.6506C32.3388 15.6977 31.4633 15.9157 30.6526 16.2927V12.8295L27.4947 11.1558V28.1664H32.1579C33.0934 28.183 34.0272 28.0804 34.9368 27.8611C35.6342 27.6819 36.2705 27.3183 36.7789 26.8085C37.2977 26.2735 37.6616 25.6077 37.8316 24.8821C38.0621 23.9136 38.1682 22.9196 38.1474 21.9242C38.1349 20.9346 38.0113 19.9495 37.7789 18.9874C37.6388 18.2741 37.3403 17.6014 36.9053 17.019ZM34.7368 23.4295C34.6745 23.8085 34.527 24.1685 34.3053 24.4821C34.0934 24.7645 33.7992 24.9741 33.4632 25.0821C33.0402 25.2099 32.5997 25.2703 32.1579 25.2611L31.5789 25.3032L30.6737 25.2295V18.8295L31.0105 18.7558C31.5995 18.5895 32.2091 18.508 32.8211 18.5137C34.1684 18.5137 34.8316 19.5664 34.8316 21.7453C34.8439 22.3083 34.8122 22.8714 34.7368 23.4295ZM43.9895 15.9348H40.8316V27.8821H43.9895V19.8716L44.4737 19.7137C44.9368 19.5664 45.4421 19.419 45.9895 19.2821C46.5368 19.1453 47.1368 18.9979 47.7895 18.8716V15.6506C46.4387 15.9505 45.1473 16.4734 43.9684 17.1979L43.9895 15.9348ZM54.9368 15.6506C54.0564 15.6252 53.1797 15.7755 52.3579 16.0927C51.6907 16.3558 51.1032 16.7873 50.6526 17.3453C50.2079 17.9245 49.8921 18.592 49.7263 19.3032C49.5384 20.1495 49.4536 21.0155 49.4737 21.8821C49.4737 26.0927 51.3053 28.1979 54.9684 28.1979C58.6316 28.1979 60.4632 26.0927 60.4632 21.8821C60.5638 20.2512 60.1195 18.633 59.2 17.2821C58.6689 16.6927 58.0056 16.2375 57.2645 15.9539C56.5235 15.6703 55.7258 15.5663 54.9368 15.6506ZM56.7053 24.5979C56.5204 24.8913 56.2561 25.1262 55.9431 25.2752C55.63 25.4243 55.2811 25.4815 54.9368 25.44C54.5036 25.4642 54.0734 25.3539 53.7053 25.1242C53.4114 24.9068 53.1792 24.6166 53.0316 24.2821C52.8767 23.9171 52.7808 23.5299 52.7474 23.1348C52.7053 22.7186 52.6842 22.3005 52.6842 21.8821C52.6232 20.9612 52.7895 20.0395 53.1684 19.1979C53.3837 18.9376 53.6539 18.7279 53.9596 18.5841C54.2653 18.4402 54.599 18.3656 54.9368 18.3656C55.2747 18.3656 55.6084 18.4402 55.9141 18.5841C56.2198 18.7279 56.49 18.9376 56.7053 19.1979C57.0797 20.0406 57.2424 20.9622 57.1789 21.8821C57.2396 22.8122 57.0772 23.7433 56.7053 24.5979ZM74.9158 25.1558H74.3474L72.5263 16.1664H69.2316L67.4105 25.1558H66.8421L65.379 15.9348H62.2211L64.4947 27.8821H69.5158L70.8737 20.5664L72.2421 27.8821H77.2526L79.5263 15.9348H76.3789L74.9158 25.1558ZM90.0947 21.7453C89.7951 21.4415 89.437 21.2016 89.0421 21.04C88.5041 20.8256 87.9421 20.6772 87.3684 20.5979C86.7158 20.4821 86.1895 20.3874 85.8 20.2927C85.5213 20.2392 85.2469 20.1653 84.979 20.0716C84.8382 20.0304 84.7148 19.9443 84.6274 19.8265C84.54 19.7087 84.4934 19.5656 84.4947 19.419C84.488 19.2863 84.5179 19.1543 84.581 19.0374C84.6441 18.9204 84.738 18.8231 84.8526 18.7558C85.3405 18.5627 85.867 18.487 86.3895 18.5348C86.7895 18.5348 87.3263 18.5664 88 18.6295C88.6737 18.6927 89.5158 18.7979 90.5263 18.9242V16.2716L89.7368 16.1242C88.9263 15.9664 88.2 15.8506 87.5474 15.7769C86.9989 15.7106 86.4472 15.6755 85.8947 15.6716C85.2687 15.6616 84.6445 15.7431 84.0421 15.9137C83.5109 16.0506 83.013 16.2941 82.5789 16.6295C82.1741 16.9488 81.8466 17.3554 81.6211 17.819C81.3807 18.3436 81.262 18.9157 81.2737 19.4927C81.274 20.0376 81.3666 20.5786 81.5474 21.0927C81.6824 21.4959 81.9179 21.8582 82.2316 22.1453C82.5628 22.4475 82.9536 22.677 83.379 22.819C83.9067 22.9965 84.4492 23.1268 85 23.2085C85.7785 23.3182 86.5462 23.4942 87.2947 23.7348C87.4256 23.7913 87.5366 23.8857 87.6134 24.0057C87.6903 24.1257 87.7296 24.266 87.7263 24.4085C87.7307 24.5471 87.6941 24.684 87.6211 24.802C87.548 24.9199 87.4419 25.0137 87.3158 25.0716C86.8155 25.2743 86.2748 25.3572 85.7368 25.3137C85.3439 25.3137 84.807 25.2821 84.1263 25.219C83.4526 25.1558 82.6105 25.0611 81.6105 24.9348L81.5158 27.6085L82.2737 27.7453C83.5345 28.0092 84.8174 28.1537 86.1053 28.1769C89.3053 28.1769 90.9053 26.8892 90.9053 24.3137C90.9154 23.802 90.8516 23.2914 90.7158 22.7979C90.5997 22.4008 90.3862 22.039 90.0947 21.7453ZM98.2632 15.6506C94.7474 15.6506 93 17.7558 93 22.0716C92.8574 23.7203 93.2888 25.3676 94.2211 26.7348C94.7288 27.249 95.3444 27.6442 96.0234 27.8917C96.7023 28.1393 97.4278 28.2331 98.1474 28.1664C99.824 28.1439 101.492 27.9213 103.116 27.5032V25.1348L102.453 25.2085C101.284 25.3032 99.9684 25.3453 98.4842 25.3453C97.8995 25.3886 97.3191 25.2164 96.8526 24.8611C96.6534 24.6497 96.5 24.3994 96.4021 24.1258C96.3043 23.8523 96.2642 23.5614 96.2842 23.2716H103.305L103.474 21.0927C103.474 17.4646 101.737 15.6506 98.2632 15.6506ZM96.1579 20.8295C96.1099 20.1389 96.2792 19.4506 96.6421 18.8611C96.8487 18.6477 97.1009 18.4838 97.3798 18.3817C97.6587 18.2796 97.9571 18.242 98.2526 18.2716C98.5434 18.2379 98.8381 18.2716 99.1138 18.3702C99.3894 18.4688 99.6386 18.6295 99.8421 18.84C100.196 19.4398 100.351 20.1363 100.284 20.8295H96.1579ZM109.305 15.9348H106.147V27.8821H109.305V19.8716L109.789 19.7137C110.253 19.5664 110.758 19.419 111.305 19.2821C111.853 19.1453 112.453 18.9979 113.105 18.8716V15.6506C111.754 15.9505 110.463 16.4734 109.284 17.1979L109.305 15.9348ZM115.516 11.1558H118.716V27.8821H115.516V11.1558ZM126.874 15.6506C123.365 15.6506 121.611 17.7909 121.611 22.0716C121.468 23.7203 121.899 25.3676 122.832 26.7348C123.337 27.2488 123.951 27.6439 124.628 27.8915C125.306 28.1391 126.029 28.233 126.747 28.1664C128.428 28.1448 130.099 27.9222 131.726 27.5032L131.674 25.1348L131 25.2085C129.842 25.3032 128.516 25.3453 127.042 25.3453C126.457 25.3906 125.876 25.2182 125.411 24.8611C125.211 24.6497 125.058 24.3994 124.96 24.1258C124.862 23.8523 124.822 23.5614 124.842 23.2716H131.863L132.105 21.0506C132.091 17.4506 130.347 15.6506 126.874 15.6506ZM124.768 20.8295C124.723 20.1377 124.896 19.4491 125.263 18.8611C125.469 18.6464 125.721 18.4817 126 18.3795C126.279 18.2773 126.578 18.2404 126.874 18.2716C127.164 18.2379 127.459 18.2716 127.735 18.3702C128.01 18.4688 128.26 18.6295 128.463 18.84C128.817 19.4398 128.972 20.1363 128.905 20.8295H124.768ZM142.884 21.7453C142.585 21.4415 142.227 21.2016 141.832 21.04C141.307 20.8297 140.759 20.6813 140.2 20.5979C139.547 20.4821 139.032 20.3874 138.642 20.2927C138.36 20.2402 138.082 20.1663 137.811 20.0716C137.671 20.03 137.549 19.9435 137.463 19.8256C137.377 19.7076 137.333 19.5647 137.337 19.419C137.329 19.2861 137.358 19.1536 137.421 19.0365C137.485 18.9193 137.579 18.8222 137.695 18.7558C138.179 18.5612 138.702 18.4854 139.221 18.5348C139.621 18.5348 140.158 18.5664 140.832 18.6295C141.516 18.6927 142.358 18.7979 143.358 18.9242V16.2716L142.568 16.1242C141.747 15.9664 141.021 15.8506 140.379 15.7769C139.827 15.7104 139.272 15.6753 138.716 15.6716C138.09 15.6623 137.466 15.7439 136.863 15.9137C136.334 16.0485 135.84 16.2923 135.411 16.6295C135.003 16.9458 134.675 17.3532 134.453 17.819C134.212 18.3436 134.094 18.9157 134.105 19.4927C134.09 20.0311 134.165 20.5683 134.326 21.0821C134.465 21.4835 134.7 21.8448 135.011 22.1348C135.343 22.4348 135.734 22.664 136.158 22.8085C136.686 22.986 137.228 23.1163 137.779 23.1979C138.558 23.3062 139.326 23.4823 140.074 23.7242C140.198 23.7863 140.302 23.8817 140.375 23.9998C140.448 24.1179 140.487 24.2539 140.487 24.3927C140.487 24.5314 140.448 24.6675 140.375 24.7855C140.302 24.9036 140.198 24.999 140.074 25.0611C139.573 25.2615 139.033 25.3443 138.495 25.3032C138.095 25.3032 137.558 25.2716 136.884 25.2085C136.211 25.1453 135.368 25.0506 134.358 24.9242L134.263 27.5979L135.032 27.7348C136.289 27.9986 137.568 28.1431 138.853 28.1664C142.053 28.1664 143.653 26.8786 143.653 24.3032C143.663 23.7914 143.599 23.2809 143.463 22.7874C143.358 22.3982 143.159 22.0405 142.884 21.7453ZM155.147 22.7874C155.031 22.3903 154.818 22.0285 154.526 21.7348C154.213 21.4229 153.836 21.1824 153.421 21.0295C152.9 20.8191 152.356 20.6707 151.8 20.5874C151.147 20.4716 150.621 20.3769 150.232 20.2821C149.953 20.2286 149.678 20.1548 149.411 20.0611C149.271 20.0195 149.149 19.933 149.063 19.815C148.977 19.6971 148.933 19.5542 148.937 19.4085C148.929 19.2756 148.958 19.1431 149.021 19.026C149.085 18.9088 149.179 18.8116 149.295 18.7453C149.779 18.5507 150.302 18.4749 150.821 18.5242C151.221 18.5242 151.758 18.5558 152.432 18.619C153.105 18.6821 153.947 18.7874 154.958 18.9137V16.2611L154.168 16.1137C153.354 15.9593 152.628 15.8435 151.989 15.7664C151.437 15.7003 150.882 15.6652 150.326 15.6611C149.7 15.651 149.076 15.7326 148.474 15.9032C147.942 16.04 147.445 16.2836 147.011 16.619C146.606 16.9382 146.278 17.3449 146.053 17.8085C145.816 18.3339 145.701 18.906 145.716 19.4821C145.701 20.0206 145.775 20.5577 145.937 21.0716C146.072 21.4749 146.307 21.8371 146.621 22.1242C146.954 22.4243 147.344 22.6535 147.768 22.7979C148.323 22.984 148.894 23.1179 149.474 23.1979C150.252 23.3076 151.02 23.4837 151.768 23.7242C151.899 23.7808 152.01 23.8751 152.087 23.9952C152.164 24.1152 152.203 24.2554 152.2 24.3979C152.204 24.5366 152.168 24.6735 152.095 24.7914C152.022 24.9094 151.916 25.0032 151.789 25.0611C151.293 25.2629 150.756 25.3458 150.221 25.3032C149.821 25.3032 149.284 25.3032 148.6 25.2085C147.916 25.1137 147.084 25.0506 146.084 24.9242L145.989 27.5979L146.747 27.7348C148.008 27.9987 149.291 28.1432 150.579 28.1664C153.779 28.1664 155.379 26.8786 155.379 24.3032C155.375 23.7894 155.297 23.2788 155.147 22.7874Z"></path>
  </g>
  <defs>
    <clipPath id="clip0_270_330">
      <rect width="155.789" height="40" fill="white" transform="translate(0 0.0400391)"></rect>
    </clipPath>
  </defs>
</svg>