<svg xmlns="http://www.w3.org/2000/svg" width="182" height="169" viewBox="0 0 182 169">
  <g fill="none" transform="translate(2)">
    <polygon fill="#DCE0E0" points="119.77 78.17 98.07 90.7 110.29 97.84 131.99 85.37"/>
    <path fill="#1C2B3B" stroke="#1C2B3B" stroke-linecap="square" stroke-width="4" d="M0.24,56.86 L22.31,122.08 C22.7711508,123.731853 23.97134,125.076996 25.5601596,125.722698 C27.1489792,126.368401 28.9472693,126.241852 30.43,125.38 L111.78,78.17 L87.44,4.78 C87.1926605,3.80211364 86.5013783,2.9966348 85.5723343,2.60380435 C84.6432903,2.21097389 83.5838498,2.27618948 82.71,2.78 L3.63,48.71 C0.794083512,50.3536994 -0.593632311,53.6899484 0.24,56.86 Z"/>
    <path fill="#FFF" stroke="#1C2B3B" stroke-linecap="square" stroke-width="4" d="M5.81,56.5 L27.58,123.29 L115.12,72.49 L93,4.42 C92.7526605,3.44211364 92.0613783,2.6366348 91.1323343,2.24380435 C90.2032903,1.85097389 89.1438498,1.91618948 88.27,2.42 L9.2,48.35 C6.36951177,49.9984539 4.98356652,53.3304462 5.81,56.5 Z"/>
    <polygon fill="#DCE0E0" points="12.6 54.24 31.94 112.32 106.97 69.06 87.63 10.99"/>
    <polygon fill="#FFF" points="21.14 58.24 30.05 85.01 64.63 65.07 55.72 38.3"/>
    <polygon fill="#FFF" points="66.47 54.11 74.74 79.08 99.54 65 91.27 40.03"/>
    <path fill="#1C2B3B" stroke="#1C2B3B" stroke-linecap="square" stroke-width="4" d="M176.6,115 L176.6,109.38 L176.6,109.38 C176.707706,108.608164 176.335689,107.848299 175.66,107.46 L117.13,74.46 C116.526623,74.1253711 115.793377,74.1253711 115.19,74.46 L28.8899978,124.33 C28.2719926,124.672313 27.8899978,125.323522 27.8899978,126.03 L27.8899978,131.94 L27.8899978,131.94 C27.912763,132.616477 28.2936871,133.229765 28.8899978,133.55 L87.42,166.55 C88.0191116,166.900727 88.7608884,166.900727 89.36,166.55 L175.66,116.68 C176.26001,116.334037 176.638316,115.702266 176.66,115.01 L176.6,115 Z"/>
    <path fill="#FFF" stroke="#1C2B3B" stroke-linecap="square" stroke-width="4" d="M28.85,126 L87.38,159 C87.9833768,159.334629 88.7166232,159.334629 89.32,159 L175.62,109.12 C176.215295,108.772148 176.581238,108.134476 176.581238,107.445 C176.581238,106.755524 176.215295,106.117852 175.62,105.77 L117.09,72.77 C116.486623,72.4353711 115.753377,72.4353711 115.15,72.77 L28.85,122.65 C28.249358,122.993814 27.8787883,123.632917 27.8787883,124.325 C27.8787883,125.017083 28.249358,125.656186 28.85,126 Z"/>
    <path fill="#DCE0E0" d="M116 82.29L50.91 120C50.2089781 120.408452 49.777824 121.158665 49.777824 121.97 49.777824 122.781335 50.2089781 123.531548 50.91 123.94L70.61 135.45C71.3185285 135.859069 72.1914715 135.859069 72.9 135.45L138 97.85C138.701022 97.4415483 139.132176 96.691335 139.132176 95.88 139.132176 95.068665 138.701022 94.3184517 138 93.91L118.32 82.3C117.606296 81.8740514 116.71735 81.8702197 116 82.29L116 82.29zM126.38 110.19L98.82 126.19C98.3549584 126.457696 98.0683315 126.953413 98.0683315 127.49 98.0683315 128.026587 98.3549584 128.522304 98.82 128.79L111.82 136.4C112.289157 136.675716 112.870843 136.675716 113.34 136.4L140.9 120.49C141.364571 120.219568 141.650345 119.722549 141.650345 119.185 141.650345 118.647451 141.364571 118.150432 140.9 117.88L127.9 110.21C127.434479 109.928083 126.852778 109.920429 126.38 110.19z"/>
    <polygon fill="#1C2B3B" points="89.82 0 84.06 .39 78.53 3.21 88.29 2.45"/>
    <path fill="#FFF" stroke="#1C2B3B" stroke-linecap="square" stroke-width="4" d="M170.83,57.47 C179.654862,48.6904734 179.994852,34.5165266 171.601087,25.3239765 C163.207322,16.1314264 149.060916,15.1850834 139.517526,23.1777032 C129.974135,31.170323 128.423174,45.2632603 136,55.14 L133.65,63.94 C133.641278,63.9683262 133.648931,63.9991533 133.669889,64.020111 C133.690847,64.0410687 133.721674,64.0487221 133.75,64.04 L143.33,61.43 C152.359205,66.3619223 163.559186,64.7491251 170.83,57.47 Z"/>
    <rect width="3.07" height="3.07" x="147.05" y="32.75" fill="#1C2B3B"/>
    <rect width="3.07" height="3.07" x="150.12" y="32.75" fill="#1C2B3B"/>
    <rect width="3.07" height="3.07" x="156.25" y="32.75" fill="#1C2B3B"/>
    <rect width="3.07" height="3.07" x="159.32" y="32.75" fill="#1C2B3B"/>
    <rect width="3.07" height="3.07" x="143.98" y="35.82" fill="#1C2B3B"/>
    <rect width="3.07" height="3.07" x="147.05" y="35.82" fill="#FFF"/>
    <rect width="3.07" height="3.07" x="150.12" y="35.82" fill="#1C2B3B"/>
    <rect width="3.07" height="3.07" x="153.18" y="35.82" fill="#1C2B3B"/>
    <rect width="3.07" height="3.07" x="156.25" y="35.82" fill="#1C2B3B"/>
    <rect width="3.07" height="3.07" x="159.32" y="35.82" fill="#1C2B3B"/>
    <rect width="3.07" height="3.07" x="162.39" y="35.82" fill="#1C2B3B"/>
    <rect width="3.07" height="3.07" x="143.98" y="38.88" fill="#1C2B3B"/>
    <rect width="3.07" height="3.07" x="147.05" y="38.88" fill="#1C2B3B"/>
    <rect width="3.07" height="3.07" x="150.12" y="38.88" fill="#1C2B3B"/>
    <rect width="3.07" height="3.07" x="153.18" y="38.88" fill="#1C2B3B"/>
    <rect width="3.07" height="3.07" x="156.25" y="38.88" fill="#1C2B3B"/>
    <rect width="3.07" height="3.07" x="159.32" y="38.88" fill="#1C2B3B"/>
    <rect width="3.07" height="3.07" x="162.39" y="38.88" fill="#1C2B3B"/>
    <rect width="3.07" height="3.07" x="147.05" y="41.96" fill="#1C2B3B"/>
    <rect width="3.07" height="3.07" x="150.12" y="41.96" fill="#1C2B3B"/>
    <rect width="3.07" height="3.07" x="153.18" y="41.96" fill="#1C2B3B"/>
    <rect width="3.07" height="3.07" x="156.25" y="41.96" fill="#1C2B3B"/>
    <rect width="3.07" height="3.07" x="150.12" y="45.02" fill="#1C2B3B"/>
    <rect width="3.07" height="3.07" x="153.18" y="45.02" fill="#1C2B3B"/>
    <rect width="3.07" height="3.07" x="153.18" y="48.09" fill="#1C2B3B"/>
    <rect width="3.07" height="3.07" x="156.25" y="45.02" fill="#1C2B3B"/>
    <rect width="3.07" height="3.07" x="159.32" y="41.96" fill="#1C2B3B"/>
  </g>
</svg>
