<svg xmlns="http://www.w3.org/2000/svg" width="212" height="136" viewBox="0 0 212 136">
  <g fill="none" transform="translate(-1 -1)">
    <path fill="#1C2B3B" d="M211.22,77.75 L112,135.39 C109.053636,137.100665 105.416364,137.100665 102.47,135.39 L2.64,77.74 C1.6305771,77.1526482 1.00959844,76.0728685 1.00959844,74.905 C1.00959844,73.7371315 1.6305771,72.6573518 2.64,72.07 L104.94,12.62 C105.957374,12.0302276 107.212626,12.0302276 108.23,12.62 L211.23,72.08 C212.23839,72.6691301 212.855412,73.7500057 212.855412,74.9178755 C212.855412,76.0857453 212.230461,77.1644305 211.22,77.75 Z"/>
    <path fill="#DCE0E0" d="M156.18,31.65 L136.73,43 C136.237763,43.2191702 135.914992,43.7013835 135.9,44.24 C135.966161,44.7394204 136.288508,45.1679519 136.75,45.37 C137.410061,45.7223714 138.152438,45.8915644 138.9,45.86 C140.951018,45.7720459 142.98819,46.2347257 144.8,47.2 C145.176648,47.4153022 145.531628,47.6664675 145.86,47.95 L147.96,47.13 L145.86,47.95 C146.661464,48.5357315 147.130246,49.4728452 147.118335,50.46546 C147.106424,51.4580748 146.615289,52.3836695 145.8,52.95 C145.489545,53.208609 145.154629,53.4363518 144.8,53.63 C141.290959,55.4164859 137.139041,55.4164859 133.63,53.63 C132,52.69 131.24,51.46 131.3,50.22 C131.285417,49.6865928 130.966767,49.2086178 130.48,48.99 C129.184214,48.3226309 127.645786,48.3226309 126.35,48.99 L106.91,60.29 L90.43,50.73 C92.1501351,50.4252437 93.808751,49.8408434 95.34,49 C100.34,46.06 100.34,41.31 95.34,38.38 C94.7318414,38.0332498 94.10032,37.729184 93.45,37.47 C88.7991927,35.7218583 83.6791988,35.6793394 79,37.35 C78.2864421,37.6248293 77.5973334,37.9593481 76.94,38.35 C75.691898,39.0247871 74.6355622,40.0054245 73.87,41.2 L57.38,31.65 L104,4.56 C104.811538,4.12740886 105.720572,3.91048013 106.64,3.93 C107.558905,3.91530732 108.466749,4.13195184 109.28,4.56 L156.18,31.65 Z"/>
    <path fill="#1C2B3B" d="M95.29,38.33 C100.36,41.26 100.39,46.01 95.29,48.95 C93.761871,49.8082504 92.103111,50.4095932 90.38,50.73 L106.83,60.3 L87,71.88 L103.35,62.37 L83.75,51.08 C83.2538364,50.8549037 82.9228674,50.3738441 82.89,49.83 C82.9560573,49.3335415 83.2736377,48.9063202 83.73,48.7 C84.3912289,48.341112 85.1386367,48.1715611 85.89,48.21 C87.9296479,48.2913239 89.954596,47.8325196 91.76,46.88 C93.3,45.98 94.06,44.82 94.05,43.64 C93.9060343,42.2220196 93.0184344,40.9877606 91.72,40.4 C91.3438014,40.1857704 90.9528106,39.9986295 90.55,39.84 C87.737711,38.8091247 84.6539257,38.7914425 81.83,39.79 C81.3870339,39.9572001 80.9588673,40.1612482 80.55,40.4 C78.93,41.34 78.18,42.57 78.26,43.81 C78.2488259,44.3522666 77.9254435,44.8392883 77.43,45.06 C76.9930324,45.298626 76.5144151,45.4513762 76.02,45.51 C75.4566973,45.5808972 74.8855101,45.5572385 74.33,45.44 C73.9803378,45.3613802 73.6436334,45.2334325 73.33,45.06 L53.75,33.76 L7.14,60.85 C6.52759231,61.117247 6.11501486,61.7033383 6.07,62.37 C6.12999332,63.0425202 6.55160566,63.6289446 7.17,63.9 L54.08,91 L70.58,81.41 L50.59,93 L54.17,95.06 L3.6,66 C0.15,64 0.13,60.79 3.55,58.8 L50.22,31.65 L53.73,29.65 L73.86,41.23 C74.628354,40.0141558 75.6956879,39.0156821 76.96,38.33 C77.6173334,37.9393481 78.3064421,37.6048293 79.02,37.33 C83.6722022,35.660299 88.7642737,35.6850866 93.4,37.4 C94.0508671,37.6656563 94.6824013,37.9764112 95.29,38.33 Z"/>
    <path fill="#1C2B3B" d="M150,54.6 C149.518999,55.0115759 149.000003,55.3765473 148.45,55.69 C143.45,58.62 135.19,58.62 130.12,55.69 C128.845761,55.0070114 127.768069,54.0085105 126.99,52.79 L110.57,62.33 L107,60.26 L90.34,50.75 L106.94,60.26 L126.38,49 C127.038598,48.6533846 127.776197,48.4844952 128.52,48.51 C129.216322,48.5105254 129.902295,48.6785888 130.52,49 C131.016847,49.2277843 131.344853,49.714005 131.37,50.26 C131.3,51.49 132.06,52.72 133.69,53.66 C137.199041,55.4464859 141.350959,55.4464859 144.86,53.66 C145.214629,53.4663518 145.549545,53.238609 145.86,52.98 C146.675289,52.4136695 147.166424,51.4880748 147.178335,50.49546 C147.190246,49.5028452 146.721464,48.5657315 145.92,47.98 C145.591628,47.6964675 145.236648,47.4453022 144.86,47.23 C143.04819,46.2647257 141.011018,45.8020459 138.96,45.89 C138.228792,45.920898 137.501995,45.7624494 136.85,45.43 C136.372212,45.2238789 136.035382,44.7848639 135.96,44.27 C135.974992,43.7313835 136.297763,43.2491702 136.79,43.03 L156.24,31.73 L109.27,4.56 C108.456749,4.13195184 107.548905,3.91530732 106.63,3.93 C105.710572,3.91048013 104.801538,4.12740886 103.99,4.56 L57.38,31.65 L73.89,41.18 L53.73,29.61 L100.4,2.49 C104.304532,0.500594032 108.925468,0.500594032 112.83,2.49 L159.75,29.58 L163.33,31.65 L143.33,43.27 C145.082848,43.5910565 146.771652,44.1956484 148.33,45.06 C148.940078,45.4083953 149.515958,45.8135204 150.05,46.27 C153,48.8 152.92,52.11 150,54.6 Z"/>
    <polygon fill="gray" points="128.14 73.57 128.14 73.57 128.15 73.57"/>
    <path fill="#FFF" d="M139.52 79.27C138.968535 79.1475808 138.399737 79.1238808 137.84 79.2 137.345212 79.2568959 136.866271 79.4097494 136.43 79.65 135.9355 79.8735267 135.610135 80.3577 135.59 80.9 135.68 82.13 134.93 83.37 133.32 84.3 132.90236 84.5380817 132.467868 84.7453011 132.02 84.92 129.205345 85.9348138 126.124655 85.9348138 123.31 84.92 122.905167 84.7620911 122.513872 84.5714604 122.14 84.35 120.59 83.46 119.81 82.35 119.81 81.12 119.81 79.89 120.55 78.78 122.1 77.88 123.909157 76.9040495 125.945662 76.4277143 128 76.5 128.747429 76.5301074 129.489428 76.3610004 130.15 76.01 130.608886 75.8068259 130.927683 75.3779688 130.99 74.88 131.00657 74.6444682 130.939265 74.4106701 130.8 74.22 130.628962 73.9746074 130.402955 73.7725708 130.14 73.63L120.31 68 118.52 67 110.52 62.4 127 52.79C127.778069 54.0085105 128.855761 55.0070114 130.13 55.69 135.2 58.62 143.41 58.62 148.46 55.69 149.006538 55.3760126 149.522166 55.0110553 150 54.6 152.95 52.11 153 48.8 150.09 46.27 149.563936 45.8182774 148.9945 45.419672 148.39 45.08 146.834024 44.2062159 145.144745 43.5946969 143.39 43.27L159.82 33.72 206.73 60.81C207.348126 61.051025 207.755107 61.6465449 207.755107 62.31 207.755107 62.9734551 207.348126 63.568975 206.73 63.81L160.1 91 140.54 79.7C140.223279 79.5067336 139.879494 79.3618048 139.52 79.27L139.52 79.27zM91.72 40.4C93.0184344 40.9877606 93.9060343 42.2220196 94.05 43.64 94.05 44.82 93.3 45.98 91.76 46.88 89.9514663 47.833794 87.9229612 48.2926225 85.88 48.21 85.1319429 48.1728966 84.3881065 48.3424221 83.73 48.7 83.2283804 48.8753253 82.8924318 49.3486233 82.8924318 49.88 82.8924318 50.4113767 83.2283804 50.8846747 83.73 51.06L103.31 62.37 87 71.87C86.2041571 70.6596952 85.1132105 69.6719928 83.83 69 78.75 66 70.55 66 65.5 69 64.9211695 69.3390604 64.3724914 69.7271498 63.86 70.16 62.5661699 71.1528173 61.7817621 72.6703166 61.72 74.3 61.7957092 75.9357166 62.589878 77.4545186 63.89 78.45 64.408522 78.8917949 64.9676802 79.2835404 65.56 79.62 67.1187559 80.4855697 68.8072102 81.0934133 70.56 81.42L54.08 91 7.17 63.9C6.55160566 63.6289446 6.12999332 63.0425202 6.07 62.37 6.11501486 61.7033383 6.52759231 61.117247 7.14 60.85L53.75 33.76 73.32 45.06C73.6336334 45.2334325 73.9703378 45.3613802 74.32 45.44 74.8755101 45.5572385 75.4466973 45.5808972 76.01 45.51 76.5044151 45.4513762 76.9830324 45.298626 77.42 45.06 77.9154435 44.8392883 78.2388259 44.3522666 78.25 43.81 78.17 42.57 78.92 41.34 80.54 40.4 80.9488673 40.1612482 81.3770339 39.9572001 81.82 39.79 84.6439257 38.7914425 87.727711 38.8091247 90.54 39.84 90.9462255 39.998193 91.3405721 40.1853405 91.72 40.4z"/>
    <path fill="#1C2B3B" d="M120.32,68 L116.75,70 L114.89,69 L107,64.4 L87.54,75.7 C86.8787611,76.0492036 86.1372515,76.2181988 85.39,76.19 C84.6926052,76.1985829 84.0044459,76.0299839 83.39,75.7 C82.8931677,75.477497 82.56428,74.9938386 82.54,74.45 C82.61,73.22 81.85,71.99 80.22,71.04 C76.7078691,69.2664421 72.5621309,69.2664421 69.05,71.04 C68.6957593,71.2533192 68.3611174,71.4976078 68.05,71.77 C67.2376528,72.3433675 66.7545396,73.275687 66.7545396,74.27 C66.7545396,75.264313 67.2376528,76.1966325 68.05,76.77 C68.3607107,77.0458562 68.6953653,77.2935005 69.05,77.51 C70.8788114,78.4780249 72.932776,78.9405985 75,78.85 C75.7399004,78.8194244 76.4747318,78.9850202 77.13,79.33 C77.4894491,79.5024637 77.7763533,79.796452 77.94,80.16 C78.0830349,80.490616 78.0371955,80.8726116 77.82,81.16 C77.647544,81.4004641 77.425991,81.601566 77.17,81.75 L57.75,93 L64,96.61 L65.73,97.61 L62.16,99.68 L54.16,95.08 L50.59,93 L70.59,81.37 C68.8370255,81.0440945 67.148464,80.4362123 65.59,79.57 C64.9976802,79.2335404 64.438522,78.8417949 63.92,78.4 C62.619878,77.4045186 61.8257092,75.8857166 61.75,74.25 C61.8117621,72.6203166 62.5961699,71.1028173 63.89,70.11 C64.3948353,69.695832 64.933373,69.3245421 65.5,69 C70.5,66.07 78.75,66.07 83.83,69 C85.1132105,69.6719928 86.2041571,70.6596952 87,71.87 L106.88,60.3 L110.54,62.3 L118.54,66.9 L120.32,68 Z"/>
    <path fill="#1C2B3B" d="M210.26,58.74 C213.7,60.74 213.72,63.94 210.31,65.93 L160.13,95.1 L156.53,93 L140,83.47 C139.24179,84.6931929 138.176445,85.6964793 136.91,86.38 C136.248161,86.7687306 135.555893,87.1031596 134.84,87.38 C130.186627,89.0428621 125.096963,89.0180863 120.46,87.31 C119.813817,87.0487607 119.185759,86.744754 118.58,86.4 C113.49,83.47 113.47,78.71 118.52,75.78 C120.071784,74.8991713 121.762856,74.2903854 123.52,73.98 L114.88,68.98 L116.75,70 L120.31,68 L130.11,73.66 C130.372955,73.8025708 130.598962,74.0046074 130.77,74.25 C130.909265,74.4406701 130.97657,74.6744682 130.96,74.91 C130.897683,75.4079688 130.578886,75.8368259 130.12,76.04 C129.462557,76.3897224 128.724115,76.5588048 127.98,76.53 C125.936952,76.4464228 123.908201,76.9053068 122.1,77.86 C120.55,78.76 119.8,79.92 119.81,81.1 C119.82,82.28 120.59,83.44 122.14,84.33 C122.513872,84.5514604 122.905167,84.7420911 123.31,84.9 C126.124655,85.9148138 129.205345,85.9148138 132.02,84.9 C132.467868,84.7253011 132.90236,84.5180817 133.32,84.28 C134.93,83.35 135.68,82.11 135.59,80.88 C135.610135,80.3377 135.9355,79.8535267 136.43,79.63 C136.866271,79.3897494 137.345212,79.2368959 137.84,79.18 C138.399737,79.1038808 138.968535,79.1275808 139.52,79.25 C139.86986,79.3279603 140.206657,79.4559429 140.52,79.63 L160.1,91 L206.72,63.91 C207.338126,63.668975 207.745107,63.0734551 207.745107,62.41 C207.745107,61.7465449 207.338126,61.151025 206.72,60.91 L159.78,33.72 L143.35,43.27 L163.35,31.65 L159.77,29.58 L210.26,58.74 Z"/>
    <path fill="#DCE0E0" d="M140,83.47 C139.24179,84.6931929 138.176445,85.6964793 136.91,86.38 C136.248161,86.7687306 135.555893,87.1031596 134.84,87.38 C130.186627,89.0428621 125.096963,89.0180863 120.46,87.31 C119.813817,87.0487607 119.185759,86.744754 118.58,86.4 C113.49,83.47 113.47,78.71 118.52,75.78 C120.071784,74.8991713 121.762856,74.2903854 123.52,73.98 L114.88,68.98 L114.88,68.98 L107,64.4 L87.54,75.7 C86.2391333,76.3609203 84.7008667,76.3609203 83.4,75.7 C82.9179478,75.4706183 82.6023525,74.9933766 82.58,74.46 C82.65,73.23 81.89,72 80.26,71.05 C76.7478691,69.2764421 72.6021309,69.2764421 69.09,71.05 C68.7357593,71.2633192 68.4011174,71.5076078 68.09,71.78 C67.2776528,72.3533675 66.7945396,73.285687 66.7945396,74.28 C66.7945396,75.274313 67.2776528,76.2066325 68.09,76.78 C68.4007107,77.0558562 68.7353653,77.3035005 69.09,77.52 C70.9079228,78.477622 72.9471004,78.9365232 75,78.85 C75.7504784,78.8214493 76.4953026,78.9904141 77.16,79.34 C77.5065132,79.5155674 77.7819667,79.8051468 77.94,80.16 C78.0830349,80.490616 78.0371955,80.8726116 77.82,81.16 C77.647544,81.4004641 77.425991,81.601566 77.17,81.75 L57.75,93 L64,96.61 L65.73,97.61 L104.73,120.1 C105.540566,120.535151 106.450283,120.752243 107.37,120.73 C108.28664,120.753274 109.193392,120.536067 110,120.1 L156.53,93 L140,83.47 Z"/>
    <path fill="#1C2B3B" d="M160.12,95.09 L113.52,122.18 C109.614298,124.164526 104.995702,124.164526 101.09,122.18 L54.17,95.08 L62.17,99.68 L65.74,97.61 L104.74,120.1 C105.550566,120.535151 106.460283,120.752243 107.38,120.73 C108.29664,120.753274 109.203392,120.536067 110.01,120.1 L156.53,93 L160.12,95.09 Z"/>
  </g>
</svg>
