<svg viewBox="-20 -10 200 275" xmlns="http://www.w3.org/2000/svg" xmlns:xlink="http://www.w3.org/1999/xlink">
  <clipPath id="eye1" transform="translate(-10 -10)">
    <circle cx="50.54" cy="125.5" r="10.5"/>
  </clipPath>
  <clipPath id="eye2" transform="translate(-10 -10)">
    <circle cx="124.5" cy="125.43" r="10.5"/>
  </clipPath>
  <clipPath id="f" transform="translate(-10 -10)">
    <path clip-rule="evenodd"
          d="m40 160.1c-6.08 10.18-5.89 24-8.25 23.19s-3.55-15.12 0-23.19a75.47 75.47 0 0 0 4.35-14.37c-8.92-18.73-56.36-127.73 51.12-127.73 113 0 54.93 120.43 50.21 129.86a71.07 71.07 0 0 0 3.89 12.24c3.55 8.07 2.36 22.34 0 23.19s-2.17-13-8.25-23.19a41 41 0 0 1 -2.18-4.13c1.39 8.41 2.34 20.59-1.94 27.63-5.1 8.73 4.23 36.92 7 37.3 3.86.53 0-17.58 3.31-15.32 4.92 3.35 8.84 20.66-1.83 24.43-9.72 3.44-27.43-24.43-22-46.41 3-8.91-2.69-27.64-4.22-35.15a168.07 168.07 0 0 1 -.42 52.68c-5.47 34.44 5.5 45.12 9.09 43.73 5-2 1.62-11.9 1.62-11.9 2.28-4 20 8.71 8.12 20.89-10.42 11.06-36.82 4-33.81-51.42 1.82-17.91-4.1-34.46-9.34-45.12-5.29 10.64-11.42 27.42-9.57 45.59 3 55.39-23.39 62.48-33.81 51.42-11.9-12.18 5.84-24.94 8.12-20.89 0 0-3.36 9.95 1.62 11.9 3.59 1.39 14.57-9.29 9.09-43.73-4.24-26.7-1.45-45.87 0-53.15-1.69 7.51-7.33 26.25-4.38 35.15 5.47 22-12.24 49.85-22 46.41-10.67-3.77-6.75-21.08-1.83-24.43 3.31-2.25-.55 15.86 3.31 15.32 2.77-.38 12.1-28.57 7-37.3-4.28-7-3.33-19.22-1.94-27.63a41 41 0 0 1 -2.08 4.13zm-40-160.1h174.5v276.73h-174.5z"/>
  </clipPath>
  <g clip-path="url(#eye1)">
    <path d="m25.04 100h31v31h-31z" fill="#3d434b"/>
  </g>
  <g clip-path="url(#eye2)">
    <path d="m99 99.93h31v31h-31z" fill="#3d434b"/>
  </g>
  <g clip-path="url(#f)">
    <path
      d="m30 150.1c-6.08 10.18-5.89 24-8.25 23.19s-3.55-15.12 0-23.19a75.47 75.47 0 0 0 4.35-14.37c-8.92-18.73-56.36-127.73 51.12-127.73 113 0 54.93 120.43 50.21 129.86a71.07 71.07 0 0 0 3.89 12.24c3.55 8.07 2.36 22.34 0 23.19s-2.17-13-8.25-23.19a41 41 0 0 1 -2.18-4.13c1.39 8.41 2.34 20.59-1.94 27.63-5.1 8.73 4.23 36.92 7 37.3 3.86.53 0-17.58 3.31-15.32 4.92 3.35 8.84 20.66-1.83 24.43-9.72 3.44-27.43-24.43-22-46.41 3-8.91-2.69-27.64-4.22-35.15a168.06 168.06 0 0 1 -.42 52.68c-5.47 34.44 5.5 45.12 9.09 43.73 5-2 1.62-11.9 1.62-11.9 2.28-4 20 8.71 8.12 20.89-10.42 11.06-36.82 4-33.81-51.42 1.82-17.91-4.1-34.46-9.34-45.12-5.29 10.64-11.42 27.42-9.57 45.59 3 55.39-23.39 62.48-33.81 51.42-11.9-12.18 5.84-24.94 8.12-20.89 0 0-3.36 9.95 1.62 11.9 3.59 1.39 14.57-9.29 9.09-43.73-4.24-26.69-1.45-45.87 0-53.15-1.69 7.51-7.33 26.25-4.38 35.15 5.47 22-12.24 49.85-22 46.41-10.67-3.77-6.75-21.08-1.83-24.43 3.31-2.25-.55 15.86 3.31 15.32 2.77-.38 12.1-28.57 7-37.3-4.28-7-3.33-19.22-1.94-27.63a41 41 0 0 1 -2.08 4.13z"
      fill="none" stroke="#3d434b" stroke-miterlimit="10" stroke-width="30"/>
  </g>
</svg>
