<svg id="Layer_1" data-name="Layer 1" xmlns="http://www.w3.org/2000/svg" xmlns:xlink="http://www.w3.org/1999/xlink" viewBox="0 0 173.37 141.46"><defs><style>.cls-1{fill:none;}.cls-2{fill:#fff;}.cls-3{clip-path:url(#clip-path);}.cls-4{clip-path:url(#clip-path-2);}.cls-5{clip-path:url(#clip-path-3);}.cls-6{clip-path:url(#clip-path-4);}.cls-7{clip-path:url(#clip-path-5);}.cls-8{clip-path:url(#clip-path-6);}.cls-9{clip-path:url(#clip-path-7);}.cls-10{clip-path:url(#clip-path-8);}.cls-11{clip-path:url(#clip-path-9);}.cls-12{clip-path:url(#clip-path-10);}.cls-13{clip-path:url(#clip-path-11);}.cls-14{clip-path:url(#clip-path-12);}.cls-15{clip-path:url(#clip-path-13);}.cls-16{fill:#16202d;}.cls-17{clip-path:url(#clip-path-14);}.cls-18{clip-path:url(#clip-path-16);}.cls-19{clip-path:url(#clip-path-18);}.cls-20{clip-path:url(#clip-path-20);}.cls-21{clip-path:url(#clip-path-22);}.cls-22{fill:#fffcf4;}.cls-23{clip-path:url(#clip-path-24);}.cls-24{clip-path:url(#clip-path-26);}.cls-25{clip-path:url(#clip-path-28);}.cls-26{clip-path:url(#clip-path-30);}.cls-27{clip-path:url(#clip-path-32);}.cls-28{clip-path:url(#clip-path-34);}.cls-29{clip-path:url(#clip-path-36);}.cls-30{clip-path:url(#clip-path-38);}.cls-31{clip-path:url(#clip-path-40);}.cls-32{clip-path:url(#clip-path-42);}.cls-33{fill:#ff908a;}.cls-34{clip-path:url(#clip-path-44);}.cls-35{clip-path:url(#clip-path-46);}.cls-36{clip-path:url(#clip-path-48);}.cls-37{clip-path:url(#clip-path-50);}.cls-38{clip-path:url(#clip-path-52);}.cls-39{clip-path:url(#clip-path-54);}.cls-40{clip-path:url(#clip-path-56);}.cls-41{clip-path:url(#clip-path-58);}.cls-42{clip-path:url(#clip-path-60);}.cls-43{clip-path:url(#clip-path-62);}.cls-44{clip-path:url(#clip-path-64);}.cls-45{clip-path:url(#clip-path-66);}.cls-46{clip-path:url(#clip-path-68);}.cls-47{clip-path:url(#clip-path-69);}.cls-48{clip-path:url(#clip-path-71);}.cls-49{clip-path:url(#clip-path-73);}.cls-50{fill:#8e8e8e;}.cls-51{clip-path:url(#clip-path-75);}.cls-52{clip-path:url(#clip-path-77);}.cls-53{clip-path:url(#clip-path-79);}.cls-54{fill:#cecece;}.cls-55{clip-path:url(#clip-path-81);}.cls-56{clip-path:url(#clip-path-83);}</style><clipPath id="clip-path"><path class="cls-1" d="M-135.31,259.94v.14c-7.45-6.64-14.9-13-14.9-20.66a17.82,17.82,0,0,1,1-5.93,12.2,12.2,0,0,1,3.5-.51c9.79,0,10.48,10.56,10.48,21.35h10.07v-.21h.22v-.23h.22v-.21h.22v-.22h.22v-.22h.22V253h.22v-.22h.22v-.2h.19v-.23h.22v-.21h.22v-.22h.23v-.22h.21v-.22h.22v-.22h.23v-.22h.21v-.22h.22v-.22h.23v-.21h.21v-.23h.21V250h.22v-.22h.22v-.23h.22v-.21h.22v-.22h.22v-.24h.22v-.21h.22v-.22h.22v-.22h.22V248h.21v-.21h.21v-.22h.22v-.22h.22c0-17.48-1.94-31.48-20.56-31.48-6.69,0-12.07,2.5-15.78,6.64l-.22.21-.22.23c-.06.08-.15.13-.22.21l-.21.22c-.08.07-.15.15-.22.22s-.15.14-.22.22l-.22.22a2.18,2.18,0,0,0-.21.22c-.07.08-.15.14-.22.22s-.15.14-.22.22-.15.14-.22.21-.15.15-.21.23a2.29,2.29,0,0,1-.23.21l-.21.22-.22.22c-.07.08-.15.14-.22.22l-.22.22a2.18,2.18,0,0,0-.21.22c-.07.08-.15.14-.22.22s-.15.14-.22.22-.15.14-.22.21-.15.15-.21.23a2.29,2.29,0,0,1-.23.21l-.21.22-.22.23c-.06.07-.15.13-.22.21l-.22.22-.21.22-.22.22c-.06.08-.15.14-.22.22l-.22.22c-3.83,4.09-6,9.89-6,16.46,0,12.75,10.62,23.57,19.86,30.23l-.14-.14c5.79,4.83,13.11,11.78,13.11,19.13a18.19,18.19,0,0,1-.75,5.39,14.79,14.79,0,0,1-4.28.64c-10.21,0-11.59-9.71-11.59-22.6h-10v.21h-.23v.22h-.22V279h-.22v.22H-162v.22h-.22v.22h-.2v.22h-.22v.22h-.22v.21h-.22v.23h-.22v.21h-.22V281h-.22v.22h-.22v.22h-.22v.22h-.22v.22h-.22v.22h-.2v.22H-165v.21h-.22v.23h-.22V283h-.22v.22h-.22v.22h-.22v.22h-.22v.22h-.2v.21h-.22v.23H-167v.21h-.22v.22h-.22V285h-.22v.22h-.22v.22h-.22c0,21.35,4.41,32.72,21.65,32.72,7.47,0,13-2.16,16.66-6.17l.21-.22.22-.22.22-.22.22-.22.21-.21.22-.23a2.18,2.18,0,0,1,.22-.21l.22-.22.21-.22c.07-.08.15-.14.22-.22l.22-.22c.07-.08.15-.14.22-.22s.15-.14.21-.22l.22-.22.22-.21.22-.23a2.18,2.18,0,0,1,.22-.21,2.28,2.28,0,0,1,.22-.22,2.29,2.29,0,0,0,.21-.23c.07-.07.15-.13.22-.21l.22-.22.22-.22c.06-.08.15-.14.21-.22l.22-.22.22-.22.22-.22c.06-.08.15-.14.22-.22l.21-.21.22-.23c.07-.08.15-.14.22-.21l.22-.22c3.77-4,5.63-9.88,5.63-17.34C-117.38,276.3-126.34,268-135.31,259.94Z"/></clipPath><clipPath id="clip-path-2"><polygon class="cls-1" points="-67.91 216.95 -68.13 216.95 -68.13 217.18 -68.35 217.18 -68.35 217.39 -68.57 217.39 -68.57 217.61 -68.79 217.61 -68.79 217.84 -69 217.84 -69 218.05 -69.22 218.05 -69.22 218.27 -69.44 218.27 -69.44 218.49 -69.66 218.49 -69.66 218.71 -69.88 218.71 -69.88 218.93 -70.1 218.93 -70.1 219.15 -70.31 219.15 -70.31 219.37 -70.53 219.37 -70.53 219.59 -70.75 219.59 -70.75 219.8 -70.97 219.8 -70.97 220.03 -71.19 220.03 -71.19 220.24 -71.41 220.24 -71.41 220.46 -71.63 220.46 -71.63 220.69 -71.84 220.69 -71.84 220.9 -72.07 220.9 -72.07 221.12 -72.28 221.12 -72.28 221.34 -72.5 221.34 -72.5 221.56 -72.72 221.56 -72.72 221.78 -72.94 221.78 -72.94 222 -73.16 222 -73.16 222.22 -73.38 222.22 -73.38 222.44 -73.6 222.44 -73.6 222.65 -73.81 222.65 -73.81 222.87 -74.03 222.87 -74.03 223.09 -74.25 223.09 -74.25 223.31 -74.47 223.31 -74.47 223.53 -74.69 223.53 -74.69 223.75 -74.91 223.75 -74.91 258.76 -89.64 258.76 -89.64 216.74 -99.73 216.74 -99.73 216.95 -99.95 216.95 -99.95 217.18 -100.17 217.18 -100.17 217.39 -100.39 217.39 -100.39 217.61 -100.61 217.61 -100.61 217.84 -100.83 217.84 -100.83 218.05 -101.05 218.05 -101.05 218.27 -101.27 218.27 -101.27 218.49 -101.48 218.49 -101.48 218.71 -101.7 218.71 -101.7 218.93 -101.92 218.93 -101.92 219.15 -102.14 219.15 -102.14 219.37 -102.36 219.37 -102.36 219.59 -102.58 219.59 -102.58 219.8 -102.8 219.8 -102.8 220.03 -103.01 220.03 -103.01 220.24 -103.23 220.24 -103.23 220.46 -103.45 220.46 -103.45 220.69 -103.67 220.69 -103.67 220.9 -103.89 220.9 -103.89 221.12 -104.11 221.12 -104.11 221.34 -104.32 221.34 -104.32 221.56 -104.54 221.56 -104.54 221.78 -104.76 221.78 -104.76 222 -104.98 222 -104.98 222.22 -105.2 222.22 -105.2 222.44 -105.42 222.44 -105.42 222.65 -105.64 222.65 -105.64 222.87 -105.85 222.87 -105.85 223.09 -106.07 223.09 -106.07 223.31 -106.29 223.31 -106.29 223.53 -106.51 223.53 -106.51 223.75 -106.73 223.75 -106.73 317.23 -96.63 317.23 -96.63 317.02 -96.41 317.02 -96.41 316.8 -96.19 316.8 -96.19 316.57 -95.97 316.57 -95.97 316.36 -95.75 316.36 -95.75 316.14 -95.54 316.14 -95.54 315.92 -95.32 315.92 -95.32 315.7 -95.1 315.7 -95.1 315.48 -94.88 315.48 -94.88 315.26 -94.66 315.26 -94.66 315.04 -94.44 315.04 -94.44 314.82 -94.22 314.82 -94.22 314.61 -94.01 314.61 -94.01 314.39 -93.79 314.39 -93.79 314.17 -93.57 314.17 -93.57 313.95 -93.35 313.95 -93.35 313.73 -93.14 313.73 -93.14 313.51 -92.91 313.51 -92.91 313.29 -92.69 313.29 -92.69 313.07 -92.48 313.07 -92.48 312.85 -92.25 312.85 -92.25 312.63 -92.04 312.63 -92.04 312.42 -91.82 312.42 -91.82 312.2 -91.61 312.2 -91.61 311.98 -91.38 311.98 -91.38 311.76 -91.17 311.76 -91.17 311.54 -90.95 311.54 -90.95 311.32 -90.73 311.32 -90.73 311.1 -90.51 311.1 -90.51 310.88 -90.29 310.88 -90.29 310.66 -90.07 310.66 -90.07 310.44 -89.85 310.44 -89.85 310.22 -89.64 310.22 -89.64 275.9 -74.91 275.9 -74.91 317.23 -64.81 317.23 -64.81 317.02 -64.59 317.02 -64.59 316.8 -64.37 316.8 -64.37 316.57 -64.15 316.57 -64.15 316.36 -63.93 316.36 -63.93 316.14 -63.72 316.14 -63.72 315.92 -63.49 315.92 -63.49 315.7 -63.27 315.7 -63.27 315.48 -63.06 315.48 -63.06 315.26 -62.84 315.26 -62.84 315.04 -62.62 315.04 -62.62 314.82 -62.4 314.82 -62.4 314.61 -62.19 314.61 -62.19 314.39 -61.96 314.39 -61.96 314.17 -61.74 314.17 -61.74 313.95 -61.53 313.95 -61.53 313.73 -61.31 313.73 -61.31 313.51 -61.09 313.51 -61.09 313.29 -60.87 313.29 -60.87 313.07 -60.65 313.07 -60.65 312.85 -60.43 312.85 -60.43 312.63 -60.22 312.63 -60.22 312.42 -60 312.42 -60 312.2 -59.78 312.2 -59.78 311.98 -59.56 311.98 -59.56 311.76 -59.34 311.76 -59.34 311.54 -59.13 311.54 -59.13 311.32 -58.9 311.32 -58.9 311.1 -58.69 311.1 -58.69 310.88 -58.47 310.88 -58.47 310.66 -58.25 310.66 -58.25 310.44 -58.03 310.44 -58.03 310.22 -57.81 310.22 -57.81 216.74 -67.91 216.74 -67.91 216.95"/></clipPath><clipPath id="clip-path-3"><polygon class="cls-1" points="-37.6 216.95 -37.82 216.95 -37.82 217.18 -38.03 217.18 -38.03 217.39 -38.24 217.39 -38.24 217.61 -38.45 217.61 -38.45 217.84 -38.67 217.84 -38.67 218.05 -38.89 218.05 -38.89 218.27 -39.1 218.27 -39.1 218.49 -39.32 218.49 -39.32 218.71 -39.53 218.71 -39.53 218.93 -39.74 218.93 -39.74 219.15 -39.96 219.15 -39.96 219.37 -40.18 219.37 -40.18 219.59 -40.39 219.59 -40.39 219.8 -40.6 219.8 -40.6 220.03 -40.82 220.03 -40.82 220.24 -41.03 220.24 -41.03 220.46 -41.25 220.46 -41.25 220.69 -41.47 220.69 -41.47 220.9 -41.68 220.9 -41.68 221.12 -41.89 221.12 -41.89 221.34 -42.11 221.34 -42.11 221.56 -42.33 221.56 -42.33 221.78 -42.54 221.78 -42.54 222 -42.75 222 -42.75 222.22 -42.97 222.22 -42.97 222.44 -43.18 222.44 -43.18 222.65 -43.4 222.65 -43.4 222.87 -43.61 222.87 -43.61 223.09 -43.83 223.09 -43.83 223.31 -44.04 223.31 -44.04 223.53 -44.26 223.53 -44.26 223.75 -44.47 223.75 -44.47 317.23 -7.77 317.23 -7.77 317.02 -7.55 317.02 -7.55 316.8 -7.34 316.8 -7.34 316.57 -7.12 316.57 -7.12 316.36 -6.91 316.36 -6.91 316.14 -6.69 316.14 -6.69 315.92 -6.48 315.92 -6.48 315.7 -6.27 315.7 -6.27 315.48 -6.05 315.48 -6.05 315.26 -5.83 315.26 -5.83 315.04 -5.62 315.04 -5.62 314.82 -5.4 314.82 -5.4 314.61 -5.19 314.61 -5.19 314.39 -4.98 314.39 -4.98 314.17 -4.76 314.17 -4.76 313.95 -4.54 313.95 -4.54 313.73 -4.33 313.73 -4.33 313.51 -4.12 313.51 -4.12 313.29 -3.9 313.29 -3.9 313.07 -3.69 313.07 -3.69 312.85 -3.47 312.85 -3.47 312.63 -3.25 312.63 -3.25 312.42 -3.04 312.42 -3.04 312.2 -2.83 312.2 -2.83 311.98 -2.62 311.98 -2.62 311.76 -2.4 311.76 -2.4 311.54 -2.18 311.54 -2.18 311.32 -1.97 311.32 -1.97 311.1 -1.75 311.1 -1.75 310.88 -1.54 310.88 -1.54 310.66 -1.33 310.66 -1.33 310.44 -1.11 310.44 -1.11 310.22 -0.89 310.22 -0.89 300.1 -27.81 300.1 -27.81 275.76 -16.74 275.76 -16.74 275.55 -16.53 275.55 -16.53 275.33 -16.31 275.33 -16.31 275.1 -16.09 275.1 -16.09 274.89 -15.88 274.89 -15.88 274.67 -15.67 274.67 -15.67 274.45 -15.45 274.45 -15.45 274.23 -15.24 274.23 -15.24 274.01 -15.02 274.01 -15.02 273.79 -14.8 273.79 -14.8 273.57 -14.59 273.57 -14.59 273.35 -14.38 273.35 -14.38 273.14 -14.16 273.14 -14.16 272.91 -13.95 272.91 -13.95 272.7 -13.73 272.7 -13.73 272.48 -13.52 272.48 -13.52 272.25 -13.3 272.25 -13.3 272.04 -13.09 272.04 -13.09 271.82 -12.88 271.82 -12.88 271.6 -12.66 271.6 -12.66 271.38 -12.44 271.38 -12.44 271.16 -12.23 271.16 -12.23 270.94 -12.02 270.94 -12.02 270.72 -11.8 270.72 -11.8 270.5 -11.59 270.5 -11.59 270.29 -11.37 270.29 -11.37 270.06 -11.15 270.06 -11.15 269.85 -10.94 269.85 -10.94 269.63 -10.73 269.63 -10.73 269.4 -10.51 269.4 -10.51 269.19 -10.3 269.19 -10.3 268.97 -10.08 268.97 -10.08 268.75 -9.87 268.75 -9.87 258.63 -27.81 258.63 -27.81 233.74 -7.77 233.74 -7.77 233.52 -7.55 233.52 -7.55 233.3 -7.34 233.3 -7.34 233.08 -7.12 233.08 -7.12 232.86 -6.91 232.86 -6.91 232.64 -6.69 232.64 -6.69 232.42 -6.48 232.42 -6.48 232.2 -6.27 232.2 -6.27 231.99 -6.05 231.99 -6.05 231.76 -5.83 231.76 -5.83 231.55 -5.62 231.55 -5.62 231.33 -5.4 231.33 -5.4 231.1 -5.19 231.1 -5.19 230.89 -4.98 230.89 -4.98 230.67 -4.76 230.67 -4.76 230.45 -4.54 230.45 -4.54 230.23 -4.33 230.23 -4.33 230.01 -4.12 230.01 -4.12 229.79 -3.9 229.79 -3.9 229.57 -3.69 229.57 -3.69 229.35 -3.47 229.35 -3.47 229.14 -3.25 229.14 -3.25 228.91 -3.04 228.91 -3.04 228.7 -2.83 228.7 -2.83 228.48 -2.62 228.48 -2.62 228.25 -2.4 228.25 -2.4 228.04 -2.18 228.04 -2.18 227.82 -1.97 227.82 -1.97 227.6 -1.75 227.6 -1.75 227.38 -1.54 227.38 -1.54 227.16 -1.33 227.16 -1.33 226.94 -1.11 226.94 -1.11 226.72 -0.89 226.72 -0.89 216.74 -37.6 216.74 -37.6 216.95"/></clipPath><clipPath id="clip-path-4"><path class="cls-1" d="M31.27,258.63V233.88h.2c10.48,0,14.62,5.54,14.62,15.69a23.21,23.21,0,0,1-1.2,8,20.69,20.69,0,0,1-7,1.06Zm8.56-41.89H21.21V217H21v.23h-.23v.21h-.21v.22h-.22v.22h-.22v.22H19.9v.22h-.21v.22h-.23v.23h-.21v.21H19v.22h-.22v.22h-.22v.22h-.22v.21h-.22V220h-.22v.21h-.21v.22H17.5v.22h-.22v.22h-.22v.23h-.22v.22h-.21v.22h-.22v.22h-.22V222H16v.22h-.22v.22h-.22v.21h-.21v.22H15.1v.23h-.22v.21h-.22v.23h-.21v.22h-.22v93.46H24.3V317h.22v-.22h.22v-.22H25v-.22h.23v-.22h.21v-.22h.22v-.23h.21v-.21H26v-.22h.21V315h.22v-.22h.22v-.22h.22v-.22h.21v-.22h.22v-.22h.22v-.21h.22v-.23H28v-.22h.22v-.21h.22v-.23h.22v-.21h.22v-.22h.21v-.22h.22V312h.22v-.22h.22v-.22H30v-.22h.21v-.22h.22v-.22h.22v-.22h.22v-.22H31v-.22h.22V275.73c7.52-.43,13.82-1.81,18.16-5.77l.22-.22c.08-.06.14-.15.22-.21a2.29,2.29,0,0,0,.21-.23c.08-.07.15-.15.23-.21l.21-.22c.08-.07.15-.15.22-.22a1.52,1.52,0,0,1,.22-.22l.22-.22c.08-.07.14-.15.21-.22l.22-.22.22-.22c.08-.06.14-.15.22-.21s.14-.16.22-.23l.22-.22c.08-.06.14-.15.21-.21a2.39,2.39,0,0,0,.22-.23,2.18,2.18,0,0,1,.22-.21l.22-.22c.08-.07.14-.15.21-.22a2.28,2.28,0,0,0,.22-.22l.22-.22.22-.22c.08-.06.14-.15.22-.22l.22-.22c.08-.06.14-.15.21-.21s.14-.16.22-.22.14-.15.22-.23a2.18,2.18,0,0,1,.22-.21l.22-.22.21-.22.22-.22c4.42-3.84,7-10.19,7-20.64C63.15,227.28,56.52,216.74,39.83,216.74Z"/></clipPath><clipPath id="clip-path-5"><polygon class="cls-1" points="113.51 216.95 113.3 216.95 113.3 217.18 113.08 217.18 113.08 217.39 112.86 217.39 112.86 217.61 112.64 217.61 112.64 217.84 112.42 217.84 112.42 218.05 112.2 218.05 112.2 218.27 111.98 218.27 111.98 218.49 111.77 218.49 111.77 218.71 111.55 218.71 111.55 218.93 111.33 218.93 111.33 219.15 111.11 219.15 111.11 219.37 110.89 219.37 110.89 219.59 110.67 219.59 110.67 219.8 110.45 219.8 110.45 220.03 110.24 220.03 110.24 220.24 110.02 220.24 110.02 220.46 109.8 220.46 109.8 220.69 109.58 220.69 109.58 220.9 109.36 220.9 109.36 221.12 109.14 221.12 109.14 221.34 108.92 221.34 108.92 221.56 108.71 221.56 108.71 221.78 108.49 221.78 108.49 222 108.27 222 108.27 222.22 108.05 222.22 108.05 222.44 107.83 222.44 107.83 222.65 107.61 222.65 107.61 222.87 107.39 222.87 107.39 223.09 107.18 223.09 107.18 223.31 106.96 223.31 106.96 223.53 106.74 223.53 106.74 223.75 106.52 223.75 106.52 258.76 91.79 258.76 91.79 216.74 81.69 216.74 81.69 216.95 81.48 216.95 81.48 217.18 81.26 217.18 81.26 217.39 81.04 217.39 81.04 217.61 80.82 217.61 80.82 217.84 80.6 217.84 80.6 218.05 80.39 218.05 80.39 218.27 80.16 218.27 80.16 218.49 79.95 218.49 79.95 218.71 79.73 218.71 79.73 218.93 79.51 218.93 79.51 219.15 79.29 219.15 79.29 219.37 79.07 219.37 79.07 219.59 78.86 219.59 78.86 219.8 78.63 219.8 78.63 220.03 78.42 220.03 78.42 220.24 78.2 220.24 78.2 220.46 77.98 220.46 77.98 220.69 77.76 220.69 77.76 220.9 77.54 220.9 77.54 221.12 77.33 221.12 77.33 221.34 77.1 221.34 77.1 221.56 76.89 221.56 76.89 221.78 76.67 221.78 76.67 222 76.45 222 76.45 222.22 76.23 222.22 76.23 222.44 76.01 222.44 76.01 222.65 75.79 222.65 75.79 222.87 75.58 222.87 75.58 223.09 75.36 223.09 75.36 223.31 75.14 223.31 75.14 223.53 74.92 223.53 74.92 223.75 74.7 223.75 74.7 317.23 84.8 317.23 84.8 317.02 85.02 317.02 85.02 316.8 85.24 316.8 85.24 316.57 85.46 316.57 85.46 316.36 85.67 316.36 85.67 316.14 85.89 316.14 85.89 315.92 86.11 315.92 86.11 315.7 86.33 315.7 86.33 315.48 86.55 315.48 86.55 315.26 86.77 315.26 86.77 315.04 86.99 315.04 86.99 314.82 87.2 314.82 87.2 314.61 87.42 314.61 87.42 314.39 87.64 314.39 87.64 314.17 87.86 314.17 87.86 313.95 88.08 313.95 88.08 313.73 88.3 313.73 88.3 313.51 88.52 313.51 88.52 313.29 88.73 313.29 88.73 313.07 88.95 313.07 88.95 312.85 89.17 312.85 89.17 312.63 89.39 312.63 89.39 312.42 89.61 312.42 89.61 312.2 89.83 312.2 89.83 311.98 90.05 311.98 90.05 311.76 90.26 311.76 90.26 311.54 90.48 311.54 90.48 311.32 90.7 311.32 90.7 311.1 90.92 311.1 90.92 310.88 91.14 310.88 91.14 310.66 91.36 310.66 91.36 310.44 91.57 310.44 91.57 310.22 91.79 310.22 91.79 275.9 106.52 275.9 106.52 317.23 116.62 317.23 116.62 317.02 116.84 317.02 116.84 316.8 117.06 316.8 117.06 316.57 117.28 316.57 117.28 316.36 117.49 316.36 117.49 316.14 117.72 316.14 117.72 315.92 117.93 315.92 117.93 315.7 118.15 315.7 118.15 315.48 118.36 315.48 118.36 315.26 118.59 315.26 118.59 315.04 118.81 315.04 118.81 314.82 119.02 314.82 119.02 314.61 119.24 314.61 119.24 314.39 119.46 314.39 119.46 314.17 119.68 314.17 119.68 313.95 119.9 313.95 119.9 313.73 120.12 313.73 120.12 313.51 120.33 313.51 120.33 313.29 120.55 313.29 120.55 313.07 120.77 313.07 120.77 312.85 120.99 312.85 120.99 312.63 121.21 312.63 121.21 312.42 121.43 312.42 121.43 312.2 121.65 312.2 121.65 311.98 121.86 311.98 121.86 311.76 122.09 311.76 122.09 311.54 122.3 311.54 122.3 311.32 122.52 311.32 122.52 311.1 122.74 311.1 122.74 310.88 122.96 310.88 122.96 310.66 123.18 310.66 123.18 310.44 123.39 310.44 123.39 310.22 123.62 310.22 123.62 216.74 113.51 216.74 113.51 216.95"/></clipPath><clipPath id="clip-path-6"><polygon class="cls-1" points="143.83 216.95 143.62 216.95 143.62 217.18 143.4 217.18 143.4 217.39 143.19 217.39 143.19 217.61 142.97 217.61 142.97 217.84 142.76 217.84 142.76 218.05 142.54 218.05 142.54 218.27 142.33 218.27 142.33 218.49 142.12 218.49 142.12 218.71 141.9 218.71 141.9 218.93 141.68 218.93 141.68 219.15 141.47 219.15 141.47 219.37 141.26 219.37 141.26 219.59 141.04 219.59 141.04 219.8 140.83 219.8 140.83 220.03 140.61 220.03 140.61 220.24 140.39 220.24 140.39 220.46 140.18 220.46 140.18 220.69 139.97 220.69 139.97 220.9 139.75 220.9 139.75 221.12 139.54 221.12 139.54 221.34 139.32 221.34 139.32 221.56 139.1 221.56 139.1 221.78 138.89 221.78 138.89 222 138.68 222 138.68 222.22 138.47 222.22 138.47 222.44 138.25 222.44 138.25 222.65 138.03 222.65 138.03 222.87 137.82 222.87 137.82 223.09 137.6 223.09 137.6 223.31 137.39 223.31 137.39 223.53 137.18 223.53 137.18 223.75 136.96 223.75 136.96 317.23 173.66 317.23 173.66 317.02 173.88 317.02 173.88 316.8 174.09 316.8 174.09 316.57 174.3 316.57 174.3 316.36 174.52 316.36 174.52 316.14 174.74 316.14 174.74 315.92 174.95 315.92 174.95 315.7 175.17 315.7 175.17 315.48 175.38 315.48 175.38 315.26 175.59 315.26 175.59 315.04 175.81 315.04 175.81 314.82 176.03 314.82 176.03 314.61 176.24 314.61 176.24 314.39 176.45 314.39 176.45 314.17 176.67 314.17 176.67 313.95 176.88 313.95 176.88 313.73 177.1 313.73 177.1 313.51 177.32 313.51 177.32 313.29 177.53 313.29 177.53 313.07 177.74 313.07 177.74 312.85 177.96 312.85 177.96 312.63 178.17 312.63 178.17 312.42 178.39 312.42 178.39 312.2 178.6 312.2 178.6 311.98 178.82 311.98 178.82 311.76 179.03 311.76 179.03 311.54 179.25 311.54 179.25 311.32 179.46 311.32 179.46 311.1 179.68 311.1 179.68 310.88 179.89 310.88 179.89 310.66 180.11 310.66 180.11 310.44 180.32 310.44 180.32 310.22 180.53 310.22 180.53 300.1 153.62 300.1 153.62 275.76 164.69 275.76 164.69 275.55 164.9 275.55 164.9 275.33 165.12 275.33 165.12 275.1 165.33 275.1 165.33 274.89 165.55 274.89 165.55 274.67 165.77 274.67 165.77 274.45 165.98 274.45 165.98 274.23 166.19 274.23 166.19 274.01 166.41 274.01 166.41 273.79 166.62 273.79 166.62 273.57 166.84 273.57 166.84 273.35 167.05 273.35 167.05 273.14 167.27 273.14 167.27 272.91 167.48 272.91 167.48 272.7 167.69 272.7 167.69 272.48 167.91 272.48 167.91 272.25 168.13 272.25 168.13 272.04 168.34 272.04 168.34 271.82 168.56 271.82 168.56 271.6 168.77 271.6 168.77 271.38 168.99 271.38 168.99 271.16 169.2 271.16 169.2 270.94 169.42 270.94 169.42 270.72 169.63 270.72 169.63 270.5 169.84 270.5 169.84 270.29 170.06 270.29 170.06 270.06 170.28 270.06 170.28 269.85 170.49 269.85 170.49 269.63 170.71 269.63 170.71 269.4 170.92 269.4 170.92 269.19 171.13 269.19 171.13 268.97 171.35 268.97 171.35 268.75 171.56 268.75 171.56 258.63 153.62 258.63 153.62 233.74 173.66 233.74 173.66 233.52 173.88 233.52 173.88 233.3 174.09 233.3 174.09 233.08 174.3 233.08 174.3 232.86 174.52 232.86 174.52 232.64 174.74 232.64 174.74 232.42 174.95 232.42 174.95 232.2 175.17 232.2 175.17 231.99 175.38 231.99 175.38 231.76 175.59 231.76 175.59 231.55 175.81 231.55 175.81 231.33 176.03 231.33 176.03 231.1 176.24 231.1 176.24 230.89 176.45 230.89 176.45 230.67 176.67 230.67 176.67 230.45 176.88 230.45 176.88 230.23 177.1 230.23 177.1 230.01 177.32 230.01 177.32 229.79 177.53 229.79 177.53 229.57 177.74 229.57 177.74 229.35 177.96 229.35 177.96 229.14 178.17 229.14 178.17 228.91 178.39 228.91 178.39 228.7 178.6 228.7 178.6 228.48 178.82 228.48 178.82 228.25 179.03 228.25 179.03 228.04 179.25 228.04 179.25 227.82 179.46 227.82 179.46 227.6 179.68 227.6 179.68 227.38 179.89 227.38 179.89 227.16 180.11 227.16 180.11 226.94 180.32 226.94 180.32 226.72 180.53 226.72 180.53 216.74 143.83 216.74 143.83 216.95"/></clipPath><clipPath id="clip-path-7"><path class="cls-1" d="M211,233.88h2.27c10.38,0,12.32,6.51,12.32,16.09a29.46,29.46,0,0,1-.87,8,21.47,21.47,0,0,1-5.7.66h-8Zm9.83-17.14H200.87V217h-.22v.23h-.21v.21h-.22v.22H200v.22h-.22v.22h-.22v.22h-.21v.22h-.22v.23h-.21v.21h-.23v.22h-.21v.22h-.22v.22H198v.21h-.22V220h-.22v.21h-.21v.22h-.23v.22h-.22v.22h-.22v.23h-.22v.22h-.21v.22h-.22v.22h-.22V222h-.22v.22h-.22v.22h-.22v.21H195v.22h-.22v.23h-.22v.21h-.22v.23h-.22v.22h-.21v93.46H204V317h.19v-.22h.22v-.22h.22v-.22h.22v-.22h.22v-.22h.22v-.23h.21v-.21h.23v-.22H206V315h.22v-.22h.21v-.22h.17v-.22h.22v-.22H207v-.22h.23v-.21h.21v-.23h.22v-.22h.22v-.21h.22v-.23h.22v-.21h.22v-.22h.22v-.22H209V312h.22v-.22h.22v-.22h.22v-.22h.21v-.22h.22v-.22h.22v-.22h.22v-.22h.22v-.22H211V275.9h2.55c8.72,0,11.63,3.62,11.63,12.21v29.12h10.12V317h.24v-.22h.22v-.22h.21v-.22h.23v-.22h.21v-.22h.22v-.23h.22v-.21H237v-.22h.22V315h.21v-.22h.23v-.22h.22v-.22h.22v-.22h.22v-.22h.22v-.21h.21v-.23H239v-.22h.22v-.21h.22v-.23h.22v-.21h.22v-.22h.22v-.22h.22V312h.22v-.22h.22v-.22h.16v-.22h.22v-.22h.22v-.22h.22v-.22h.22v-.22H242v-.22h.22V280.68c0-6.25-1.53-13.18-5.82-17.2,5.12-5.13,6.37-13.45,6.37-20.53C242.81,227.42,238.66,216.74,220.81,216.74Z"/></clipPath><clipPath id="clip-path-8"><path class="cls-1" d="M274,300.1V233.74h1.85c10.33,0,13.91,7.63,13.91,17.33v38.84a25.4,25.4,0,0,1-1.54,9.31,15.76,15.76,0,0,1-5.4.88Zm9.78-83.36H264V217h-.21v.23h-.22v.21h-.22v.22h-.22v.22h-.22v.22h-.21v.22h-.2v.22h-.22v.23H262v.21h-.21v.22h-.22v.22h-.22v.22h-.22v.21H261V220h-.23v.21h-.21v.22h-.22v.22h-.22v.22h-.22v.23h-.22v.22h-.21v.22h-.22v.22H259V222h-.22v.22h-.22v.22h-.21v.21h-.22v.22h-.22v.23h-.22v.21h-.21v.23h-.22v.22H257v93.46h19.84c7.47,0,12.82-2.24,16.47-6l.23-.22.21-.22.22-.22.21-.22.22-.22.22-.22.22-.22.22-.21.21-.22.22-.23.22-.21.22-.22.21-.22.22-.22.22-.22.22-.22.21-.22.22-.22.22-.21.22-.23.21-.21.22-.22.22-.23.22-.21.22-.22.21-.22.22-.22.22-.22.22-.22.21-.22.22-.22c4.79-4.83,6.74-12.22,6.74-20.79V243.37C306.84,228.38,300.61,216.74,283.81,216.74Z"/></clipPath><clipPath id="clip-path-9"><path class="cls-1" d="M282.83,299.31c10.34,0,13.93-7.41,13.93-17V243.84c0-9.6-3.6-17.15-13.93-17.15H274v72.59Zm0-76.3c13.1,0,17.78,9.06,17.78,20.86v38.4c0,11.79-4.68,20.85-17.78,20.85H270.14V223Zm1,82.45C298,305.46,303,295.85,303,283V243.16c0-12.63-5.11-22.65-19.17-22.65h-16v84.93Zm0-88.65c16.8,0,23,11.53,23,26.35V283c0,14.94-6.06,26.35-23,26.35H263.94V216.81ZM219,258.25c10.89,0,13.51-5.07,13.51-15.53,0-9.46-1.93-15.91-12.27-15.91H211v31.44Zm-11.72-35.13h13c13.5,0,16.13,8,16.13,19.62,0,13-3.45,19.35-17.4,19.35H207.29Zm31.14,56.95c0-7.28-1.8-14.82-10.06-16.73,9.11-2.76,10.48-12.37,10.48-20.62,0-13-3.44-22.23-18-22.23H204.67v84.95h2.62V264.56h13.24c11.57,0,15.29,4.78,15.29,15.92v25h2.61ZM220.8,216.81c17.78,0,21.92,10.56,21.92,25.93,0,7-1.24,15.23-6.34,20.31,4.27,4,5.79,10.84,5.79,17v29.22H232.1V280.48c0-8.49-2.89-12.07-11.57-12.07H211V309.3H201V216.81Zm-73.05,3.7v84.93h29.49v-2.33H150.1V264.43h18.19v-2.34H150.1V223h27.14v-2.5ZM172,258.25v10H153.84v31h27.29v10h-37.2V216.81h37.2v9.88H153.84v31.56Zm-83.52,4V220.51H86.15v84.93h2.34V264.56h29.22v40.88h2.62V220.51h-2.62v41.72ZM114,309.3V268.41H92.34V309.3H82.28V216.81H92.34v41.58H114V216.81h10.07v92.48ZM37.91,258.25c10.75,0,15.14-5.49,15.14-15.92,0-10-4.14-15.53-14.61-15.53H31.29v31.45Zm.57-35.1c13.09,0,18.33,6.72,18.33,19.21,0,12.9-5.52,19.76-18.88,19.76H27.43v-39Zm-11,41.44c18.33,0,32,.69,32-22.23,0-12.78-5.67-21.85-19.58-21.85H25.09v84.93h2.34Zm-6.2-47.78h18.6c16.68,0,23.29,10.43,23.29,25.52,0,23.61-13.23,26.07-31.84,26.07v40.89h-10Zm-54.6,3.7v84.93h29.5v-2.33H-31V264.43h18.19v-2.34H-31V223H-3.85v-2.5Zm24.26,37.74v10H-27.28v31H0v10h-37.2V216.81H0v9.88H-27.28v31.56Zm-83.52,3.95V220.51H-95v84.93h2.35V264.56h29.22v40.88h2.62V220.51h-2.62v41.72Zm25.5,47.07V268.41H-88.75V309.3H-98.82V216.81h10.07v41.58h21.64V216.81H-57v92.48Zm-90.14-27.72c0,15.1,4,24.7,17.91,24.7,12.41,0,18.34-7,18.34-19.21,0-20-32.94-29.2-32.94-47.87,0-9.33,5.24-17.15,15.3-17.15,13.37,0,14.2,11.8,14.34,21.27H-122c0-14.27-2.89-23.74-16.68-23.74-11,0-17.64,8.36-17.64,18.94,0,11.12,9.78,20.72,18.33,26.88h-.14c6.48,5.37,14.61,14.13,14.61,21.82,0,10.43-5.24,16.72-15.85,16.72-13.64,0-15.3-13-15.3-22.37Zm22.05-22.06c9,7.95,17.92,16.19,17.92,27.58,0,14.54-7.17,23.05-22.06,23.05-17.22,0-21.64-11.25-21.64-32.39h10c0,12.77,1.38,22.37,11.58,22.37,8,0,12-4.94,12-12.89,0-7.28-7.31-14.14-13.09-18.94l.13.13c-9.22-6.56-19.83-17.31-19.83-29.91,0-12.76,8.14-22.64,21.5-22.64,18.6,0,20.54,13.85,20.54,31.15h-10c0-10.71-.69-21.14-10.48-21.14-7.58,0-11.44,6-11.44,13.31,0,7.55,7.45,13.86,14.89,20.45Z"/></clipPath><clipPath id="clip-path-10"><path class="cls-1" d="M300,283.31c0,11.86-4.69,21-17.8,21H269.54V223.75h12.71c13.11,0,17.8,9.1,17.8,21Zm-16.81-62.07h-16V306.6h16c14.21,0,19.18-9.65,19.18-22.62V244c0-12.69-5.11-22.76-19.18-22.76ZM218.35,263H206.62V223.86h13c13.52,0,16.14,8,16.14,19.72C235.74,256.69,232.29,263,218.35,263Zm9.38,1.24c9.11-2.75,10.49-12.41,10.49-20.69,0-13.1-3.45-22.34-18.08-22.34H204V306.6h2.61V265.52h13.25c11.59,0,15.32,4.8,15.32,16V306.6h2.62V281.09C237.81,273.79,236,266.21,227.73,264.27Zm-80.71-43V306.6h29.53v-2.34H149.37V265.38h18.21V263H149.37V223.75h27.18v-2.51ZM87.71,263.17V221.24H85.36V306.6h2.35V265.52H117V306.6h2.62V221.24H117v41.93ZM37.08,263H26.57V223.86h11c13.11,0,18.35,6.75,18.35,19.31,0,13-5.54,19.86-18.9,19.86ZM39,221.24H24.23V306.6h2.34V265.52c18.36,0,32,.69,32-22.35C58.58,230.35,52.93,221.24,39,221.24Zm-73.27,0V306.6H-4.74v-2.34H-31.93V265.38h18.22V263H-31.93V223.75H-4.74v-2.51ZM-93.6,263.17V221.24h-2.34V306.6h2.34V265.52h29.25V306.6h2.63V221.24h-2.63v41.93Zm-64.71,19.45c0,15.18,4,24.83,17.94,24.83,12.42,0,18.35-7,18.35-19.32,0-20.13-33-29.37-33-48.14,0-9.38,5.24-17.23,15.31-17.23,13.38,0,14.2,11.85,14.34,21.4H-123c0-14.35-2.9-23.87-16.7-23.87-11,0-17.66,8.41-17.66,19,0,11.17,9.79,20.83,18.35,27h-.14c6.49,5.4,14.63,14.21,14.63,21.93,0,10.48-5.25,16.82-15.87,16.82-13.66,0-15.32-13.1-15.32-22.49Z"/></clipPath><clipPath id="clip-path-11"><path class="cls-1" d="M180.53,227l-6.65,6.65-4-4.41S179,223,180.53,227Z"/></clipPath><clipPath id="clip-path-12"><ellipse class="cls-1" cx="84.69" cy="69.18" rx="59.87" ry="59.3"/></clipPath><clipPath id="clip-path-13"><rect class="cls-1" x="-575.42" y="-16.73" width="1280.67" height="3091.4"/></clipPath><clipPath id="clip-path-14"><path class="cls-1" d="M141.35,63l11.31,4.25,12.77.1,7.17,2.31-4.71,10.68L155.68,86l-9.26.57-8-2.31-9.53-10.4S117.68,47.36,141.35,63Z"/></clipPath><clipPath id="clip-path-16"><path class="cls-1" d="M47.63,15.09c4-8.42,13.26-14.46,23.21-15A23.52,23.52,0,0,1,86.29,4.58S114-5.8,123.69,20.08c3.72.07,25.73,5.71,21.94,50L121,43.34a26.33,26.33,0,0,1-36.16,6.31,26.35,26.35,0,0,1-32.66-6.31L24.27,61.15S19.58,19.87,47.36,15.31"/></clipPath><clipPath id="clip-path-18"><path class="cls-1" d="M45.64,56.89S38.31,80.07,18.69,80.35-.55,66.55,5.32,62.84C17.2,55.29,26.59,69,33,48.9"/></clipPath><clipPath id="clip-path-20"><path class="cls-1" d="M18.12,81.93c-13.28,0-16.6-6.42-17.47-9.22C-.6,68.5,1,63.68,4.48,61.5c5-3.21,9.63-2.89,13.66-2.62,5.91.4,9.82.67,13.34-10.45a1.57,1.57,0,1,1,3,1C30.21,62.84,24,62.43,17.92,62c-3.72-.25-7.57-.51-11.76,2.17a7,7,0,0,0-2.5,7.64c1.35,4.53,6.8,7.07,15,7,18.23-.25,25.39-22.13,25.47-22.35a1.57,1.57,0,0,1,3,.95,45.87,45.87,0,0,1-6.34,12.08c-5.91,8-13.55,12.36-22.08,12.47Z"/></clipPath><clipPath id="clip-path-22"><polygon class="cls-1" points="123.25 103.67 114.38 118.31 107.64 123.27 99.55 125.79 89.11 125.43 79.48 131.2 65.68 139.26 55.24 139.26 49.77 132.63 48.55 116.64 36.77 114.22 31.3 114.19 24.29 106.28 23.46 95.96 25.73 90.75 32.31 83.69 31.3 73.22 31.3 51.06 38.46 37.74 53.87 29.17 120.88 23.49 128.34 77.01 123.25 103.67"/></clipPath><clipPath id="clip-path-24"><polygon class="cls-1" points="131.06 91.44 120.43 111.96 119.33 101.92 119.33 97.45 112.07 86.25 111.78 80.47 116.25 71.68 116.67 59.06 108.8 43.54 98.27 38.71 85.14 37.13 69.84 42.73 56.63 57.52 56.41 47.7 50.39 36.18 45.63 36.36 38.42 40.24 46.47 25 68.14 26.33 81.99 21.04 101.46 21.93 113.47 23.49 120.88 23.49 134.39 46.7 144.56 65.26 138.5 77.56 131.06 91.44"/></clipPath><clipPath id="clip-path-26"><path class="cls-1" d="M122.19,105.41c5.39-4,10-8.28,13.71-13.89a55.48,55.48,0,0,0,7.8-18.64l-14.28-6.5L123,95.49Z"/></clipPath><clipPath id="clip-path-28"><path class="cls-1" d="M48.23,123.58l5.59.37.13,1.19,1.77,3.61,5.14,2.45,11.45-2.56,12.62-7.22,7.38-15.13s3.32-6-2.08-2.44l-8.66,6.79-10.44,4.94s-12.38,2.77-14.91,2C51.16,116.17,48,119.25,48.23,123.58Z"/></clipPath><clipPath id="clip-path-30"><path class="cls-1" d="M32.81,44.79c.49-.81,1-1.61,1.51-2.4a22.27,22.27,0,0,1,1.76-2.3,21.81,21.81,0,0,1,2-2.17c.38-.34.78-.65,1.19-1a8,8,0,0,1,.68-.45l.38-.22c.16-.07.24-.12.52-.23l-.15.07a13.17,13.17,0,0,1,6.67-1.41,8.77,8.77,0,0,1,3.49,1.11,10.09,10.09,0,0,1,2.7,2.3,18.4,18.4,0,0,1,3.12,5.78A38.64,38.64,0,0,1,58.28,50c.36,2,.62,4.1.82,6.13l.15,1.51v.21a1.16,1.16,0,0,0-.4-.62,1.45,1.45,0,0,0-1.12-.3,1.22,1.22,0,0,0-.82.38c-.08.09.05-.07.11-.16l.21-.29L59,54.38a64.12,64.12,0,0,1,7.94-9.54,37.25,37.25,0,0,1,10.27-7.22,28.94,28.94,0,0,1,12.38-2.69,35.38,35.38,0,0,1,12.37,2.45,26.12,26.12,0,0,1,10.58,7.14,23.44,23.44,0,0,1,5.3,11.72,39.87,39.87,0,0,1-.15,12.62,73.38,73.38,0,0,1-3.1,12c-.67,1.95-1.39,3.87-2.17,5.78-.39.95-.79,1.9-1.2,2.83l-.32.72-.15.36,0,.08v0a1.65,1.65,0,0,0,.12-1,1.63,1.63,0,0,0-.65-1.06,1.81,1.81,0,0,0-.77-.32h.12a11.6,11.6,0,0,1,1.74.42A12.88,12.88,0,0,1,117,92.61a14.32,14.32,0,0,1,3,6.13,21.4,21.4,0,0,1,.46,3.28c0,.54.06,1.1,0,1.62v.79a3.86,3.86,0,0,1-.07.92,18.42,18.42,0,0,1-2,6.34,24.37,24.37,0,0,1-8.88,9.26,29.33,29.33,0,0,1-11.8,4,.55.55,0,0,1-.59-.4.56.56,0,0,1,.28-.66,74.09,74.09,0,0,0,10.36-5.63,22.79,22.79,0,0,0,7.63-8.13A15,15,0,0,0,117,105c0-.21,0-.44,0-.6v-.72c0-.5,0-.94,0-1.44a17.84,17.84,0,0,0-.4-2.72,11,11,0,0,0-2.28-4.65,9.38,9.38,0,0,0-4.22-2.75,7.11,7.11,0,0,0-1.21-.29h-.06a2.13,2.13,0,0,1-.87-.35,1.83,1.83,0,0,1-.55-2.22v-.13l.15-.34.3-.68,1.16-2.76q1.14-2.76,2.12-5.57a70.39,70.39,0,0,0,3-11.43,36.75,36.75,0,0,0,.26-11.56A20.09,20.09,0,0,0,110,46.66a23.09,23.09,0,0,0-9.26-6.36A32,32,0,0,0,89.46,38a26,26,0,0,0-11.12,2.37A34.07,34.07,0,0,0,68.91,47a56.89,56.89,0,0,0-7.57,9.1l-1.71,2.51-.24.33a4.7,4.7,0,0,1-.34.44,1.56,1.56,0,0,1-.37.31,1.67,1.67,0,0,1-.69.24,1.56,1.56,0,0,1-1.64-1.17,1.67,1.67,0,0,1-.06-.29V58l-.16-1.51c-.21-2-.46-4-.82-5.89A38.6,38.6,0,0,0,53.87,45a15.87,15.87,0,0,0-2.63-4.83,6,6,0,0,0-4.14-2.3A9.77,9.77,0,0,0,42.05,39l-.14.06-.1,0-.21.13-.45.31c-.3.23-.61.48-.9.75a16.22,16.22,0,0,0-1.68,1.84c-.53.65-1,1.36-1.5,2.07s-.92,1.44-1.35,2.22a1.64,1.64,0,0,1-1.44.84,1.67,1.67,0,0,1-1.45-2.49Z"/></clipPath><clipPath id="clip-path-32"><path class="cls-1" d="M67.27,88.49a66.92,66.92,0,0,0-9.64-4.29,32.41,32.41,0,0,0-10.1-1.63,29.46,29.46,0,0,0-5.05.56,27.12,27.12,0,0,0-4.83,1.53,36.78,36.78,0,0,0-8.79,5.45l-.52.33h0l-.1.07a1.24,1.24,0,0,0-.22.18,3.35,3.35,0,0,0-.43.49,5.1,5.1,0,0,0-.67,1.34,8.82,8.82,0,0,0-.35,1.62L26.5,95v1.15l-.07.29a15.22,15.22,0,0,0-.33,2.13,16.72,16.72,0,0,0,0,2.24,14.89,14.89,0,0,0,.78,4.33,12.56,12.56,0,0,0,2.05,3.77,14.34,14.34,0,0,0,3.23,2.89l-.15-.09.35.16.47.15a7.36,7.36,0,0,0,1,.26,15.06,15.06,0,0,0,2.1.26,19.59,19.59,0,0,0,2.17-.08,20.88,20.88,0,0,0,2.17-.36h.08a1.76,1.76,0,0,1,1.32.25,1.78,1.78,0,0,1,.75,1.1,1.76,1.76,0,0,1-1.19,2,15.9,15.9,0,0,1-2.64.65A14.85,14.85,0,0,1,33,116a12.73,12.73,0,0,1-1.38-.37l-.72-.25a5.74,5.74,0,0,1-.77-.34l-.07,0L30,115a17.9,17.9,0,0,1-4-3.74,16.35,16.35,0,0,1-2.63-4.9,18.75,18.75,0,0,1-.91-5.4,22.26,22.26,0,0,1,.13-2.71,18.14,18.14,0,0,1,.52-2.74L23,96V94.89l.09-1.15a11.68,11.68,0,0,1,.51-2.33,8.09,8.09,0,0,1,1.15-2.27,7,7,0,0,1,.94-1c.18-.16.37-.32.56-.46l.33-.21a2.82,2.82,0,0,1,.46-.23l-.53.33A32.92,32.92,0,0,1,36,80.87a28.38,28.38,0,0,1,11.51-2.5,30.19,30.19,0,0,1,11.4,2.39,25.79,25.79,0,0,1,9.51,6.38.9.9,0,0,1-1.08,1.44Z"/></clipPath><clipPath id="clip-path-34"><path class="cls-1" d="M100.79,116.68a66.11,66.11,0,0,1-13.38,14.06,62.21,62.21,0,0,1-8.1,5.57,42.94,42.94,0,0,1-9.2,4,27,27,0,0,1-10.28,1,20.18,20.18,0,0,1-5.19-1.2,13.58,13.58,0,0,1-4.77-3,12.43,12.43,0,0,1-3-4.86,18.42,18.42,0,0,1-.85-5.31,27.66,27.66,0,0,1,.43-5.06q.21-1.23.48-2.43l.26-1.16c.08-.35.17-.78.2-1v-.14a1.66,1.66,0,0,1,3.3.34,9.68,9.68,0,0,1-.14,1.39l-.17,1.18c-.12.77-.22,1.53-.3,2.29a29.94,29.94,0,0,0-.12,4.44,14.15,14.15,0,0,0,.81,4.07,9.4,9.4,0,0,0,2,3.18,12.06,12.06,0,0,0,7.39,2.81,23,23,0,0,0,8.6-.91C74.57,134.36,80,131.2,85,127.64A173.42,173.42,0,0,0,99.57,115.7a.78.78,0,0,1,1,0,.8.8,0,0,1,.14,1Z"/></clipPath><clipPath id="clip-path-36"><path class="cls-1" d="M89.71,98.51a4.75,4.75,0,0,1,3.48-1,6.65,6.65,0,0,1,3.37,1.29,8.12,8.12,0,0,1,2.27,2.61,10.94,10.94,0,0,1,.63,1.55,9.12,9.12,0,0,1,.24,1.65.66.66,0,0,1-.17.44.61.61,0,0,1-.43.19.62.62,0,0,1-.32-.09h-.06a10.76,10.76,0,0,1-1.23-.9c-.4-.28-.72-.58-1.09-.85-.72-.52-1.35-1-2-1.44s-1.28-.72-2-1.11a17.54,17.54,0,0,0-2.36-1.1l-.21-.1a.67.67,0,0,1-.33-.89A.6.6,0,0,1,89.71,98.51Z"/></clipPath><clipPath id="clip-path-38"><path class="cls-1" d="M37.23,81.69s-5.1-24.88,4.71-27.3c8-2,2.47,10,4.82,25.8Z"/></clipPath><clipPath id="clip-path-40"><path class="cls-1" d="M56,118.51c-.06,1.69-.14,3.38-.11,5a13,13,0,0,0,.19,2.25,5.89,5.89,0,0,0,.65,1.86,3,3,0,0,0,1,1.17,4.27,4.27,0,0,0,1.66.54,8.2,8.2,0,0,0,2.1,0c.79-.12,1.61-.18,2.39-.35a32,32,0,0,0,16.89-8.44,40.66,40.66,0,0,0,10.06-16.34c.26-.77.51-1.55.72-2.33l.33-1.18.08-.29a.78.78,0,0,0,0,.22,1.21,1.21,0,0,0,0,.38,1.65,1.65,0,0,0,.29.77,1.67,1.67,0,0,0,1.26.72,1.72,1.72,0,0,0,1.45-.57,52.08,52.08,0,0,1-3.61,3.82,54.28,54.28,0,0,1-8.3,6.5c-11.87,7.59-27.44,10.14-40.81,4.09a18.71,18.71,0,0,1-4.6-3.23,16.23,16.23,0,0,1-3.35-4.65,18.29,18.29,0,0,1-1.44-11c0-.23.08-.46.14-.72L33,96.3l.07-.26.09-.24A7,7,0,0,1,34,94.32a9.62,9.62,0,0,1,2.16-2.16,14.15,14.15,0,0,1,5.11-2.38,26.21,26.21,0,0,1,10.51-.3.55.55,0,0,1,.47.64.54.54,0,0,1-.49.47,39.38,39.38,0,0,0-9.6,2,13.85,13.85,0,0,0-3.9,2.26,7.11,7.11,0,0,0-1.32,1.52,3.71,3.71,0,0,0-.39.77v.11l0,.25-.08.55a15.29,15.29,0,0,0,1.22,8.82,13.38,13.38,0,0,0,6.31,6.1,27.52,27.52,0,0,0,9.1,2.5,40.11,40.11,0,0,0,9.67,0,42.84,42.84,0,0,0,18.05-6.72,53.81,53.81,0,0,0,7.69-6,46.68,46.68,0,0,0,3.38-3.51A2.4,2.4,0,0,1,96,100.45a5,5,0,0,1,0,.55c0,.13,0,.25-.08.37l-.08.32L95.51,103q-.37,1.28-.81,2.52A44.84,44.84,0,0,1,83.54,123.4a34.24,34.24,0,0,1-8.82,6.1,36.92,36.92,0,0,1-10.2,3.15c-.87.17-1.76.22-2.64.34a12.38,12.38,0,0,1-3,0,7.82,7.82,0,0,1-3.1-1.12,6.43,6.43,0,0,1-2.31-2.57,10.06,10.06,0,0,1-1-2.94,17.65,17.65,0,0,1-.16-2.82c0-1.79.15-3.48.26-5.19a1.67,1.67,0,0,1,3.33.18Z"/></clipPath><clipPath id="clip-path-42"><path class="cls-1" d="M77,119.4s-11.12.89-13.65,5.06c0,0-2,.76,0-2.53,1.71-2.78-4.33-.67-6.27,2.6a3,3,0,0,0,.22,3.41c.89,1.11,2.73,2.27,6.49,1.4C69.84,127.94,82.91,119.4,77,119.4Z"/></clipPath><clipPath id="clip-path-44"><path class="cls-1" d="M32.31,85.36a1.67,1.67,0,0,1-1.6-1.2A55.9,55.9,0,0,1,28.48,67.9c0-32.44,14.49-46.27,48.45-46.27,32,0,69.29,12.11,69.29,46.27a1.67,1.67,0,0,1-3.32,0c0-31.69-35.53-42.94-66-42.94-16.32,0-27.25,3.05-34.36,9.71S31.81,52.22,31.81,67.9a52.31,52.31,0,0,0,2.11,15.33,1.68,1.68,0,0,1-1.14,2.06A1.49,1.49,0,0,1,32.31,85.36Z"/></clipPath><clipPath id="clip-path-46"><path class="cls-1" d="M29,56.78a21.45,21.45,0,0,1,2.72-4.53,20.8,20.8,0,0,1,3.74-3.76,16,16,0,0,1,4.8-2.58,12,12,0,0,1,5.5-.29,1.14,1.14,0,0,1-.13,2.26h-.1a12.36,12.36,0,0,0-4.13,1,17.23,17.23,0,0,0-3.53,2.47,26.93,26.93,0,0,0-3,3.32C34,55.88,33,57.19,32.26,58.39l0,.09A1.83,1.83,0,0,1,29,56.77Z"/></clipPath><clipPath id="clip-path-48"><path class="cls-1" d="M26,90.05a8.78,8.78,0,0,1,3.34-1.61,5.57,5.57,0,0,1,4.19.56,6.14,6.14,0,0,1,2.53,3.46,17.47,17.47,0,0,1,.4,1.88c0,.62.09,1.23.11,1.84a1.66,1.66,0,0,1-3.32.19v-.19c0-.49-.05-1-.07-1.45A9.07,9.07,0,0,0,33,93.36a3.64,3.64,0,0,0-1-1.91,3.22,3.22,0,0,0-2.16-.51,11.94,11.94,0,0,0-2.89.57h-.08a.91.91,0,0,1-.65-.06.9.9,0,0,1-.42-.5A.87.87,0,0,1,26,90.05Z"/></clipPath><clipPath id="clip-path-50"><polygon class="cls-1" points="47.49 64.47 41.53 67.74 48.19 70.02 47.49 64.47"/></clipPath><clipPath id="clip-path-52"><path class="cls-1" d="M49.91,95.46c2.77,0,5-1.38,5-3.08s-2.24-3.08-5-3.08-5,1.38-5,3.08S47.14,95.46,49.91,95.46Z"/></clipPath><clipPath id="clip-path-54"><path class="cls-1" d="M25.36,95.46c2.78,0,5-1.38,5-3.08S28.8,89.3,26,89.3Z"/></clipPath><clipPath id="clip-path-56"><path class="cls-1" d="M17.16,7a22.32,22.32,0,0,1,2,2.94c.58,1,1.12,2.07,1.62,3.14a24.27,24.27,0,0,1,1.29,3.32,13.42,13.42,0,0,1,.58,3.71,1,1,0,0,1-1,1,1.2,1.2,0,0,1-.53-.15,13.93,13.93,0,0,1-2.84-2.47,24.92,24.92,0,0,1-2.12-2.89c-.64-1-1.25-2-1.8-3a23,23,0,0,1-1.45-3.25A2.47,2.47,0,0,1,17.15,7Z"/></clipPath><clipPath id="clip-path-58"><path class="cls-1" d="M3.32,18.23A21.39,21.39,0,0,1,6.7,19.3c1.09.43,2.17.93,3.21,1.44A24.42,24.42,0,0,1,13,22.56a13.6,13.6,0,0,1,2.75,2.55,1,1,0,0,1,.23.76,1,1,0,0,1-.4.68,1,1,0,0,1-.5.21,13.17,13.17,0,0,1-3.76-.18,24.11,24.11,0,0,1-3.43-.92c-1.12-.38-2.23-.79-3.3-1.26a23.19,23.19,0,0,1-3.14-1.7,2.47,2.47,0,0,1,1.88-4.47Z"/></clipPath><clipPath id="clip-path-60"><path class="cls-1" d="M1.32,37a22.77,22.77,0,0,1,3.29-1.31C5.74,35.3,6.88,35,8,34.75a24.63,24.63,0,0,1,3.51-.55,13.85,13.85,0,0,1,3.75.23,1,1,0,0,1,.76,1.2,1,1,0,0,1-.26.49,13.76,13.76,0,0,1-3,2.24A24.15,24.15,0,0,1,9.52,39.8c-1.1.42-2.21.79-3.35,1.11a22.62,22.62,0,0,1-3.48.72A2.47,2.47,0,0,1,1.32,37Z"/></clipPath><clipPath id="clip-path-62"><path class="cls-1" d="M100.19,117.55s-3.26,5.69,2.24,3.86l-2.89,2.89-3.65-1S96.49,118,100.19,117.55Z"/></clipPath><clipPath id="clip-path-64"><path class="cls-1" d="M33,79.62s.67,2.67,2.54,1.76l-1.27,1.5H32.85Z"/></clipPath><clipPath id="clip-path-66"><path class="cls-1" d="M36.56,45.06s-1.83,3.61.2,2.49l-2,5-2.17-3.48Z"/></clipPath><clipPath id="clip-path-68"><path class="cls-2" d="M134,82.05c4.05,3.24,11.33,6.5,17,7.65L156,97.06c1.14,1.45-14.8-2.43-22.88-14.45C132.79,82.12,133.56,81.67,134,82.05Z"/></clipPath><clipPath id="clip-path-69"><path class="cls-1" d="M105.23,68.29a47.21,47.21,0,0,0-1.77-9.94,18.55,18.55,0,0,0-4.59-8,15.5,15.5,0,0,0-8.27-3.85,43.34,43.34,0,0,0-10.18-.25.85.85,0,0,1-.36-1.64,26.84,26.84,0,0,1,11-1.92A20,20,0,0,1,93.9,43c.49.08,1,.24,1.44.35l.73.21.72.26A15.75,15.75,0,0,1,102,47a17.06,17.06,0,0,1,3.68,4.84,22.12,22.12,0,0,1,1.89,5.54,26.2,26.2,0,0,1,.49,5.66,24,24,0,0,1-.76,5.58,1.05,1.05,0,0,1-2.07-.2Z"/></clipPath><clipPath id="clip-path-71"><path class="cls-1" d="M112.91,86.09a24.24,24.24,0,0,1,3,2.38,17.17,17.17,0,0,1,2.56,3.08A17.76,17.76,0,0,1,121,99a30.69,30.69,0,0,1,.25,3.71,25.13,25.13,0,0,1-.19,3.78,20.37,20.37,0,0,1-2.47,7.22,24.56,24.56,0,0,1-11,9.94,24.83,24.83,0,0,1-7.13,2.17,22.29,22.29,0,0,1-3.74.22l-3.56-.1a1.66,1.66,0,0,1,.09-3.31h.11c1.12.09,2.27.14,3.41.16a18.15,18.15,0,0,0,3.21-.19,21.67,21.67,0,0,0,6.12-2,21.08,21.08,0,0,0,9.21-8.67,16.53,16.53,0,0,0,1.88-5.93,27.15,27.15,0,0,0-.23-6.43,13.48,13.48,0,0,0-2-5.65,12.52,12.52,0,0,0-2-2.22,18.61,18.61,0,0,0-2.49-1.84h-.05a2.2,2.2,0,1,1,2.38-3.71Z"/></clipPath><clipPath id="clip-path-73"><path class="cls-1" d="M144.56,67.08l20.29.42,6.72,3.29-2,7.48s-.19-7.67-7.42-7.55S146.31,70.41,144.56,67.08Z"/></clipPath><clipPath id="clip-path-75"><path class="cls-1" d="M72.41,6.54h0a19.13,19.13,0,0,1,11.33,3.78l1.94,1.32,2.17-.81A35.26,35.26,0,0,1,98.73,9.06a19.78,19.78,0,0,1,2.53.11s12.45.76,19.29,14.17C118,7.29,101.26,6,101.26,6c-.86-.07-1.71-.1-2.53-.1A35,35,0,0,0,87.85,7.67l-2.17.81-2-1.32A19.13,19.13,0,0,0,72.39,3.38h-1.3c-8.25.52-16,5.52-19.34,12.51A26.94,26.94,0,0,1,72.41,6.54Z"/></clipPath><clipPath id="clip-path-77"><path class="cls-1" d="M150,88.12c-17.86,0-24.86-18.15-24.93-18.34a1.52,1.52,0,0,1,2.85-1.07c.28.72,7,18,24.48,16.24,11.61-1.14,16.82-6.27,17.75-10.32a4.53,4.53,0,0,0-2-5.17C166,68.09,162.08,68.2,158,68.31c-8.23.23-18.48.52-23.4-10.55a1.52,1.52,0,0,1,2.78-1.24c4.1,9.21,12.45,9,20.53,8.74,4.57-.13,8.88-.24,11.87,1.6a7.58,7.58,0,0,1,3.33,8.45c-1.85,8.06-12.16,11.87-20.41,12.68C151.79,88.08,150.89,88.12,150,88.12Z"/></clipPath><clipPath id="clip-path-79"><path class="cls-1" d="M99.13,77.79s-17-.21-24.11.27C75.06,78.06,87.61,67.42,99.13,77.79Z"/></clipPath><clipPath id="clip-path-81"><path class="cls-1" d="M98.39,78.4a29.65,29.65,0,0,0-5.67-2.67A15.14,15.14,0,0,0,87.33,75a27.61,27.61,0,0,0-5.71,1c-2,.51-4.05,1.21-6.21,1.85h-.13A1.15,1.15,0,0,1,74,76.11a15.44,15.44,0,0,1,5.57-5A16.07,16.07,0,0,1,87.15,69,13.8,13.8,0,0,1,95,71.14a12.79,12.79,0,0,1,4.86,6,1,1,0,0,1-1.44,1.25Z"/></clipPath><clipPath id="clip-path-83"><path class="cls-1" d="M82.45,66.4c-.59.95-1.26,1.87-1.92,2.76s-1.31,1.77-1.92,2.66-1.24,1.74-1.76,2.62a19.44,19.44,0,0,0-1.4,2.77v.08a.76.76,0,0,1-1,.44.79.79,0,0,1-.47-.52,7.11,7.11,0,0,1,.24-3.93,12.42,12.42,0,0,1,1.67-3.36,16.6,16.6,0,0,1,2.36-2.79,13.51,13.51,0,0,1,2.89-2.21,1,1,0,0,1,1.37.4,1,1,0,0,1,0,1Z"/></clipPath></defs><g class="cls-14"><g class="cls-15"><rect class="cls-16" x="20.38" y="5.44" width="128.63" height="127.48"/></g></g><g class="cls-17"><g class="cls-15"><rect class="cls-16" x="121.79" y="53.63" width="55.25" height="37.38"/></g></g><g class="cls-18"><g class="cls-15"><rect class="cls-16" x="19.52" y="-4.45" width="130.99" height="78.98"/></g></g><g class="cls-19"><g class="cls-15"><rect class="cls-16" x="-2.65" y="44.46" width="52.74" height="40.34"/></g></g><g class="cls-20"><g class="cls-15"><rect class="cls-16" x="-4.22" y="42.88" width="55.85" height="43.49"/></g></g><g class="cls-21"><g class="cls-15"><rect class="cls-22" x="19.01" y="19.05" width="113.78" height="124.67"/></g></g><g class="cls-23"><g class="cls-15"><rect class="cls-16" x="33.97" y="16.59" width="115.03" height="99.82"/></g></g><g class="cls-24"><g class="cls-15"><rect class="cls-16" x="117.74" y="61.94" width="30.41" height="47.92"/></g></g><g class="cls-25"><g class="cls-15"><rect class="cls-16" x="43.77" y="98.28" width="54" height="37.37"/></g></g><g class="cls-26"><g class="cls-15"><rect class="cls-16" x="28.17" y="30.26" width="96.78" height="99.13"/></g></g><g class="cls-27"><g class="cls-15"><rect class="cls-16" x="17.99" y="73.93" width="55.24" height="46.87"/></g></g><g class="cls-28"><g class="cls-15"><rect class="cls-16" x="41.62" y="111.06" width="63.7" height="34.85"/></g></g><g class="cls-29"><g class="cls-15"><rect class="cls-16" x="85.01" y="93.03" width="19.13" height="16.65"/></g></g><g class="cls-30"><g class="cls-15"><rect class="cls-16" x="31.46" y="49.74" width="19.75" height="36.4"/></g></g><g class="cls-31"><g class="cls-15"><rect class="cls-16" x="28.07" y="84.64" width="72.41" height="52.89"/></g></g><g class="cls-32"><g class="cls-15"><rect class="cls-33" x="52.17" y="114.96" width="30.75" height="19.14"/></g></g><g class="cls-34"><g class="cls-15"><rect class="cls-16" x="24.03" y="17.18" width="126.63" height="72.62"/></g></g><g class="cls-35"><g class="cls-15"><rect class="cls-16" x="24.4" y="40.98" width="26.73" height="22.78"/></g></g><g class="cls-36"><g class="cls-15"><rect class="cls-16" x="21.27" y="83.81" width="19.77" height="18.52"/></g></g><g class="cls-37"><g class="cls-15"><rect class="cls-2" x="37.08" y="60.02" width="15.55" height="14.44"/></g></g><g class="cls-38"><g class="cls-15"><rect class="cls-16" x="40.46" y="84.86" width="18.91" height="15.05"/></g></g><g class="cls-39"><g class="cls-15"><rect class="cls-16" x="20.92" y="84.86" width="13.9" height="15.06"/></g></g><g class="cls-40"><g class="cls-15"><rect class="cls-16" x="8.35" y="1.64" width="18.74" height="23.91"/></g></g><g class="cls-41"><g class="cls-15"><rect class="cls-16" x="-4.12" y="13.73" width="24.54" height="17.54"/></g></g><g class="cls-42"><g class="cls-15"><rect class="cls-16" x="-4.45" y="29.72" width="24.97" height="16.37"/></g></g><g class="cls-43"><g class="cls-15"><rect class="cls-16" x="91.45" y="113.1" width="15.43" height="15.65"/></g></g><g class="cls-44"><g class="cls-15"><rect class="cls-16" x="28.4" y="75.18" width="11.57" height="12.15"/></g></g><g class="cls-45"><g class="cls-15"><rect class="cls-16" x="28.13" y="40.61" width="13.07" height="16.38"/></g></g><path class="cls-2" d="M134,82.05c4.05,3.24,11.33,6.5,17,7.65L156,97.06c1.14,1.45-14.8-2.43-22.88-14.45C132.79,82.12,133.56,81.67,134,82.05Z"/><g class="cls-47"><g class="cls-15"><rect class="cls-16" x="75.08" y="38.21" width="37.44" height="35.59"/></g></g><g class="cls-48"><g class="cls-15"><rect class="cls-16" x="87.28" y="81.3" width="38.47" height="49.15"/></g></g><g class="cls-49"><g class="cls-15"><rect class="cls-50" x="140.11" y="62.64" width="35.91" height="20.08"/></g></g><g class="cls-51"><g class="cls-15"><rect class="cls-50" x="47.3" y="-1.07" width="77.69" height="28.86"/></g></g><g class="cls-52"><g class="cls-15"><rect class="cls-16" x="120.53" y="51.25" width="57.29" height="41.32"/></g></g><g class="cls-53"><g class="cls-15"><rect class="cls-54" x="70.57" y="68.8" width="33" height="13.71"/></g></g><g class="cls-55"><g class="cls-15"><rect class="cls-16" x="69.38" y="64.52" width="35" height="18.4"/></g></g><g class="cls-56"><g class="cls-15"><rect class="cls-16" x="69.37" y="60.35" width="17.73" height="21.88"/></g></g></svg>