<svg xmlns="http://www.w3.org/2000/svg" viewBox="0 0 158 53">
  <g fill="#BDCAD1">
    <path d="M67 28C67 35.4846709 61.1631461 41 54 41 46.8368539 41 41 35.4846709 41 28 41 20.4625789 46.8368539 15 54 15 61.1631461 15 67 20.4625789 67 28zM61.3092135 28C61.3092135 23.3228133 57.9262921 20.122633 54 20.122633 50.0737079 20.122633 46.6907865 23.3228133 46.6907865 28 46.6907865 32.6302976 50.0737079 35.877367 54 35.877367 57.9262921 35.877367 61.3092135 32.6244364 61.3092135 28zM96 28C96 35.4846709 90.1631461 41 83 41 75.8368539 41 70 35.4846709 70 28 70 20.46844 75.8368539 15 83 15 90.1631461 15 96 20.4625789 96 28zM90.3092135 28C90.3092135 23.3228133 86.9262921 20.122633 83 20.122633 79.0737079 20.122633 75.6907865 23.3228133 75.6907865 28 75.6907865 32.6302976 79.0737079 35.877367 83 35.877367 86.9262921 35.877367 90.3092135 32.6244364 90.3092135 28zM123 15.792776L123 39.3512377C123 49.0420364 117.32032 53 110.605833 53 104.285278 53 100.481185 48.7462245 99.0465663 45.2674763L104.032455 43.1790441C104.920273 45.3148062 107.09572 47.8351238 110.599953 47.8351238 114.89793 47.8351238 117.561383 45.1669002 117.561383 40.1440137L117.561383 38.2567336 117.361477 38.2567336C116.079727 39.8482018 113.610301 41.2385178 110.49412 41.2385178 103.973659 41.2385178 98 35.5234314 98 28.1695469 98 20.7624163 103.973659 15 110.49412 15 113.604421 15 116.073848 16.3903161 117.361477 17.9344543L117.561383 17.9344543 117.561383 15.7986922 123 15.7986922 123 15.792776zM117.967074 28.1695469C117.967074 23.5489647 114.90381 20.1707925 111.005644 20.1707925 107.054563 20.1707925 103.744356 23.5489647 103.744356 28.1695469 103.744356 32.7427993 107.054563 36.0736416 111.005644 36.0736416 114.90381 36.0736416 117.967074 32.7427993 117.967074 28.1695469z"/>
    <polygon points="132 2 132 40 126 40 126 2"/>
    <path d="M153.318504 32.2844905L157.753605 35.2385032C156.322171 37.3543733 152.872647 41 146.912246 41 139.520411 41 134 35.2912534 134 28 134 20.2691614 139.567343 15 146.272794 15 153.025177 15 156.328037 20.3688007 157.40748 23.2700631L158 24.7470694 140.60572 31.9445446C141.937424 34.5527502 144.008311 35.8832281 146.912246 35.8832281 149.822048 35.8832281 151.840137 34.4531109 153.318504 32.2844905zM139.667074 27.6073039L151.294549 22.7835888C150.655097 21.1600541 148.730873 20.0288548 146.46639 20.0288548 143.562454 20.0288548 139.520411 22.5901713 139.667074 27.6073039L139.667074 27.6073039zM20.2990612 24.3690476L20.2990612 18.7678571 38.7268663 18.7678571C38.9070183 19.7440476 39 20.8988095 39 22.1488095 39 26.3511905 37.8784086 31.547619 34.2637461 35.25 30.7478766 39 26.2556996 41 20.3048726 41 9.27492177 41 0 31.797619 0 20.5 0 9.20238095 9.27492177 0 20.3048726 0 26.4067948 0 30.753688 2.45238095 34.0196692 5.64880952L30.1609298 9.60119048C27.818954 7.35119048 24.6459544 5.60119048 20.2990612 5.60119048 12.2445239 5.60119048 5.94501565 12.25 5.94501565 20.5 5.94501565 28.75 12.2445239 35.3988095 20.2990612 35.3988095 25.5234689 35.3988095 28.4988824 33.25 30.4050067 31.297619 31.950827 29.7142857 32.967814 27.452381 33.3687975 24.3630952L20.2990612 24.3690476z"/>
  </g>
</svg>
