<svg xmlns="http://www.w3.org/2000/svg" width="474" height="474" viewBox="0 0 474 474">
  <g fill="none" fill-rule="evenodd" transform="translate(3 114)">
    <path fill="#9FA2A1" d="M467.169,218.064 C467.335,232.849 363.003,246.002 234.139,247.443 C105.274,248.884 0.675,238.066 0.51,223.281 C0.345,208.496 104.676,195.343 233.54,193.902 C362.405,192.461 467.004,203.279 467.169,218.064"/>
    <path fill="#F3E3D9" d="M71.578,90.511 C71.578,90.511 52.449,126.889 38.709,145.119 C24.969,163.349 1.24,156.622 4.202,174.688 C7.163,192.754 65.019,272.916 171.653,217.583 C278.286,162.25 201.301,118.466 177.476,101.997 C153.652,85.529 89.729,58.324 71.578,90.511"/>
    <path fill="#0A0B09" d="M102.437,78.021 C88.539,78.021 78.889,82.637 73.756,91.739 C73.006,93.167 54.409,128.44 40.705,146.624 C34.072,155.425 25.309,158.77 18.268,161.459 C9.326,164.873 5.426,166.702 6.669,174.284 C8.958,188.253 42.844,234.264 101.012,234.265 C122.951,234.266 146.331,227.906 170.501,215.364 C205.072,197.425 223.116,179.167 224.131,161.097 C225.471,137.232 196.378,117.716 180.748,107.231 C179.033,106.081 177.452,105.02 176.055,104.054 C161.494,93.989 128.632,78.021 102.437,78.021 Z M101.014,239.265 C101.013,239.265 101.013,239.265 101.012,239.265 C38.957,239.264 4.27,190.561 1.734,175.093 C-0.22,163.167 8.272,159.924 16.484,156.788 C23.263,154.2 30.945,151.267 36.712,143.614 C50.175,125.752 69.175,89.709 69.365,89.348 C75.486,78.492 86.601,73.021 102.437,73.021 C129.768,73.021 163.841,89.533 178.897,99.941 C180.279,100.895 181.84,101.943 183.534,103.079 C199.991,114.119 230.623,134.668 229.123,161.377 C228.002,181.335 209.054,200.992 172.804,219.802 C147.917,232.717 123.763,239.265 101.014,239.265 Z"/>
    <path fill="#0A0B09" d="M12.133,186.651 C12.133,186.651 25.183,169.255 20.037,163.312 C14.891,157.368 -0.271,164.242 0.429,167.51 C1.128,170.778 0.42,186.88 12.133,186.651"/>
    <path stroke="#0A0B09" d="M12.133,186.651 C12.133,186.651 25.183,169.255 20.037,163.312 C14.891,157.368 -0.271,164.242 0.429,167.51 C1.128,170.778 0.42,186.88 12.133,186.651 Z"/>
    <path fill="#0A0B09" d="M79.926,159.298 C78.601,159.298 77.29,159.167 75.993,158.905 C64.876,156.658 59.279,145.563 59.046,145.092 C58.434,143.853 58.942,142.354 60.18,141.743 C61.414,141.133 62.912,141.638 63.526,142.872 C63.575,142.971 68.316,152.273 77.016,154.011 C82.869,155.18 89.369,152.719 96.332,146.698 C97.376,145.794 98.954,145.909 99.858,146.953 C100.761,147.998 100.647,149.576 99.602,150.479 C92.822,156.344 86.221,159.298 79.926,159.298"/>
    <path fill="#FFFFFE" d="M52.978,81.174 C52.978,81.174 40.903,62.693 69.516,59.445 C69.516,59.445 58.023,24.651 96.18,28.311 C96.18,28.311 105.811,-0.05 151.434,13.675 C151.434,13.675 172.844,5.959 185.662,25.024 C185.662,25.024 187.066,23.956 189.369,22.561 C200.911,12.182 218.7,5.484 243.326,21.211 C243.326,21.211 251.869,-1.892 272.901,15.912 C272.901,15.912 305.643,-13.691 321.567,16.503 C321.567,16.503 350.358,-1.566 357.127,24.096 C357.127,24.096 387.409,19.167 382.922,43.316 C382.922,43.316 408.204,38.088 408.784,56.281 C408.784,56.281 436.563,67.909 426.142,86.733 C426.142,86.733 449.187,120.182 430.902,131.188 C430.902,131.188 455.416,166.38 431.832,170.701 C431.832,170.701 434.302,215.72 395.558,200.497 C395.558,200.497 395.081,213.477 370.203,219.779 C370.203,219.779 283.71,237.451 277.596,227.741 C277.596,227.741 207.998,245.762 203.671,235.092 C203.671,235.092 195.232,236.813 187.286,234.571 C171.627,234.929 157.669,227.005 157.669,227.005 C132.93,250.07 133.696,230.908 115.28,221.215 C96.864,211.521 133.671,194.953 133.671,194.953 C113.658,183.404 146.679,167.452 146.679,167.452 C131.154,151.647 156.086,137.717 156.086,137.717 C156.086,137.717 116.443,132.89 125.227,115.243 C125.227,115.243 103.273,130.855 90.145,102.622 C90.145,102.622 45.759,108.438 52.978,81.174"/>
    <path fill="#0A0B09" d="M203.669,232.592 C204.671,232.592 205.599,233.195 205.988,234.152 C205.995,234.17 206.822,235.97 215.246,235.97 C235.604,235.969 276.558,225.428 276.97,225.321 C278.027,225.05 279.133,225.488 279.712,226.409 C279.722,226.425 281.046,228.155 291.079,228.154 C316.057,228.153 367.646,217.747 369.646,217.341 C392.034,211.65 393.055,200.479 393.062,200.367 C393.116,199.572 393.548,198.83 394.221,198.404 C394.895,197.979 395.731,197.881 396.472,198.17 C401.489,200.142 406.012,201.141 409.914,201.14 C414.96,201.14 418.932,199.536 422.06,196.237 C430.134,187.722 429.345,171.004 429.336,170.836 C429.268,169.58 430.144,168.469 431.382,168.242 C435.3,167.524 437.742,165.87 438.847,163.186 C442.29,154.824 432.799,138.284 428.85,132.617 C428.455,132.049 428.313,131.343 428.457,130.666 C428.601,129.99 429.02,129.403 429.613,129.046 C432.561,127.271 434.35,124.765 435.083,121.385 C437.889,108.419 424.221,88.352 424.083,88.15 C423.546,87.37 423.496,86.352 423.955,85.522 C426.117,81.617 426.548,77.935 425.273,74.266 C421.908,64.581 407.959,58.646 407.819,58.587 C406.916,58.209 406.316,57.339 406.285,56.361 C406.048,48.902 400.768,45.12 390.594,45.12 C386.623,45.12 383.457,45.758 383.426,45.765 C382.609,45.93 381.764,45.682 381.172,45.1 C380.578,44.517 380.311,43.677 380.464,42.859 C381.394,37.853 380.734,33.954 378.503,31.269 C374.823,26.843 367.322,26.182 363.178,26.182 C359.941,26.182 357.55,26.56 357.526,26.564 C356.259,26.768 355.037,25.977 354.71,24.734 C352.596,16.72 348.093,12.824 340.941,12.824 C332.268,12.824 322.987,18.563 322.894,18.622 C322.305,18.99 321.588,19.097 320.917,18.916 C320.246,18.735 319.68,18.284 319.356,17.669 C315.012,9.433 309.199,5.428 301.586,5.428 C288.377,5.428 274.715,17.643 274.578,17.766 C273.647,18.607 272.241,18.628 271.286,17.82 C266.468,13.741 262.053,11.673 258.166,11.673 C249.618,11.673 245.71,21.975 245.671,22.079 C245.409,22.788 244.839,23.34 244.122,23.581 C243.404,23.823 242.618,23.726 241.98,23.318 C232.685,17.382 223.771,14.372 215.486,14.372 C206.68,14.372 198.455,17.752 191.041,24.42 C190.924,24.525 190.798,24.619 190.664,24.7 C188.521,25.997 187.188,27.004 187.175,27.015 C186.628,27.431 185.934,27.602 185.253,27.49 C184.575,27.377 183.971,26.99 183.588,26.419 C177.037,16.676 168.016,14.631 161.602,14.631 C156.273,14.631 152.316,16.015 152.277,16.029 C151.775,16.207 151.225,16.223 150.714,16.069 C142.675,13.65 135.259,12.424 128.672,12.424 C104.667,12.424 98.783,28.444 98.544,29.125 C98.164,30.211 97.088,30.905 95.942,30.799 C84.987,29.748 77.384,31.929 73.534,37.238 C67.639,45.37 71.847,58.532 71.891,58.664 C72.125,59.378 72.025,60.161 71.619,60.793 C71.213,61.426 70.545,61.844 69.798,61.928 C61.096,62.916 55.523,65.493 53.679,69.38 C51.448,74.084 55.039,79.757 55.075,79.814 C55.455,80.405 55.575,81.135 55.394,81.814 C54.096,86.717 54.555,90.516 56.796,93.427 C60.377,98.08 68.903,100.642 80.804,100.642 C85.928,100.642 89.783,100.147 89.821,100.143 C90.908,100.004 91.952,100.579 92.412,101.567 C97.188,111.84 103.618,117.048 111.521,117.048 C118.237,117.048 123.729,113.24 123.784,113.202 C124.72,112.543 125.987,112.602 126.854,113.349 C127.722,114.094 127.975,115.332 127.466,116.356 C126.215,118.87 126.135,121.073 127.222,123.092 C131.283,130.635 149.653,134.415 156.388,135.236 C157.462,135.367 158.33,136.174 158.539,137.235 C158.747,138.297 158.25,139.372 157.305,139.9 C157.189,139.966 145.412,146.669 144.188,155.269 C143.68,158.843 145.078,162.255 148.463,165.7 C149.027,166.274 149.28,167.086 149.142,167.88 C149.004,168.673 148.492,169.352 147.767,169.703 C140.907,173.023 129.945,180.457 129.734,186.268 C129.651,188.56 131.395,190.754 134.92,192.788 C135.733,193.257 136.214,194.142 136.167,195.078 C136.12,196.015 135.553,196.847 134.698,197.232 C125.627,201.32 112.783,209.432 112.622,214.668 C112.576,216.185 113.862,217.643 116.445,219.003 C122.222,222.044 126.26,226.006 129.504,229.189 C133.191,232.809 135.855,235.423 139.273,235.422 C143.164,235.422 148.468,232.166 155.964,225.177 C156.763,224.432 157.953,224.289 158.904,224.831 C159.033,224.903 172.494,232.368 187.229,232.072 C187.474,232.061 187.725,232.098 187.965,232.165 C190.453,232.867 193.281,233.223 196.37,233.223 C200.243,233.223 203.145,232.647 203.174,232.642 C203.34,232.608 203.506,232.592 203.669,232.592 Z M215.246,240.97 C208.727,240.97 204.596,239.956 202.516,237.81 C201.119,238.001 198.941,238.223 196.37,238.223 C192.969,238.223 189.809,237.838 186.972,237.077 C173.91,237.287 162.26,232.128 158.066,230.035 C150.143,237.206 144.307,240.421 139.274,240.422 C139.273,240.422 139.272,240.422 139.271,240.422 C133.81,240.423 130.192,236.871 126.002,232.759 C122.834,229.649 119.244,226.126 114.116,223.427 C109.698,221.102 107.514,218.102 107.625,214.513 C107.879,206.241 121.44,198.255 128.771,194.534 C125.976,192.053 124.622,189.223 124.737,186.083 C125.053,177.496 136.958,169.888 142.721,166.699 C139.804,162.848 138.635,158.773 139.24,154.549 C140.191,147.916 145.424,142.511 149.58,139.18 C141.216,137.513 127.191,133.582 122.819,125.462 C121.894,123.744 121.444,121.91 121.467,120.013 C118.827,121.079 115.368,122.048 111.521,122.048 C104.884,122.048 95.643,119.091 88.662,105.292 C86.948,105.448 84.145,105.642 80.804,105.642 C71.262,105.642 58.664,104.052 52.833,96.477 C49.799,92.534 48.952,87.517 50.31,81.553 C49.053,79.204 46.408,73.093 49.144,67.275 C51.548,62.163 57.339,58.831 66.38,57.353 C65.274,52.374 63.931,41.988 69.471,34.324 C73.684,28.496 80.869,25.541 90.826,25.541 C92.034,25.541 93.297,25.585 94.597,25.673 C97.03,20.691 105.67,7.424 128.672,7.424 C135.54,7.424 143.186,8.647 151.409,11.059 C153.014,10.582 156.818,9.631 161.602,9.631 C168.756,9.631 178.634,11.766 186.251,21.572 C186.723,21.262 187.267,20.915 187.873,20.545 C196.189,13.131 205.478,9.372 215.486,9.372 C224.001,9.372 232.995,12.144 242.256,17.619 C244.419,13.622 249.436,6.673 258.166,6.673 C262.778,6.673 267.717,8.688 272.867,12.668 C277.174,9.182 289.219,0.428 301.586,0.428 C310.348,0.428 317.377,4.688 322.509,13.098 C326.13,11.184 333.539,7.824 340.941,7.824 C347.175,7.824 355.175,10.24 358.92,21.371 C360.032,21.272 361.501,21.182 363.178,21.182 C369.31,21.182 377.613,22.378 382.347,28.073 C384.995,31.257 386.157,35.384 385.818,40.373 C387.151,40.234 388.794,40.12 390.594,40.12 C402.741,40.12 410.148,45.38 411.172,54.624 C415.216,56.573 426.582,62.798 429.996,72.625 C431.585,77.198 431.261,81.883 429.034,86.574 C432.181,91.464 442.817,109.266 439.971,122.436 C439.137,126.297 437.243,129.446 434.331,131.828 C438.208,137.864 447.825,154.515 443.471,165.09 C441.921,168.855 438.863,171.401 434.366,172.678 C434.334,177.9 433.459,191.469 425.701,199.664 C419.223,206.508 409.598,207.974 397.323,203.806 C395.607,208.556 389.885,217.372 370.817,222.203 C370.779,222.212 370.741,222.221 370.703,222.228 C368.52,222.675 316.931,233.153 291.079,233.154 C283.782,233.155 279.24,232.33 276.832,230.516 C269.314,232.412 234.321,240.969 215.246,240.97 Z"/>
    <path fill="#F3E3D9" d="M226.145,186.217 C226.145,186.217 257.948,193.508 279.289,193.526 C306.392,193.548 307.295,240.44 258.623,241.415 C204.274,242.504 215.824,215.278 215.824,215.278 L226.145,186.217"/>
    <path fill="#0A0B09" d="M227.761,189.136 L218.125,216.254 C218.026,216.494 215.625,222.495 219.409,228.145 C222.709,233.073 231.649,238.947 255.502,238.947 C256.501,238.947 257.525,238.936 258.573,238.916 C284.019,238.405 295.48,224.723 295.36,212.225 C295.286,204.429 290.224,196.034 279.288,196.025 C260.891,196.01 235.359,190.784 227.761,189.136 Z M255.502,243.947 C234.514,243.947 220.956,239.54 215.202,230.849 C210.181,223.264 213.102,215.348 213.487,214.387 L224.534,183.283 L226.703,183.78 C227.019,183.852 258.482,191.008 279.292,191.025 C292.99,191.037 300.26,201.675 300.36,212.177 C300.503,227.058 287.518,243.336 258.673,243.914 C257.591,243.936 256.533,243.947 255.502,243.947 Z"/>
    <path fill="#F3E3D9" d="M395.536,173.177 C395.536,173.177 426.311,177.976 446.531,175.325 C474.175,171.701 478.115,219.248 432.25,224.902 C381.036,231.215 388.966,203.048 388.966,203.048 L395.536,173.177"/>
    <path fill="#0A0B09" d="M397.478,175.983 L391.372,203.726 C391.305,203.97 389.721,210.051 393.737,215.298 C399.094,222.298 412.481,224.821 431.944,222.42 C455.423,219.526 465.307,205.025 464.555,192.776 C464.092,185.236 459.249,177.628 449.472,177.628 C448.625,177.628 447.745,177.687 446.856,177.804 C442.707,178.348 437.822,178.624 432.338,178.624 C418.112,178.624 403.122,176.762 397.478,175.983 Z M418.5,228.323 C404.452,228.323 394.766,224.939 389.711,218.265 C384.448,211.314 386.284,203.422 386.536,202.457 L393.599,170.346 L395.921,170.708 C396.108,170.736 414.842,173.624 432.338,173.624 C437.606,173.624 442.272,173.362 446.206,172.847 C447.309,172.702 448.409,172.628 449.472,172.628 C460.574,172.628 468.828,180.788 469.546,192.47 C470.436,206.979 459.241,224.094 432.555,227.383 C427.49,228.007 422.761,228.323 418.5,228.323 Z"/>
    <path fill="#FFFFFE" d="M199.56,222.456 C192.442,238.597 211.301,238.762 211.301,238.762 C228.958,248.856 231.476,219.969 231.476,219.969 C244.73,219.864 232.763,193.114 232.763,193.114 C247.799,181.472 228.377,180.193 228.377,180.193 C228.377,180.193 227.268,167.777 211.201,167.899"/>
    <path fill="#0A0B09" d="M218.221,243.412 C215.84,243.412 213.295,242.685 210.606,241.235 C208.268,241.098 200.572,240.237 197.117,234.887 C194.842,231.362 194.894,226.841 197.273,221.447 C197.83,220.184 199.306,219.609 200.569,220.169 C201.832,220.726 202.405,222.201 201.848,223.465 C200.191,227.223 200.013,230.152 201.318,232.175 C203.845,236.088 211.249,236.261 211.323,236.262 C211.751,236.266 212.17,236.379 212.542,236.592 C215.968,238.549 218.751,238.918 221.051,237.716 C226.506,234.865 228.629,223.78 228.986,219.75 C229.1,218.467 230.169,217.478 231.457,217.469 C233.307,217.454 233.983,216.77 234.365,216.176 C236.928,212.191 233.342,200.541 230.48,194.134 C230.01,193.081 230.321,191.843 231.232,191.137 C235.367,187.935 236.124,185.99 235.946,185.409 C235.557,184.138 231.47,182.901 228.212,182.686 C226.983,182.606 225.996,181.642 225.887,180.415 C225.781,179.401 224.46,170.397 211.435,170.397 C211.357,170.397 211.275,170.395 211.201,170.398 C209.829,170.398 208.712,169.292 208.701,167.917 C208.691,166.536 209.802,165.409 211.182,165.398 C211.267,165.397 211.353,165.397 211.436,165.397 C225.175,165.397 229.26,173.874 230.425,177.898 C233.652,178.357 239.448,179.759 240.728,183.948 C241.956,187.967 238.297,191.76 235.803,193.877 C237.861,198.933 242.702,212.451 238.572,218.878 C237.747,220.163 236.274,221.646 233.725,222.223 C233.039,227.024 230.678,238.32 223.373,242.143 C221.758,242.989 220.037,243.412 218.221,243.412"/>
    <path fill="#FFFFFE" d="M363.607,206.439 C359.344,230.354 384.997,221.055 384.997,221.055 C399.859,231.234 401.532,208.106 401.532,208.106 C416.986,216.434 411.17,196.875 411.17,196.875 C423.774,178.739 400.769,172.77 400.769,172.77 C400.769,172.77 400.862,154.158 385.072,155.537"/>
    <path fill="#0A0B09" d="M391.82,226.152 C389.594,226.152 387.193,225.367 384.636,223.8 C381.126,224.852 370.946,227.289 364.948,222.239 C361.084,218.986 359.805,213.522 361.145,206.001 C361.388,204.643 362.685,203.738 364.045,203.978 C365.404,204.221 366.309,205.518 366.067,206.878 C365.063,212.514 365.769,216.395 368.168,218.414 C372.313,221.903 381.106,219.807 384.146,218.704 C384.901,218.432 385.746,218.536 386.411,218.992 C389.37,221.018 391.77,221.615 393.541,220.761 C397.405,218.898 398.841,210.663 399.039,207.925 C399.099,207.079 399.586,206.322 400.329,205.914 C401.071,205.504 401.971,205.503 402.719,205.904 C406.259,207.812 408.213,207.931 408.863,207.404 C410.198,206.32 409.888,201.359 408.772,197.585 C408.558,196.858 408.684,196.07 409.117,195.448 C412.181,191.038 413.133,187.172 411.941,183.958 C409.666,177.815 400.236,175.214 400.141,175.189 C399.035,174.902 398.263,173.9 398.269,172.757 C398.269,172.682 398.222,164.608 393.685,160.447 C391.573,158.51 388.829,157.721 385.29,158.027 C383.917,158.158 382.702,157.13 382.582,155.755 C382.462,154.379 383.479,153.167 384.854,153.047 C389.822,152.612 393.926,153.872 397.088,156.783 C401.712,161.042 402.878,167.684 403.172,170.909 C406.637,172.138 414.139,175.5 416.63,182.221 C418.321,186.786 417.395,191.861 413.881,197.319 C414.678,200.512 416.018,208.03 412.018,211.283 C409.467,213.356 406.115,212.763 403.554,211.806 C402.766,216.065 400.748,222.838 395.711,225.266 C394.484,225.856 393.184,226.152 391.82,226.152"/>
  </g>
</svg>
