<svg xmlns="http://www.w3.org/2000/svg" width="211" height="173" viewBox="0 0 211 173">
  <g fill="none">
    <ellipse cx="102.742" cy="84.981" fill="#16202D" rx="72.624" ry="72.089"/>
    <path fill="#16202D" d="M171.470332,77.5162944 L185.18971,82.688731 L200.68639,82.8028934 L209.38029,85.6130457 L203.663154,98.6012183 L188.858133,105.433401 L177.625228,106.118376 L167.915726,103.317005 L156.35888,90.6713198 C156.35888,90.6713198 142.762075,58.4511675 171.470332,77.5162944 Z"/>
    <path fill="#16202D" d="M57.7842324,19.223198 C62.6521162,8.98370558 73.8675104,1.64218274 85.9409129,0.930862944 C93.2690041,0.500558376 99.0736929,2.59060914 104.685768,6.4457868 C104.685768,6.4457868 138.349461,-6.1735533 150.055145,25.2825888 C154.564066,25.3704061 181.258631,32.228934 176.662158,86.0872589 L146.763195,53.5685279 C136.61476,67.5999083 117.185323,70.9996691 102.89971,61.2437563 C89.5475268,68.4141545 73.0120297,65.2106556 63.2824896,53.5685279 L29.4436929,75.2154822 C29.4436929,75.2154822 23.7615768,25.0279188 57.4602905,19.4866497"/>
    <path fill="#16202D" d="M55.3678008,70.0430457 C55.3678008,70.0430457 46.4725311,98.2236041 22.6759336,98.5573096 C-1.1206639,98.8910152 -0.656639004,81.7842132 6.4613278,77.2791878 C20.8723651,68.0935025 32.2628631,84.8139086 40.0112033,60.3304569"/>
    <path fill="#16202D" d="M21.9842739,100.480508 C5.87473029,100.480508 1.8473444,92.6735533 0.787966805,89.2750254 C-0.726680498,84.1552792 1.26950207,78.297868 5.43697095,75.6457868 C11.5656017,71.7379188 17.11639,72.1330964 22.0105394,72.4580203 C29.1810373,72.949797 33.9175934,73.2747208 38.1901245,59.7508629 C38.509258,58.7420602 39.5832916,58.183757 40.5890456,58.5038579 C41.5947997,58.8239588 42.1514156,59.901248 41.8322822,60.9100508 C36.6492116,77.2791878 29.0759751,76.7786294 21.7478838,76.2692893 C17.2302075,75.9619289 12.5636929,75.6457868 7.47692946,78.9038071 C5.08676349,80.3967005 3.29195021,84.3045685 4.44763485,88.1860914 C6.08485477,93.7010152 12.6950207,96.7921827 22.649668,96.6428934 C44.7652697,96.335533 53.4591701,69.7356853 53.546722,69.4634518 C53.9020108,68.5064342 54.9436611,67.9976182 55.9138926,68.3071574 C56.884124,68.6166966 57.441317,69.6356019 57.1801245,70.6226396 C55.3617734,75.8783762 52.7676355,80.8307634 49.4843154,85.314467 C42.3138174,95.0885279 33.0508299,100.331218 22.7021992,100.471726 L21.9842739,100.480508 Z"/>
    <polygon fill="#FFF" points="149.512 126.914 138.752 144.714 130.575 150.738 120.769 153.803 108.1 153.373 96.421 160.389 79.681 170.19 67.021 170.19 60.385 162.128 58.896 142.677 44.616 139.744 37.971 139.7 29.47 130.092 28.463 117.543 31.221 111.212 39.197 102.623 37.971 89.89 37.971 62.956 46.665 46.763 65.357 36.339 146.641 29.436 155.693 94.5"/>
    <polygon fill="#16202D" points="158.985 112.046 146.098 136.995 144.758 124.788 144.758 119.352 135.959 105.732 135.6 98.707 141.02 88.019 141.536 72.678 131.984 53.814 119.219 47.939 103.285 46.016 84.724 52.831 68.702 70.807 68.431 58.873 61.137 44.857 55.359 45.085 46.613 49.801 56.375 31.272 82.666 32.888 99.468 26.451 123.089 27.531 137.658 29.436 146.641 29.436 163.03 57.652 175.366 80.212 168.021 95.176"/>
    <path fill="#16202D" d="M148.225311 129.029898C154.774191 124.147259 160.412531 118.966041 164.860166 112.14264 169.37133 105.23527 172.579332 97.55559 174.324523 89.4857868L156.998008 81.5822335 149.214647 116.963807 148.225311 129.029898zM58.5109129 151.115939L65.2874274 151.563807 65.4537759 153.012792 67.5987967 157.403655 73.8324896 160.389442 87.7182158 157.271929 103.031037 148.490203 111.987593 130.101269C111.987593 130.101269 116.014979 122.83 109.4661 127.133046L98.9598755 135.387868 86.2911203 141.394569C86.2911203 141.394569 71.2759751 144.766751 68.2029046 143.871015 62.0655187 142.11467 58.283278 145.855685 58.5109129 151.115939z"/>
    <path fill="#16202D" d="M39.809834,55.3248731 C40.3964315,54.3413198 41.0005394,53.3665482 41.639668,52.4093401 C42.2787967,51.452132 42.9792116,50.5124873 43.7759336,49.6167513 C44.5296349,48.6812671 45.3488618,47.8008633 46.2273859,46.9822335 C46.6826556,46.5694924 47.1641909,46.1830964 47.6719917,45.8054822 C47.9346473,45.621066 48.2060581,45.4366497 48.4949793,45.2610152 L48.950249,44.9975635 C49.1428631,44.9097462 49.2391701,44.8482741 49.5806224,44.7165482 L49.3967635,44.7955838 C51.9001617,43.5238665 54.6934513,42.9362548 57.4953112,43.0919289 C58.9841676,43.2328176 60.4258821,43.6908941 61.7240664,44.435533 C62.9717597,45.1646234 64.0804529,46.1101666 64.9985062,47.2281218 C66.6714385,49.3232943 67.9554988,51.7028834 68.7895021,54.2535025 C69.6228564,56.6687544 70.2611258,59.1473429 70.6981328,61.6652792 C71.1446473,64.1505076 71.4510788,66.6445178 71.6962241,69.1121827 L71.880083,70.9475635 L71.880083,71.3427411 C71.880083,71.3427411 71.880083,71.3427411 71.880083,71.2110152 C71.8031983,70.9145457 71.6346156,70.6501446 71.3985477,70.4557868 C71.0150269,70.1528487 70.5250291,70.0196726 70.0414938,70.0869543 C69.7872804,70.1099962 69.5416995,70.1911034 69.3235685,70.3240609 C69.2198134,70.3863948 69.1254712,70.4632802 69.0434025,70.5523858 C68.9470954,70.6665482 69.1046888,70.4645685 69.1747303,70.3591878 L69.4286307,70.0079188 L71.5123651,66.9870051 C74.3412976,62.8197374 77.5666415,58.9375926 81.1430705,55.3951269 C84.7722997,51.7799125 88.9882355,48.810309 93.6104564,46.613401 C98.3136502,44.4258596 103.441475,43.3102136 108.625602,43.346599 C113.764133,43.4309285 118.846234,44.4361544 123.631992,46.3148223 C128.558413,48.1049732 132.967466,51.0884466 136.467095,54.9999492 C139.891922,59.0571059 142.117789,63.9937982 142.893402,69.2526904 C143.644321,74.3439562 143.582258,79.5226759 142.709544,84.5943655 C141.868781,89.5719035 140.609373,94.4691057 138.944813,99.2335025 C138.139336,101.604569 137.263817,103.940508 136.318257,106.258883 C135.845477,107.418071 135.363942,108.568477 134.864896,109.70132 L134.479668,110.579492 L134.295809,111.009797 L134.243278,111.115178 L134.243278,111.167868 C134.408072,110.792875 134.459813,110.377696 134.392116,109.973553 C134.303233,109.460586 134.021112,109.001536 133.604149,108.691421 C133.325711,108.4903 133.005399,108.355181 132.667344,108.296244 L132.807427,108.296244 C133.523071,108.413909 134.228525,108.587137 134.917427,108.814365 C137.634105,109.690924 140.057494,111.301286 141.921577,113.46868 C143.716289,115.623595 144.965744,118.181294 145.563734,120.924365 C145.853242,122.236759 146.040584,123.569744 146.124066,124.911269 C146.124066,125.569898 146.194108,126.246091 146.176598,126.878376 L146.176598,127.835584 C146.176598,128.257107 146.176598,128.599594 146.097801,128.959645 C145.747364,131.656982 144.907618,134.267191 143.620083,136.661218 C141.099389,141.312805 137.380444,145.200723 132.851203,147.919391 C128.480294,150.545286 123.599136,152.201227 118.536473,152.775685 C118.210757,152.806313 117.90914,152.600947 117.817294,152.286009 C117.725448,151.971071 117.869175,151.635039 118.16,151.484772 L118.16,151.484772 C122.522258,149.539093 126.723391,147.248629 130.723693,144.635025 C134.580339,142.163268 137.763543,138.768222 139.98668,134.755584 C141.016524,132.807333 141.689656,130.689612 141.974108,128.502995 C141.974108,128.248325 142.017884,127.976091 142.026639,127.782893 L142.026639,126.904721 C142.026639,126.298782 142.026639,125.754315 141.982863,125.148376 C141.904869,124.036665 141.740946,122.932705 141.492573,121.846447 C141.042525,119.765425 140.096204,117.824859 138.734689,116.191015 C137.363507,114.628188 135.592376,113.471185 133.612905,112.845178 C133.135501,112.689702 132.646612,112.572248 132.150788,112.493909 L132.071992,112.493909 C131.694707,112.428979 131.336131,112.282117 131.021369,112.063604 C130.196177,111.437285 129.915846,110.319868 130.34722,109.376396 L130.34722,109.323706 L130.34722,109.218325 L130.531079,108.796802 L130.898797,107.97132 L132.308382,104.616701 C133.230595,102.374433 134.085685,100.11753 134.873651,97.8459898 C136.468525,93.3217086 137.683883,88.6717224 138.507054,83.9445178 C139.345762,79.3062909 139.449179,74.5643335 138.813485,69.8937563 C138.193114,65.3715854 136.32513,61.1132983 133.42029,57.5993401 C130.366816,54.1357187 126.508487,51.481298 122.187386,49.8714213 C117.841522,48.1141346 113.213936,47.1620087 108.529295,47.061269 C103.875178,47.0104382 99.2676015,47.9941281 95.0375519,49.9416751 C90.7977161,51.9443828 86.9282317,54.6555903 83.5945228,57.9593909 C80.1619214,61.3155269 77.0868781,65.0208846 74.4190871,69.0155838 L72.3353527,72.0716244 L72.0551867,72.466802 C71.9279122,72.6578833 71.7874875,72.839815 71.6349378,73.011269 C71.5045932,73.1576262 71.3542663,73.2847566 71.1884232,73.3888832 C70.9350258,73.5424926 70.6510934,73.6384229 70.3566805,73.6698985 C69.4336954,73.7501423 68.5886487,73.1478943 68.3604979,72.2472589 C68.32765,72.1322784 68.3042249,72.0147978 68.2904564,71.8959898 L68.2904564,71.377868 L68.0978423,69.5424873 C67.8439419,67.118731 67.5375104,64.7301015 67.099751,62.3853807 C66.6916946,60.063424 66.106291,57.7763652 65.3487137,55.5444162 C64.6394252,53.4158999 63.5605231,51.429935 62.1618257,49.6782234 C60.9370921,48.1011971 59.1266958,47.09026 57.1451037,46.8768528 C55.0122621,46.7940203 52.896182,47.2852262 51.016473,48.2994924 L50.8413693,48.3785279 L50.7187967,48.44 L50.4648963,48.5892893 L49.9220747,48.9669036 C49.5543568,49.2479188 49.186639,49.5552792 48.8276763,49.8889848 C48.0950209,50.5795914 47.4159812,51.3252762 46.796473,52.1195431 C46.1485892,52.9098985 45.5532365,53.7705076 44.9753942,54.6311168 C44.3975519,55.4917259 43.8634855,56.3874619 43.3381743,57.3358883 L43.3381743,57.3358883 C42.9800267,57.9633701 42.3153387,58.3515384 41.5944921,58.3541741 C40.8736454,58.3568099 40.2061537,57.9735125 39.8434547,57.3486665 C39.4807557,56.7238205 39.4779519,55.9523548 39.8360996,55.3248731 L39.809834,55.3248731 Z"/>
    <path fill="#16202D" d="M81.6070954 108.454315C77.8534607 106.410753 73.9453433 104.66659 69.9189212 103.23797 65.9625627 101.935337 61.8257135 101.268471 57.6616598 101.262081 55.6034482 101.314037 53.5532869 101.540239 51.533029 101.938274 49.5274712 102.376009 47.5666785 102.99925 45.6758091 103.8 41.8291293 105.493029 38.2416298 107.725381 35.0207469 110.430203L34.3816183 110.834162 34.3816183 110.834162C34.5041909 110.781472 34.3816183 110.834162 34.3816183 110.834162L34.2678008 110.913198C34.1710929 110.978262 34.0802732 111.051726 33.99639 111.132741 33.8036139 111.315422 33.6277871 111.515296 33.4710788 111.729898 33.1251536 112.229211 32.8537967 112.776528 32.6656017 113.354518 32.459434 113.99474 32.3157579 114.653536 32.2365975 115.321624L32.1578008 116.384213 32.1578008 117.789289 32.070249 118.131777 32.070249 118.131777C31.8728191 118.984233 31.7382093 119.850108 31.6675104 120.722386 31.5931317 121.62783 31.5755867 122.537068 31.6149793 123.444721 31.6720915 125.237942 31.9906568 127.013114 32.5605394 128.713756 33.1246373 130.373734 33.9686355 131.92427 35.0557676 133.297817 36.1740765 134.662033 37.493864 135.846631 38.9693361 136.810508L38.7854772 136.705127 39.2144813 136.889543 39.7835685 137.082741C40.1827418 137.211801 40.589091 137.317362 41.0005394 137.398883 41.8410457 137.564394 42.6926361 137.667129 43.5482988 137.706244 44.4249577 137.72708 45.3020713 137.694822 46.1748548 137.609645 47.0503734 137.513046 47.9258921 137.363756 48.8014108 137.17934L48.906473 137.17934C49.4559858 137.060064 50.0302345 137.16665 50.500806 137.475264 50.9713775 137.783878 51.2990165 138.268775 51.4104564 138.821523 51.6324626 139.891518 51.0126098 140.956802 49.9746058 141.289188 48.9292196 141.638015 47.8576618 141.902311 46.7702075 142.079543 44.5485833 142.454117 42.2765567 142.406454 40.0724896 141.939036 39.5075434 141.819634 38.949339 141.670132 38.400249 141.491168 38.120083 141.40335 37.839917 141.306751 37.5247303 141.192589 37.2095436 141.078426 36.9994191 140.981827 36.5879253 140.771066L36.5091286 140.727157 36.4128216 140.665685C34.5601943 139.40797 32.909807 137.873996 31.5186722 136.116751 30.1277098 134.324307 29.0501141 132.308083 28.3317842 130.153959 27.6425159 128.034097 27.2707476 125.823361 27.2286307 123.59401 27.2108006 122.494042 27.2634402 121.394061 27.3862241 120.300863 27.50835 119.173587 27.7191311 118.05776 28.0165975 116.963807L28.0165975 116.963807 27.9290456 117.622437 27.9290456 116.243706 28.0341079 114.847411C28.1456164 113.883338 28.3538785 112.93302 28.6557261 112.010914 28.975503 111.022654 29.4450247 110.08965 30.0478008 109.24467 30.3871458 108.796558 30.7714715 108.384583 31.1947303 108.015228 31.4089821 107.812098 31.6371771 107.624293 31.8776349 107.453198L32.2716183 107.198528C32.451209 107.088547 32.6384718 106.991697 32.8319502 106.908731L32.8319502 106.908731 32.1928216 107.31269C35.5141571 103.950614 39.3994172 101.200988 43.6708714 99.1895939 48.0628504 97.210031 52.8203989 96.1778494 57.6353942 96.1598985 62.3915247 96.2128521 67.0911877 97.2003862 71.4685892 99.0666497 75.7673859 100.937157 79.8648133 103.211624 83.0079253 106.812132 83.4914609 107.175883 83.5894567 107.863933 83.226805 108.348934 82.8641533 108.833935 82.1781829 108.932228 81.6946473 108.568477L81.6070954 108.454315zM122.266183 142.729391C117.727988 149.199499 112.261103 154.961124 106.042822 159.827411 102.949541 162.342112 99.6618238 164.606149 96.2107469 166.598122 92.6983059 168.655698 88.9538523 170.285965 85.056639 171.454416 81.0209744 172.678135 76.787464 173.107541 72.5892531 172.718985 70.4323317 172.518863 68.3120639 172.028541 66.2855187 171.261218 64.1227022 170.459251 62.1513219 169.211811 60.4983402 167.599239 58.8620321 165.930892 57.633361 163.904954 56.9087137 161.680355 56.251525 159.591336 55.9063297 157.416228 55.8843568 155.225787 55.8666392 153.165104 56.0395656 151.107215 56.4009129 149.078579 56.5760166 148.077462 56.7686307 147.093909 56.9787552 146.127919L57.2939419 144.714061C57.3990041 144.283756 57.5040664 143.765635 57.5390871 143.53731L57.5390871 143.361675C57.7329628 142.324688 58.6869652 141.609885 59.7333449 141.71759 60.7797246 141.825295 61.5691048 142.719546 61.5489627 143.774416 61.5489627 144.503299 61.4351452 144.942386 61.3738589 145.469289L61.1637344 146.900711C61.0236515 147.840355 60.9010788 148.762437 60.8047718 149.684518 60.6207053 151.478513 60.5709532 153.283824 60.6559336 155.085279 60.7393677 156.772624 61.0697633 158.438486 61.6365145 160.029391 62.1938026 161.476138 63.043332 162.791668 64.1317427 163.89335 66.3205394 165.983401 69.6037344 167.037208 73.0882988 167.309442 76.6049499 167.610553 80.1466097 167.238028 83.5244813 166.211726 90.4673444 164.227056 96.9987137 160.38066 103.15361 156.051269 109.308506 151.721878 115.043154 146.610914 120.786556 141.535076L120.786556 141.535076C121.147705 141.220561 121.685189 141.222769 122.043756 141.540242 122.402324 141.857715 122.471215 142.392386 122.204896 142.790863L122.266183 142.729391zM108.826971 120.634569C110.022201 119.687322 111.541989 119.251781 113.055726 119.42269 114.536149 119.562367 115.950175 120.106002 117.144398 120.994619 118.277171 121.84101 119.214825 122.922281 119.893527 124.164822 120.201921 124.770656 120.456796 125.402429 120.655228 126.052893 120.817477 126.709046 120.91426 127.379759 120.944149 128.055127 120.951227 128.25228 120.879276 128.444061 120.744373 128.587624 120.60947 128.731187 120.422856 128.814568 120.226224 128.819178 120.087789 128.820576 119.95158 128.784143 119.832241 128.713756L119.762199 128.713756C119.239507 128.385544 118.741995 128.018617 118.273817 127.616041 117.783527 127.282335 117.398299 126.913503 116.943029 126.588579 116.06751 125.956294 115.305809 125.341574 114.509087 124.832234 113.712365 124.322893 112.950664 123.954061 112.118921 123.479848 111.287178 123.005635 110.367884 122.601675 109.255975 122.145025L109.002075 122.030863C108.592896 121.840017 108.413244 121.35427 108.599336 120.941929 108.64986 120.82283 108.727883 120.717482 108.826971 120.634569L108.826971 120.634569z"/>
    <path fill="#16202D" d="M45.1680083 100.190711C45.1680083 100.190711 38.9780913 69.937665 50.8851452 67.0045685 60.5596266 64.6247208 53.8794191 79.1145685 56.7248548 98.3728934L45.1680083 100.190711zM67.8789627 144.959949C67.800166 147.006091 67.7038589 149.061015 67.7388797 151.001777 67.7414852 151.917174 67.8205585 152.830742 67.9752697 153.732893 68.1133369 154.526078 68.379488 155.291357 68.7632365 155.998579 69.0510592 156.579165 69.4934777 157.068517 70.0414938 157.412437 70.6572131 157.775745 71.3443043 158.000476 72.0551867 158.071066 72.8977437 158.184497 73.7516339 158.184497 74.5941909 158.071066 75.5572614 157.930558 76.5465975 157.851523 77.5009129 157.649543 85.2004103 156.367009 92.3380533 152.793489 97.9880498 147.392487 103.57606 141.837538 107.760404 135.024143 110.19278 127.519442 110.507967 126.579797 110.805643 125.640152 111.068299 124.691726L111.462282 123.260305 111.558589 122.900254C111.532515 122.986133 111.51492 123.074374 111.506058 123.163706 111.488709 123.318361 111.488709 123.474481 111.506058 123.629137 111.541673 123.968463 111.66545 124.292471 111.865021 124.568782 112.213864 125.082329 112.778969 125.406226 113.397178 125.446954 114.059369 125.507726 114.710483 125.246491 115.148216 124.744416 113.770211 126.367923 112.309044 127.918524 110.770622 129.389949 107.68176 132.350166 104.309272 134.997505 100.702158 137.293503 86.2998755 146.523096 67.4149378 149.623046 51.1915768 142.263959 49.1467559 141.24352 47.2666846 139.920224 45.6145228 138.338528 43.9387817 136.711519 42.5634253 134.799806 41.5521162 132.691878 39.5978368 128.511779 38.9859815 123.826103 39.8010788 119.282183 39.85361 119.001168 39.9061411 118.720152 39.9761826 118.40401L40.0812448 117.956142 40.1687967 117.64 40.2738589 117.350203C40.5251002 116.71511 40.8482417 116.111067 41.2369295 115.549949 41.9688769 114.538699 42.8552909 113.649598 43.8634855 112.915431 45.718422 111.549884 47.8254741 110.567791 50.0621577 110.026244 54.2431034 109.042596 58.5791856 108.917137 62.8097095 109.657411 63.1818401 109.715927 63.4364628 110.065621 63.3787967 110.438985 63.3387574 110.745954 63.0909796 110.983518 62.783444 111.009797L62.783444 111.009797C58.8172557 111.31152 54.9048818 112.11407 51.1390456 113.398426 49.4203322 114.043426 47.8198649 114.969229 46.4024896 116.138325 45.7863997 116.679519 45.2473002 117.302988 44.8002905 117.991269 44.6108867 118.282882 44.4552087 118.595182 44.3362656 118.922132L44.3362656 119.001168C44.3362656 119.001168 44.3362656 119.001168 44.3362656 119.001168L44.3362656 119.06264 44.2749793 119.361218 44.169917 120.028629C43.5953914 123.673786 44.1102595 127.407963 45.6495436 130.759898 47.302262 134.022256 50.0003581 136.632652 53.310332 138.171675 56.7877443 139.816756 60.5231325 140.844799 64.3506224 141.210152 68.2467144 141.688806 72.1864807 141.688806 76.0825726 141.210152 83.901412 140.187077 91.3860262 137.394361 97.9705394 133.043147 101.296605 130.894148 104.42053 128.445633 107.303568 125.72797 108.742118 124.377438 110.109769 122.952879 111.400996 121.460051 111.988672 120.778283 112.857663 120.407452 113.754918 120.455542 114.652173 120.503632 115.476817 120.965238 115.988714 121.705939 116.256082 122.092208 116.424473 122.538589 116.479004 123.005635 116.500836 123.227566 116.500836 123.451114 116.479004 123.673046 116.459088 123.824008 116.429848 123.973585 116.391452 124.120914L116.295145 124.50731 115.866141 126.052893C115.55971 127.089137 115.235768 128.107817 114.88556 129.117716 112.166447 137.354503 107.525954 144.821066 101.350041 150.896396 98.1955548 153.919536 94.5847815 156.423916 90.6512033 158.316954 86.7303895 160.185681 82.5605471 161.475329 78.2713693 162.145787 77.2119917 162.347766 76.1351037 162.41802 75.0757261 162.558528 73.8749996 162.707426 72.6605606 162.707426 71.459834 162.558528 70.1226055 162.378883 68.8390594 161.914807 67.6951037 161.19736 66.4969818 160.428041 65.5288505 159.34773 64.893444 158.071066 64.3168718 156.95231 63.9208859 155.748895 63.720249 154.505685 63.5605117 153.368494 63.493167 152.220164 63.5188797 151.07203 63.5188797 148.894162 63.7027386 146.839239 63.8428216 144.766751 63.9422496 143.680461 64.8803502 142.867537 65.9663163 142.926607 67.0522825 142.985678 67.8972362 143.89559 67.8789627 144.986294L67.8789627 144.959949z"/>
    <path fill="#FF908A" d="M93.3653112,146.040102 C93.3653112,146.040102 79.8735685,147.120254 76.8092531,152.18731 C76.8092531,152.18731 74.3490456,153.109391 76.8092531,149.113706 C78.8754772,145.732741 71.5561411,148.305787 69.2009959,152.275127 C68.4259253,153.578413 68.5303112,155.22573 69.4636515,156.420102 C70.5405394,157.763706 72.773112,159.177563 77.3433195,158.123756 C84.7239419,156.420102 100.579585,146.040102 93.3653112,146.040102 Z"/>
    <path fill="#16202D" d="M39.196971,104.651841 C38.2993924,104.655114 37.5090024,104.059628 37.2620747,103.194061 C35.3935908,96.7746578 34.481943,90.1133639 34.556722,83.4263959 C34.556722,43.987665 52.1283817,27.1706599 93.3302905,27.1706599 C132.107012,27.1706599 177.380083,41.8976142 177.380083,83.4263959 C177.283033,84.4691657 176.410529,85.266423 175.36639,85.266423 C174.322252,85.266423 173.449747,84.4691657 173.352697,83.4263959 C173.352697,44.8921827 130.250913,31.2190355 93.3390456,31.2190355 C73.5435685,31.1751269 60.2882158,34.9337056 51.6556017,43.0304569 C43.0229876,51.1272081 38.5928631,64.361269 38.5928631,83.4263959 C38.5257412,89.7303714 39.3872072,96.0097275 41.1493776,102.061218 C41.4545642,103.13475 40.841623,104.254702 39.7748133,104.572792 C39.586619,104.625081 39.3922521,104.651841 39.196971,104.651841 Z"/>
    <path fill="#16202D" d="M35.1783402 69.9025381C36.0421582 67.9392213 37.1481092 66.0923491 38.4702905 64.4051777 39.7803598 62.6915019 41.3045741 61.153813 43.0054772 59.8298985 44.7543141 58.4553772 46.7270592 57.3947093 48.8364315 56.6948223 50.9989452 56.0552735 53.2806266 55.9319719 55.4991286 56.3347716 56.1840698 56.4605707 56.6690206 57.0774296 56.6312565 57.7748416 56.5934924 58.4722536 56.0447862 59.0328013 55.3502905 59.0834518L55.2277178 59.0834518C53.4977296 59.2032088 51.8023972 59.6283266 50.219751 60.3392386 48.6714156 61.1541379 47.232764 62.1633614 45.9384647 63.3425888 44.6177737 64.5857574 43.4024507 65.9369457 42.3050622 67.3821827 41.1931535 68.8136041 40.0637344 70.4030964 39.1444398 71.8608629L39.0743983 71.9750254C38.449389 72.9438972 37.1889204 73.2715268 36.1734447 72.7290611 35.157969 72.1865953 34.7255947 70.9546512 35.1783402 69.8937563L35.1783402 69.9025381zM31.5712033 110.351168C32.7688939 109.417795 34.1506107 108.750285 35.6248548 108.392843 37.3416093 107.944824 39.1651059 108.190796 40.7028631 109.077817 42.1937459 110.068371 43.2834125 111.559916 43.7759336 113.284264 43.9815328 114.038041 44.1423275 114.803398 44.2574689 115.576294 44.31 116.322741 44.3712863 117.060406 44.3975519 117.806853 44.4218775 118.900073 43.5779489 119.815903 42.4894906 119.877477 41.4010324 119.939051 40.4597903 119.124209 40.3614108 118.035178L40.3614108 117.806853C40.3614108 117.209695 40.3001245 116.612538 40.2826141 116.050508 40.2651037 115.488477 40.1250207 114.926447 40.0287137 114.38198 39.8499186 113.497263 39.4107606 112.68664 38.7679668 112.054822 37.993337 111.542792 37.0619724 111.324814 36.1414108 111.440102 34.950734 111.525553 33.7747873 111.755558 32.6393361 112.125076L32.5342739 112.125076C32.2742129 112.207429 31.9921478 112.182367 31.7505694 112.055442 31.508991 111.928518 31.3278441 111.710209 31.2472614 111.448883 31.1280538 111.050921 31.2552416 110.61993 31.5712033 110.351168L31.5712033 110.351168z"/>
    <polygon fill="#FFF" points="57.609 79.255 50.386 83.233 58.458 85.999"/>
    <ellipse cx="60.551" cy="113.188" fill="#16202D" rx="6.076" ry="3.741"/>
    <path fill="#16202D" d="M30.7744813 116.937462C34.136473 116.937462 36.8505809 115.260152 36.8505809 113.187665 36.8505809 111.115178 34.9419502 109.44665 31.5974689 109.44665L30.7744813 116.937462zM20.819834 9.37888325C21.7193332 10.5004215 22.5274171 11.6927279 23.2362656 12.944264 23.9454357 14.1824873 24.5933195 15.4646193 25.1974274 16.7643147 25.8204785 18.0693465 26.3443616 19.4197192 26.7646058 20.8039086 27.2090035 22.2681377 27.4476914 23.7873659 27.4737759 25.3177157 27.4690811 25.9864955 26.9322675 26.528838 26.2655602 26.5383756 26.04015 26.5337217 25.8198511 26.470156 25.6264315 26.3539594 24.3478595 25.5155246 23.1901178 24.5049702 22.1856432 23.3506091 21.2401901 22.2467811 20.3797059 21.0725056 19.6116183 19.8379188 18.8324066 18.6348223 18.096971 17.4053807 17.4228216 16.1408122 16.7396521 14.8732405 16.1542616 13.555055 15.6717842 12.1978173 15.2355812 10.8324712 15.8223462 9.3482608 17.0728728 8.65379216 18.3233993 7.95932353 19.8889312 8.2482752 20.8110788 9.34375635L20.819834 9.37888325zM4.02738589 23.0432487C5.42931055 23.3590612 6.80273652 23.7908428 8.13356846 24.3341624 9.45560166 24.861066 10.7601245 25.4670051 12.0296266 26.0905076 13.3268003 26.7326326 14.5736052 27.4724149 15.7593361 28.3035025 17.0117622 29.1766631 18.1373245 30.2199298 19.1038174 31.4034518 19.3162534 31.6610978 19.414029 31.9948677 19.3743141 32.326828 19.3345993 32.6587884 19.1608707 32.959879 18.8936929 33.159797 18.7157334 33.2980401 18.50412 33.3859742 18.2808299 33.414467 16.7604237 33.5518297 15.228389 33.4779509 13.7281328 33.1949239 12.3127531 32.9259686 10.9196376 32.5502137 9.5606639 32.0708629 8.20360996 31.6142132 6.86406639 31.1048731 5.55954357 30.5340609 4.2375819 29.9483597 2.96407716 29.258289 1.75103734 28.4703553.550112434 27.677006.0836528233 26.1376938.641292712 24.8082089 1.1989326 23.478724 2.62221113 22.7368572 4.02738589 23.0432487zM1.61095436 45.8230457C2.89779012 45.185858 4.23271603 44.6514436 5.6033195 44.2247716 6.96912863 43.794467 8.35244813 43.4344162 9.74452282 43.1182741 11.1481388 42.7961577 12.5730971 42.5760431 14.0082988 42.4596447 15.5282105 42.3393145 17.0574159 42.4309312 18.5522407 42.7318782 19.2088942 42.8845972 19.6220087 43.5374203 19.4802905 44.1984264 19.4293312 44.4210936 19.3170953 44.6249476 19.1563485 44.786802 18.0684021 45.8602906 16.8366771 46.7765398 15.4966805 47.5091371 14.2281667 48.190798 12.9113276 48.7778339 11.5568465 49.2654822 10.2173029 49.7748223 8.86900415 50.2226904 7.49443983 50.6090863 6.11413244 51.0172701 4.70271547 51.3109828 3.27443983 51.4872589 1.85270008 51.618437.536392245 50.7245193.129845315 49.3517336-.276701614 47.9789478.339616614 46.5092128 1.60219917 45.8406091L1.61095436 45.8230457zM121.539502 143.783198C121.539502 143.783198 117.590913 150.71198 124.262365 148.481421L120.76029 151.994112 116.330166 150.773452C116.330166 150.773452 117.056846 144.274975 121.539502 143.783198zM40.0199585 97.6791371C40.0199585 97.6791371 40.8341909 100.919594 43.1017842 99.8130964L41.5608714 101.639695 39.85361 101.639695 40.0199585 97.6791371zM44.3537759 55.6585787C44.3537759 55.6585787 42.1387137 60.0494416 44.5989212 58.6882741L42.1562241 64.7652284 39.529668 60.5324365 44.3537759 55.6585787z"/>
    <path fill="#F3F5F5" d="M162.601328,100.629797 C167.521743,104.572792 176.355726,108.53335 183.272324,109.929645 L189.260871,118.878223 C190.644191,120.634569 171.303983,115.918782 161.498174,101.314772 C161.095436,100.708832 162.023485,100.164365 162.601328,100.629797 Z"/>
    <path fill="#16202D" d="M127.659378 83.9006091C127.374752 79.8076821 126.655678 75.7568824 125.514357 71.8169543 124.503859 68.1476553 122.588951 64.7924469 119.946058 62.0604569 117.144452 59.5290106 113.648565 57.9012189 109.912614 57.3885787 105.821155 56.7989817 101.674616 56.6958146 97.5590456 57.0812183L97.5590456 57.0812183C97.0578898 57.1028082 96.6136891 56.7601934 96.5057871 56.2688334 96.3978851 55.7774733 96.6574654 55.2793708 97.1212863 55.0877665 101.340491 53.3878756 105.867593 52.5921842 110.41166 52.7518274 111.586626 52.7920188 112.757098 52.9182259 113.913734 53.1294416 114.509087 53.2260406 115.086929 53.4192386 115.664772 53.5597462L116.54029 53.8056345 117.415809 54.1217766C119.75919 54.9716505 121.913 56.2756117 123.754564 57.9593909 125.582275 59.6310497 127.092223 61.6216536 128.210954 63.8343655 129.275935 65.9690024 130.05039 68.2373836 130.513568 70.578731 130.955516 72.8428691 131.15219 75.1482878 131.100166 77.4548223 131.063022 79.7432359 130.754419 82.0190787 130.180871 84.2343147 130.02332 84.8433681 129.448421 85.2477381 128.823859 85.1888033 128.199297 85.1298685 127.709673 84.6250481 127.668133 83.9972081L127.659378 83.9006091zM136.974896 105.538782C138.283338 106.401885 139.519039 107.371121 140.669585 108.436751 141.846764 109.558624 142.889808 110.81407 143.777676 112.177766 145.452626 114.915315 146.496579 117.993661 146.833237 121.187817 147.025618 122.681944 147.127947 124.186353 147.139668 125.692843 147.174882 127.230221 147.098804 128.768136 146.912033 130.294467 146.472366 133.384282 145.456577 136.363427 143.917759 139.076193 140.819478 144.378637 136.170493 148.597173 130.60112 151.159848 127.864019 152.4636 124.948709 153.351499 121.950996 153.794365 120.449118 154.007688 118.932198 154.095807 117.415809 154.057817L113.099502 153.934873C112.042758 153.841239 111.241635 152.938121 111.271801 151.874476 111.301966 150.810831 112.152978 149.954852 113.21332 149.921624L113.344647 149.921624C114.701701 150.027005 116.102531 150.088477 117.477095 150.106041 118.780022 150.150571 120.084262 150.074137 121.373154 149.877716 123.955017 149.437975 126.457238 148.615185 128.797552 147.436396 133.506892 145.150357 137.405499 141.472841 139.96917 136.898325 141.179261 134.662597 141.951921 132.215377 142.245519 129.688528 142.464291 127.081703 142.373181 124.458031 141.974108 121.872792 141.66766 119.42191 140.814815 117.071729 139.47888 114.996701 138.801909 114.005926 138.008204 113.100718 137.114979 112.300711 136.170587 111.473034 135.160383 110.724098 134.09444 110.061371L134.033154 110.061371C133.229276 109.543698 132.761803 108.635186 132.806827 107.678061 132.851851 106.720937 133.402532 105.86061 134.251433 105.421158 135.100334 104.981705 136.118488 105.029891 136.922365 105.547563L136.974896 105.538782z"/>
    <path fill="#8E8E8E" d="M175.36639 82.4340609L199.97722 82.9346193 208.137054 86.9390863 205.746888 96.0369543C205.746888 96.0369543 205.510498 86.7107614 196.737801 86.8600508 187.965104 87.0093401 177.4939 86.4736548 175.36639 82.4340609zM87.8407884 8.82563452L87.8407884 8.82563452C92.7349378 8.82563452 96.9286722 10.2394924 101.586432 13.4272589L103.941577 15.025533 106.568133 14.0419797C110.829852 12.6368188 115.284931 11.9108222 119.770954 11.8904569 120.769046 11.8904569 121.793402 11.8904569 122.83527 12.0221827 122.83527 12.0221827 137.946722 12.944264 146.237884 29.2519289 143.112282 9.73893401 122.83527 8.1757868 122.83527 8.1757868 121.793402 8.07918782 120.769046 8.04406091 119.770954 8.04406091 115.284931 8.06442622 110.829852 8.79042288 106.568133 10.1955838L103.941577 11.1791371 101.560166 9.58086294C96.9024066 6.39309645 92.7086722 4.97923858 87.8145228 4.97923858 87.2979668 4.97923858 86.7726556 4.97923858 86.2385892 4.97923858 76.2314108 5.61152284 66.7933195 11.6972589 62.783444 20.1979695 69.0610726 12.8941677 78.2270543 8.73416522 87.8407884 8.82563452z"/>
    <path fill="#16202D" d="M181.95029,108.015228 C160.289959,108.015228 151.797427,85.9467513 151.709876,85.7096447 C151.387102,84.7613193 151.874456,83.7274298 152.809981,83.3758413 C153.745507,83.0242528 154.790201,83.482369 155.168174,84.4099492 C155.509627,85.2881218 163.625685,106.285228 184.865768,104.160051 C198.944108,102.772538 205.265353,96.528731 206.394772,91.6021827 C207.007635,88.9237563 206.140871,86.6317259 204.013361,85.3232487 C201.325519,83.6547208 196.623983,83.7864467 191.659793,83.9269543 C181.67888,84.2079695 169.246515,84.5504569 163.275477,71.0968528 C162.931835,70.1784478 163.361358,69.150538 164.255154,68.75235 C165.14895,68.3541621 166.197276,68.7236864 166.646224,69.5951777 C171.61917,80.7830964 181.748921,80.4932995 191.55473,80.221066 C197.088008,80.0629949 202.32361,79.9224873 205.948257,82.1618274 C209.419002,84.3080078 211.065684,88.4908169 209.993154,92.4364467 C207.743071,102.236853 195.240664,106.864822 185.22473,107.848376 C184.136758,107.959396 183.043879,108.015228 181.95029,108.015228 Z"/>
    <path fill="#CECECE" d="M120.25249,95.4485787 C120.25249,95.4485787 99.6515353,95.1939086 91.010166,95.7822843 C91.0539419,95.7822843 106.279212,82.8380203 120.25249,95.4485787 Z"/>
    <path fill="#16202D" d="M119.359461,96.1950254 C117.190772,94.8688828 114.886685,93.7795882 112.486639,92.9457868 C110.376302,92.2639843 108.161333,91.9665702 105.946515,92.0676142 C103.600723,92.2176772 101.276852,92.6120492 99.0124066,93.2443655 C96.6222407,93.867868 94.1007469,94.7196954 91.4829461,95.4924873 L91.3253527,95.4924873 C90.773171,95.6481219 90.1825124,95.4458221 89.8405515,94.9839447 C89.4985905,94.5220674 89.4762691,93.8964318 89.7844398,93.4112183 C91.4980176,90.8348176 93.8198583,88.7231399 96.543444,87.2640102 C99.3489612,85.67923 102.499938,84.8106879 105.71888,84.7348731 C109.085916,84.632761 112.405476,85.5508554 115.244523,87.3693909 C117.905207,89.1169303 119.96541,91.6432692 121.145519,94.605533 C121.338138,95.0917854 121.202827,95.6470465 120.808298,95.9893486 C120.413769,96.3316507 119.84647,96.3859896 119.394481,96.1247716 L119.359461,96.1950254 Z"/>
    <path fill="#16202D" d="M100.028008,81.599797 C99.310083,82.7589848 98.4958506,83.874264 97.6991286,84.963198 C96.9024066,86.052132 96.1056846,87.1059391 95.3614938,88.1860914 C94.6173029,89.2662437 93.8643568,90.311269 93.2252282,91.3826396 C92.570208,92.4549693 92.005019,93.5799619 91.5354772,94.7460406 L91.5354772,94.8426396 C91.3481445,95.3240933 90.8083401,95.5634258 90.3272614,95.3783249 C90.0509339,95.2662508 89.8411635,95.0331853 89.7581743,94.7460406 C89.404134,93.1580972 89.5042827,91.5021556 90.0470954,89.9687817 C90.5152551,88.510041 91.2000196,87.1304396 92.0782988,85.8764975 C92.9077914,84.646211 93.8677054,83.5096668 94.9412448,82.4867513 C95.9815836,81.4381803 97.1598305,80.5370437 98.4433195,79.8083249 C99.035728,79.4816469 99.7799814,79.6977417 100.106805,80.2913198 C100.325338,80.6780909 100.325338,81.1515538 100.106805,81.5383249 L100.028008,81.599797 Z"/>
  </g>
</svg>
