<svg height="196" viewBox="0 0 240 196" width="240" xmlns="http://www.w3.org/2000/svg"><g fill="none" transform="translate(0 -1)"><g fill="#16202d"><path d="m171.07 28.79c-13.37-35.79-51.82-21.45-51.82-21.45-6.43-4.34-13.04-6.77-21.42-6.28-13.83.81-26.59 9.17-32.14 20.83l-.36.3c-38.51 6.31-32 63.46-32 63.46l1.67-1.07c-.6105469 4.0346689-.9180736 8.1093974-.92 12.19 0 45.34 37.14 82.1 82.95 82.1s83-36.76 83-82.1c0-.12 0-.24 0-.36l1.5 1.62c5.18-61.33-25.32-69.14-30.46-69.24z"/><path d="m195.52 88.27 15.67 5.89 17.7.13 9.93 3.2-6.53 14.79-16.91 7.78-12.83.78-11.09-3.19-13.19-14.4s-15.53-36.69 17.25-14.98zm-131.95-10.58c-.9403569-.2978532-1.9632953.0759917-2.49.91l-13.81-8.71.18-.53c.2429406-.7413261.0719342-1.555947-.4486027-2.1370027-.5205369-.5810558-1.3115225-.8402704-2.075-.6800001-.7634776.1602704-1.3834567.7156767-1.6263973 1.4570028-4.89 15.4-10.3 15-18.49 14.47-5.58-.39-11.91-.82-18.92 3.63-4.77 3-7 9.69-5.31 15.52 1.15 3.87 5.81 12.76 24.21 12.76h.81c11.83-.16 22.4-6.13 30.59-17.26 3.7471784-5.0998499 6.7162293-10.7279033 8.81-16.7.1749605-.551633.1223281-1.1502999-.1461993-1.6629432-.2685275-.5126433-.7307014-.8967885-1.2838007-1.0670568z"/></g><path d="m170.45 144.52-12.29 20.27-9.34 6.86-11.2 3.49-14.48-.49-13.33 7.99-19.12 11.16h-16.46l-7.58-9.17 2.29-20.16-18.31-5.34-7.59-.05-9.71-10.94-1.14-14.29 3.14-7.21 9.12-9.78-1.41-14.5v-30.67l9.94-18.44 21.34-11.87 92.85-7.86 10.34 74.09z" fill="#fff"/><g fill="#16202d"><path d="m181.26 127.59-14.71 28.41-1.53-13.9v-6.19l-10.05-15.51-.41-8 6.19-12.17.58-17.47-10.9-21.48-14.59-6.69-18.2-2.19-21.2 7.76-18.3 20.47-.3-13.59-8.34-15.96-6.59.26-9.99 5.37 11.15-21.1 30.02 1.84 19.19-7.33 26.98 1.23 16.65 2.17h10.26l18.72 32.13 14.08 25.69-8.38 17.04z"/><path d="m66.5 172.08 7.75.51.18 1.65 2.45 5 7.13 3.4 15.85-3.55 17.5-10 10.23-20.94s4.6-8.28-2.89-3.38l-12 9.4-14.47 6.84s-17.16 3.84-20.66 2.82c-7-2-11.32 2.26-11.07 8.25z"/><path d="m45.15 63c.66-1.12 1.35-2.23 2.09-3.32s1.52-2.16 2.39-3.18c.8552883-1.070092 1.7913651-2.0730314 2.8-3 .5238497-.4779369 1.0747597-.9253426 1.65-1.34.3-.21.6-.42.94-.62l.52-.3c.22-.1.33-.17.72-.32l-.21.09c2.8557228-1.4482099 6.0429707-2.117394 9.24-1.94 1.7005421.1604339 3.3472398.6820586 4.83 1.53 1.4262351.8327029 2.6954461 1.9089938 3.75 3.18 1.9034653 2.3906833 3.3693511 5.0990173 4.33 8 .9439842 2.7519425 1.669565 5.574017 2.17 8.44.52 2.83.87 5.67 1.15 8.48l.2 2.09v.45c.0054509-.0498514.0054509-.1001486 0-.15-.1008199-.3342112-.2951282-.6326132-.56-.86-.6466388-.554954-1.5738882-.6392494-2.31-.21-.1160707.0744042-.2234111.1616183-.32.26-.1.13.07-.1.15-.22l.29-.4 2.39-3.44c3.2305966-4.7458034 6.9145633-9.1665634 11-13.2 4.143475-4.1188465 8.959213-7.5006852 14.24-10 5.371576-2.4919636 11.22869-3.762428 17.15-3.72 5.868923.0979557 11.67326 1.2425682 17.14 3.38 5.625728 2.0407202 10.661154 5.4377437 14.66 9.89 3.907695 4.6225727 6.449487 10.2429098 7.34 16.23.84009 5.7969426.752326 11.6906421-.26 17.46-.940053 5.690286-2.361832 11.290424-4.25 16.74-.92 2.666667-1.92 5.333333-3 8-.53 1.32-1.09 2.63-1.66 3.92l-.43 1-.22.49-.05.12v.06c.184276-.428175.239873-.900748.16-1.36-.097034-.583324-.415955-1.106498-.89-1.46-.320964-.230414-.690389-.384341-1.08-.45h.17c.817141.135227 1.622802.332463 2.41.59 3.102935.998162 5.870882 2.831926 8 5.3 2.050653 2.45204 3.474835 5.365607 4.15 8.49.333915 1.494216.551236 3.012117.65 4.54 0 .75.08 1.52 0 2.24v1.09c-.0076.427947-.037641.8552-.09 1.28-.396922 3.070932-1.352676 6.043257-2.82 8.77-2.883282 5.276761-7.122447 9.688531-12.28 12.78-4.98884 2.989966-10.560703 4.87567-16.34 5.53-.372026.034876-.716527-.198979-.821432-.557608s.059258-.741278.391432-.912392c4.982484-2.215599 9.780935-4.823816 14.35-7.8 4.402135-2.814969 8.034605-6.681126 10.57-11.25 1.183787-2.21615 1.956262-4.628441 2.28-7.12 0-.29 0-.6 0-.82v-1c0-.69 0-1.31-.06-2-.090659-1.265149-.27449-2.52189-.55-3.76-.516971-2.370649-1.601311-4.580505-3.16-6.44-1.560689-1.781234-3.580938-3.099238-5.84-3.81-.545599-.175913-1.103909-.30964-1.67-.4h-.09c-.431565-.071699-.841597-.239128-1.2-.49-.936267-.716945-1.258821-1.982346-.78-3.06v-.06-.12l.21-.48.41-.94 1.62-3.82c1-2.55 2-5.12 2.93-7.71 1.823013-5.150761 3.207931-10.446232 4.14-15.83.96128-5.2811528 1.082775-10.6809559.36-16-.714232-5.147923-2.847152-9.9954684-6.16-14-3.490433-3.9454749-7.900917-6.9682366-12.84-8.8-4.960563-2.0001015-10.242645-3.0843003-15.59-3.2-5.315839-.0578825-10.578521 1.0622731-15.41 3.28-4.820369 2.3001186-9.2159657 5.4007052-13 9.17-3.9040716 3.8270645-7.3995406 8.0497787-10.43 12.6l-2.38 3.48-.32.45c-.148946.214993-.3091702.4219493-.48.62-.1508389.1685473-.3261255.3134958-.52.43-.5819245.3670461-1.3048342.4319217-1.9428131.1743525-.637979-.2575691-1.1132129-.8061672-1.2771869-1.4743525-.0396658-.130973-.0697453-.2646595-.09-.4l-.06-.59-.22-2.09c-.29-2.76-.64-5.48-1.15-8.15-.4566175-2.6461132-1.125443-5.2511884-2-7.79-.8006153-2.4218602-2.0227228-4.683267-3.61-6.68-1.4027325-1.7963757-3.4737808-2.947359-5.74-3.19-2.4362744-.0962845-4.8537289.4631836-7 1.62l-.21.09c.1 0-.07 0-.13.07l-.29.17c-.21.13-.42.28-.63.43-.4320001.3273398-.8459406.6778539-1.24 1.05-.837438.7888427-1.616174 1.6377652-2.33 2.54-.73.9-1.41 1.88-2.08 2.86s-1.27 2-1.86 3.08c-.674144 1.0100014-2.0151865 1.3256146-3.0690248.7222922-1.0538382-.6033224-1.4606376-1.9195751-.9309752-3.0122922z"/><path d="m92.88 123.5c-4.2854772-2.330812-8.7495531-4.317075-13.35-5.94-4.5184357-1.485148-9.2437518-2.244574-14-2.25-2.3508869.058592-4.6925884.316179-7 .77-2.2914878.495534-4.5313354 1.205321-6.69 2.12-4.3932231 1.928619-8.4906959 4.470601-12.17 7.55l-.73.46c.15-.06 0 0 0 0l-.13.09c-.1104579.074091-.2141903.157746-.31.25-.2207179.210448-.4246708.437806-.61.68-.3957323.566752-.7026023 1.190608-.91 1.85-.2401538.727768-.4043615 1.478432-.49 2.24l-.09 1.21v1.6l-.09.39c-.2255005.970716-.3792491 1.956713-.46 2.95-.0882883 1.030845-.1116678 2.066221-.07 3.1.0751984 2.040929.4388024 4.060951 1.08 6 .6477177 1.890789 1.6150884 3.656409 2.86 5.22 1.2712838 1.555555 2.7757752 2.904874 4.46 4l-.2-.12s.3.14.49.21.43.15.65.22c.4528937.145754.9136199.265944 1.38.36.9601955.187293 1.932778.30427 2.91.35 1.0013006.023461 2.0031063-.013272 3-.11 1-.11 2-.28 3-.49h.11c1.2802427-.307926 2.5717338.464259 2.9064369 1.737763.334703 1.273505-.4102308 2.580904-1.6764369 2.942237-1.1940193.397219-2.4179314.698181-3.66.9-2.5408562.426376-5.1391642.372103-7.66-.16-.6449732-.137209-1.2824786-.307433-1.91-.51-.32-.1-.63-.21-1-.34s-.59-.24-1.06-.48l-.1-.05-.11-.07c-2.0966488-1.438249-3.96433-3.184565-5.54-5.18-1.5925101-2.038645-2.8236807-4.335252-3.64-6.79-.7920765-2.412762-1.2168256-4.930917-1.26-7.47-.0166178-1.249445.0468456-2.498671.19-3.74.1359203-1.283432.37333-2.554076.71-3.8l-.09.75v-1.57l.11-1.59c.1356875-1.097295.3768019-2.178961.72-3.23.345885-1.135048.8690064-2.208291 1.55-3.18.382253-.505574.8181268-.968271 1.3-1.38.2468133-.228916.5072921-.442643.78-.64.15-.1.28-.19.46-.29.2001703-.127825.410944-.23823.63-.33l-.74.46c3.798975-3.826589 8.2395605-6.957337 13.12-9.25 5.0129803-2.253953 10.4436514-3.429349 15.94-3.45 5.4357017.059253 10.8070362 1.183802 15.81 3.31 4.9 2.13 9.58 4.72 13.18 8.82.4525158.522956.3989599 1.312906-.12 1.77-.3797922.336814-.9265199.408126-1.38.18zm46.44 39.03c-5.177082 7.369692-11.418279 13.931038-18.52 19.47-3.533084 2.863561-7.288249 5.441684-11.23 7.71-4.013677 2.339394-8.290075 4.195633-12.74 5.53-4.6094558 1.393484-9.444887 1.88246-14.24 1.44-2.4637668-.226801-4.8856383-.785177-7.2-1.66-2.470326-.913223-4.7219973-2.333718-6.61-4.17-1.8657682-1.894501-3.2688821-4.194239-4.1-6.72-.74738-2.379303-1.1382869-4.85617-1.16-7.35-.0202368-2.346558.1772763-4.689934.59-7 .19-1.14.41-2.26.65-3.36l.37-1.61c.11-.49.24-1.08.28-1.34v-.2c.2214409-1.180847 1.3110835-1.994813 2.5062375-1.872166 1.1951541.122647 2.0967685 1.140956 2.0737625 2.342166-.0375787.646449-.1076673 1.290597-.21 1.93l-.24 1.63c-.16 1.07-.29 2.12-.4 3.17-.2152254 2.042545-.2720617 4.098684-.17 6.15.0952967 1.921427.4726681 3.818392 1.12 5.63.6366304 1.645031 1.6031174 3.142405 2.84 4.4 2.51 2.38 6.25 3.58 10.24 3.89 4.0133561.343318 8.0553771-.080908 11.91-1.25 7.93-2.26 15.4-6.64 22.42-11.57s13.58-10.75 20.14-16.53c.414366-.340651 1.014987-.329183 1.416047.027038s.483326.951292.193953 1.402962zm-15.32-25.16c1.359445-1.066472 3.082438-1.558243 4.8-1.37 1.69091.159054 3.305981.778107 4.67 1.79 1.296428.961004 2.367938 2.192899 3.14 3.61.352241.68988.643354 1.409298.87 2.15.188625.746852.302519 1.510609.34 2.28.011246.465704-.354446.853694-.82.870066-.161317.001885-.320193-.03956-.46-.120066h-.07c-.598484-.376234-1.169882-.793923-1.71-1.25-.56-.38-1-.8-1.52-1.17-1-.72-1.86-1.42-2.77-2s-1.78-1-2.74-1.54-2-1-3.26-1.52l-.29-.13c-.226401-.102345-.402436-.291028-.488851-.523974-.086416-.232947-.076027-.490787.028851-.716026.064358-.139965.160183-.263169.28-.36z"/><path d="m77.21 165.07c-.1 2.33-.21 4.67-.16 6.88.0048715 1.041885.091807 2.081768.26 3.11.1611781.903721.4685389 1.775139.91 2.58.320991.666389.8280779 1.225574 1.46 1.61.7085906.417966 1.5008347.674079 2.32.75.9590073.129111 1.9309927.129111 2.89 0 1.11-.16 2.23-.25 3.32-.48 8.7939052-1.477734 16.941989-5.560485 23.39-11.72 6.376457-6.328572 11.151863-14.086465 13.93-22.63.37-1.07.71-2.14 1-3.22l.44-1.63.11-.41c-.010902.099703-.010902.200297 0 .3-.019986.176101-.019986.353899 0 .53.049794.384155.190335.750935.41 1.07.401607.58632 1.050742.955147 1.76 1 .756099.067547 1.499064-.229639 2-.8-1.593571 1.850086-3.282531 3.615817-5.06 5.29-3.526576 3.3684-7.374995 6.382827-11.49 9-16.46 10.55-37.99 14.08-56.56 5.7-2.3340843-1.164471-4.4811128-2.671098-6.37-4.47-1.9139981-1.852721-3.4849028-4.029643-4.64-6.43-2.23278-4.75981-2.9316555-10.095725-2-15.27 0-.32.12-.64.19-1l.12-.51.11-.36.11-.33c.2901993-.723621.6626455-1.411473 1.11-2.05.8382768-1.149607 1.8503926-2.161723 3-3 2.1222024-1.555261 4.5321533-2.673559 7.09-3.29 4.775393-1.120108 9.7279797-1.262971 14.56-.42.4219916.071596.7102105.466234.65.89-.0535695.349344-.3380825.617364-.69.65-4.5269308.342931-8.9923401 1.256845-13.29 2.72-1.9512573.722218-3.7692489 1.763001-5.38 3.08-.7063614.613605-1.3224542 1.323963-1.83 2.11-.2163332.332068-.3941455.687693-.53 1.06v.09.07l-.07.34-.13.76c-.6482718 4.151871-.0569088 8.402728 1.7 12.22 1.8807123 3.716587 4.9600165 6.690194 8.74 8.44 3.9759931 1.871568 8.2454529 3.042117 12.62 3.46 4.4466758.545337 8.9433242.545337 13.39 0 8.9297628-1.16807 17.477872-4.347966 25-9.3 3.797542-2.444753 7.362516-5.233132 10.65-8.33 1.646271-1.537861 3.211706-3.160038 4.69-4.86.669268-.776166 1.660326-1.198532 2.683728-1.143742s1.9637.580556 2.546272 1.423742c.304351.441324.499696.948537.57 1.48.030001.252445.030001.507555 0 .76 0 .2-.1.56-.09.51l-.12.44-.49 1.76c-.34 1.18-.72 2.34-1.11 3.49-3.105717 9.379462-8.405995 17.88185-15.46 24.8-3.606557 3.442752-7.734033 6.294524-12.23 8.45-4.4748224 2.127842-9.2342174 3.596417-14.13 4.36-1.21.23-2.44.31-3.66.47-1.3681007.169543-2.7518993.169543-4.12 0-1.5273558-.204567-2.9933966-.733023-4.3-1.55-1.378-.856246-2.4950964-2.073639-3.23-3.52-.6676717-1.270106-1.1204604-2.641988-1.34-4.06-.1805747-1.295208-.2608134-2.602431-.24-3.91 0-2.48.21-4.82.38-7.18.1135647-1.236989 1.1850445-2.162689 2.4254134-2.095424 1.240369.067265 2.2054582 1.103408 2.1845866 2.345424z"/></g><path d="m106.32 166.3s-15.42 1.23-18.92 7c0 0-2.8 1.05 0-3.5 2.37-3.85-6-.92-8.68 3.6-.8852702 1.484089-.7660427 3.359935.3 4.72 1.22 1.53 3.78 3.14 9 1.94 8.43-1.94 26.54-13.76 18.3-13.76z" fill="#ff908a"/><path d="m44.44 119.17c-1.0240754.000373-1.9250399-.67637-2.21-1.66-2.1348646-7.309803-3.1761454-14.895314-3.09-22.51 0-44.91 20.08-64.06 67.14-64.06 44.28 0 96 16.77 96 64.06 0 1.2757778-1.034222 2.31-2.31 2.31s-2.31-1.0342222-2.31-2.31c0-43.88-49.22-59.45-91.38-59.45-22.6 0-37.74 4.28-47.65 13.46s-14.87 24.28-14.87 45.99c-.0880947 7.194251.8891619 14.361922 2.9 21.27.1730165.58748.1045884 1.219704-.1901196 1.75656-.2947079.536857-.7913563.934008-1.3798804 1.10344-.2137939.04318-.432525.05664-.65.04z" fill="#16202d"/><path d="m39.85 79.6c2.0166851-4.4851669 5.0829892-8.4192282 8.94-11.47 2.001502-1.5646984 4.257919-2.7724059 6.67-3.57 2.4665761-.7281676 5.0694018-.8685832 7.6-.41.7818179.1416427 1.3368376.8418437 1.2962748 1.6353527-.0405627.793509-.6640889 1.4334649-1.4562748 1.4946473h-.15c-1.9865676.1372888-3.9332063.6247948-5.75 1.44-1.7653148.9281161-3.4051851 2.0773694-4.88 3.42-1.4978555 1.417075-2.87589 2.9556572-4.12 4.6-1.26 1.63-2.55 3.44-3.6 5.1l-.1.16c-.7138732 1.1032818-2.1535553 1.4763629-3.3134115.8586418-1.1598561-.6177211-1.6537055-2.0205707-1.1365885-3.2286418zm-4.12 46.06c1.3704418-1.064911 2.9523217-1.825168 4.64-2.23 1.9575265-.51071 4.0374059-.230519 5.79.78 1.7047102 1.126027 2.9498648 2.825255 3.51 4.79.2300766.85949.4136761 1.730753.55 2.61.06.85.12 1.69.16 2.54.0277842 1.244881-.9361342 2.287762-2.1793496 2.357878-1.2432153.070117-2.3182832-.857767-2.4306504-2.097878v-.26c0-.68-.07-1.36-.09-2s-.18-1.28-.28-1.9c-.2093169-1.007775-.7141192-1.930345-1.45-2.65-.8837-.585542-1.9484129-.833975-3-.7-1.3599413.097502-2.7030609.35941-4 .78h-.12c-.2970365.093777-.6192056.065239-.8951316-.079294-.2759261-.144533-.4828284-.393127-.5748684-.690706-.1334707-.453173.011367-.94249.37-1.25zm27.88-28.66-6.38-2.18 6.58-3.61c.48-10.43 1.08-16.61-6-14.87-13.59 3.34-6.52 37.79-6.52 37.79l13.18-2.13c-.6975652-4.967952-.9852022-9.984876-.86-15z" fill="#16202d"/><ellipse cx="68.84" cy="128.89" fill="#16202d" rx="6.94" ry="4.26"/><path d="m34.83 133.16c3.83 0 6.94-1.91 6.94-4.27s-2.19-4.26-6-4.26zm103.67 30.57s-4.51 7.89 3.1 5.35l-4 4-5.06-1.39s.84-7.4 5.96-7.96zm-93.11-52.49s.93 3.68 3.51 2.42l-1.75 2.08h-2zm4.94-47.86s-2.53 5 .29 3.45l-2.79 6.92-3-4.82z" fill="#16202d"/><path d="m185.4 114.59c5.61 4.49 15.71 9 23.6 10.59l6.84 10.19c1.59 2-20.51-3.37-31.7-20-.48-.69.59-1.31 1.26-.78z" fill="#fff"/><path d="m145.48 95.54c-.339671-4.6612186-1.170953-9.2734946-2.48-13.76-1.158147-4.1766768-3.344784-7.9964155-6.36-11.11-3.199939-2.8826295-7.192871-4.7362421-11.46-5.32-4.663371-.6683792-9.38918-.7858532-14.08-.35-.57241.0245851-1.079767-.3655601-1.203011-.9250857-.123243-.5595256.173244-1.1267291.703011-1.3449143 4.819091-1.9357139 9.989857-2.8417902 15.18-2.66 1.341988.0462621 2.678841.1899738 4 .43.67.11 1.33.33 2 .49l1 .28 1 .36c2.671051.966807 5.124718 2.4519214 7.22 4.37 2.090553 1.9008391 3.815629 4.1681795 5.09 6.69 1.219519 2.4304077 2.10744 5.0134503 2.64 7.68.506476 2.5778989.727807 5.203694.66 7.83-.021081 2.6042242-.35685 5.1963547-1 7.72-.179952.6935464-.836591 1.1540139-1.549953 1.0869032s-1.272601-.641964-1.320047-1.3569032zm10.64 24.64c1.497721.982683 2.912449 2.086372 4.23 3.3 1.341444 1.277695 2.529453 2.707334 3.54 4.26 1.910335 3.115785 3.105715 6.61654 3.5 10.25.216463 1.7016.330003 3.414716.34 5.13.045194 1.750719-.041719 3.502354-.26 5.24-.498611 3.517895-1.655449 6.91038-3.41 10-3.539899 6.040819-8.853994 10.845151-15.22 13.76-3.122745 1.484647-6.449263 2.495747-9.87 3-1.715415.242917-3.448011.34326-5.18.3l-4.93-.14c-1.206992-.106624-2.122019-1.13503-2.087564-2.346233.034454-1.211202 1.006463-2.18593 2.217564-2.223767h.14c1.56.12 3.16.19 4.73.21 1.488173.050422 2.977824-.036614 4.45-.26 2.948207-.50376 5.805757-1.440551 8.48-2.78 5.37708-2.605842 9.829279-6.792863 12.76-12 1.37342-2.549587 2.255397-5.3346 2.6-8.21.249877-2.968465.145813-5.956115-.31-8.9-.359961-2.768264-1.32996-5.4221-2.84-7.77-.776451-1.125708-1.682684-2.156128-2.7-3.07-1.078667-.942499-2.232501-1.795333-3.45-2.55h-.07c-.918173-.587702-1.453064-1.6206-1.403185-2.709612.049878-1.089012.676949-2.06869 1.645-2.57s2.130012-.44809 3.048185.139612zm-32.12-23-7.14-2.43 7.41-4.07c.26-9.43-.59-15.72-7.79-15.72-8.92 0-12 14.48-9.87 34 .65 5.89 6.09 9.22 10.12 8.62 3.7-.55 7.08-3.72 7-7.3-.16-4.6.03-9.03.27-13.1z" fill="#16202d"/><path d="m200 93.87 28.11.57 9.3 4.56-2.77 10.37s-.26-10.62-10.29-10.45-21.94-.45-24.35-5.05zm-100-83.82c5.59 0 10.38 1.61 15.7 5.24l2.7 1.82 3-1.12c4.86407-1.6006743 9.949373-2.4274157 15.07-2.45 1.14 0 2.32 0 3.5.15 0 0 17.27 1.05 26.73 19.62-3.56-22.22-26.73-24-26.73-24-1.18-.11-2.36-.15-3.5-.15-5.120627.0225843-10.20593.8493257-15.07 2.45l-3 1.12-2.7-1.82c-5.32-3.63-10.11-5.24-15.7-5.24-.59 0-1.19 0-1.8 0-11.46.72-22.2 7.65-26.82 17.33 7.1701824-8.317046 17.6393843-13.05415869 28.62-12.95z" fill="#8e8e8e"/><path d="m207.49 123c-24.74 0-34.43-25.13-34.53-25.4-.368665-1.079885.18798-2.2572042 1.256519-2.657568 1.068538-.4003638 2.261767.1213062 2.693481 1.177568.38 1 9.65 24.88 33.91 22.49 16.08-1.58 23.3-8.69 24.6-14.3.7-3.05-.29-5.66-2.72-7.15-3.08-1.9-8.44-1.75-14.12-1.59-11.41.32-25.59.71-32.42-14.61-.486011-1.0603867-.020387-2.3139894 1.04-2.8s2.313989-.0203867 2.8 1.04c5.68 12.74 17.25 12.41 28.45 12.1 6.32-.18 12.29-.34 16.44 2.21 3.956204 2.4506193 5.834593 7.207579 4.62 11.7-2.58 11.16-16.85 16.43-28.3 17.55-1.23518.142454-2.476755.222555-3.72.24z" fill="#16202d"/></g></svg>