<svg xmlns="http://www.w3.org/2000/svg" width="218" height="178" viewBox="0 0 218 178">
  <g fill="none">
    <path fill="#16202D" d="M154.865775,25.3074042 C142.759374,-7.28265365 107.943286,5.77522366 107.943286,5.77522366 C102.120986,1.823258 96.1356971,-0.389478527 88.5476913,0.0567111436 C76.0247654,0.794289988 64.4707137,8.40683213 59.4452445,19.0243251 L59.1192681,19.2975025 C24.2488504,25.0433327 30.1435899,77.0836178 30.1435899,77.0836178 L31.6557581,76.1092853 C31.1029141,79.7832192 30.8244517,83.493631 30.8227074,87.2093916 C30.8227074,128.495595 64.4526039,161.968926 105.933098,161.968926 C147.413593,161.968926 181.088764,128.495595 181.088764,87.2093916 C181.088764,87.1001207 181.088764,86.9908497 181.088764,86.8815788 L182.446999,88.3567365 C187.137436,32.5101803 159.519993,25.3984633 154.865775,25.3074042 Z"/>
    <path fill="#16202D" d="M176.703631 79.79461L191.015362 85.155442 207.181133 85.2737626 216.250404 88.1862689 210.286422 101.647509 194.842174 108.72854 183.124274 109.438464 172.995551 106.535059 160.948855 93.4287804C160.948855 93.4287804 146.764989 60.0350748 176.703631 79.79461zM58.1335362 70.438625C57.2733425 70.1717725 56.3376073 70.5067075 55.8558029 71.2539117L43.2230735 63.4504533 43.3877289 62.975616C43.6099594 62.3114475 43.4535309 61.5816128 42.9773686 61.0610337 42.5012062 60.5404545 41.7776504 60.3082191 41.0792575 60.4518084 40.3808647 60.5953977 39.8137373 61.092997 39.5915069 61.7571655 35.1183681 75.5543251 30.1695581 75.1959573 22.6777367 74.72112 17.5734188 74.3717114 11.7830367 73.9864661 5.37062297 77.9733076 1.00725446 80.661066-1.03264319 86.6547671.513288212 91.8779775 1.56525337 95.3451858 5.82799913 103.30991 22.6594416 103.30991L23.400391 103.30991C34.2219108 103.166563 43.8908427 97.8179235 51.3826641 87.84634 54.8104042 83.2772853 57.5263504 78.2350027 59.441632 72.8844851 59.6016775 72.3902664 59.5535319 71.8539091 59.3078958 71.394622 59.0622597 70.9353348 58.6394851 70.5911717 58.1335362 70.438625z"/>
    <polygon fill="#FFF" points="153.838 131.292 142.731 149.672 134.291 155.892 124.169 159.057 111.084 158.613 99.037 165.858 81.758 175.977 66.883 175.977 60.033 167.662 62.103 149.382 45.556 144.54 38.697 144.495 29.922 134.575 28.892 121.617 31.729 115.08 39.971 106.212 38.697 93.064 38.697 65.254 47.68 48.533 66.965 37.77 150.874 30.643 160.218 97.824"/>
    <polygon fill="#16202D" points="163.422 115.947 150.11 141.832 148.726 129.168 148.726 123.528 139.631 109.396 139.259 102.108 144.861 91.019 145.386 75.102 135.522 55.531 122.318 49.436 105.848 47.44 86.662 54.511 70.101 73.161 69.829 60.779 62.282 46.238 56.318 46.475 47.277 51.367 57.368 32.143 84.535 33.819 101.902 27.141 126.318 28.261 141.386 30.239 150.671 30.239 167.612 59.513 180.355 82.919 172.771 98.445"/>
    <path fill="#16202D" d="M59.5438995,155.855154 L66.6007154,156.319554 L66.7646156,157.822023 L68.99548,162.37496 L75.4877506,165.470957 L89.9200774,162.238372 L105.854823,153.132498 L115.16982,134.064798 C115.16982,134.064798 119.358382,126.525135 112.538311,130.987013 L101.611628,139.546534 L88.4358696,145.774952 C88.4358696,145.774952 72.8107134,149.271608 69.6237642,148.342808 C63.249866,146.521634 59.3162602,150.400736 59.5438995,155.855154 Z"/>
    <path fill="#16202D" d="M40.4743168,57.2732087 C41.0725819,56.2603818 41.6980409,55.2565981 42.368823,54.2709005 C43.0396051,53.285203 43.7466457,52.3175916 44.5352679,51.3951958 C45.3105545,50.4275012 46.1590727,49.5205334 47.0733622,48.6822667 C47.5482122,48.2500638 48.0475914,47.8454704 48.569025,47.4704917 C48.8409637,47.2805867 49.1129024,47.0906817 49.4210996,46.9098197 L49.8924599,46.6385268 C50.0918816,46.5480959 50.1915925,46.4847942 50.5451128,46.3491477 L50.3547557,46.4305356 C52.9433607,45.1209054 55.8324807,44.5157557 58.7304672,44.6761748 C60.2719444,44.8212567 61.7646138,45.292967 63.10868,46.0597687 C64.4015083,46.8127899 65.5520002,47.7860902 66.5079136,48.9354734 C68.2333331,51.0973915 69.5621032,53.5465641 70.4328952,56.1699509 C71.2885813,58.6585591 71.9462929,61.2105884 72.3999184,63.8023245 C72.8712788,66.3615209 73.1885406,68.9297604 73.44235,71.4708706 L73.6236425,73.3608779 L73.6236425,73.7678172 C73.6285835,73.7227361 73.6285835,73.6772519 73.6236425,73.6321708 C73.532253,73.3299403 73.3561199,73.0600925 73.1160236,72.8544644 C72.5298699,72.3526141 71.6893533,72.276385 71.0220957,72.6645594 C70.916882,72.7318438 70.819582,72.8107124 70.7320278,72.8996799 C70.6413816,73.0172402 70.7954801,72.809249 70.8679971,72.7007318 L71.1308712,72.3390079 L73.297316,69.2281826 C76.22573,64.9365067 79.5651069,60.9387707 83.2684011,57.2912949 C87.024305,53.5665821 91.3895902,50.5083526 96.176424,48.2481981 C101.045555,45.9946913 106.354808,44.845798 111.722252,44.8841661 C117.04221,44.9727483 122.303622,46.0078325 127.259016,47.9407328 C132.358526,49.7861758 136.92295,52.8581371 140.547753,56.8843555 C144.089931,61.0645928 146.393969,66.147118 147.201186,71.5613016 C147.962696,76.8035329 147.883141,82.1332624 146.965506,87.3505486 C146.113383,92.4963297 144.824594,97.5605879 143.113041,102.488693 C142.279096,104.900185 141.372633,107.311678 140.393654,109.72317 C139.913229,110.916859 139.40561,112.101504 138.888927,113.268064 L138.499148,114.172374 L138.299726,114.615485 L138.254403,114.724003 L138.254403,114.778261 C138.421443,114.391058 138.471839,113.963706 138.399437,113.5484 C138.31148,113.020895 138.022389,112.547783 137.592686,112.228108 C137.301744,112.019743 136.966874,111.880545 136.613706,111.821168 L136.767805,111.821168 C137.508512,111.943455 138.238814,112.121818 138.952379,112.354711 C141.765073,113.257359 144.274112,114.91565 146.204077,117.147553 C148.062917,119.364956 149.353884,121.999723 149.965896,124.825142 C150.268577,126.176376 150.46557,127.549028 150.555096,128.930708 C150.555096,129.60894 150.627613,130.305258 150.555096,130.956361 L150.555096,131.942059 C150.548208,132.329055 150.520976,132.715425 150.473515,133.099575 C150.11372,135.876648 149.247365,138.564551 147.917291,141.030371 C145.303704,145.802198 141.461061,149.791803 136.785934,152.587449 C132.263739,155.291304 127.213056,156.996565 121.974341,157.588281 C121.637113,157.61982 121.324836,157.408342 121.229743,157.084031 C121.134651,156.759719 121.283458,156.413686 121.584562,156.258946 L121.584562,156.258946 C126.100996,154.255359 130.45061,151.896723 134.592296,149.205331 C138.582665,146.659727 141.875362,143.163524 144.173602,139.031847 C145.24666,137.027761 145.94688,134.846303 146.240336,132.593162 C146.240336,132.330912 146.240336,132.050576 146.240336,131.851628 L146.240336,130.947318 C146.240336,130.323345 146.240336,129.762673 146.185948,129.138699 C146.10377,127.994612 145.937133,126.858129 145.687394,125.738494 C145.218779,123.594694 144.235866,121.596299 142.822973,119.91474 C141.408267,118.303953 139.576988,117.112069 137.529233,116.46932 C137.034668,116.31024 136.528581,116.18931 136.015441,116.107596 L135.93386,116.107596 C135.542662,116.042759 135.170984,115.89135 134.846105,115.664485 C133.997414,115.016144 133.705032,113.87183 134.139064,112.897297 L134.139064,112.843038 L134.139064,112.734521 L134.329421,112.300453 L134.701071,111.450402 L136.16954,107.995939 C137.076002,105.689949 137.982464,103.365873 138.825474,101.023711 C140.477967,96.365828 141.733343,91.5770826 142.578228,86.7084887 C143.449592,81.9326911 143.559723,77.0495969 142.904555,72.2395339 C142.257131,67.5842173 140.323719,63.200535 137.320747,59.5791983 C134.156801,56.0112672 130.158864,53.2777545 125.681771,51.6212732 C121.185208,49.812562 116.3972,48.8321105 111.550024,48.7274822 C106.731417,48.6751385 101.960994,49.688106 97.5814406,51.6936179 C93.2119583,53.7736375 89.2275153,56.577528 85.7974309,59.9861377 C82.2585372,63.4469892 79.0900264,67.2656305 76.3430293,71.3804397 L74.1856491,74.5274373 L73.8955812,74.9343767 C73.7605673,75.1287969 73.61533,75.3159496 73.4604793,75.4950487 C73.3237495,75.6474676 73.1648588,75.778546 72.9891189,75.8839019 C72.4616262,76.2158252 71.8063359,76.2744928 71.228032,76.0415706 C70.6497282,75.8086483 70.2189466,75.3125457 70.0703103,74.7082993 C70.0343548,74.5898591 70.0070889,74.4689651 69.9887287,74.3465754 L69.934341,73.8130327 L69.7349193,71.9230255 C69.4720452,69.4271308 69.1547834,66.9674084 68.6924877,64.5529016 C68.2785811,62.1599958 67.6723161,59.8042011 66.8795631,57.5083292 C66.1538355,55.3182176 65.0460411,53.2732055 63.6072343,51.4675405 C62.3357102,49.8430606 60.458383,48.8022153 58.4041408,48.5827927 C56.1957499,48.4957217 54.0044186,49.001654 52.0589048,50.0477743 L51.8685477,50.1291622 C51.9591939,50.1291622 51.8050954,50.1291622 51.7507076,50.1924639 L51.4878336,50.3461965 C51.2974765,50.4637568 51.1071194,50.5994032 50.9167623,50.7350497 C50.5251705,51.0310663 50.1499491,51.3480396 49.7927491,51.6845749 C49.0336432,52.3979329 48.3277483,53.1656218 47.680692,53.9815214 C47.0189745,54.7954001 46.4025802,55.6816236 45.7952504,56.5678471 C45.1879207,57.4540706 44.6440433,58.3764665 44.1092306,59.3531209 L44.1092306,59.3531209 C43.4981445,60.266475 42.28254,60.551887 41.3272754,60.0062967 C40.3720108,59.4607064 40.0032625,58.2704064 40.4833815,57.2822518 L40.4743168,57.2732087 Z"/>
    <path fill="#16202D" d="M84.0772572 111.755097C80.2068179 109.620285 76.1750766 107.801049 72.0201716 106.314597 67.9393352 104.954337 63.6716543 104.258772 59.3760369 104.253802 57.2528276 104.307467 55.1379141 104.543393 53.0539696 104.959052 50.9844067 105.412916 48.9614828 106.063017 47.0118795 106.900779 43.0441292 108.667218 39.3434865 110.995442 36.0205139 113.815892L35.3612126 114.23721 35.3612126 114.23721C35.4966854 114.182255 35.3612126 114.23721 35.3612126 114.23721L35.2438027 114.319642C35.1440425 114.387502 35.0503563 114.464122 34.9638255 114.548619 34.7644836 114.74137 34.580283 114.949609 34.4129025 115.171437 34.0554958 115.69053 33.7783454 116.261926 33.5910337 116.865868 33.3741382 117.532438 33.2258336 118.219977 33.148489 118.917505L33.0672053 120.025754 33.0672053 121.491209 32.9859215 121.848413 32.9859215 121.848413C32.7822602 122.737501 32.6434018 123.640584 32.5704714 124.550345 32.4907336 125.494504 32.4696184 126.442815 32.5072507 127.389662 32.5751664 129.258967 32.9035562 131.109124 33.4826554 132.885116 34.0676432 134.616906 34.9413265 136.234054 36.0656715 137.666161 37.2138346 139.090907 38.5726197 140.326761 40.0937315 141.329797L39.913101 141.219888C39.913101 141.219888 40.1840468 141.348115 40.3556458 141.412228 40.5272447 141.476342 40.7440013 141.549615 40.9426949 141.613728 41.3517269 141.747226 41.767833 141.857309 42.1890453 141.943456 43.0562483 142.114999 43.9346385 142.222139 44.817219 142.264024 45.7215461 142.285512 46.6263294 142.251868 47.5266764 142.163274 48.4298289 142.062524 49.3329814 141.906819 50.2361339 141.714478L50.3354806 141.714478C51.491735 141.432446 52.6581484 142.139697 52.9604363 143.306111 53.2627242 144.472526 52.5899354 145.669984 51.4463582 146.000932 50.3679767 146.364749 49.2625975 146.640403 48.1408201 146.82525 45.8460395 147.215772 43.4993712 147.166063 41.2226721 146.678705 40.640163 146.553034 40.0643984 146.397125 39.4976509 146.211591 39.2086421 146.12 38.9286648 146.01925 38.5944984 145.900182 38.260332 145.781114 38.0616385 145.680364 37.6371568 145.460546L37.5468416 145.414751 37.4474948 145.350637C35.5539013 144.033332 33.8671003 142.433865 32.4440301 140.606229 31.0057507 138.739015 29.8938158 136.635532 29.156555 134.387207 28.4411892 132.177336 28.057576 129.870935 28.0185829 127.545367 28.0035745 126.400989 28.0608916 125.256811 28.1901819 124.119867 28.3129386 122.94436 28.5273558 121.780566 28.8314202 120.639413L28.8314202 120.639413 28.7501364 121.326345 28.7501364 119.888368 28.8494832 118.432073C28.9720297 117.42705 29.1897928 116.436343 29.499753 115.473687 29.8121399 114.434086 30.2845983 113.451093 30.8996393 112.561096 31.244872 112.098036 31.6385325 111.674248 32.0737375 111.297142 32.2966476 111.087475 32.5318997 110.891722 32.7781965 110.71096 32.9136694 110.619369 33.0310792 110.536938 33.1936466 110.445347 33.3744309 110.328271 33.5647917 110.22715 33.7626327 110.143097L33.7626327 110.143097 33.0942998 110.564415C36.5253536 107.059608 40.5358793 104.192128 44.9436603 102.092257 49.471146 100.027842 54.37587 98.9512858 59.3399108 98.9323712 64.2491783 98.9866419 69.1003123 100.016626 73.6187515 101.96403 78.0441986 103.914916 82.2709522 106.28712 85.5223011 110.042347 85.9309919 110.521327 85.8826228 111.24485 85.4139228 111.663506 85.0709126 111.971997 84.5771341 112.037312 84.1675724 111.828369L84.0772572 111.755097zM126.855451 146.767352C122.137978 153.418015 116.45086 159.339198 109.979613 164.337747 106.760188 166.921922 103.338397 169.248509 99.7465853 171.295515 96.0892329 173.406664 92.1924831 175.081797 88.1376121 176.285976 83.9373728 177.543503 79.5312196 177.984772 75.1618053 177.585482 72.9167658 177.380808 70.7099023 176.876911 68.6010041 176.087441 66.3499878 175.263317 64.2982145 173.981414 62.5778241 172.32429 60.8776944 170.614627 59.5991456 168.539265 58.8418124 166.259932 58.160783 164.112767 57.8045799 161.877558 57.7847944 159.62704 57.7663542 157.509426 57.9463325 155.394683 58.3224156 153.310001 58.4955478 152.281225 58.6960168 151.270499 58.9147101 150.277821L59.2518624 148.824902C59.3520969 148.38271 59.4705558 147.850273 59.5070047 147.61564L59.5070047 147.435154C59.7087866 146.369517 60.7016933 145.634966 61.7907445 145.745647 62.8797956 145.856328 63.7013668 146.775284 63.6804032 147.859298 63.6461607 148.442675 63.5822944 149.023977 63.4890465 149.600996L63.2703532 151.071964C63.1245576 152.037568 63.0060987 152.985124 62.9058642 153.93268 62.709746 155.775943 62.6579555 157.631473 62.7509564 159.482651 62.8377929 161.216612 63.1816621 162.928498 63.7715255 164.563355 64.3516373 166.047887 65.232322 167.399169 66.359397 168.534066 68.6465652 170.68186 72.054537 171.764781 75.6903143 172.044535 79.3473743 172.354357 83.0305542 171.971521 86.5429729 170.916492 93.7689664 168.876991 100.575798 164.924329 106.972579 160.475328 113.36936 156.026328 119.346979 150.77416 125.324598 145.55809L125.324598 145.55809C125.702177 145.250675 126.249477 145.261024 126.614932 145.58249 126.980386 145.903956 127.055349 146.440969 126.791666 146.848571L126.855451 146.767352zM112.404629 124.710436C113.663025 123.754077 115.257945 123.313082 116.847838 123.481889 118.41306 123.62452 119.908081 124.179656 121.17071 125.087071 122.370773 125.948851 123.362636 127.053553 124.07731 128.324338 124.403368 128.942988 124.672843 129.588126 124.882641 130.252351 125.057246 130.92209 125.162673 131.606989 125.197369 132.29694 125.207779 132.71456 124.869269 133.062491 124.43832 133.077172 124.288994 133.078863 124.141928 133.041696 124.012513 132.969503L123.947716 132.969503C123.393719 132.632115 122.864793 132.257553 122.364823 131.848565 121.846448 131.5078 121.439154 131.131165 120.957806 130.799368 120.032138 130.153708 119.236063 129.525983 118.393704 129.005868 117.551346 128.485753 116.746014 128.109118 115.857373 127.624873 114.968731 127.140628 114.006035 126.728123 112.839693 126.261813L112.571249 126.145236C112.361677 126.053458 112.198727 125.884257 112.118735 125.675362 112.038742 125.466467 112.048359 125.235249 112.145441 125.033266 112.205016 124.907752 112.293718 124.797269 112.404629 124.710436z"/>
    <path fill="#16202D" d="M69.6692884,148.983402 C69.5787879,151.094771 69.4792374,153.215203 69.5244877,155.217832 C69.5288964,156.161955 69.6075734,157.104263 69.7597889,158.036013 C69.9056558,158.854935 70.1838187,159.644585 70.583343,160.373924 C70.8738414,160.977784 71.3327573,161.484499 71.9046497,161.832853 C72.5459274,162.2116 73.262912,162.443682 74.0042603,162.512479 C74.8721664,162.629475 75.7518176,162.629475 76.6197236,162.512479 C77.6242787,162.367492 78.6378838,162.285937 79.6243388,162.077519 C87.5828632,160.738444 94.9569165,157.038789 100.792396,151.457238 C106.563119,145.722493 110.884883,138.692545 113.39911,130.950673 C113.733961,129.981074 114.041663,129.011475 114.304114,128.032815 L114.702316,126.555762 L114.801867,126.184234 C114.792001,126.274581 114.792001,126.365736 114.801867,126.456084 C114.78378,126.615661 114.78378,126.776775 114.801867,126.936352 C114.84693,127.284462 114.974121,127.616825 115.172919,127.905951 C115.536375,128.437255 116.123845,128.771474 116.765727,128.812119 C117.45,128.873327 118.122387,128.604027 118.575736,128.087185 C117.133547,129.763672 115.605031,131.36372 113.996413,132.88081 C110.804845,135.933144 107.322009,138.664719 103.59791,141.036315 C88.7015347,150.596379 69.2167861,153.79515 52.4108511,146.201468 C50.2984941,145.146263 48.3554234,143.781006 46.6459719,142.150901 C44.9137948,140.472026 43.4921188,138.49937 42.4467506,136.324245 C40.4260745,132.011061 39.793589,127.17583 40.6367415,122.487071 C40.6367415,122.197098 40.745342,121.907124 40.8086923,121.580904 L40.9172929,121.118759 L41.0168434,120.792539 L41.1163939,120.493503 C41.3790256,119.837781 41.7160911,119.214473 42.120949,118.63586 C42.8795933,117.594124 43.7955628,116.676978 44.8359627,115.917359 C46.7565656,114.508032 48.9375822,113.494667 51.2524452,112.936068 C55.5741978,111.921064 60.0563114,111.791606 64.4293119,112.555478 C64.8112162,112.620356 65.0720556,112.977964 65.0175649,113.361967 C64.9690842,113.678531 64.7115986,113.921402 64.3931117,113.950976 L64.3931117,113.950976 C60.2962185,114.261729 56.2550027,115.089887 52.3656008,116.415751 C50.599704,117.070201 48.9544133,118.013325 47.4966762,119.206746 C46.8574159,119.762774 46.299849,120.406478 45.8405178,121.118759 C45.6447353,121.419668 45.4838143,121.741923 45.3608654,122.079296 L45.3608654,122.160851 L45.3608654,122.160851 L45.3608654,122.224283 L45.2975151,122.53238 L45.1798645,123.221067 C44.5931755,126.983357 45.1283618,130.835344 46.7183722,134.294431 C48.4204255,137.66228 51.2072099,140.356865 54.6281123,141.942482 C58.2264042,143.638436 62.090285,144.699149 66.0492701,145.077821 C70.073532,145.571987 74.1430194,145.571987 78.1672814,145.077821 C86.2487576,144.019354 93.9848355,141.137836 100.792396,136.650465 C104.229189,134.43511 107.455506,131.908373 110.430695,129.102092 C111.920578,127.708533 113.337303,126.238569 114.675166,124.698119 C115.280856,123.994783 116.177769,123.612049 117.103952,123.661698 C118.030136,123.711347 118.88111,124.187778 119.40834,124.951846 C119.683779,125.351759 119.860567,125.811379 119.924193,126.292974 C119.951344,126.521731 119.951344,126.752903 119.924193,126.981661 C119.924193,127.162894 119.833692,127.489115 119.842742,127.443806 L119.734142,127.84252 L119.29069,129.437374 C118.982988,130.506651 118.639086,131.557805 118.286134,132.599898 C115.475447,141.099259 110.67867,148.803844 104.294764,155.072846 C101.030813,158.192555 97.2954281,160.776738 93.2265576,162.729959 C89.1768228,164.65814 84.8695486,165.988914 80.4388429,166.680848 C79.3437874,166.889267 78.2306317,166.96176 77.1265261,167.106747 C75.8883888,167.260381 74.6360446,167.260381 73.3979073,167.106747 C72.0156433,166.921375 70.6888696,166.442505 69.5063876,165.702188 C68.2592912,164.926285 67.2483139,163.823123 66.5832228,162.512479 C65.9789768,161.36155 65.569201,160.118396 65.3705166,158.83344 C65.2070958,157.659765 65.1344793,156.475202 65.1533155,155.290326 C65.1533155,153.043031 65.3433665,150.9226 65.4972173,148.784045 C65.5999938,147.663126 66.569688,146.824287 67.6922276,146.88524 C68.8147671,146.946194 69.6881773,147.885112 69.6692884,149.010587 L69.6692884,148.983402 Z"/>
    <path fill="#FF908A" d="M96.1762629,150.587326 C96.1762629,150.587326 82.3589914,151.726595 79.2227754,157.07097 C79.2227754,157.07097 76.7138026,158.043517 79.2227754,153.829148 C81.3464416,150.263144 73.8464052,152.977012 71.4449598,157.163594 C70.6517031,158.538209 70.7585383,160.275682 71.7137783,161.535422 C72.8069736,162.952562 75.1008916,164.4438 79.7783337,163.332318 C87.3321338,161.535422 103.559811,150.587326 96.1762629,150.587326 Z"/>
    <path fill="#16202D" d="M40.6785477,108.556651 C39.7552801,108.556991 38.9430047,107.939229 38.6860955,107.041326 C36.7613825,100.368602 35.8226031,93.4441982 35.9002685,86.4931626 C35.9002685,45.4972479 54.0036357,28.0162467 96.4311487,28.0162467 C136.352319,28.0162467 182.981111,43.3246744 182.981111,86.4931626 C182.981111,87.6577512 182.048696,88.6018369 180.898503,88.6018369 C179.74831,88.6018369 178.815894,87.6577512 178.815894,86.4931626 C178.815894,46.4374793 134.441007,32.2244669 96.4311487,32.2244669 C76.055845,32.2244669 62.4061946,36.1314478 53.4717141,44.5113742 C44.5372336,52.8913007 40.0654855,66.6752755 40.0654855,86.4931626 C39.9860627,93.0604059 40.8671202,99.6033862 42.6800156,105.909397 C42.8360007,106.445676 42.7743085,107.022799 42.508611,107.512866 C42.2429135,108.002934 41.7951541,108.365472 41.2645631,108.520137 C41.0718147,108.559553 40.874615,108.57184 40.6785477,108.556651 Z"/>
    <path fill="#16202D" d="M36.0842439 72.0624774C37.9418226 67.9868904 40.7662104 64.4120828 44.318922 61.6399037 46.1625153 60.2180916 48.2409122 59.1206705 50.4626919 58.3959116 52.7346673 57.7342394 55.1321428 57.6066464 57.4630893 58.0233523 58.1832256 58.1520604 58.694457 58.78832 58.6570945 59.5093667 58.6197319 60.2304134 58.0453989 60.8119293 57.3157125 60.8675246L57.1775468 60.8675246C55.3477096 60.9922763 53.5546511 61.4352639 51.8811935 62.1760256 50.2551533 63.0193873 48.7446607 64.0636922 47.3862014 65.2837154 46.0065193 66.5713849 44.7372049 67.9694657 43.5912491 69.4636491 42.4306569 70.9447995 41.2424315 72.5895125 40.2752714 74.0979234L40.1831609 74.2433124C39.5256088 75.2458438 38.1995104 75.5848556 37.1311612 75.023544 36.062812 74.4622324 35.6079249 73.1874893 36.0842439 72.0897378L36.0842439 72.0624774zM31.9077065 113.469158C33.1816233 112.490033 34.652086 111.791021 36.2208952 111.418801 38.0405464 110.949232 39.9739327 111.206852 41.6030855 112.135966 43.1877271 113.171284 44.3451812 114.733627 44.8658641 116.540097 45.0797356 117.33035 45.2504035 118.131426 45.3771257 118.939843 45.4328997 119.72137 45.4886737 120.493702 45.5258564 121.275228 45.5516836 122.419825 44.6556573 123.378694 43.5000059 123.443162 42.3443545 123.50763 41.3450074 122.654494 41.2405546 121.514283L41.2405546 121.275228C41.2405546 120.650007 41.1754849 120.024786 41.1568936 119.436342 41.1383023 118.847899 40.9895716 118.259455 40.896615 117.689401 40.702041 116.762809 40.2327937 115.914559 39.5487435 115.252877 38.7272855 114.714505 37.737564 114.486085 36.7600438 114.609267 35.4958879 114.698915 34.2473689 114.939724 33.0417777 115.326433L32.9302297 115.326433C32.6541145 115.412656 32.3546369 115.386416 32.0981453 115.253526 31.8416536 115.120637 31.6493241 114.892069 31.5637668 114.618462 31.4396969 114.201795 31.5743332 113.751897 31.9077065 113.469158L31.9077065 113.469158zM57.8568632 87.557019L51.906005 85.5522728 58.0434105 82.2324867C58.491124 72.6409718 59.0507658 66.9577923 52.4469921 68.5579108 39.7711045 71.6294026 46.3655508 103.30991 46.3655508 103.30991L58.6590165 101.351144C58.0083721 96.7825738 57.7400826 92.168969 57.8568632 87.557019L57.8568632 87.557019z"/>
    <ellipse cx="62.161" cy="116.88" fill="#16202D" rx="6.129" ry="3.94"/>
    <path fill="#16202D" d="M31.5182775 120.820064C34.9004622 120.820064 37.6468315 119.055705 37.6468315 116.875661 37.6468315 114.695616 35.712893 112.940495 32.3483699 112.940495L31.5182775 120.820064zM125.128026 148.836311C125.128026 148.836311 121.205635 155.485487 127.824126 153.344941L124.345287 156.71588 119.944556 155.544479C119.944556 155.544479 120.675112 149.308242 125.128026 148.836311zM41.3729923 100.683387C41.3729923 100.683387 42.241496 104.26324 44.6508932 103.03753L43.0166121 105.060925 41.1488624 105.060925 41.3729923 100.683387zM45.263295 56.9080011C45.263295 56.9080011 42.9679224 61.5514846 45.5264009 60.1120048L42.9951403 66.5385859 40.2733546 62.0622678 45.263295 56.9080011z"/>
    <path fill="#F3F5F5" d="M167.596316,103.489379 C172.677049,107.53497 181.824181,111.598583 188.969812,113.031209 L195.164503,122.212629 C196.604497,124.014675 176.589486,119.176183 166.455188,104.192176 C166.020473,103.570471 166.989526,103.011837 167.596316,103.489379 Z"/>
    <path fill="#16202D" d="M132.142568 87.1002448C131.834146 82.9051845 131.079339 78.7541721 129.890721 74.7163522 128.839119 70.9573757 126.853646 67.5196406 124.115821 64.7174389 121.210267 62.1230948 117.584673 60.454858 113.710107 59.9294804 109.475751 59.3279443 105.184703 59.2222187 100.925424 59.6144832L100.925424 59.6144832C100.405674 59.6366095 99.9449919 59.2854819 99.8330864 58.7819133 99.7211809 58.2783446 99.9903924 57.7678659 100.471422 57.5715009 104.847172 55.8293735 109.542243 55.0139119 114.254908 55.1775216 115.473438 55.2191572 116.687305 55.3484966 117.886921 55.5645183 118.495283 55.6635174 119.094565 55.8615157 119.702927 56.0055145L120.61093 56.2575123 121.518933 56.5815095C123.944255 57.4516283 126.172193 58.7882196 128.074715 60.5144754 129.972943 62.2252157 131.539317 64.2658044 132.69645 66.5354232 133.803777 68.7227711 134.610012 71.0474893 135.093578 73.4473632 135.55346 75.7674522 135.754429 78.1306472 135.69286 80.4943021 135.673718 82.8380836 135.368839 85.1709808 134.784857 87.4422419 134.62146 88.0664282 134.02523 88.4808454 133.377495 88.4204463 132.72976 88.3600472 132.221969 87.8426837 132.178888 87.199244L132.142568 87.1002448zM140.783916 109.816528C142.160149 110.697404 143.460123 111.686751 144.670801 112.774646 145.903434 113.919971 146.995079 115.201499 147.923655 116.593308 149.679035 119.386296 150.777452 122.524371 151.139754 125.781404 151.338659 127.306717 151.442989 128.842353 151.452175 130.379933 151.493703 131.949277 151.41384 133.519442 151.213265 135.077067 150.755099 138.230506 149.692098 141.271529 148.079866 144.041062 144.827104 149.45605 139.94406 153.762651 134.09443 156.37552 131.224986 157.706357 128.168296 158.612707 125.025031 159.064719 123.448761 159.282469 121.856704 159.372417 120.265205 159.333639L115.7351 159.208143C114.626013 159.112565 113.785208 158.190702 113.816868 157.104981 113.848527 156.01926 114.741692 155.145514 115.854555 155.111597L115.983199 155.111597C117.41666 155.219165 118.886877 155.281913 120.329527 155.299841 121.696988 155.345039 123.065806 155.26702 124.418567 155.066777 127.127631 154.615206 129.753392 153.775467 132.210715 152.574786 137.151635 150.238911 141.242696 146.485667 143.935693 141.817991 145.197708 139.532543 146.008144 137.036058 146.324795 134.458551 146.554403 131.79762 146.45878 129.119492 146.03994 126.480595 145.709177 123.999125 144.817859 121.620227 143.430306 119.515571 142.716836 118.506487 141.884112 117.582819 140.949315 116.763624 139.958144 115.918769 138.897902 115.154288 137.779161 114.477805L137.714839 114.477805C136.410599 113.663419 136.030054 111.971805 136.86487 110.699481 137.699685 109.427157 139.433732 109.055925 140.737972 109.870312L140.783916 109.816528z"/>
    <path fill="#16202D" d="M112.659836,87.9208638 L106.186356,85.6782242 L112.904631,81.9220336 C113.14036,73.2191154 112.369708,67.4140936 105.841829,67.4140936 C97.7545121,67.4140936 94.9620305,80.7776414 96.8931947,98.7925898 C97.4825171,104.228453 102.414692,107.3017 106.068491,106.747961 L106.068491,106.747961 C109.423096,106.240368 112.487573,103.314785 112.415041,100.010814 C112.269977,95.7654878 112.44224,91.6770544 112.659836,87.9208638 Z"/>
    <path fill="#8E8E8E" d="M180.354588 84.9242478L206.011106 85.4393853 214.499389 89.5604848 211.971159 98.9323712C211.971159 98.9323712 211.733852 89.3345473 202.579285 89.4881848 193.424718 89.6418223 182.55424 89.0814974 180.354588 84.9242478zM90.5491001 9.27645397L90.5491001 9.27645397C95.5807895 9.27645397 99.8923803 10.7553778 104.681036 14.0898459L107.111369 15.7616728 109.811739 14.7328562C114.190002 13.2624989 118.767402 12.5030656 123.376598 12.4823199 124.402738 12.4823199 125.464884 12.4823199 126.52703 12.6201079 126.52703 12.6201079 142.072159 13.5846234 150.587326 30.6427698 147.382887 10.2317837 126.52703 8.59670016 126.52703 8.59670016 125.464884 8.49565567 124.402738 8.45891222 123.376598 8.45891222 118.767402 8.47965785 114.190002 9.23909114 109.811739 10.7094485L107.111369 11.7382651 104.681036 10.0664381C99.8923803 6.7319701 95.5807895 5.25304626 90.5491001 5.25304626 90.0180274 5.25304626 89.4779534 5.25304626 88.9288782 5.25304626 78.6134648 5.91442835 68.9461403 12.280231 64.7875705 21.1721457 71.241619 13.5322217 80.6651918 9.18077524 90.5491001 9.27645397z"/>
    <path fill="#16202D" d="M187.938343,111.189479 C165.641523,111.189479 156.908451,88.7153159 156.818326,88.4738506 C156.486068,87.508092 156.987743,86.4551966 157.950759,86.0971448 C158.913774,85.739093 159.989167,86.2056308 160.378247,87.1502628 C160.720721,88.0445789 169.075269,109.400847 190.939492,107.263432 C205.431524,105.850412 211.938518,99.4918247 213.110138,94.4747115 C213.74101,91.7470474 212.848777,89.4128825 210.658749,88.0803515 C207.882912,86.3811509 203.052235,86.5152983 197.933159,86.6583889 C187.649945,86.9445701 174.870279,87.2933533 168.714771,73.5924309 C168.276756,72.64411 168.696397,71.5229931 169.652066,71.088346 C170.607735,70.653699 171.737539,71.0701138 172.175554,72.0184346 C177.294631,83.4120215 187.722044,83.1168972 197.815997,82.8396592 C203.51187,82.6786823 208.892308,82.5355918 212.632478,84.8160978 C216.19799,87.007726 217.89088,91.2619515 216.796233,95.279596 C214.471019,105.260163 201.610242,109.973209 191.290978,110.974843 C190.177777,111.102242 189.058812,111.173878 187.938343,111.189479 Z"/>
  </g>
</svg>
